<svg id="img13" xmlns="http://www.w3.org/2000/svg" width="400" height="36" viewBox="0 0 400 36">
  <rect id="Rectángulo_379122" data-name="Rectángulo 379122" width="400" height="36" rx="7" transform="translate(0)" fill="#c7e3d7"/>
  <g id="Grupo_1074331" data-name="Grupo 1074331" transform="translate(159 10)">
    <path id="Trazado_641879" data-name="Trazado 641879" d="M-36.512-5.945l1.773-2.508h2.477L-35.325-4.2-33.614,0h-2.234l-1.039-2.641L-38.755,0h-2.492l3.188-4.422-1.633-4.031h2.234ZM-28.2-5h-4.42l.15-.957,2.356-2.21a5.219,5.219,0,0,0,.962-1.1,1.292,1.292,0,0,0,.178-.829.619.619,0,0,0-.652-.579.932.932,0,0,0-.731.305,1.431,1.431,0,0,0-.358.825l-1.285,0a2.253,2.253,0,0,1,.369-1.126,2.264,2.264,0,0,1,.886-.786,2.57,2.57,0,0,1,1.2-.276,2.039,2.039,0,0,1,1.44.52,1.608,1.608,0,0,1,.456,1.335,3.235,3.235,0,0,1-1.107,1.96l-.656.624-1.358,1.221,2.743.009Zm12.769-.828h-6.789l.328-1.844h6.789Zm-.586,3.383h-6.789l.328-1.844h6.789ZM-2.8-11.5l-.172,1.867-.43.008A4.28,4.28,0,0,0-7.264-6.672,3.049,3.049,0,0,1-4.975-7.6a2.518,2.518,0,0,1,1.559.516,2.868,2.868,0,0,1,.934,1.367A4.677,4.677,0,0,1-2.272-3.8,4.54,4.54,0,0,1-2.94-1.762a4.039,4.039,0,0,1-1.5,1.438A3.915,3.915,0,0,1-6.451.164,3.276,3.276,0,0,1-8.369-.465,3.391,3.391,0,0,1-9.537-2.1,5.156,5.156,0,0,1-9.78-4.367l.086-.7A7.646,7.646,0,0,1-7.541-9.754,6.109,6.109,0,0,1-3.092-11.5Zm-2.93,5.7a1.734,1.734,0,0,0-1.023.282,2.541,2.541,0,0,0-.75.759l-.1.7a5.964,5.964,0,0,0-.031.767A2.062,2.062,0,0,0-7.3-2.11a1.069,1.069,0,0,0,.906.454,1.5,1.5,0,0,0,1.055-.376,2.33,2.33,0,0,0,.7-1.072,3.145,3.145,0,0,0,.148-1.37,1.68,1.68,0,0,0-.395-.967A1.117,1.117,0,0,0-5.725-5.8ZM2.236.156a2.884,2.884,0,0,1-2.281-1,4.205,4.205,0,0,1-.828-2.7A8.6,8.6,0,0,1-.811-4.7l.32-2.133a6.638,6.638,0,0,1,1.508-3.531A3.652,3.652,0,0,1,3.9-11.531a2.9,2.9,0,0,1,2.285,1,4.161,4.161,0,0,1,.832,2.691A8.673,8.673,0,0,1,6.955-6.68L6.627-4.562a6.781,6.781,0,0,1-1.5,3.551A3.63,3.63,0,0,1,2.236.156ZM4.885-8.1q0-1.552-1.094-1.606-1.578-.07-2.008,2.4L1.392-4.674A9.494,9.494,0,0,0,1.267-3.3Q1.228-1.719,2.353-1.664q1.586.1,2.016-2.472l.414-2.776A8.178,8.178,0,0,0,4.885-8.1ZM15.1-1.656a1.447,1.447,0,0,0,1.016-.332,1.632,1.632,0,0,0,.531-.926l2.07-.008a3.037,3.037,0,0,1-.559,1.6A3.394,3.394,0,0,1,16.818-.211a3.847,3.847,0,0,1-1.77.375A3.123,3.123,0,0,1,12.611-.9a3.965,3.965,0,0,1-.867-2.766l.023-.43.008-.086a5.284,5.284,0,0,1,1.391-3.27,3.761,3.761,0,0,1,2.914-1.16,3.047,3.047,0,0,1,2.27.934A3.3,3.3,0,0,1,19.174-5.3H17.119a1.73,1.73,0,0,0-.3-1.07,1.128,1.128,0,0,0-.891-.422q-1.578-.047-1.914,2.3a7.782,7.782,0,0,0-.086,1.438Q14.01-1.68,15.1-1.656Zm7.984-6.8-.18.961a3.112,3.112,0,0,1,2.477-1.109,2.379,2.379,0,0,1,1.3.359,1.679,1.679,0,0,1,.7.93A3.255,3.255,0,0,1,30-8.609a2.126,2.126,0,0,1,1.754.8,3.271,3.271,0,0,1,.5,2.234l-.016.2L31.338,0H29.127l.9-5.4a3.908,3.908,0,0,0,.023-.54.837.837,0,0,0-.937-.845,1.86,1.86,0,0,0-1.555.97l-.023.18L26.549,0h-2.2l.9-5.383a3.9,3.9,0,0,0,.023-.539.836.836,0,0,0-.93-.852,1.867,1.867,0,0,0-1.508.789L21.775,0h-2.2l1.461-8.453ZM37.489-5h-4.42l.15-.957,2.356-2.21a5.219,5.219,0,0,0,.962-1.1,1.292,1.292,0,0,0,.178-.829.619.619,0,0,0-.652-.579.932.932,0,0,0-.731.305,1.431,1.431,0,0,0-.358.825l-1.285,0a2.253,2.253,0,0,1,.369-1.126,2.264,2.264,0,0,1,.886-.786,2.57,2.57,0,0,1,1.2-.276,2.039,2.039,0,0,1,1.44.52,1.608,1.608,0,0,1,.456,1.335,3.235,3.235,0,0,1-1.107,1.96l-.656.624L34.914-6.071l2.743.009Z" transform="translate(41 15)" fill="#12263f" stroke="rgba(0,0,0,0)" stroke-width="1"/>
  </g>
</svg>
