<svg id="img15" xmlns="http://www.w3.org/2000/svg" width="400" height="36" viewBox="0 0 400 36">
  <rect id="Rectángulo_379122" data-name="Rectángulo 379122" width="400" height="36" rx="7" transform="translate(0)" fill="#c7e3d7"/>
  <g id="Grupo_1074331" data-name="Grupo 1074331" transform="translate(13 10)">
    <path id="Trazado_641881" data-name="Trazado 641881" d="M-70.263-2.844l3.828-8.531h2.625L-69.427,0h-2.391l-2.047-11.375H-71.4Zm17.445-2.984h-6.789l.328-1.844h6.789ZM-53.4-2.445h-6.789l.328-1.844h6.789Zm9.578-3.5,1.773-2.508h2.477L-42.638-4.2-40.927,0h-2.234L-44.2-2.641-46.068,0H-48.56l3.188-4.422-1.633-4.031h2.234ZM-38.02-8.9l.615,0a1.2,1.2,0,0,0,.786-.26,1.013,1.013,0,0,0,.367-.7.736.736,0,0,0-.141-.59.717.717,0,0,0-.561-.23.958.958,0,0,0-.64.2.872.872,0,0,0-.326.549l-1.285.009a1.722,1.722,0,0,1,.69-1.315,2.429,2.429,0,0,1,1.579-.5,2.168,2.168,0,0,1,1.486.524,1.6,1.6,0,0,1,.5,1.34,1.8,1.8,0,0,1-1.208,1.486,1.389,1.389,0,0,1,.654.608,1.649,1.649,0,0,1,.18.877A1.906,1.906,0,0,1-35.7-5.838a2.16,2.16,0,0,1-.9.7,2.894,2.894,0,0,1-1.221.23,2.075,2.075,0,0,1-1.449-.531,1.767,1.767,0,0,1-.551-1.379h1.276a.824.824,0,0,0,.207.6.808.808,0,0,0,.6.244,1.128,1.128,0,0,0,.766-.254,1.027,1.027,0,0,0,.374-.688.833.833,0,0,0-.162-.7.906.906,0,0,0-.672-.256l-.756,0Zm15.271,3.073h-6.789l.328-1.844h6.789Zm-.586,3.383h-6.789l.328-1.844h6.789Zm6.688-3.18,1.531-5.75H-8.9l-.3,1.883h-4.367l-.75,2.461a3.016,3.016,0,0,1,1.641-.437,2.693,2.693,0,0,1,2.262,1.035A3.855,3.855,0,0,1-9.734-3.7a4.423,4.423,0,0,1-.66,2.023A3.852,3.852,0,0,1-11.882-.3a4.108,4.108,0,0,1-2.031.461,3.613,3.613,0,0,1-1.746-.441,3.12,3.12,0,0,1-1.223-1.2,3.409,3.409,0,0,1-.445-1.7h2.164a1.7,1.7,0,0,0,.383,1.09,1.259,1.259,0,0,0,.953.41,1.545,1.545,0,0,0,1.285-.57,2.845,2.845,0,0,0,.605-1.594,2.02,2.02,0,0,0-.27-1.406,1.3,1.3,0,0,0-1.105-.531,2.195,2.195,0,0,0-1.531.609Zm9.7-3.276.615,0a1.2,1.2,0,0,0,.786-.26,1.013,1.013,0,0,0,.367-.7.736.736,0,0,0-.141-.59.717.717,0,0,0-.561-.23.958.958,0,0,0-.64.2.872.872,0,0,0-.326.549l-1.285.009a1.722,1.722,0,0,1,.69-1.315,2.429,2.429,0,0,1,1.579-.5,2.168,2.168,0,0,1,1.486.524,1.6,1.6,0,0,1,.5,1.34A1.8,1.8,0,0,1-5.084-8.381a1.389,1.389,0,0,1,.654.608,1.649,1.649,0,0,1,.18.877,1.906,1.906,0,0,1-.369,1.057,2.16,2.16,0,0,1-.9.7,2.894,2.894,0,0,1-1.221.23A2.075,2.075,0,0,1-8.192-5.44a1.767,1.767,0,0,1-.551-1.379h1.276a.824.824,0,0,0,.207.6.808.808,0,0,0,.6.244,1.128,1.128,0,0,0,.766-.254,1.027,1.027,0,0,0,.374-.688.833.833,0,0,0-.162-.7.906.906,0,0,0-.672-.256l-.756,0ZM8.327-5.828H1.538l.328-1.844H8.655ZM7.741-2.445H.952L1.28-4.289H8.07ZM18.491,0h-2.2l1.5-8.656-2.766.836.344-1.93,4.75-1.641.289-.008ZM29.8,0H22.218l.258-1.641L26.515-5.43A8.947,8.947,0,0,0,28.163-7.32a2.214,2.214,0,0,0,.3-1.422,1.061,1.061,0,0,0-1.117-.992,1.6,1.6,0,0,0-1.254.523A2.453,2.453,0,0,0,25.484-7.8l-2.2.008a3.863,3.863,0,0,1,.633-1.93,3.882,3.882,0,0,1,1.52-1.348,4.405,4.405,0,0,1,2.051-.473,3.5,3.5,0,0,1,2.469.891,2.756,2.756,0,0,1,.781,2.289A5.546,5.546,0,0,1,28.835-5L27.71-3.93,25.382-1.836l4.7.016Zm2.6-5.625,1.531-5.75h6.219l-.3,1.883H35.484l-.75,2.461a3.016,3.016,0,0,1,1.641-.437,2.693,2.693,0,0,1,2.262,1.035,3.855,3.855,0,0,1,.676,2.73,4.423,4.423,0,0,1-.66,2.023A3.852,3.852,0,0,1,37.163-.3a4.108,4.108,0,0,1-2.031.461,3.613,3.613,0,0,1-1.746-.441,3.12,3.12,0,0,1-1.223-1.2,3.409,3.409,0,0,1-.445-1.7h2.164a1.7,1.7,0,0,0,.383,1.09,1.259,1.259,0,0,0,.953.41,1.545,1.545,0,0,0,1.285-.57,2.845,2.845,0,0,0,.605-1.594,2.02,2.02,0,0,0-.27-1.406,1.3,1.3,0,0,0-1.105-.531,2.195,2.195,0,0,0-1.531.609ZM47.851-1.656a1.447,1.447,0,0,0,1.016-.332,1.632,1.632,0,0,0,.531-.926l2.07-.008a3.037,3.037,0,0,1-.559,1.6A3.394,3.394,0,0,1,49.566-.211,3.847,3.847,0,0,1,47.8.164,3.123,3.123,0,0,1,45.359-.9a3.965,3.965,0,0,1-.867-2.766l.023-.43.008-.086a5.284,5.284,0,0,1,1.391-3.27,3.761,3.761,0,0,1,2.914-1.16,3.047,3.047,0,0,1,2.27.934A3.3,3.3,0,0,1,51.921-5.3H49.866a1.73,1.73,0,0,0-.3-1.07,1.128,1.128,0,0,0-.891-.422q-1.578-.047-1.914,2.3a7.782,7.782,0,0,0-.086,1.438Q46.757-1.68,47.851-1.656Zm7.984-6.8-.18.961a3.112,3.112,0,0,1,2.477-1.109,2.379,2.379,0,0,1,1.3.359,1.679,1.679,0,0,1,.7.93,3.255,3.255,0,0,1,2.625-1.289,2.126,2.126,0,0,1,1.754.8A3.271,3.271,0,0,1,65-5.578l-.016.2L64.085,0H61.874l.9-5.4a3.908,3.908,0,0,0,.023-.54.837.837,0,0,0-.937-.845,1.86,1.86,0,0,0-1.555.97l-.023.18L59.3,0h-2.2l.9-5.383a3.9,3.9,0,0,0,.023-.539.836.836,0,0,0-.93-.852,1.867,1.867,0,0,0-1.508.789L54.523,0h-2.2L53.78-8.453Zm11.9-.44.615,0a1.2,1.2,0,0,0,.786-.26,1.013,1.013,0,0,0,.367-.7.736.736,0,0,0-.141-.59.717.717,0,0,0-.561-.23.958.958,0,0,0-.64.2.872.872,0,0,0-.326.549l-1.285.009a1.722,1.722,0,0,1,.69-1.315,2.429,2.429,0,0,1,1.579-.5,2.168,2.168,0,0,1,1.486.524,1.6,1.6,0,0,1,.5,1.34,1.8,1.8,0,0,1-1.208,1.486,1.389,1.389,0,0,1,.654.608,1.649,1.649,0,0,1,.18.877,1.906,1.906,0,0,1-.369,1.057,2.16,2.16,0,0,1-.9.7,2.894,2.894,0,0,1-1.221.23,2.075,2.075,0,0,1-1.449-.531,1.767,1.767,0,0,1-.551-1.379h1.276a.824.824,0,0,0,.207.6.808.808,0,0,0,.6.244,1.128,1.128,0,0,0,.766-.254,1.027,1.027,0,0,0,.374-.688.833.833,0,0,0-.162-.7.906.906,0,0,0-.672-.256l-.756,0Z" transform="translate(187 15)" fill="#12263f" stroke="rgba(0,0,0,0)" stroke-width="1"/>
  </g>
</svg>
