<svg xmlns="http://www.w3.org/2000/svg" xmlns:xlink="http://www.w3.org/1999/xlink" width="295" height="36" viewBox="0 0 295 36">
  <defs>
    <clipPath id="clip-path">
      <rect width="295" height="36" fill="none"/>
    </clipPath>
  </defs>
  <g id="img10" clip-path="url(#clip-path)">
    <g id="img10-2" data-name="img10" transform="translate(-724.592 -1408.676)">
      <g id="Rectángulo_379122" data-name="Rectángulo 379122" transform="translate(724.592 1408.676)" fill="#fff" stroke="#707070" stroke-width="1">
        <rect width="295" height="36" rx="7" stroke="none"/>
        <rect x="0.5" y="0.5" width="294" height="35" rx="6.5" fill="none"/>
      </g>
      <g id="Grupo_1074331" data-name="Grupo 1074331" transform="translate(803.592 1416.676)">
        <path id="Trazado_641877" data-name="Trazado 641877" d="M-61.364-2.344h-3.969L-66.5,0h-2.523l6.078-11.375h2.117L-58.669,0H-61Zm-3.031-1.9h2.742l-.641-4.234Zm18.656-1.586h-6.789l.328-1.844h6.789Zm-.586,3.383h-6.789l.328-1.844H-46ZM-35.512-3.5q.133-.625.379-1.508t.426-1.359l-.039-.07h-2.3L-38-1.992q-.117.523-.273,1.129T-38.52,0h-1.656l.078-.383a8.783,8.783,0,0,0,1.531-3.844l.516-2.211h-.25a2.118,2.118,0,0,0-.937.188,2.7,2.7,0,0,0-.836.75l-.492-.414q.406-.492.664-.75A3.126,3.126,0,0,1-39.36-7.1a2.287,2.287,0,0,1,.641-.273,3.284,3.284,0,0,1,.832-.094h6.414L-31.7-6.437h-1.859l-.883,3.914a5.792,5.792,0,0,0-.172,1.156.787.787,0,0,0,.1.453.368.368,0,0,0,.32.141q.469,0,1.1-.75l.453.422a5.025,5.025,0,0,1-1.082.938,2.014,2.014,0,0,1-1.043.289A1.033,1.033,0,0,1-35.6-.238a1.44,1.44,0,0,1-.3-.957,7.655,7.655,0,0,1,.219-1.516Zm8.617.484,2.758-2.445-1.906-2.445,1.406-1.211L-22.747-6.7l2.719-2.43L-18.872-7.7-21.63-5.25l1.906,2.438-1.4,1.219-1.9-2.422L-25.739-1.6Zm15.367-3.672,1.055.008a2.055,2.055,0,0,0,1.348-.445A1.737,1.737,0,0,0-8.5-8.32a1.261,1.261,0,0,0-.242-1.012A1.23,1.23,0,0,0-9.7-9.727a1.642,1.642,0,0,0-1.1.348,1.494,1.494,0,0,0-.559.941l-2.2.016a2.952,2.952,0,0,1,1.184-2.254,4.165,4.165,0,0,1,2.707-.863,3.716,3.716,0,0,1,2.547.9,2.739,2.739,0,0,1,.852,2.3A3.078,3.078,0,0,1-8.34-5.8,2.381,2.381,0,0,1-7.219-4.754a2.826,2.826,0,0,1,.309,1.5,3.267,3.267,0,0,1-.633,1.813A3.7,3.7,0,0,1-9.09-.238a4.962,4.962,0,0,1-2.094.395,3.557,3.557,0,0,1-2.484-.91,3.03,3.03,0,0,1-.945-2.363h2.188a1.412,1.412,0,0,0,.355,1.035,1.385,1.385,0,0,0,1.035.418A1.933,1.933,0,0,0-9.723-2.1a1.761,1.761,0,0,0,.641-1.179,1.428,1.428,0,0,0-.277-1.2,1.553,1.553,0,0,0-1.152-.439l-1.3-.008ZM-1.416-5h-4.42l.15-.957,2.356-2.21a5.219,5.219,0,0,0,.962-1.1A1.292,1.292,0,0,0-2.19-10.1a.619.619,0,0,0-.652-.579.932.932,0,0,0-.731.305,1.431,1.431,0,0,0-.358.825l-1.285,0a2.253,2.253,0,0,1,.369-1.126,2.264,2.264,0,0,1,.886-.786,2.57,2.57,0,0,1,1.2-.276,2.039,2.039,0,0,1,1.44.52A1.608,1.608,0,0,1-.869-9.876a3.235,3.235,0,0,1-1.107,1.96l-.656.624L-3.99-6.071l2.743.009Zm12.769-.828H4.564l.328-1.844h6.789Zm-.586,3.383H3.978l.328-1.844H11.1ZM22.213-4.555a2.919,2.919,0,0,1-2.055.875,2.618,2.618,0,0,1-1.594-.5,2.88,2.88,0,0,1-.973-1.371,4.375,4.375,0,0,1-.223-1.9,4.716,4.716,0,0,1,.8-2.273,4.133,4.133,0,0,1,1.789-1.5,3.737,3.737,0,0,1,1.594-.3,2.925,2.925,0,0,1,2.242.984,4.19,4.19,0,0,1,.945,2.555,7.062,7.062,0,0,1-.023,1.1l-.086.672a7.587,7.587,0,0,1-2.121,4.656A6.149,6.149,0,0,1,18.049.117h-.164l.172-1.891h.117A4.212,4.212,0,0,0,20.7-2.441,4.236,4.236,0,0,0,22.213-4.555ZM20.767-5.4a1.956,1.956,0,0,0,1.656-.959l.133-.944a6.308,6.308,0,0,0,.039-.741,2.247,2.247,0,0,0-.312-1.2,1,1,0,0,0-.859-.468,1.432,1.432,0,0,0-1.012.4,2.536,2.536,0,0,0-.68,1.119,3.519,3.519,0,0,0-.168,1.411,1.741,1.741,0,0,0,.371,1A1.059,1.059,0,0,0,20.767-5.4Zm9.8,1.9q.133-.625.379-1.508t.426-1.359l-.039-.07h-2.3l-.961,4.445q-.117.523-.273,1.129T27.556,0H25.9l.078-.383A8.783,8.783,0,0,0,27.51-4.227l.516-2.211h-.25a2.118,2.118,0,0,0-.937.188A2.7,2.7,0,0,0,26-5.5l-.492-.414q.406-.492.664-.75a3.126,3.126,0,0,1,.543-.437,2.287,2.287,0,0,1,.641-.273,3.284,3.284,0,0,1,.832-.094H34.6l-.227,1.031H32.517l-.883,3.914a5.792,5.792,0,0,0-.172,1.156.787.787,0,0,0,.1.453.368.368,0,0,0,.32.141q.469,0,1.1-.75l.453.422a5.025,5.025,0,0,1-1.082.938,2.014,2.014,0,0,1-1.043.289,1.033,1.033,0,0,1-.836-.363,1.44,1.44,0,0,1-.3-.957,7.655,7.655,0,0,1,.219-1.516ZM42.713-1.656a1.447,1.447,0,0,0,1.016-.332,1.632,1.632,0,0,0,.531-.926l2.07-.008a3.037,3.037,0,0,1-.559,1.6A3.394,3.394,0,0,1,44.427-.211a3.847,3.847,0,0,1-1.77.375A3.123,3.123,0,0,1,40.22-.9a3.965,3.965,0,0,1-.867-2.766l.023-.43.008-.086a5.284,5.284,0,0,1,1.391-3.27,3.761,3.761,0,0,1,2.914-1.16,3.047,3.047,0,0,1,2.27.934A3.3,3.3,0,0,1,46.783-5.3H44.728a1.73,1.73,0,0,0-.3-1.07,1.128,1.128,0,0,0-.891-.422q-1.578-.047-1.914,2.3a7.782,7.782,0,0,0-.086,1.438Q41.619-1.68,42.713-1.656Zm7.984-6.8-.18.961a3.112,3.112,0,0,1,2.477-1.109,2.379,2.379,0,0,1,1.3.359,1.679,1.679,0,0,1,.7.93,3.255,3.255,0,0,1,2.625-1.289,2.126,2.126,0,0,1,1.754.8,3.271,3.271,0,0,1,.5,2.234l-.016.2L58.947,0H56.736l.9-5.4a3.908,3.908,0,0,0,.023-.54.837.837,0,0,0-.937-.845,1.86,1.86,0,0,0-1.555.97l-.023.18L54.158,0h-2.2l.9-5.383a3.9,3.9,0,0,0,.023-.539.836.836,0,0,0-.93-.852,1.867,1.867,0,0,0-1.508.789L49.385,0h-2.2l1.461-8.453ZM65.1-5h-4.42l.15-.957,2.356-2.21a5.219,5.219,0,0,0,.962-1.1,1.292,1.292,0,0,0,.178-.829.619.619,0,0,0-.652-.579.932.932,0,0,0-.731.305,1.431,1.431,0,0,0-.358.825l-1.285,0a2.253,2.253,0,0,1,.369-1.126,2.264,2.264,0,0,1,.886-.786,2.57,2.57,0,0,1,1.2-.276,2.039,2.039,0,0,1,1.44.52,1.608,1.608,0,0,1,.456,1.335,3.235,3.235,0,0,1-1.107,1.96l-.656.624L62.524-6.071l2.743.009Z" transform="translate(69 17)" fill="#12263f" stroke="rgba(0,0,0,0)" stroke-width="1"/>
      </g>
    </g>
  </g>
</svg>
