<svg id="img14" xmlns="http://www.w3.org/2000/svg" width="400" height="36" viewBox="0 0 400 36">
  <rect id="Rectángulo_379122" data-name="Rectángulo 379122" width="400" height="36" rx="7" transform="translate(0)" fill="#c7e3d7"/>
  <g id="Grupo_1074331" data-name="Grupo 1074331" transform="translate(168 10)">
    <path id="Trazado_641880" data-name="Trazado 641880" d="M-27.6-5.945l1.773-2.508h2.477L-26.414-4.2-24.7,0h-2.234l-1.039-2.641L-29.844,0h-2.492l3.188-4.422-1.633-4.031h2.234Zm15.836.117h-6.789l.328-1.844h6.789Zm-.586,3.383h-6.789l.328-1.844h6.789Zm6.688-3.18,1.531-5.75H2.086l-.3,1.883H-2.578l-.75,2.461a3.016,3.016,0,0,1,1.641-.437A2.693,2.693,0,0,1,.574-6.434,3.855,3.855,0,0,1,1.25-3.7,4.423,4.423,0,0,1,.59-1.68,3.852,3.852,0,0,1-.9-.3,4.108,4.108,0,0,1-2.93.164,3.613,3.613,0,0,1-4.676-.277,3.12,3.12,0,0,1-5.9-1.473a3.409,3.409,0,0,1-.445-1.7H-4.18A1.7,1.7,0,0,0-3.8-2.082a1.259,1.259,0,0,0,.953.41,1.545,1.545,0,0,0,1.285-.57A2.845,2.845,0,0,0-.953-3.836a2.02,2.02,0,0,0-.27-1.406,1.3,1.3,0,0,0-1.105-.531,2.195,2.195,0,0,0-1.531.609ZM9.789-1.656A1.447,1.447,0,0,0,10.8-1.988a1.632,1.632,0,0,0,.531-.926l2.07-.008a3.037,3.037,0,0,1-.559,1.6A3.394,3.394,0,0,1,11.5-.211a3.847,3.847,0,0,1-1.77.375A3.123,3.123,0,0,1,7.3-.9,3.965,3.965,0,0,1,6.43-3.664l.023-.43.008-.086a5.284,5.284,0,0,1,1.391-3.27,3.761,3.761,0,0,1,2.914-1.16,3.047,3.047,0,0,1,2.27.934A3.3,3.3,0,0,1,13.859-5.3H11.8a1.73,1.73,0,0,0-.3-1.07,1.128,1.128,0,0,0-.891-.422Q9.039-6.836,8.7-4.484a7.782,7.782,0,0,0-.086,1.438Q8.7-1.68,9.789-1.656Zm7.984-6.8-.18.961A3.112,3.112,0,0,1,20.07-8.609a2.379,2.379,0,0,1,1.3.359,1.679,1.679,0,0,1,.7.93,3.255,3.255,0,0,1,2.625-1.289,2.126,2.126,0,0,1,1.754.8,3.271,3.271,0,0,1,.5,2.234l-.016.2L26.023,0H23.813l.9-5.4a3.908,3.908,0,0,0,.023-.54.837.837,0,0,0-.937-.845,1.86,1.86,0,0,0-1.555.97l-.023.18L21.234,0h-2.2l.9-5.383a3.9,3.9,0,0,0,.023-.539.836.836,0,0,0-.93-.852,1.867,1.867,0,0,0-1.508.789L16.461,0h-2.2l1.461-8.453Z" transform="translate(32 15)" fill="#12263f" stroke="rgba(0,0,0,0)" stroke-width="1"/>
  </g>
</svg>
