<svg id="img12" xmlns="http://www.w3.org/2000/svg" width="400" height="36" viewBox="0 0 400 36">
  <rect id="Rectángulo_379122" data-name="Rectángulo 379122" width="400" height="36" rx="7" transform="translate(0)" fill="#c7e3d7"/>
  <g id="Grupo_1074331" data-name="Grupo 1074331" transform="translate(150 10)">
    <path id="Trazado_641878" data-name="Trazado 641878" d="M-41.848-11.5l-.172,1.867-.43.008a4.28,4.28,0,0,0-3.867,2.953,3.049,3.049,0,0,1,2.289-.93,2.518,2.518,0,0,1,1.559.516,2.868,2.868,0,0,1,.934,1.367A4.677,4.677,0,0,1-41.325-3.8a4.54,4.54,0,0,1-.668,2.043A4.039,4.039,0,0,1-43.5-.324,3.915,3.915,0,0,1-45.5.164a3.276,3.276,0,0,1-1.918-.629A3.391,3.391,0,0,1-48.59-2.1a5.156,5.156,0,0,1-.242-2.266l.086-.7a7.646,7.646,0,0,1,2.152-4.684A6.109,6.109,0,0,1-42.145-11.5Zm-2.93,5.7a1.734,1.734,0,0,0-1.023.282,2.541,2.541,0,0,0-.75.759l-.1.7a5.964,5.964,0,0,0-.031.767,2.062,2.062,0,0,0,.336,1.182,1.069,1.069,0,0,0,.906.454,1.5,1.5,0,0,0,1.055-.376,2.33,2.33,0,0,0,.7-1.072,3.145,3.145,0,0,0,.148-1.37,1.68,1.68,0,0,0-.395-.967A1.117,1.117,0,0,0-44.778-5.8Zm8.266-.141,1.773-2.508h2.477L-35.325-4.2-33.614,0h-2.234l-1.039-2.641L-38.755,0h-2.492l3.188-4.422-1.633-4.031h2.234ZM-28.2-5h-4.42l.15-.957,2.356-2.21a5.219,5.219,0,0,0,.962-1.1,1.292,1.292,0,0,0,.178-.829.619.619,0,0,0-.652-.579.932.932,0,0,0-.731.305,1.431,1.431,0,0,0-.358.825l-1.285,0a2.253,2.253,0,0,1,.369-1.126,2.264,2.264,0,0,1,.886-.786,2.57,2.57,0,0,1,1.2-.276,2.039,2.039,0,0,1,1.44.52,1.608,1.608,0,0,1,.456,1.335,3.235,3.235,0,0,1-1.107,1.96l-.656.624-1.358,1.221,2.743.009Zm12.769-.828h-6.789l.328-1.844h6.789Zm-.586,3.383h-6.789l.328-1.844h6.789ZM-7.24-6.687l1.055.008a2.055,2.055,0,0,0,1.348-.445,1.737,1.737,0,0,0,.629-1.2,1.261,1.261,0,0,0-.242-1.012,1.23,1.23,0,0,0-.961-.395,1.642,1.642,0,0,0-1.1.348,1.494,1.494,0,0,0-.559.941l-2.2.016a2.952,2.952,0,0,1,1.184-2.254,4.165,4.165,0,0,1,2.707-.863,3.716,3.716,0,0,1,2.547.9,2.739,2.739,0,0,1,.852,2.3A3.078,3.078,0,0,1-4.053-5.8,2.381,2.381,0,0,1-2.932-4.754a2.826,2.826,0,0,1,.309,1.5,3.267,3.267,0,0,1-.633,1.813A3.7,3.7,0,0,1-4.8-.238,4.962,4.962,0,0,1-6.9.156a3.557,3.557,0,0,1-2.484-.91,3.03,3.03,0,0,1-.945-2.363h2.187a1.412,1.412,0,0,0,.355,1.035,1.385,1.385,0,0,0,1.035.418A1.933,1.933,0,0,0-5.436-2.1,1.761,1.761,0,0,0-4.8-3.277a1.428,1.428,0,0,0-.277-1.2,1.553,1.553,0,0,0-1.152-.439l-1.3-.008ZM6.189-11.5,6.017-9.633l-.43.008A4.28,4.28,0,0,0,1.72-6.672,3.049,3.049,0,0,1,4.01-7.6a2.518,2.518,0,0,1,1.559.516A2.868,2.868,0,0,1,6.5-5.719,4.677,4.677,0,0,1,6.713-3.8a4.54,4.54,0,0,1-.668,2.043,4.039,4.039,0,0,1-1.5,1.438A3.915,3.915,0,0,1,2.533.164,3.276,3.276,0,0,1,.615-.465,3.391,3.391,0,0,1-.553-2.1,5.156,5.156,0,0,1-.8-4.367l.086-.7A7.646,7.646,0,0,1,1.443-9.754,6.109,6.109,0,0,1,5.892-11.5ZM3.26-5.8a1.734,1.734,0,0,0-1.023.282,2.541,2.541,0,0,0-.75.759l-.1.7a5.964,5.964,0,0,0-.031.767A2.062,2.062,0,0,0,1.689-2.11a1.069,1.069,0,0,0,.906.454A1.5,1.5,0,0,0,3.65-2.032a2.33,2.33,0,0,0,.7-1.072A3.145,3.145,0,0,0,4.5-4.474a1.68,1.68,0,0,0-.395-.967A1.117,1.117,0,0,0,3.26-5.8ZM11.22.156a2.884,2.884,0,0,1-2.281-1,4.205,4.205,0,0,1-.828-2.7A8.6,8.6,0,0,1,8.174-4.7l.32-2.133A6.638,6.638,0,0,1,10-10.367a3.652,3.652,0,0,1,2.883-1.164,2.9,2.9,0,0,1,2.285,1A4.161,4.161,0,0,1,16-7.844a8.673,8.673,0,0,1-.063,1.164l-.328,2.117a6.781,6.781,0,0,1-1.5,3.551A3.63,3.63,0,0,1,11.22.156ZM13.869-8.1q0-1.552-1.094-1.606-1.578-.07-2.008,2.4l-.391,2.635A9.495,9.495,0,0,0,10.252-3.3q-.039,1.583,1.086,1.637,1.586.1,2.016-2.472l.414-2.776A8.178,8.178,0,0,0,13.869-8.1ZM24.088-1.656A1.447,1.447,0,0,0,25.1-1.988a1.632,1.632,0,0,0,.531-.926l2.07-.008a3.037,3.037,0,0,1-.559,1.6A3.394,3.394,0,0,1,25.8-.211a3.847,3.847,0,0,1-1.77.375A3.123,3.123,0,0,1,21.6-.9a3.965,3.965,0,0,1-.867-2.766l.023-.43.008-.086a5.284,5.284,0,0,1,1.391-3.27,3.761,3.761,0,0,1,2.914-1.16,3.047,3.047,0,0,1,2.27.934A3.3,3.3,0,0,1,28.158-5.3H26.1a1.73,1.73,0,0,0-.3-1.07,1.128,1.128,0,0,0-.891-.422Q23.338-6.836,23-4.484a7.782,7.782,0,0,0-.086,1.438Q22.994-1.68,24.088-1.656Zm7.984-6.8-.18.961a3.112,3.112,0,0,1,2.477-1.109,2.379,2.379,0,0,1,1.3.359,1.679,1.679,0,0,1,.7.93,3.255,3.255,0,0,1,2.625-1.289,2.126,2.126,0,0,1,1.754.8,3.271,3.271,0,0,1,.5,2.234l-.016.2L40.322,0H38.111l.9-5.4a3.908,3.908,0,0,0,.023-.54.837.837,0,0,0-.937-.845,1.86,1.86,0,0,0-1.555.97l-.023.18L35.533,0h-2.2l.9-5.383a3.9,3.9,0,0,0,.023-.539.836.836,0,0,0-.93-.852,1.867,1.867,0,0,0-1.508.789L30.76,0h-2.2l1.461-8.453ZM46.473-5h-4.42l.15-.957,2.356-2.21a5.219,5.219,0,0,0,.962-1.1A1.292,1.292,0,0,0,45.7-10.1a.619.619,0,0,0-.652-.579.932.932,0,0,0-.731.305,1.431,1.431,0,0,0-.358.825l-1.285,0a2.253,2.253,0,0,1,.369-1.126,2.264,2.264,0,0,1,.886-.786,2.57,2.57,0,0,1,1.2-.276,2.039,2.039,0,0,1,1.44.52,1.608,1.608,0,0,1,.456,1.335,3.235,3.235,0,0,1-1.107,1.96l-.656.624L43.9-6.071l2.743.009Z" transform="translate(50 15)" fill="#12263f" stroke="rgba(0,0,0,0)" stroke-width="1"/>
  </g>
</svg>
