<svg xmlns="http://www.w3.org/2000/svg" width="505" height="64" viewBox="0 0 505 64">
  <g id="img4" transform="translate(-600 -1409)">
    <g id="Rectángulo_379122" data-name="Rectángulo 379122" transform="translate(600 1409)" fill="#fff" stroke="#707070" stroke-width="1">
      <rect width="505" height="64" rx="7" stroke="none"/>
      <rect x="0.5" y="0.5" width="504" height="63" rx="6.5" fill="none"/>
    </g>
    <g id="Grupo_1074331" data-name="Grupo 1074331" transform="translate(680 1417)">
      <path id="Trazado_641871" data-name="Trazado 641871" d="M-47.82-4.008-48.523,0h-2.289l1.977-11.375,3.984.008a3.986,3.986,0,0,1,2.9,1.023,3.174,3.174,0,0,1,.922,2.672A3.592,3.592,0,0,1-42.426-5a5.075,5.075,0,0,1-3.238,1Zm.32-1.9,1.906.016a2.41,2.41,0,0,0,1.531-.477,1.918,1.918,0,0,0,.727-1.289,1.646,1.646,0,0,0-.262-1.3,1.418,1.418,0,0,0-1.121-.516l-2.156-.008Zm12.422-.43a4.548,4.548,0,0,0-.742-.078,2.136,2.136,0,0,0-1.867.883L-38.664,0h-2.2L-39.4-8.453l2.07-.008-.2,1.031a2.325,2.325,0,0,1,1.969-1.2,3.214,3.214,0,0,1,.766.109Zm4.508-2.273a3.39,3.39,0,0,1,1.926.574A3.234,3.234,0,0,1-27.457-6.5a4.762,4.762,0,0,1,.27,2.176,5.143,5.143,0,0,1-1.4,3.262A3.96,3.96,0,0,1-31.609.156,3.38,3.38,0,0,1-33.516-.41,3.222,3.222,0,0,1-34.7-1.937a4.657,4.657,0,0,1-.273-2.156,5.3,5.3,0,0,1,1.422-3.328A3.878,3.878,0,0,1-30.57-8.609ZM-32.8-3.294a1.95,1.95,0,0,0,.352,1.182,1.168,1.168,0,0,0,.945.449A1.712,1.712,0,0,0-29.906-2.6a4.647,4.647,0,0,0,.539-2.531,2.122,2.122,0,0,0-.363-1.2,1.149,1.149,0,0,0-.949-.464,1.715,1.715,0,0,0-1.574.924A4.6,4.6,0,0,0-32.8-3.294ZM-18.43-4.2A6.061,6.061,0,0,1-19.648-1,3.033,3.033,0,0,1-22.2.164,2.357,2.357,0,0,1-24.227-.914l-.32.914h-2.008l2.078-12h2.211l-.852,4.32a2.634,2.634,0,0,1,2.063-.93,2.385,2.385,0,0,1,1.926.879,3.89,3.89,0,0,1,.746,2.387A9.133,9.133,0,0,1-18.43-4.2Zm-2.187-.165A6.554,6.554,0,0,0-20.57-5.4q-.086-1.364-1.125-1.387a1.833,1.833,0,0,0-1.617.885l-.609,3.37a1.258,1.258,0,0,0,1.266.878q1.625.047,1.992-2.367ZM-12.852,0a2.281,2.281,0,0,1-.086-.766,2.863,2.863,0,0,1-2.156.922,2.594,2.594,0,0,1-1.84-.723,2.186,2.186,0,0,1-.684-1.746,2.527,2.527,0,0,1,1.16-2.121,5.266,5.266,0,0,1,2.965-.738l1.031.016.109-.508a1.764,1.764,0,0,0,.023-.492.846.846,0,0,0-.277-.574.955.955,0,0,0-.629-.215,1.345,1.345,0,0,0-.875.254,1.231,1.231,0,0,0-.461.777l-2.211.008a2.457,2.457,0,0,1,1.113-1.965,4.312,4.312,0,0,1,2.613-.738,3.117,3.117,0,0,1,2.25.855,2.5,2.5,0,0,1,.68,2.121l-.648,4.047-.039.5a2.412,2.412,0,0,0,.133.938L-10.687,0Zm-1.7-1.555a2.017,2.017,0,0,0,1.664-.828l.273-1.461-.766-.008a2.139,2.139,0,0,0-1.758.742,1.292,1.292,0,0,0-.242.633.75.75,0,0,0,.176.668A.891.891,0,0,0-14.547-1.555ZM-1.219-4.2A6.061,6.061,0,0,1-2.437-1,3.033,3.033,0,0,1-4.984.164,2.357,2.357,0,0,1-7.016-.914L-7.336,0H-9.344l2.078-12h2.211l-.852,4.32a2.634,2.634,0,0,1,2.063-.93,2.385,2.385,0,0,1,1.926.879,3.89,3.89,0,0,1,.746,2.387A9.133,9.133,0,0,1-1.219-4.2Zm-2.187-.165A6.554,6.554,0,0,0-3.359-5.4q-.086-1.364-1.125-1.387A1.833,1.833,0,0,0-6.1-5.9l-.609,3.37a1.258,1.258,0,0,0,1.266.878q1.625.047,1.992-2.367ZM1.8,0H-.422L1.047-8.453H3.266ZM1.3-10.6a1.1,1.1,0,0,1,.344-.867,1.209,1.209,0,0,1,.867-.344,1.215,1.215,0,0,1,.867.3,1.1,1.1,0,0,1,.383.828,1.132,1.132,0,0,1-.324.844,1.215,1.215,0,0,1-.887.375,1.235,1.235,0,0,1-.863-.3A1.091,1.091,0,0,1,1.3-10.6ZM5.992,0H3.773L5.859-12H8.07Zm4.2,0H7.969L9.438-8.453h2.219ZM9.7-10.6a1.1,1.1,0,0,1,.344-.867,1.209,1.209,0,0,1,.867-.344,1.215,1.215,0,0,1,.867.3,1.1,1.1,0,0,1,.383.828,1.132,1.132,0,0,1-.324.844,1.215,1.215,0,0,1-.887.375,1.235,1.235,0,0,1-.863-.3A1.091,1.091,0,0,1,9.7-10.6ZM16.25-8.617a2.4,2.4,0,0,1,1.906.945L18.984-12H21.2L19.117,0H17.148l.125-.906a2.736,2.736,0,0,1-2.2,1.07A2.433,2.433,0,0,1,13.688-.25a2.607,2.607,0,0,1-.918-1.168,4.7,4.7,0,0,1-.355-1.7,6.4,6.4,0,0,1,.023-.953l.047-.352A6.767,6.767,0,0,1,13.207-6.7,3.766,3.766,0,0,1,14.52-8.164,3.094,3.094,0,0,1,16.25-8.617Zm-1.6,4.547a6.327,6.327,0,0,0-.039,1q.078,1.375,1.109,1.4a1.885,1.885,0,0,0,1.617-.875l.6-3.359a1.248,1.248,0,0,0-1.219-.875,1.606,1.606,0,0,0-1.34.621A4.176,4.176,0,0,0,14.648-4.07ZM25.766,0a2.281,2.281,0,0,1-.086-.766,2.863,2.863,0,0,1-2.156.922,2.594,2.594,0,0,1-1.84-.723A2.186,2.186,0,0,1,21-2.312a2.527,2.527,0,0,1,1.16-2.121,5.266,5.266,0,0,1,2.965-.738l1.031.016.109-.508a1.764,1.764,0,0,0,.023-.492.846.846,0,0,0-.277-.574.955.955,0,0,0-.629-.215,1.345,1.345,0,0,0-.875.254,1.231,1.231,0,0,0-.461.777l-2.211.008a2.457,2.457,0,0,1,1.113-1.965,4.312,4.312,0,0,1,2.613-.738,3.117,3.117,0,0,1,2.25.855,2.5,2.5,0,0,1,.68,2.121l-.648,4.047-.039.5a2.412,2.412,0,0,0,.133.938L27.93,0Zm-1.7-1.555a2.017,2.017,0,0,0,1.664-.828l.273-1.461-.766-.008a2.139,2.139,0,0,0-1.758.742,1.292,1.292,0,0,0-.242.633.75.75,0,0,0,.176.668A.891.891,0,0,0,24.07-1.555Zm9.4-7.062a2.4,2.4,0,0,1,1.906.945L36.2-12h2.211L36.336,0H34.367l.125-.906a2.736,2.736,0,0,1-2.2,1.07A2.433,2.433,0,0,1,30.906-.25a2.607,2.607,0,0,1-.918-1.168,4.7,4.7,0,0,1-.355-1.7,6.4,6.4,0,0,1,.023-.953l.047-.352A6.767,6.767,0,0,1,30.426-6.7a3.766,3.766,0,0,1,1.313-1.461A3.094,3.094,0,0,1,33.469-8.617Zm-1.6,4.547a6.327,6.327,0,0,0-.039,1q.078,1.375,1.109,1.4a1.885,1.885,0,0,0,1.617-.875l.6-3.359a1.248,1.248,0,0,0-1.219-.875,1.606,1.606,0,0,0-1.34.621A4.176,4.176,0,0,0,31.867-4.07ZM50.023-5.828H43.234l.328-1.844h6.789Zm-.586,3.383H42.648l.328-1.844h6.789Z" transform="translate(107 30)" fill="#12263f" stroke="rgba(0,0,0,0)" stroke-width="1"/>
      <path id="Trazado_641874" data-name="Trazado 641874" d="M-25.172-5.828h-6.789l.328-1.844h6.789Zm-.586,3.383h-6.789l.328-1.844h6.789Zm13.219,2.6a2.884,2.884,0,0,1-2.281-1,4.205,4.205,0,0,1-.828-2.7A8.6,8.6,0,0,1-15.586-4.7l.32-2.133a6.638,6.638,0,0,1,1.508-3.531,3.652,3.652,0,0,1,2.883-1.164,2.9,2.9,0,0,1,2.285,1,4.161,4.161,0,0,1,.832,2.691A8.673,8.673,0,0,1-7.82-6.68l-.328,2.117a6.781,6.781,0,0,1-1.5,3.551A3.63,3.63,0,0,1-12.539.156ZM-9.891-8.1q0-1.552-1.094-1.606-1.578-.07-2.008,2.4l-.391,2.635A9.495,9.495,0,0,0-13.508-3.3q-.039,1.583,1.086,1.637,1.586.1,2.016-2.472l.414-2.776A8.178,8.178,0,0,0-9.891-8.1Zm4.109,5.777A1.22,1.22,0,0,1-4.887-2a1.111,1.111,0,0,1,.371.855,1.151,1.151,0,0,1-.344.879,1.194,1.194,0,0,1-.883.363,1.2,1.2,0,0,1-.883-.312A1.149,1.149,0,0,1-7-1.07a1.161,1.161,0,0,1,.336-.883A1.238,1.238,0,0,1-5.781-2.328ZM2.508,0H.3L1.8-8.656-.961-7.82l.344-1.93,4.75-1.641.289-.008ZM13.969-11.5,13.8-9.633l-.43.008A4.28,4.28,0,0,0,9.5-6.672a3.049,3.049,0,0,1,2.289-.93,2.518,2.518,0,0,1,1.559.516,2.868,2.868,0,0,1,.934,1.367A4.677,4.677,0,0,1,14.492-3.8a4.54,4.54,0,0,1-.668,2.043,4.039,4.039,0,0,1-1.5,1.438,3.915,3.915,0,0,1-2.008.488A3.276,3.276,0,0,1,8.395-.465,3.391,3.391,0,0,1,7.227-2.1a5.156,5.156,0,0,1-.242-2.266l.086-.7A7.646,7.646,0,0,1,9.223-9.754,6.109,6.109,0,0,1,13.672-11.5Zm-2.93,5.7a1.734,1.734,0,0,0-1.023.282,2.541,2.541,0,0,0-.75.759l-.1.7a5.964,5.964,0,0,0-.031.767A2.062,2.062,0,0,0,9.469-2.11a1.069,1.069,0,0,0,.906.454,1.5,1.5,0,0,0,1.055-.376,2.33,2.33,0,0,0,.7-1.072,3.145,3.145,0,0,0,.148-1.37,1.68,1.68,0,0,0-.395-.967A1.117,1.117,0,0,0,11.039-5.8Zm11.914-5.7-.172,1.867-.43.008a4.28,4.28,0,0,0-3.867,2.953,3.049,3.049,0,0,1,2.289-.93,2.518,2.518,0,0,1,1.559.516,2.868,2.868,0,0,1,.934,1.367A4.677,4.677,0,0,1,23.477-3.8a4.54,4.54,0,0,1-.668,2.043A4.039,4.039,0,0,1,21.3-.324,3.915,3.915,0,0,1,19.3.164a3.276,3.276,0,0,1-1.918-.629A3.391,3.391,0,0,1,16.211-2.1a5.156,5.156,0,0,1-.242-2.266l.086-.7a7.646,7.646,0,0,1,2.152-4.684A6.109,6.109,0,0,1,22.656-11.5Zm-2.93,5.7A1.734,1.734,0,0,0,19-5.523a2.541,2.541,0,0,0-.75.759l-.1.7a5.964,5.964,0,0,0-.031.767,2.062,2.062,0,0,0,.336,1.182,1.069,1.069,0,0,0,.906.454,1.5,1.5,0,0,0,1.055-.376,2.33,2.33,0,0,0,.7-1.072,3.145,3.145,0,0,0,.148-1.37,1.68,1.68,0,0,0-.395-.967A1.117,1.117,0,0,0,20.023-5.8ZM33.289-10,27.508,0h-2.43l5.766-9.555H25.406l.289-1.82h7.8Z" transform="translate(250 30)" fill="#12263f" stroke="rgba(0,0,0,0)" stroke-width="1"/>
      <path id="Trazado_641872" data-name="Trazado 641872" d="M.773,0h-2.2L.07-8.656-2.7-7.82l.344-1.93L2.4-11.391l.289-.008Z" transform="translate(188 15)" fill="#12263f" stroke="rgba(0,0,0,0)" stroke-width="1"/>
      <path id="Trazado_641873" data-name="Trazado 641873" d="M3.25-11.5,3.078-9.633l-.43.008A4.28,4.28,0,0,0-1.219-6.672,3.049,3.049,0,0,1,1.07-7.6a2.518,2.518,0,0,1,1.559.516,2.868,2.868,0,0,1,.934,1.367A4.677,4.677,0,0,1,3.773-3.8a4.54,4.54,0,0,1-.668,2.043A4.039,4.039,0,0,1,1.6-.324,3.915,3.915,0,0,1-.406.164,3.276,3.276,0,0,1-2.324-.465,3.391,3.391,0,0,1-3.492-2.1a5.156,5.156,0,0,1-.242-2.266l.086-.7A7.646,7.646,0,0,1-1.5-9.754,6.109,6.109,0,0,1,2.953-11.5ZM.32-5.8A1.734,1.734,0,0,0-.7-5.523a2.541,2.541,0,0,0-.75.759l-.1.7a5.964,5.964,0,0,0-.031.767A2.062,2.062,0,0,0-1.25-2.11a1.069,1.069,0,0,0,.906.454A1.5,1.5,0,0,0,.711-2.032a2.33,2.33,0,0,0,.7-1.072,3.145,3.145,0,0,0,.148-1.37,1.68,1.68,0,0,0-.395-.967A1.117,1.117,0,0,0,.32-5.8Z" transform="translate(188 45)" fill="#12263f" stroke="rgba(0,0,0,0)" stroke-width="1"/>
      <line id="Línea_2920" data-name="Línea 2920" x2="23" transform="translate(179 24)" fill="none" stroke="#707070" stroke-width="1"/>
    </g>
  </g>
</svg>
