<svg xmlns="http://www.w3.org/2000/svg" width="400" height="38" viewBox="0 0 400 38">
  <g id="img7" transform="translate(-550 -1409)">
    <rect id="Rectángulo_379122" data-name="Rectángulo 379122" width="400" height="38" rx="7" transform="translate(550 1409)" fill="#c7e3d7"/>
    <g id="Grupo_1074331" data-name="Grupo 1074331" transform="translate(633 1419)">
      <path id="Trazado_641875" data-name="Trazado 641875" d="M-107.707-10l-5.781,10h-2.43l5.766-9.555h-5.437l.289-1.82h7.8Zm1.094,4.373,1.531-5.75h6.219l-.3,1.883h-4.367l-.75,2.461a3.016,3.016,0,0,1,1.641-.437,2.693,2.693,0,0,1,2.262,1.035A3.855,3.855,0,0,1-99.7-3.7a4.423,4.423,0,0,1-.66,2.023A3.852,3.852,0,0,1-101.848-.3a4.108,4.108,0,0,1-2.031.461,3.613,3.613,0,0,1-1.746-.441,3.12,3.12,0,0,1-1.223-1.2,3.409,3.409,0,0,1-.445-1.7h2.164a1.7,1.7,0,0,0,.383,1.09,1.259,1.259,0,0,0,.953.41,1.545,1.545,0,0,0,1.285-.57,2.845,2.845,0,0,0,.605-1.594,2.02,2.02,0,0,0-.27-1.406,1.3,1.3,0,0,0-1.105-.531,2.195,2.195,0,0,0-1.531.609Zm11.922,2.609,2.758-2.445L-93.84-7.906l1.406-1.211L-90.543-6.7l2.719-2.43L-86.668-7.7-89.426-5.25l1.906,2.438-1.4,1.219-1.9-2.422L-93.535-1.6Zm13.023-1.578A13.2,13.2,0,0,1-80-9.582a7.175,7.175,0,0,1,3.246-3.066l.375,1.258q-2.672,2.039-3.383,6.555a19.375,19.375,0,0,0-.258,2.75q-.039,3.211,1.469,4.461l-.492,1.18A5.13,5.13,0,0,1-81.4.313,10.87,10.87,0,0,1-81.8-3a13.121,13.121,0,0,1,.1-1.406ZM-73.8-6.687l1.055.008A2.055,2.055,0,0,0-71.4-7.125a1.737,1.737,0,0,0,.629-1.2,1.261,1.261,0,0,0-.242-1.012,1.23,1.23,0,0,0-.961-.395,1.642,1.642,0,0,0-1.1.348,1.494,1.494,0,0,0-.559.941l-2.2.016a2.952,2.952,0,0,1,1.184-2.254,4.165,4.165,0,0,1,2.707-.863,3.716,3.716,0,0,1,2.547.9,2.739,2.739,0,0,1,.852,2.3A3.078,3.078,0,0,1-70.613-5.8a2.381,2.381,0,0,1,1.121,1.043,2.826,2.826,0,0,1,.309,1.5,3.267,3.267,0,0,1-.633,1.813,3.7,3.7,0,0,1-1.547,1.2,4.962,4.962,0,0,1-2.094.395,3.557,3.557,0,0,1-2.484-.91,3.03,3.03,0,0,1-.945-2.363H-74.7a1.412,1.412,0,0,0,.355,1.035,1.385,1.385,0,0,0,1.035.418A1.933,1.933,0,0,0-72-2.1a1.761,1.761,0,0,0,.641-1.179,1.428,1.428,0,0,0-.277-1.2,1.553,1.553,0,0,0-1.152-.439l-1.3-.008Zm13.43-4.812-.172,1.867-.43.008A4.28,4.28,0,0,0-64.84-6.672a3.049,3.049,0,0,1,2.289-.93,2.518,2.518,0,0,1,1.559.516,2.868,2.868,0,0,1,.934,1.367A4.677,4.677,0,0,1-59.848-3.8a4.54,4.54,0,0,1-.668,2.043,4.039,4.039,0,0,1-1.5,1.438,3.915,3.915,0,0,1-2.008.488,3.276,3.276,0,0,1-1.918-.629A3.391,3.391,0,0,1-67.113-2.1a5.156,5.156,0,0,1-.242-2.266l.086-.7a7.646,7.646,0,0,1,2.152-4.684A6.109,6.109,0,0,1-60.668-11.5ZM-63.3-5.8a1.734,1.734,0,0,0-1.023.282,2.541,2.541,0,0,0-.75.759l-.1.7a5.964,5.964,0,0,0-.031.767,2.062,2.062,0,0,0,.336,1.182,1.069,1.069,0,0,0,.906.454,1.5,1.5,0,0,0,1.055-.376,2.33,2.33,0,0,0,.7-1.072,3.145,3.145,0,0,0,.148-1.37,1.68,1.68,0,0,0-.395-.967A1.117,1.117,0,0,0-63.3-5.8Zm13.68-.562h2.734l-.359,2.039h-2.727l-.555,3.188h-2.1l.555-3.187h-2.75l.359-2.039h2.742l.531-3.055h2.1ZM-37.426,0h-2.2l1.5-8.656-2.766.836.344-1.93,4.75-1.641.289-.008Zm7.508.156a2.884,2.884,0,0,1-2.281-1,4.205,4.205,0,0,1-.828-2.7A8.6,8.6,0,0,1-32.965-4.7l.32-2.133a6.638,6.638,0,0,1,1.508-3.531,3.652,3.652,0,0,1,2.883-1.164,2.9,2.9,0,0,1,2.285,1,4.161,4.161,0,0,1,.832,2.691A8.673,8.673,0,0,1-25.2-6.68l-.328,2.117a6.781,6.781,0,0,1-1.5,3.551A3.63,3.63,0,0,1-29.918.156ZM-27.27-8.1q0-1.552-1.094-1.606-1.578-.07-2.008,2.4l-.391,2.635A9.494,9.494,0,0,0-30.887-3.3q-.039,1.583,1.086,1.637,1.586.1,2.016-2.472l.414-2.776A8.178,8.178,0,0,0-27.27-8.1ZM-20.934.156a2.884,2.884,0,0,1-2.281-1,4.205,4.205,0,0,1-.828-2.7A8.6,8.6,0,0,1-23.98-4.7l.32-2.133a6.638,6.638,0,0,1,1.508-3.531,3.652,3.652,0,0,1,2.883-1.164,2.9,2.9,0,0,1,2.285,1,4.161,4.161,0,0,1,.832,2.691,8.673,8.673,0,0,1-.062,1.164l-.328,2.117a6.781,6.781,0,0,1-1.5,3.551A3.63,3.63,0,0,1-20.934.156ZM-18.285-8.1q0-1.552-1.094-1.606-1.578-.07-2.008,2.4l-.391,2.635A9.494,9.494,0,0,0-21.9-3.3q-.039,1.583,1.086,1.637,1.586.1,2.016-2.472l.414-2.776A8.178,8.178,0,0,0-18.285-8.1Zm2.109,11.683-.375-1.234q2.68-2.07,3.383-6.625a19.275,19.275,0,0,0,.242-2.7q.039-3.211-1.453-4.469l.492-1.18A4.565,4.565,0,0,1-12.3-11.168a6.725,6.725,0,0,1,.977,2.309,11.6,11.6,0,0,1,.3,2.781,13.865,13.865,0,0,1-.75,4.223,11.039,11.039,0,0,1-1.84,3.441A6.68,6.68,0,0,1-16.176,3.578ZM-.684-6.367H2.051L1.691-4.328H-1.035L-1.59-1.141h-2.1l.555-3.187h-2.75l.359-2.039h2.742l.531-3.055h2.1ZM13.988-11.5l-.172,1.867-.43.008A4.28,4.28,0,0,0,9.52-6.672a3.049,3.049,0,0,1,2.289-.93,2.518,2.518,0,0,1,1.559.516A2.868,2.868,0,0,1,14.3-5.719,4.677,4.677,0,0,1,14.512-3.8a4.54,4.54,0,0,1-.668,2.043,4.039,4.039,0,0,1-1.5,1.438,3.915,3.915,0,0,1-2.008.488A3.276,3.276,0,0,1,8.414-.465,3.391,3.391,0,0,1,7.246-2.1,5.156,5.156,0,0,1,7-4.367l.086-.7A7.646,7.646,0,0,1,9.242-9.754,6.109,6.109,0,0,1,13.691-11.5Zm-2.93,5.7a1.734,1.734,0,0,0-1.023.282,2.541,2.541,0,0,0-.75.759l-.1.7a5.964,5.964,0,0,0-.031.767A2.062,2.062,0,0,0,9.488-2.11a1.069,1.069,0,0,0,.906.454,1.5,1.5,0,0,0,1.055-.376,2.33,2.33,0,0,0,.7-1.072,3.145,3.145,0,0,0,.148-1.37,1.68,1.68,0,0,0-.395-.967A1.117,1.117,0,0,0,11.059-5.8ZM19.02.156a2.884,2.884,0,0,1-2.281-1,4.205,4.205,0,0,1-.828-2.7A8.6,8.6,0,0,1,15.973-4.7l.32-2.133A6.638,6.638,0,0,1,17.8-10.367a3.652,3.652,0,0,1,2.883-1.164,2.9,2.9,0,0,1,2.285,1A4.161,4.161,0,0,1,23.8-7.844a8.673,8.673,0,0,1-.062,1.164L23.41-4.562a6.781,6.781,0,0,1-1.5,3.551A3.63,3.63,0,0,1,19.02.156ZM21.668-8.1q0-1.552-1.094-1.606-1.578-.07-2.008,2.4l-.391,2.635A9.494,9.494,0,0,0,18.051-3.3q-.039,1.583,1.086,1.637,1.586.1,2.016-2.472l.414-2.776A8.178,8.178,0,0,0,21.668-8.1Zm6.688,5.089,2.758-2.445L29.207-7.906l1.406-1.211L32.5-6.7l2.719-2.43L36.379-7.7,33.621-5.25l1.906,2.438-1.4,1.219-1.9-2.422L29.512-1.6ZM41.379-4.594a13.2,13.2,0,0,1,1.668-4.988,7.175,7.175,0,0,1,3.246-3.066l.375,1.258Q44-9.352,43.285-4.836a19.376,19.376,0,0,0-.258,2.75Q42.988,1.125,44.5,2.375L44,3.555A5.13,5.13,0,0,1,41.645.313,10.87,10.87,0,0,1,41.246-3a13.121,13.121,0,0,1,.1-1.406Zm11.742.313h1.25l-.32,1.82H52.8L52.371,0h-2.2l.43-2.461H46.082L46.238-4l5.8-7.375h2.3ZM48.527-4.3l2.391.016.773-4.047-.2.281ZM63.559-8.414a3.118,3.118,0,0,1-1.953,2.6A2.927,2.927,0,0,1,62.6-4.672a2.9,2.9,0,0,1,.273,1.484A3.227,3.227,0,0,1,61.629-.734,4.309,4.309,0,0,1,58.77.156a3.576,3.576,0,0,1-2.5-.891,2.765,2.765,0,0,1-.855-2.312,3.31,3.31,0,0,1,2.227-2.859,2.7,2.7,0,0,1-1.07-2.383,3.3,3.3,0,0,1,.57-1.719,3.32,3.32,0,0,1,1.387-1.148,4.279,4.279,0,0,1,1.9-.375,3.315,3.315,0,0,1,2.344.879A2.736,2.736,0,0,1,63.559-8.414ZM60.7-3.348a1.489,1.489,0,0,0-.242-1.115,1.166,1.166,0,0,0-.969-.46,1.677,1.677,0,0,0-1.223.46,2,2,0,0,0-.613,1.247,1.462,1.462,0,0,0,.238,1.1,1.185,1.185,0,0,0,.98.448,1.675,1.675,0,0,0,1.223-.452A1.974,1.974,0,0,0,60.7-3.348ZM61.332-8.3a1.423,1.423,0,0,0-.2-1.017.976.976,0,0,0-.812-.393A1.38,1.38,0,0,0,59.27-9.3a1.843,1.843,0,0,0-.516,1.126,1.534,1.534,0,0,0,.191,1.032.939.939,0,0,0,.816.417,1.371,1.371,0,0,0,1.047-.425A1.9,1.9,0,0,0,61.332-8.3ZM73.426-6.367H76.16L75.8-4.328H73.074L72.52-1.141h-2.1l.555-3.187h-2.75l.359-2.039h2.742l.531-3.055h2.1ZM85.621,0h-2.2l1.5-8.656-2.766.836L82.5-9.75l4.75-1.641.289-.008Zm8.984,0H92.4l1.5-8.656-2.766.836.344-1.93,4.75-1.641.289-.008Zm11.3,0H98.332l.258-1.641,4.039-3.789a8.947,8.947,0,0,0,1.648-1.891,2.214,2.214,0,0,0,.3-1.422,1.061,1.061,0,0,0-1.117-.992,1.6,1.6,0,0,0-1.254.523A2.453,2.453,0,0,0,101.6-7.8l-2.2.008a3.863,3.863,0,0,1,.633-1.93,3.882,3.882,0,0,1,1.52-1.348,4.405,4.405,0,0,1,2.051-.473,3.5,3.5,0,0,1,2.469.891,2.756,2.756,0,0,1,.781,2.289A5.546,5.546,0,0,1,104.949-5l-1.125,1.07L101.5-1.836l4.7.016Zm.961,3.578L106.5,2.344q2.68-2.07,3.383-6.625a19.275,19.275,0,0,0,.242-2.7q.039-3.211-1.453-4.469l.492-1.18a4.565,4.565,0,0,1,1.582,1.457,6.725,6.725,0,0,1,.977,2.309,11.6,11.6,0,0,1,.3,2.781,13.865,13.865,0,0,1-.75,4.223,11.039,11.039,0,0,1-1.84,3.441A6.68,6.68,0,0,1,106.871,3.578Z" transform="translate(117 15)" fill="#12263f" stroke="rgba(0,0,0,0)" stroke-width="1"/>
    </g>
  </g>
</svg>
