<svg xmlns="http://www.w3.org/2000/svg" width="190" height="31" viewBox="0 0 190 31">
  <g id="Grupo_1074535" data-name="Grupo 1074535" transform="translate(-600 -1409)">
    <rect id="Rectángulo_379122" data-name="Rectángulo 379122" width="190" height="31" rx="9" transform="translate(600 1409)" fill="#fff"/>
    <g id="Grupo_1074331" data-name="Grupo 1074331" transform="translate(-75 -447)">
      <path id="Trazado_641838" data-name="Trazado 641838" d="M-60.168-4.008-60.871,0H-63.16l1.977-11.375,3.984.008a3.986,3.986,0,0,1,2.9,1.023,3.174,3.174,0,0,1,.922,2.672A3.592,3.592,0,0,1-54.773-5a5.075,5.075,0,0,1-3.238,1Zm.32-1.9,1.906.016a2.41,2.41,0,0,0,1.531-.477,1.918,1.918,0,0,0,.727-1.289,1.646,1.646,0,0,0-.262-1.3,1.418,1.418,0,0,0-1.121-.516l-2.156-.008ZM-49.2.156a3.677,3.677,0,0,1-1.965-.543,3.292,3.292,0,0,1-1.277-1.469,4.093,4.093,0,0,1-.328-2.059l.023-.312a5.465,5.465,0,0,1,.719-2.266,4.341,4.341,0,0,1,1.547-1.59,3.827,3.827,0,0,1,2.094-.527,2.924,2.924,0,0,1,2.473,1.2,4.117,4.117,0,0,1,.637,2.962l-.125.962h-5.18a1.814,1.814,0,0,0,.4,1.313,1.521,1.521,0,0,0,1.172.508A2.7,2.7,0,0,0-46.9-2.6l1.008,1.25A3.135,3.135,0,0,1-47.27-.23,4.5,4.5,0,0,1-49.2.156Zm.7-6.945a1.565,1.565,0,0,0-1.082.383,3.363,3.363,0,0,0-.848,1.383h3.031l.047-.2a2.071,2.071,0,0,0,.008-.594,1.134,1.134,0,0,0-.383-.707A1.2,1.2,0,0,0-48.5-6.789Zm9.539.453a4.548,4.548,0,0,0-.742-.078,2.136,2.136,0,0,0-1.867.883L-42.543,0h-2.2l1.469-8.453,2.07-.008-.2,1.031a2.325,2.325,0,0,1,1.969-1.2,3.214,3.214,0,0,1,.766.109ZM-36.629,0h-2.2l1.469-8.453h2.2Zm1.3-11.883h2.555l-2.484,2.422H-37.2Zm4.164,3.422-.18.961a3.112,3.112,0,0,1,2.477-1.109,2.379,2.379,0,0,1,1.3.359,1.679,1.679,0,0,1,.7.93,3.255,3.255,0,0,1,2.625-1.289,2.126,2.126,0,0,1,1.754.8A3.271,3.271,0,0,1-22-5.578l-.016.2L-22.91,0h-2.211l.9-5.4a3.908,3.908,0,0,0,.023-.54.837.837,0,0,0-.937-.845,1.86,1.86,0,0,0-1.555.97l-.023.18L-27.7,0h-2.2l.9-5.383a3.9,3.9,0,0,0,.023-.539.836.836,0,0,0-.93-.852,1.867,1.867,0,0,0-1.508.789L-32.473,0h-2.2l1.461-8.453ZM-17.145.156a3.677,3.677,0,0,1-1.965-.543,3.292,3.292,0,0,1-1.277-1.469,4.093,4.093,0,0,1-.328-2.059l.023-.312a5.465,5.465,0,0,1,.719-2.266,4.341,4.341,0,0,1,1.547-1.59,3.827,3.827,0,0,1,2.094-.527,2.924,2.924,0,0,1,2.473,1.2,4.117,4.117,0,0,1,.637,2.962l-.125.962h-5.18a1.814,1.814,0,0,0,.4,1.313,1.521,1.521,0,0,0,1.172.508A2.7,2.7,0,0,0-14.848-2.6l1.008,1.25A3.135,3.135,0,0,1-15.215-.23,4.5,4.5,0,0,1-17.145.156Zm.7-6.945a1.565,1.565,0,0,0-1.082.383,3.363,3.363,0,0,0-.848,1.383h3.031l.047-.2a2.071,2.071,0,0,0,.008-.594,1.134,1.134,0,0,0-.383-.707A1.2,1.2,0,0,0-16.441-6.789Zm8.219-3.742L-8.59-8.453h1.406L-7.473-6.8H-8.879L-9.6-2.562a1.077,1.077,0,0,0,.063.609q.109.211.531.227.125.008.672-.039L-8.488-.039a3.706,3.706,0,0,1-1.266.18,1.985,1.985,0,0,1-1.617-.68,2.456,2.456,0,0,1-.437-1.8l.727-4.461h-1.2l.289-1.656h1.2l.359-2.078Zm6.641,4.2a4.548,4.548,0,0,0-.742-.078,2.136,2.136,0,0,0-1.867.883L-5.168,0h-2.2L-5.9-8.453l2.07-.008-.2,1.031a2.325,2.325,0,0,1,1.969-1.2,3.214,3.214,0,0,1,.766.109ZM2.926-8.609a3.39,3.39,0,0,1,1.926.574A3.234,3.234,0,0,1,6.039-6.5a4.762,4.762,0,0,1,.27,2.176,5.143,5.143,0,0,1-1.4,3.262A3.96,3.96,0,0,1,1.887.156,3.38,3.38,0,0,1-.02-.41,3.222,3.222,0,0,1-1.207-1.937,4.657,4.657,0,0,1-1.48-4.094,5.3,5.3,0,0,1-.059-7.422,3.878,3.878,0,0,1,2.926-8.609ZM.7-3.294a1.95,1.95,0,0,0,.352,1.182A1.168,1.168,0,0,0,2-1.664,1.712,1.712,0,0,0,3.59-2.6a4.647,4.647,0,0,0,.539-2.531,2.122,2.122,0,0,0-.363-1.2,1.149,1.149,0,0,0-.949-.464,1.715,1.715,0,0,0-1.574.924A4.6,4.6,0,0,0,.7-3.294ZM18.871-5.828H12.082l.328-1.844H19.2Zm-.586,3.383H11.5l.328-1.844h6.789ZM29.1-3.5q.133-.625.379-1.508T29.9-6.367l-.039-.07h-2.3l-.961,4.445q-.117.523-.273,1.129T26.09,0H24.434l.078-.383a8.783,8.783,0,0,0,1.531-3.844l.516-2.211h-.25a2.118,2.118,0,0,0-.937.188,2.7,2.7,0,0,0-.836.75l-.492-.414q.406-.492.664-.75A3.126,3.126,0,0,1,25.25-7.1a2.287,2.287,0,0,1,.641-.273,3.284,3.284,0,0,1,.832-.094h6.414L32.91-6.437H31.051l-.883,3.914A5.792,5.792,0,0,0,30-1.367a.787.787,0,0,0,.1.453.368.368,0,0,0,.32.141q.469,0,1.1-.75l.453.422a5.025,5.025,0,0,1-1.082.938,2.014,2.014,0,0,1-1.043.289,1.033,1.033,0,0,1-.836-.363,1.44,1.44,0,0,1-.3-.957,7.655,7.655,0,0,1,.219-1.516Zm8.617.484,2.758-2.445L38.566-7.906l1.406-1.211L41.863-6.7l2.719-2.43L45.738-7.7,42.98-5.25l1.906,2.438-1.4,1.219-1.9-2.422L38.871-1.6ZM55.254-1.992a6.889,6.889,0,0,1-1.422,1.6A2.32,2.32,0,0,1,52.41.117a1.552,1.552,0,0,1-1.332-.648,3.046,3.046,0,0,1-.473-1.82,6.524,6.524,0,0,1,.527-2.582,4.776,4.776,0,0,1,1.449-1.953A3.271,3.271,0,0,1,54.637-7.6a3.723,3.723,0,0,1,.879.1,3.16,3.16,0,0,1,.824.34l.406-1.8q.063-.258.109-.57a3.747,3.747,0,0,0,.047-.547.612.612,0,0,0-.086-.355.482.482,0,0,0-.246-.176A2.467,2.467,0,0,0,56-10.7l.094-.406,1.961-.07h.461L56.566-2.523a5.792,5.792,0,0,0-.172,1.156.787.787,0,0,0,.1.453.368.368,0,0,0,.32.141.869.869,0,0,0,.5-.191,5.49,5.49,0,0,0,.75-.73l.445.438A6.989,6.989,0,0,1,57.3-.187a1.946,1.946,0,0,1-1.062.313.991.991,0,0,1-.773-.32,1.223,1.223,0,0,1-.289-.852,2.632,2.632,0,0,1,.18-.914Zm.523-2.766a5.219,5.219,0,0,0,.117-1.062,1.275,1.275,0,0,0-.258-.887,1.131,1.131,0,0,0-.859-.277,1.957,1.957,0,0,0-1.43.645,4.429,4.429,0,0,0-1,1.738,6.881,6.881,0,0,0-.363,2.18,2.585,2.585,0,0,0,.223,1.215.784.784,0,0,0,.746.4,1.26,1.26,0,0,0,.492-.105,1.985,1.985,0,0,0,.52-.34,4.055,4.055,0,0,0,.531-.57q.262-.336.48-.676a4.82,4.82,0,0,0,.406-.8,6.443,6.443,0,0,0,.32-1.121Z" transform="translate(771 1878)" fill="#12263f" stroke="rgba(0,0,0,0)" stroke-width="1"/>
    </g>
  </g>
</svg>
