<svg xmlns="http://www.w3.org/2000/svg" width="190" height="31" viewBox="0 0 190 31">
  <g id="img17" transform="translate(-600 -1409)">
    <rect id="Rectángulo_379122" data-name="Rectángulo 379122" width="190" height="31" rx="7" transform="translate(600 1409)" fill="#fff"/>
    <g id="Grupo_1074331" data-name="Grupo 1074331" transform="translate(-75 -447)">
      <path id="Trazado_641819" data-name="Trazado 641819" d="M-41.944-2.344h-3.969L-47.084,0h-2.523l6.078-11.375h2.117L-39.248,0h-2.336Zm-3.031-1.9h2.742l-.641-4.234Zm3.445-10.18h2.555L-41.459-12H-43.4Zm9.07,8.086a4.548,4.548,0,0,0-.742-.078,2.136,2.136,0,0,0-1.867.883L-36.045,0h-2.2l1.469-8.453,2.07-.008-.2,1.031a2.325,2.325,0,0,1,1.969-1.2,3.214,3.214,0,0,1,.766.109ZM-28.491.156a3.677,3.677,0,0,1-1.965-.543,3.292,3.292,0,0,1-1.277-1.469,4.093,4.093,0,0,1-.328-2.059l.023-.312a5.465,5.465,0,0,1,.719-2.266,4.341,4.341,0,0,1,1.547-1.59,3.827,3.827,0,0,1,2.094-.527,2.924,2.924,0,0,1,2.473,1.2,4.117,4.117,0,0,1,.637,2.962l-.125.962h-5.18a1.814,1.814,0,0,0,.4,1.313,1.521,1.521,0,0,0,1.172.508A2.7,2.7,0,0,0-26.194-2.6l1.008,1.25A3.135,3.135,0,0,1-26.561-.23,4.5,4.5,0,0,1-28.491.156Zm.7-6.945a1.565,1.565,0,0,0-1.082.383,3.363,3.363,0,0,0-.848,1.383h3.031l.047-.2a2.071,2.071,0,0,0,.008-.594,1.134,1.134,0,0,0-.383-.707A1.2,1.2,0,0,0-27.787-6.789ZM-19.147,0a2.281,2.281,0,0,1-.086-.766,2.863,2.863,0,0,1-2.156.922,2.594,2.594,0,0,1-1.84-.723,2.186,2.186,0,0,1-.684-1.746,2.527,2.527,0,0,1,1.16-2.121,5.266,5.266,0,0,1,2.965-.738l1.031.016.109-.508a1.764,1.764,0,0,0,.023-.492A.846.846,0,0,0-18.9-6.73a.955.955,0,0,0-.629-.215,1.345,1.345,0,0,0-.875.254,1.231,1.231,0,0,0-.461.777l-2.211.008a2.457,2.457,0,0,1,1.113-1.965,4.312,4.312,0,0,1,2.613-.738,3.117,3.117,0,0,1,2.25.855,2.5,2.5,0,0,1,.68,2.121l-.648,4.047-.039.5a2.412,2.412,0,0,0,.133.938L-16.983,0Zm-1.7-1.555a2.017,2.017,0,0,0,1.664-.828l.273-1.461-.766-.008a2.139,2.139,0,0,0-1.758.742,1.292,1.292,0,0,0-.242.633.75.75,0,0,0,.176.668A.891.891,0,0,0-20.842-1.555ZM-3.709-5.828H-10.5l.328-1.844h6.789ZM-4.3-2.445h-6.789l.328-1.844h6.789Zm8.266.563H8.8L8.47,0H1.353L3.33-11.375H5.619ZM12.745,5H11.46l.875-5.049L10.722.438l.2-1.126,2.771-.957.169,0Zm6.31-8.016,2.758-2.445L19.906-7.906l1.406-1.211L23.2-6.7l2.719-2.43L27.078-7.7,24.32-5.25l1.906,2.438-1.4,1.219-1.9-2.422L20.211-1.6ZM33.906-1.883h4.828L38.406,0H31.289l1.977-11.375h2.289ZM44.034,5h-4.42l.15-.957,2.356-2.21a5.219,5.219,0,0,0,.962-1.1A1.292,1.292,0,0,0,43.26-.1a.619.619,0,0,0-.652-.579.932.932,0,0,0-.731.305,1.431,1.431,0,0,0-.358.825l-1.285,0a2.268,2.268,0,0,1,1.255-1.912,2.57,2.57,0,0,1,1.2-.276,2.039,2.039,0,0,1,1.44.52A1.608,1.608,0,0,1,44.581.124a3.235,3.235,0,0,1-1.107,1.96l-.656.624L41.46,3.929l2.743.009Z" transform="translate(771 1878)" fill="#12263f" stroke="rgba(0,0,0,0)" stroke-width="1"/>
    </g>
  </g>
</svg>
