<svg xmlns="http://www.w3.org/2000/svg" width="190" height="31" viewBox="0 0 190 31">
  <g id="img14" transform="translate(-600 -1409)">
    <rect id="Rectángulo_379122" data-name="Rectángulo 379122" width="190" height="31" rx="7" transform="translate(600 1409)" fill="#fff"/>
    <g id="Grupo_1074331" data-name="Grupo 1074331" transform="translate(-75 -447)">
      <path id="Trazado_641815" data-name="Trazado 641815" d="M-51.169-2.344h-3.969L-56.31,0h-2.523l6.078-11.375h2.117L-48.474,0H-50.81Zm-3.031-1.9h2.742L-52.1-8.477Zm3.445-10.18H-48.2L-50.685-12H-52.63Zm9.07,8.086a4.548,4.548,0,0,0-.742-.078,2.136,2.136,0,0,0-1.867.883L-45.271,0h-2.2l1.469-8.453,2.07-.008-.2,1.031a2.325,2.325,0,0,1,1.969-1.2,3.214,3.214,0,0,1,.766.109ZM-37.716.156a3.677,3.677,0,0,1-1.965-.543,3.292,3.292,0,0,1-1.277-1.469,4.093,4.093,0,0,1-.328-2.059l.023-.312a5.465,5.465,0,0,1,.719-2.266A4.341,4.341,0,0,1-39-8.082,3.827,3.827,0,0,1-36.9-8.609a2.924,2.924,0,0,1,2.473,1.2,4.117,4.117,0,0,1,.637,2.962l-.125.962H-39.1a1.814,1.814,0,0,0,.4,1.313,1.521,1.521,0,0,0,1.172.508A2.7,2.7,0,0,0-35.419-2.6l1.008,1.25A3.135,3.135,0,0,1-35.787-.23,4.5,4.5,0,0,1-37.716.156Zm.7-6.945a1.565,1.565,0,0,0-1.082.383,3.363,3.363,0,0,0-.848,1.383h3.031l.047-.2a2.071,2.071,0,0,0,.008-.594,1.134,1.134,0,0,0-.383-.707A1.2,1.2,0,0,0-37.013-6.789ZM-28.373,0a2.281,2.281,0,0,1-.086-.766,2.863,2.863,0,0,1-2.156.922,2.594,2.594,0,0,1-1.84-.723,2.186,2.186,0,0,1-.684-1.746,2.527,2.527,0,0,1,1.16-2.121,5.266,5.266,0,0,1,2.965-.738l1.031.016.109-.508a1.764,1.764,0,0,0,.023-.492.846.846,0,0,0-.277-.574.955.955,0,0,0-.629-.215,1.345,1.345,0,0,0-.875.254,1.231,1.231,0,0,0-.461.777l-2.211.008a2.457,2.457,0,0,1,1.113-1.965,4.312,4.312,0,0,1,2.613-.738,3.117,3.117,0,0,1,2.25.855,2.5,2.5,0,0,1,.68,2.121l-.648,4.047-.039.5a2.412,2.412,0,0,0,.133.938L-26.208,0Zm-1.7-1.555A2.017,2.017,0,0,0-28.4-2.383l.273-1.461-.766-.008a2.139,2.139,0,0,0-1.758.742,1.292,1.292,0,0,0-.242.633.75.75,0,0,0,.176.668A.891.891,0,0,0-30.068-1.555Zm17.133-4.273h-6.789l.328-1.844h6.789Zm-.586,3.383H-20.31l.328-1.844h6.789Zm8.266.563H-.427L-.755,0H-7.873L-5.9-11.375h2.289ZM4.588-3.016,7.346-5.461,5.44-7.906,6.846-9.117,8.737-6.7l2.719-2.43L12.612-7.7,9.854-5.25,11.76-2.812l-1.4,1.219-1.9-2.422L5.745-1.6ZM19.44-1.883h4.828L23.94,0H16.823L18.8-11.375h2.289ZM37.1-5.828H30.307l.328-1.844h6.789ZM36.51-2.445H29.721l.328-1.844h6.789Zm8.266.563H49.6L49.276,0H42.159l1.977-11.375h2.289ZM54.9-5h-4.42l.15-.957,2.356-2.21a5.219,5.219,0,0,0,.962-1.1,1.292,1.292,0,0,0,.178-.829.619.619,0,0,0-.652-.579.932.932,0,0,0-.731.305,1.431,1.431,0,0,0-.358.825l-1.285,0a2.253,2.253,0,0,1,.369-1.126,2.264,2.264,0,0,1,.886-.786,2.57,2.57,0,0,1,1.2-.276,2.039,2.039,0,0,1,1.44.52,1.608,1.608,0,0,1,.456,1.335,3.235,3.235,0,0,1-1.107,1.96l-.656.624L52.329-6.071l2.743.009Z" transform="translate(771 1878)" fill="#12263f" stroke="rgba(0,0,0,0)" stroke-width="1"/>
    </g>
  </g>
</svg>
