<svg xmlns="http://www.w3.org/2000/svg" width="190" height="31" viewBox="0 0 190 31">
  <g id="img24" transform="translate(-600 -1409)">
    <rect id="Rectángulo_379122" data-name="Rectángulo 379122" width="190" height="31" rx="9" transform="translate(600 1409)" fill="#fff"/>
    <g id="Grupo_1074331" data-name="Grupo 1074331" transform="translate(-75 -447)">
      <path id="Trazado_641836" data-name="Trazado 641836" d="M-59.2-4.008-59.906,0H-62.2l1.977-11.375,3.984.008a3.986,3.986,0,0,1,2.9,1.023,3.174,3.174,0,0,1,.922,2.672A3.592,3.592,0,0,1-53.809-5a5.075,5.075,0,0,1-3.238,1Zm.32-1.9,1.906.016a2.41,2.41,0,0,0,1.531-.477,1.918,1.918,0,0,0,.727-1.289,1.646,1.646,0,0,0-.262-1.3A1.418,1.418,0,0,0-56.1-9.469l-2.156-.008ZM-48.234.156A3.677,3.677,0,0,1-50.2-.387a3.292,3.292,0,0,1-1.277-1.469A4.093,4.093,0,0,1-51.8-3.914l.023-.312a5.465,5.465,0,0,1,.719-2.266,4.341,4.341,0,0,1,1.547-1.59,3.827,3.827,0,0,1,2.094-.527,2.924,2.924,0,0,1,2.473,1.2,4.117,4.117,0,0,1,.637,2.962l-.125.962h-5.18a1.814,1.814,0,0,0,.4,1.313,1.521,1.521,0,0,0,1.172.508A2.7,2.7,0,0,0-45.937-2.6l1.008,1.25A3.135,3.135,0,0,1-46.3-.23,4.5,4.5,0,0,1-48.234.156Zm.7-6.945a1.565,1.565,0,0,0-1.082.383,3.363,3.363,0,0,0-.848,1.383h3.031l.047-.2a2.071,2.071,0,0,0,.008-.594,1.134,1.134,0,0,0-.383-.707A1.2,1.2,0,0,0-47.531-6.789Zm9.539.453a4.548,4.548,0,0,0-.742-.078,2.136,2.136,0,0,0-1.867.883L-41.578,0h-2.2l1.469-8.453,2.07-.008-.2,1.031a2.325,2.325,0,0,1,1.969-1.2,3.214,3.214,0,0,1,.766.109ZM-35.664,0h-2.2L-36.4-8.453h2.2Zm1.3-11.883H-31.8l-2.484,2.422h-1.945ZM-30.2-8.461l-.18.961A3.112,3.112,0,0,1-27.9-8.609a2.379,2.379,0,0,1,1.3.359,1.679,1.679,0,0,1,.7.93,3.255,3.255,0,0,1,2.625-1.289,2.126,2.126,0,0,1,1.754.8,3.271,3.271,0,0,1,.5,2.234l-.016.2L-21.945,0h-2.211l.9-5.4a3.908,3.908,0,0,0,.023-.54.837.837,0,0,0-.937-.845,1.86,1.86,0,0,0-1.555.97l-.023.18L-26.734,0h-2.2l.9-5.383a3.9,3.9,0,0,0,.023-.539.836.836,0,0,0-.93-.852,1.867,1.867,0,0,0-1.508.789L-31.508,0h-2.2l1.461-8.453ZM-16.18.156a3.677,3.677,0,0,1-1.965-.543,3.292,3.292,0,0,1-1.277-1.469,4.093,4.093,0,0,1-.328-2.059l.023-.312a5.465,5.465,0,0,1,.719-2.266,4.341,4.341,0,0,1,1.547-1.59,3.827,3.827,0,0,1,2.094-.527,2.924,2.924,0,0,1,2.473,1.2,4.117,4.117,0,0,1,.637,2.962l-.125.962h-5.18a1.814,1.814,0,0,0,.4,1.313,1.521,1.521,0,0,0,1.172.508A2.7,2.7,0,0,0-13.883-2.6l1.008,1.25A3.135,3.135,0,0,1-14.25-.23,4.5,4.5,0,0,1-16.18.156Zm.7-6.945a1.565,1.565,0,0,0-1.082.383,3.363,3.363,0,0,0-.848,1.383h3.031l.047-.2a2.071,2.071,0,0,0,.008-.594,1.134,1.134,0,0,0-.383-.707A1.2,1.2,0,0,0-15.477-6.789Zm8.219-3.742-.367,2.078h1.406L-6.508-6.8H-7.914l-.719,4.234a1.077,1.077,0,0,0,.063.609q.109.211.531.227.125.008.672-.039L-7.523-.039a3.706,3.706,0,0,1-1.266.18,1.985,1.985,0,0,1-1.617-.68,2.456,2.456,0,0,1-.437-1.8l.727-4.461h-1.2l.289-1.656h1.2l.359-2.078Zm6.641,4.2a4.548,4.548,0,0,0-.742-.078,2.136,2.136,0,0,0-1.867.883L-4.2,0h-2.2l1.469-8.453,2.07-.008-.2,1.031A2.325,2.325,0,0,1-1.1-8.625a3.214,3.214,0,0,1,.766.109ZM3.891-8.609a3.39,3.39,0,0,1,1.926.574A3.234,3.234,0,0,1,7-6.5a4.762,4.762,0,0,1,.27,2.176,5.143,5.143,0,0,1-1.4,3.262A3.96,3.96,0,0,1,2.852.156,3.38,3.38,0,0,1,.945-.41,3.222,3.222,0,0,1-.242-1.937,4.657,4.657,0,0,1-.516-4.094,5.3,5.3,0,0,1,.906-7.422,3.878,3.878,0,0,1,3.891-8.609ZM1.664-3.294a1.95,1.95,0,0,0,.352,1.182,1.168,1.168,0,0,0,.945.449A1.712,1.712,0,0,0,4.555-2.6a4.647,4.647,0,0,0,.539-2.531,2.122,2.122,0,0,0-.363-1.2,1.149,1.149,0,0,0-.949-.464,1.715,1.715,0,0,0-1.574.924A4.6,4.6,0,0,0,1.664-3.294ZM19.836-5.828H13.047l.328-1.844h6.789ZM19.25-2.445H12.461l.328-1.844h6.789ZM31.906-4.281h1.25l-.32,1.82h-1.25L31.156,0h-2.2l.43-2.461H24.867L25.023-4l5.8-7.375h2.3ZM27.313-4.3l2.391.016.773-4.047-.2.281ZM37.859-3.016l2.758-2.445L38.711-7.906l1.406-1.211L42.008-6.7l2.719-2.43L45.883-7.7,43.125-5.25l1.906,2.438-1.4,1.219-1.9-2.422L39.016-1.6ZM52.711-1.883h4.828L57.211,0H50.094L52.07-11.375h2.289Z" transform="translate(771 1878)" fill="#12263f" stroke="rgba(0,0,0,0)" stroke-width="1"/>
    </g>
  </g>
</svg>
