<svg xmlns="http://www.w3.org/2000/svg" width="190" height="31" viewBox="0 0 190 31">
  <g id="img26" transform="translate(-600 -1409)">
    <rect id="Rectángulo_379122" data-name="Rectángulo 379122" width="190" height="31" rx="7" transform="translate(600 1409)" fill="#fff"/>
    <g id="Grupo_1074331" data-name="Grupo 1074331" transform="translate(-75 -447)">
      <path id="Trazado_641837" data-name="Trazado 641837" d="M-38.612-2.344h-3.969L-43.753,0h-2.523L-40.2-11.375h2.117L-35.917,0h-2.336Zm-3.031-1.9H-38.9l-.641-4.234Zm3.445-10.18h2.555L-38.128-12h-1.945Zm9.07,8.086a4.548,4.548,0,0,0-.742-.078,2.136,2.136,0,0,0-1.867.883L-32.714,0h-2.2l1.469-8.453,2.07-.008-.2,1.031a2.325,2.325,0,0,1,1.969-1.2,3.214,3.214,0,0,1,.766.109ZM-25.159.156a3.677,3.677,0,0,1-1.965-.543A3.292,3.292,0,0,1-28.4-1.855a4.093,4.093,0,0,1-.328-2.059l.023-.312a5.465,5.465,0,0,1,.719-2.266,4.341,4.341,0,0,1,1.547-1.59,3.827,3.827,0,0,1,2.094-.527,2.924,2.924,0,0,1,2.473,1.2,4.117,4.117,0,0,1,.637,2.962l-.125.962h-5.18a1.814,1.814,0,0,0,.4,1.313,1.521,1.521,0,0,0,1.172.508A2.7,2.7,0,0,0-22.862-2.6l1.008,1.25A3.135,3.135,0,0,1-23.23-.23,4.5,4.5,0,0,1-25.159.156Zm.7-6.945a1.565,1.565,0,0,0-1.082.383,3.363,3.363,0,0,0-.848,1.383h3.031l.047-.2A2.071,2.071,0,0,0-23.3-5.82a1.134,1.134,0,0,0-.383-.707A1.2,1.2,0,0,0-24.456-6.789ZM-15.816,0A2.281,2.281,0,0,1-15.9-.766a2.863,2.863,0,0,1-2.156.922A2.594,2.594,0,0,1-19.9-.566a2.186,2.186,0,0,1-.684-1.746,2.527,2.527,0,0,1,1.16-2.121,5.266,5.266,0,0,1,2.965-.738l1.031.016.109-.508a1.764,1.764,0,0,0,.023-.492.846.846,0,0,0-.277-.574.955.955,0,0,0-.629-.215,1.345,1.345,0,0,0-.875.254,1.231,1.231,0,0,0-.461.777l-2.211.008a2.457,2.457,0,0,1,1.113-1.965,4.312,4.312,0,0,1,2.613-.738,3.117,3.117,0,0,1,2.25.855,2.5,2.5,0,0,1,.68,2.121l-.648,4.047-.039.5a2.412,2.412,0,0,0,.133.938L-13.652,0Zm-1.7-1.555a2.017,2.017,0,0,0,1.664-.828l.273-1.461-.766-.008a2.139,2.139,0,0,0-1.758.742,1.292,1.292,0,0,0-.242.633.75.75,0,0,0,.176.668A.891.891,0,0,0-17.511-1.555ZM-.378-5.828H-7.167l.328-1.844H-.05ZM-.964-2.445H-7.753l.328-1.844H-.636ZM9.848-3.5q.133-.625.379-1.508t.426-1.359l-.039-.07h-2.3L7.356-1.992q-.117.523-.273,1.129T6.841,0H5.184l.078-.383A8.783,8.783,0,0,0,6.794-4.227l.516-2.211h-.25a2.118,2.118,0,0,0-.937.188,2.7,2.7,0,0,0-.836.75l-.492-.414q.406-.492.664-.75A3.126,3.126,0,0,1,6-7.1a2.287,2.287,0,0,1,.641-.273,3.284,3.284,0,0,1,.832-.094h6.414l-.227,1.031H11.8l-.883,3.914a5.792,5.792,0,0,0-.172,1.156.787.787,0,0,0,.1.453.368.368,0,0,0,.32.141q.469,0,1.1-.75l.453.422a5.025,5.025,0,0,1-1.082.938A2.014,2.014,0,0,1,10.6.125a1.033,1.033,0,0,1-.836-.363,1.44,1.44,0,0,1-.3-.957,7.655,7.655,0,0,1,.219-1.516Zm8.617.484,2.758-2.445L19.317-7.906l1.406-1.211L22.614-6.7l2.719-2.43L26.489-7.7,23.731-5.25l1.906,2.438-1.4,1.219-1.9-2.422L19.622-1.6Zm17.883-3.32a4.548,4.548,0,0,0-.742-.078,2.136,2.136,0,0,0-1.867.883L32.763,0h-2.2l1.469-8.453,2.07-.008L33.9-7.43a2.325,2.325,0,0,1,1.969-1.2,3.214,3.214,0,0,1,.766.109ZM40.7-5h-4.42l.15-.957,2.356-2.21a5.219,5.219,0,0,0,.962-1.1,1.292,1.292,0,0,0,.178-.829.619.619,0,0,0-.652-.579.932.932,0,0,0-.731.305,1.431,1.431,0,0,0-.358.825l-1.285,0a2.253,2.253,0,0,1,.369-1.126,2.264,2.264,0,0,1,.886-.786,2.57,2.57,0,0,1,1.2-.276,2.039,2.039,0,0,1,1.44.52,1.608,1.608,0,0,1,.456,1.335,3.235,3.235,0,0,1-1.107,1.96l-.656.624L38.128-6.071l2.743.009Z" transform="translate(771 1878)" fill="#12263f" stroke="rgba(0,0,0,0)" stroke-width="1"/>
    </g>
  </g>
</svg>
