<svg xmlns="http://www.w3.org/2000/svg" width="190" height="31" viewBox="0 0 190 31">
  <g id="img21" transform="translate(-600 -1409)">
    <rect id="Rectángulo_379122" data-name="Rectángulo 379122" width="190" height="31" rx="9" transform="translate(600 1409)" fill="#fff"/>
    <g id="Grupo_1074331" data-name="Grupo 1074331" transform="translate(-75 -447)">
      <path id="Trazado_641828" data-name="Trazado 641828" d="M-76.11-4.008-76.813,0H-79.1l1.977-11.375,3.984.008a3.986,3.986,0,0,1,2.9,1.023,3.174,3.174,0,0,1,.922,2.672A3.592,3.592,0,0,1-70.715-5a5.075,5.075,0,0,1-3.238,1Zm.32-1.9,1.906.016a2.41,2.41,0,0,0,1.531-.477,1.918,1.918,0,0,0,.727-1.289,1.646,1.646,0,0,0-.262-1.3,1.418,1.418,0,0,0-1.121-.516l-2.156-.008ZM-65.141.156a3.677,3.677,0,0,1-1.965-.543,3.292,3.292,0,0,1-1.277-1.469,4.093,4.093,0,0,1-.328-2.059l.023-.312a5.465,5.465,0,0,1,.719-2.266,4.341,4.341,0,0,1,1.547-1.59,3.827,3.827,0,0,1,2.094-.527,2.924,2.924,0,0,1,2.473,1.2,4.117,4.117,0,0,1,.637,2.962l-.125.962h-5.18a1.814,1.814,0,0,0,.4,1.313,1.521,1.521,0,0,0,1.172.508A2.7,2.7,0,0,0-62.844-2.6l1.008,1.25A3.135,3.135,0,0,1-63.212-.23,4.5,4.5,0,0,1-65.141.156Zm.7-6.945a1.565,1.565,0,0,0-1.082.383,3.363,3.363,0,0,0-.848,1.383h3.031l.047-.2a2.071,2.071,0,0,0,.008-.594,1.134,1.134,0,0,0-.383-.707A1.2,1.2,0,0,0-64.438-6.789Zm9.539.453a4.548,4.548,0,0,0-.742-.078,2.136,2.136,0,0,0-1.867.883L-58.485,0h-2.2l1.469-8.453,2.07-.008-.2,1.031a2.325,2.325,0,0,1,1.969-1.2,3.214,3.214,0,0,1,.766.109ZM-52.571,0h-2.2l1.469-8.453h2.2Zm1.3-11.883h2.555L-51.2-9.461h-1.945ZM-47.1-8.461l-.18.961a3.112,3.112,0,0,1,2.477-1.109,2.379,2.379,0,0,1,1.3.359,1.679,1.679,0,0,1,.7.93,3.255,3.255,0,0,1,2.625-1.289,2.126,2.126,0,0,1,1.754.8,3.271,3.271,0,0,1,.5,2.234l-.016.2L-38.852,0h-2.211l.9-5.4a3.908,3.908,0,0,0,.023-.54.837.837,0,0,0-.937-.845,1.86,1.86,0,0,0-1.555.97l-.023.18L-43.641,0h-2.2l.9-5.383a3.9,3.9,0,0,0,.023-.539.836.836,0,0,0-.93-.852,1.867,1.867,0,0,0-1.508.789L-48.415,0h-2.2l1.461-8.453ZM-33.087.156a3.677,3.677,0,0,1-1.965-.543,3.292,3.292,0,0,1-1.277-1.469,4.093,4.093,0,0,1-.328-2.059l.023-.312a5.465,5.465,0,0,1,.719-2.266,4.341,4.341,0,0,1,1.547-1.59,3.827,3.827,0,0,1,2.094-.527,2.924,2.924,0,0,1,2.473,1.2,4.117,4.117,0,0,1,.637,2.962l-.125.962h-5.18a1.814,1.814,0,0,0,.4,1.313,1.521,1.521,0,0,0,1.172.508A2.7,2.7,0,0,0-30.79-2.6l1.008,1.25A3.135,3.135,0,0,1-31.157-.23,4.5,4.5,0,0,1-33.087.156Zm.7-6.945a1.565,1.565,0,0,0-1.082.383,3.363,3.363,0,0,0-.848,1.383h3.031l.047-.2a2.071,2.071,0,0,0,.008-.594,1.134,1.134,0,0,0-.383-.707A1.2,1.2,0,0,0-32.383-6.789Zm8.219-3.742-.367,2.078h1.406L-23.415-6.8h-1.406l-.719,4.234a1.077,1.077,0,0,0,.063.609q.109.211.531.227.125.008.672-.039L-24.43-.039A3.706,3.706,0,0,1-25.7.141a1.985,1.985,0,0,1-1.617-.68,2.456,2.456,0,0,1-.437-1.8l.727-4.461h-1.2l.289-1.656h1.2l.359-2.078Zm6.641,4.2a4.548,4.548,0,0,0-.742-.078,2.136,2.136,0,0,0-1.867.883L-21.11,0h-2.2l1.469-8.453,2.07-.008-.2,1.031a2.325,2.325,0,0,1,1.969-1.2,3.214,3.214,0,0,1,.766.109Zm4.508-2.273a3.39,3.39,0,0,1,1.926.574A3.234,3.234,0,0,1-9.9-6.5a4.762,4.762,0,0,1,.27,2.176,5.143,5.143,0,0,1-1.4,3.262A3.96,3.96,0,0,1-14.055.156,3.38,3.38,0,0,1-15.962-.41a3.222,3.222,0,0,1-1.187-1.527,4.657,4.657,0,0,1-.273-2.156A5.3,5.3,0,0,1-16-7.422,3.878,3.878,0,0,1-13.016-8.609Zm-2.227,5.315a1.95,1.95,0,0,0,.352,1.182,1.168,1.168,0,0,0,.945.449A1.712,1.712,0,0,0-12.352-2.6a4.647,4.647,0,0,0,.539-2.531,2.122,2.122,0,0,0-.363-1.2,1.149,1.149,0,0,0-.949-.464,1.715,1.715,0,0,0-1.574.924A4.6,4.6,0,0,0-15.243-3.294ZM2.929-5.828H-3.86l.328-1.844H3.257ZM2.343-2.445H-4.446l.328-1.844H2.671Zm8.266.563h4.828L15.109,0H7.992L9.968-11.375h2.289ZM19.383,5H18.1l.875-5.049L17.36.438l.2-1.126,2.771-.957.169,0ZM29.416-6.367h2.734l-.359,2.039H29.065L28.51-1.141h-2.1l.555-3.187h-2.75l.359-2.039h2.742l.531-3.055h2.1Zm9.711,4.484h4.828L43.627,0H36.51l1.977-11.375h2.289ZM49.255,5h-4.42l.15-.957,2.356-2.21A5.219,5.219,0,0,0,48.3.73,1.292,1.292,0,0,0,48.481-.1a.619.619,0,0,0-.652-.579.932.932,0,0,0-.731.305,1.431,1.431,0,0,0-.358.825l-1.285,0A2.268,2.268,0,0,1,46.71-1.455a2.57,2.57,0,0,1,1.2-.276,2.039,2.039,0,0,1,1.44.52A1.608,1.608,0,0,1,49.8.124a3.235,3.235,0,0,1-1.107,1.96l-.656.624L46.68,3.929l2.743.009ZM59.579-6.367h2.734l-.359,2.039H59.227l-.555,3.188h-2.1l.555-3.187h-2.75l.359-2.039h2.742l.531-3.055h2.1ZM74.657-4.2A6.061,6.061,0,0,1,73.438-1,3.033,3.033,0,0,1,70.891.164,2.357,2.357,0,0,1,68.86-.914L68.54,0H66.532L68.61-12h2.211l-.852,4.32a2.634,2.634,0,0,1,2.063-.93,2.385,2.385,0,0,1,1.926.879A3.89,3.89,0,0,1,74.7-5.344,9.133,9.133,0,0,1,74.657-4.2Zm-2.187-.165A6.554,6.554,0,0,0,72.516-5.4q-.086-1.364-1.125-1.387a1.833,1.833,0,0,0-1.617.885l-.609,3.37a1.258,1.258,0,0,0,1.266.878q1.625.047,1.992-2.367Z" transform="translate(771 1878)" fill="#12263f" stroke="rgba(0,0,0,0)" stroke-width="1"/>
    </g>
  </g>
</svg>
