<svg xmlns="http://www.w3.org/2000/svg" width="190" height="31" viewBox="0 0 190 31">
  <g id="img23" transform="translate(-600 -1409)">
    <rect id="Rectángulo_379122" data-name="Rectángulo 379122" width="190" height="31" rx="7" transform="translate(600 1409)" fill="#fff"/>
    <g id="Grupo_1074331" data-name="Grupo 1074331" transform="translate(-75 -447)">
      <path id="Trazado_641829" data-name="Trazado 641829" d="M-65.43-2.344H-69.4L-70.571,0h-2.523l6.078-11.375H-64.9L-62.735,0h-2.336Zm-3.031-1.9h2.742l-.641-4.234Zm3.445-10.18h2.555L-64.946-12h-1.945Zm9.07,8.086a4.548,4.548,0,0,0-.742-.078,2.136,2.136,0,0,0-1.867.883L-59.532,0h-2.2l1.469-8.453,2.07-.008-.2,1.031a2.325,2.325,0,0,1,1.969-1.2,3.214,3.214,0,0,1,.766.109ZM-51.977.156a3.677,3.677,0,0,1-1.965-.543,3.292,3.292,0,0,1-1.277-1.469,4.093,4.093,0,0,1-.328-2.059l.023-.312a5.465,5.465,0,0,1,.719-2.266,4.341,4.341,0,0,1,1.547-1.59,3.827,3.827,0,0,1,2.094-.527,2.924,2.924,0,0,1,2.473,1.2,4.117,4.117,0,0,1,.637,2.962l-.125.962h-5.18a1.814,1.814,0,0,0,.4,1.313,1.521,1.521,0,0,0,1.172.508A2.7,2.7,0,0,0-49.68-2.6l1.008,1.25A3.135,3.135,0,0,1-50.047-.23,4.5,4.5,0,0,1-51.977.156Zm.7-6.945a1.565,1.565,0,0,0-1.082.383A3.363,3.363,0,0,0-53.2-5.023h3.031l.047-.2a2.071,2.071,0,0,0,.008-.594,1.134,1.134,0,0,0-.383-.707A1.2,1.2,0,0,0-51.274-6.789ZM-42.633,0a2.281,2.281,0,0,1-.086-.766,2.863,2.863,0,0,1-2.156.922,2.594,2.594,0,0,1-1.84-.723A2.186,2.186,0,0,1-47.4-2.312a2.527,2.527,0,0,1,1.16-2.121,5.266,5.266,0,0,1,2.965-.738l1.031.016.109-.508a1.764,1.764,0,0,0,.023-.492.846.846,0,0,0-.277-.574.955.955,0,0,0-.629-.215,1.345,1.345,0,0,0-.875.254,1.231,1.231,0,0,0-.461.777l-2.211.008A2.457,2.457,0,0,1-45.45-7.871a4.312,4.312,0,0,1,2.613-.738,3.117,3.117,0,0,1,2.25.855,2.5,2.5,0,0,1,.68,2.121l-.648,4.047-.039.5a2.412,2.412,0,0,0,.133.938L-40.469,0Zm-1.7-1.555a2.017,2.017,0,0,0,1.664-.828l.273-1.461-.766-.008a2.139,2.139,0,0,0-1.758.742,1.292,1.292,0,0,0-.242.633.75.75,0,0,0,.176.668A.891.891,0,0,0-44.329-1.555ZM-27.2-5.828h-6.789l.328-1.844h6.789Zm-.586,3.383h-6.789l.328-1.844h6.789ZM-17.032,0h-2.2l1.5-8.656L-20.5-7.82l.344-1.93,4.75-1.641.289-.008Zm8.266.977H-10.5l6.2-12.352h1.742ZM8.038,0H.46L.718-1.641,4.757-5.43A8.947,8.947,0,0,0,6.406-7.32a2.214,2.214,0,0,0,.3-1.422,1.061,1.061,0,0,0-1.117-.992,1.6,1.6,0,0,0-1.254.523A2.453,2.453,0,0,0,3.726-7.8l-2.2.008a3.863,3.863,0,0,1,.633-1.93,3.882,3.882,0,0,1,1.52-1.348,4.405,4.405,0,0,1,2.051-.473,3.5,3.5,0,0,1,2.469.891,2.756,2.756,0,0,1,.781,2.289A5.546,5.546,0,0,1,7.078-5L5.953-3.93,3.624-1.836l4.7.016Zm5.539-3.016,2.758-2.445L14.429-7.906l1.406-1.211L17.726-6.7l2.719-2.43L21.6-7.7,18.843-5.25l1.906,2.438-1.4,1.219-1.9-2.422L14.734-1.6Zm16.289-5.6a2.4,2.4,0,0,1,1.906.945L32.6-12h2.211L32.734,0H30.765l.125-.906a2.736,2.736,0,0,1-2.2,1.07A2.433,2.433,0,0,1,27.3-.25a2.607,2.607,0,0,1-.918-1.168,4.7,4.7,0,0,1-.355-1.7,6.4,6.4,0,0,1,.023-.953l.047-.352A6.767,6.767,0,0,1,26.824-6.7a3.766,3.766,0,0,1,1.313-1.461A3.094,3.094,0,0,1,29.867-8.617Zm-1.6,4.547a6.327,6.327,0,0,0-.039,1q.078,1.375,1.109,1.4a1.885,1.885,0,0,0,1.617-.875l.6-3.359a1.248,1.248,0,0,0-1.219-.875A1.606,1.606,0,0,0,29-6.16,4.176,4.176,0,0,0,28.265-4.07ZM37.54,5H36.254l.875-5.049L35.516.438l.2-1.126,2.771-.957.169,0Zm6.31-8.016,2.758-2.445L44.7-7.906l1.406-1.211L48-6.7l2.719-2.43L51.873-7.7,49.115-5.25l1.906,2.438-1.4,1.219-1.9-2.422L45.006-1.6Zm16.289-5.6a2.4,2.4,0,0,1,1.906.945L62.873-12h2.211L63.006,0H61.037l.125-.906a2.736,2.736,0,0,1-2.2,1.07A2.433,2.433,0,0,1,57.576-.25a2.607,2.607,0,0,1-.918-1.168,4.7,4.7,0,0,1-.355-1.7,6.4,6.4,0,0,1,.023-.953l.047-.352A6.767,6.767,0,0,1,57.1-6.7a3.766,3.766,0,0,1,1.313-1.461A3.094,3.094,0,0,1,60.138-8.617Zm-1.6,4.547a6.327,6.327,0,0,0-.039,1q.078,1.375,1.109,1.4a1.885,1.885,0,0,0,1.617-.875l.6-3.359a1.248,1.248,0,0,0-1.219-.875,1.606,1.606,0,0,0-1.34.621A4.176,4.176,0,0,0,58.537-4.07ZM69.165,5h-4.42l.15-.957,2.356-2.21a5.219,5.219,0,0,0,.962-1.1A1.292,1.292,0,0,0,68.39-.1a.619.619,0,0,0-.652-.579.932.932,0,0,0-.731.305,1.431,1.431,0,0,0-.358.825l-1.285,0A2.268,2.268,0,0,1,66.62-1.455a2.57,2.57,0,0,1,1.2-.276,2.039,2.039,0,0,1,1.44.52A1.608,1.608,0,0,1,69.712.124,3.235,3.235,0,0,1,68.6,2.083l-.656.624L66.59,3.929l2.743.009Z" transform="translate(771 1878)" fill="#12263f" stroke="rgba(0,0,0,0)" stroke-width="1"/>
    </g>
  </g>
</svg>
