<svg xmlns="http://www.w3.org/2000/svg" width="190" height="31" viewBox="0 0 190 31">
  <g id="img20" transform="translate(-600 -1409)">
    <rect id="Rectángulo_379122" data-name="Rectángulo 379122" width="190" height="31" rx="7" transform="translate(600 1409)" fill="#fff"/>
    <g id="Grupo_1074331" data-name="Grupo 1074331" transform="translate(-75 -447)">
      <path id="Trazado_641827" data-name="Trazado 641827" d="M-62.953-2.344h-3.969L-68.094,0h-2.523l6.078-11.375h2.117L-60.258,0h-2.336Zm-3.031-1.9h2.742l-.641-4.234Zm3.445-10.18h2.555L-62.469-12h-1.945Zm9.07,8.086a4.548,4.548,0,0,0-.742-.078,2.136,2.136,0,0,0-1.867.883L-57.055,0h-2.2l1.469-8.453,2.07-.008-.2,1.031a2.325,2.325,0,0,1,1.969-1.2,3.214,3.214,0,0,1,.766.109ZM-49.5.156a3.677,3.677,0,0,1-1.965-.543,3.292,3.292,0,0,1-1.277-1.469,4.093,4.093,0,0,1-.328-2.059l.023-.312a5.465,5.465,0,0,1,.719-2.266,4.341,4.341,0,0,1,1.547-1.59,3.827,3.827,0,0,1,2.094-.527,2.924,2.924,0,0,1,2.473,1.2,4.117,4.117,0,0,1,.637,2.962l-.125.962h-5.18a1.814,1.814,0,0,0,.4,1.313,1.521,1.521,0,0,0,1.172.508A2.7,2.7,0,0,0-47.2-2.6l1.008,1.25A3.135,3.135,0,0,1-47.57-.23,4.5,4.5,0,0,1-49.5.156Zm.7-6.945a1.565,1.565,0,0,0-1.082.383,3.363,3.363,0,0,0-.848,1.383H-47.7l.047-.2a2.071,2.071,0,0,0,.008-.594,1.134,1.134,0,0,0-.383-.707A1.2,1.2,0,0,0-48.8-6.789ZM-40.156,0a2.281,2.281,0,0,1-.086-.766A2.863,2.863,0,0,1-42.4.156a2.594,2.594,0,0,1-1.84-.723,2.186,2.186,0,0,1-.684-1.746,2.527,2.527,0,0,1,1.16-2.121A5.266,5.266,0,0,1-40.8-5.172l1.031.016.109-.508a1.764,1.764,0,0,0,.023-.492.846.846,0,0,0-.277-.574.955.955,0,0,0-.629-.215,1.345,1.345,0,0,0-.875.254,1.231,1.231,0,0,0-.461.777l-2.211.008a2.457,2.457,0,0,1,1.113-1.965,4.312,4.312,0,0,1,2.613-.738,3.117,3.117,0,0,1,2.25.855,2.5,2.5,0,0,1,.68,2.121l-.648,4.047-.039.5a2.412,2.412,0,0,0,.133.938L-37.992,0Zm-1.7-1.555a2.017,2.017,0,0,0,1.664-.828l.273-1.461-.766-.008a2.139,2.139,0,0,0-1.758.742,1.292,1.292,0,0,0-.242.633.75.75,0,0,0,.176.668A.891.891,0,0,0-41.852-1.555Zm17.133-4.273h-6.789l.328-1.844h6.789ZM-25.3-2.445h-6.789l.328-1.844h6.789ZM-14.555,0h-2.2l1.5-8.656-2.766.836.344-1.93,4.75-1.641.289-.008Zm8.266.977H-8.023l6.2-12.352H-.078ZM10.516,0H2.938L3.2-1.641,7.234-5.43A8.947,8.947,0,0,0,8.883-7.32a2.214,2.214,0,0,0,.3-1.422A1.061,1.061,0,0,0,8.07-9.734a1.6,1.6,0,0,0-1.254.523A2.453,2.453,0,0,0,6.2-7.8L4-7.789a3.863,3.863,0,0,1,.633-1.93,3.882,3.882,0,0,1,1.52-1.348A4.405,4.405,0,0,1,8.2-11.539a3.5,3.5,0,0,1,2.469.891,2.756,2.756,0,0,1,.781,2.289A5.546,5.546,0,0,1,9.555-5L8.43-3.93,6.1-1.836l4.7.016Zm5.539-3.016,2.758-2.445L16.906-7.906l1.406-1.211L20.2-6.7l2.719-2.43L24.078-7.7,21.32-5.25l1.906,2.438-1.4,1.219-1.9-2.422L17.211-1.6ZM36.273-4.2A6.061,6.061,0,0,1,35.055-1,3.033,3.033,0,0,1,32.508.164,2.357,2.357,0,0,1,30.477-.914L30.156,0H28.148l2.078-12h2.211l-.852,4.32a2.634,2.634,0,0,1,2.063-.93,2.385,2.385,0,0,1,1.926.879,3.89,3.89,0,0,1,.746,2.387A9.132,9.132,0,0,1,36.273-4.2Zm-2.187-.165A6.554,6.554,0,0,0,34.133-5.4q-.086-1.364-1.125-1.387a1.833,1.833,0,0,0-1.617.885l-.609,3.37a1.258,1.258,0,0,0,1.266.878q1.625.047,1.992-2.367Zm6.992,1.352,2.758-2.445L41.93-7.906l1.406-1.211L45.227-6.7l2.719-2.43L49.1-7.7,46.344-5.25,48.25-2.812l-1.4,1.219-1.9-2.422L42.234-1.6Zm15.453-4.5A2.946,2.946,0,0,1,58.82-8.609a2.143,2.143,0,0,1,1.848.9,3.548,3.548,0,0,1,.441,2.379L60.219,0h-2.2l.9-5.358a2.6,2.6,0,0,0,.016-.563.885.885,0,0,0-.984-.868,1.9,1.9,0,0,0-1.562.766L55.32,0h-2.2L55.2-12h2.211Z" transform="translate(771 1878)" fill="#12263f" stroke="rgba(0,0,0,0)" stroke-width="1"/>
    </g>
  </g>
</svg>
