<svg xmlns="http://www.w3.org/2000/svg" xmlns:xlink="http://www.w3.org/1999/xlink" width="190" height="190" viewBox="0 0 190 190">
  <defs>
    <clipPath id="clip-path">
      <rect id="Rectángulo_379370" data-name="Rectángulo 379370" width="155" height="154" transform="translate(0 0.025)" fill="none"/>
    </clipPath>
  </defs>
  <g id="img25" transform="translate(-9469 6402)">
    <rect id="Rectángulo_379368" data-name="Rectángulo 379368" width="190" height="190" rx="17" transform="translate(9469 -6402)" fill="#fff"/>
    <g id="Grupo_1074541" data-name="Grupo 1074541" transform="translate(6 -272.025)">
      <path id="Trazado_641839" data-name="Trazado 641839" d="M5.852-6.07l-.867-.062a1.558,1.558,0,0,0-1.594.781V0H.758V-8.453H3.227l.086,1.086A2.039,2.039,0,0,1,5.164-8.609a2.567,2.567,0,0,1,.734.094Z" transform="translate(9566.821 -6066.775)" fill="#2d4587"/>
      <path id="Trazado_641840" data-name="Trazado 641840" d="M.406-4.289a5.164,5.164,0,0,1,.867-3.164A2.854,2.854,0,0,1,3.7-8.609,2.428,2.428,0,0,1,5.6-7.719V-12H8.242V0H5.875L5.742-.906A2.493,2.493,0,0,1,3.68.156,2.849,2.849,0,0,1,1.289-1,5.327,5.327,0,0,1,.406-4.289Zm2.633.164q0,2.25,1.313,2.25A1.3,1.3,0,0,0,5.6-2.609V-5.828a1.261,1.261,0,0,0-1.234-.75q-1.219,0-1.32,1.969Z" transform="translate(9605.81 -5995.005)" fill="#2d4587"/>
      <g id="Grupo_1074540" data-name="Grupo 1074540" transform="translate(9481 -6112)">
        <path id="Trazado_616106" data-name="Trazado 616106" d="M145.144,79.967h-3.4V71.658h3.4Zm0-16.618h-3.4V55.04h3.4Zm0-16.618h-3.4V38.423h3.4Zm0-16.617h-3.4V21.8h3.4Zm0-16.618h-3.4V5.187h3.4Z" transform="translate(-64.621 -2.84)" fill="#a7b9e8"/>
        <g id="Grupo_1074539" data-name="Grupo 1074539" transform="translate(0 0)">
          <g id="Grupo_1074538" data-name="Grupo 1074538" clip-path="url(#clip-path)">
            <rect id="Rectángulo_379369" data-name="Rectángulo 379369" width="2.72" height="148.893" transform="translate(23.659 25.107) rotate(-45)" fill="#6fd9fb"/>
            <path id="Trazado_616107" data-name="Trazado 616107" d="M77.262,154.525a77.262,77.262,0,1,1,77.262-77.262,77.35,77.35,0,0,1-77.262,77.262m0-150.172a72.909,72.909,0,1,0,72.909,72.909A72.992,72.992,0,0,0,77.262,4.353" transform="translate(0 -0.475)" fill="#196442"/>
          </g>
        </g>
      </g>
    </g>
  </g>
</svg>
