<svg xmlns="http://www.w3.org/2000/svg" width="294" height="31" viewBox="0 0 294 31">
  <g id="img44" transform="translate(52)">
    <rect id="Rectángulo_379122" data-name="Rectángulo 379122" width="294" height="31" rx="9" transform="translate(-52)" fill="#fff"/>
    <g id="Grupo_1074331" data-name="Grupo 1074331" transform="translate(34 5)">
      <path id="Trazado_641863" data-name="Trazado 641863" d="M-103.664-2.844l3.828-8.531h2.625L-102.828,0h-2.391l-2.047-11.375h2.461Zm9.992-5.766a3.39,3.39,0,0,1,1.926.574A3.234,3.234,0,0,1-90.559-6.5a4.762,4.762,0,0,1,.27,2.176,5.143,5.143,0,0,1-1.4,3.262A3.96,3.96,0,0,1-94.711.156,3.38,3.38,0,0,1-96.617-.41,3.222,3.222,0,0,1-97.8-1.937a4.657,4.657,0,0,1-.273-2.156,5.3,5.3,0,0,1,1.422-3.328A3.878,3.878,0,0,1-93.672-8.609ZM-95.9-3.294a1.95,1.95,0,0,0,.352,1.182,1.168,1.168,0,0,0,.945.449A1.712,1.712,0,0,0-93.008-2.6a4.647,4.647,0,0,0,.539-2.531,2.122,2.122,0,0,0-.363-1.2,1.149,1.149,0,0,0-.949-.464,1.715,1.715,0,0,0-1.574.924A4.6,4.6,0,0,0-95.9-3.294ZM-87.328,0h-2.219l2.086-12h2.211Zm7.1-.875A2.919,2.919,0,0,1-82.555.156,2.172,2.172,0,0,1-84.4-.719a3.2,3.2,0,0,1-.484-2.266l.914-5.469h2.2l-.93,5.5a2.174,2.174,0,0,0-.008.485.8.8,0,0,0,.867.806,2.014,2.014,0,0,0,1.7-.79l1.055-6h2.219L-78.336,0h-2.055Zm7.047-7.586-.18.961a3.112,3.112,0,0,1,2.477-1.109,2.379,2.379,0,0,1,1.3.359,1.679,1.679,0,0,1,.7.93,3.255,3.255,0,0,1,2.625-1.289,2.126,2.126,0,0,1,1.754.8,3.271,3.271,0,0,1,.5,2.234l-.016.2L-64.93,0h-2.211l.9-5.4a3.907,3.907,0,0,0,.023-.54.837.837,0,0,0-.937-.845,1.86,1.86,0,0,0-1.555.97l-.023.18L-69.719,0h-2.2l.9-5.383A3.9,3.9,0,0,0-71-5.922a.836.836,0,0,0-.93-.852,1.867,1.867,0,0,0-1.508.789L-74.492,0h-2.2l1.461-8.453ZM-59.164.156a3.677,3.677,0,0,1-1.965-.543,3.292,3.292,0,0,1-1.277-1.469,4.093,4.093,0,0,1-.328-2.059l.023-.312a5.465,5.465,0,0,1,.719-2.266,4.341,4.341,0,0,1,1.547-1.59,3.827,3.827,0,0,1,2.094-.527,2.924,2.924,0,0,1,2.473,1.2,4.117,4.117,0,0,1,.637,2.962l-.125.962h-5.18a1.814,1.814,0,0,0,.4,1.313,1.521,1.521,0,0,0,1.172.508A2.7,2.7,0,0,0-56.867-2.6l1.008,1.25A3.135,3.135,0,0,1-57.234-.23,4.5,4.5,0,0,1-59.164.156Zm.7-6.945a1.565,1.565,0,0,0-1.082.383,3.363,3.363,0,0,0-.848,1.383h3.031l.047-.2A2.071,2.071,0,0,0-57.3-5.82a1.134,1.134,0,0,0-.383-.707A1.2,1.2,0,0,0-58.461-6.789Zm7.234-1.672-.187,1a3.042,3.042,0,0,1,2.461-1.148,2.028,2.028,0,0,1,1.766.875,3.526,3.526,0,0,1,.414,2.359L-47.664,0h-2.2l.906-5.4a2.528,2.528,0,0,0,.016-.555.9.9,0,0,0-1-.82,1.9,1.9,0,0,0-1.555.8L-52.555,0h-2.2l1.469-8.453Zm17.219,2.633H-40.8l.328-1.844h6.789Zm-.586,3.383h-6.789l.328-1.844h6.789Zm12.336.1h-3.969L-27.4,0h-2.523l6.078-11.375h2.117L-19.562,0H-21.9Zm-3.031-1.9h2.742l-.641-4.234Zm3.445-10.18h2.555L-21.773-12h-1.945Zm9.07,8.086a4.548,4.548,0,0,0-.742-.078,2.136,2.136,0,0,0-1.867.883L-16.359,0h-2.2l1.469-8.453,2.07-.008-.2,1.031a2.325,2.325,0,0,1,1.969-1.2,3.214,3.214,0,0,1,.766.109ZM-8.8.156A3.677,3.677,0,0,1-10.77-.387a3.292,3.292,0,0,1-1.277-1.469,4.093,4.093,0,0,1-.328-2.059l.023-.312a5.465,5.465,0,0,1,.719-2.266,4.341,4.341,0,0,1,1.547-1.59,3.827,3.827,0,0,1,2.094-.527,2.924,2.924,0,0,1,2.473,1.2,4.117,4.117,0,0,1,.637,2.962l-.125.962h-5.18a1.814,1.814,0,0,0,.4,1.313,1.521,1.521,0,0,0,1.172.508A2.7,2.7,0,0,0-6.508-2.6L-5.5-1.352A3.135,3.135,0,0,1-6.875-.23,4.5,4.5,0,0,1-8.8.156Zm.7-6.945a1.565,1.565,0,0,0-1.082.383,3.363,3.363,0,0,0-.848,1.383H-7l.047-.2a2.071,2.071,0,0,0,.008-.594,1.134,1.134,0,0,0-.383-.707A1.2,1.2,0,0,0-8.1-6.789ZM.539,0A2.281,2.281,0,0,1,.453-.766,2.863,2.863,0,0,1-1.7.156a2.594,2.594,0,0,1-1.84-.723,2.186,2.186,0,0,1-.684-1.746,2.527,2.527,0,0,1,1.16-2.121A5.266,5.266,0,0,1-.1-5.172L.93-5.156l.109-.508a1.764,1.764,0,0,0,.023-.492A.846.846,0,0,0,.785-6.73a.955.955,0,0,0-.629-.215,1.345,1.345,0,0,0-.875.254,1.231,1.231,0,0,0-.461.777l-2.211.008A2.457,2.457,0,0,1-2.277-7.871,4.312,4.312,0,0,1,.336-8.609a3.117,3.117,0,0,1,2.25.855,2.5,2.5,0,0,1,.68,2.121L2.617-1.586l-.039.5a2.412,2.412,0,0,0,.133.938L2.7,0Zm-1.7-1.555A2.017,2.017,0,0,0,.508-2.383L.781-3.844.016-3.852a2.139,2.139,0,0,0-1.758.742,1.292,1.292,0,0,0-.242.633.75.75,0,0,0,.176.668A.891.891,0,0,0-1.156-1.555ZM12.188-8.617a2.4,2.4,0,0,1,1.906.945L14.922-12h2.211L15.055,0H13.086l.125-.906a2.736,2.736,0,0,1-2.2,1.07A2.433,2.433,0,0,1,9.625-.25a2.607,2.607,0,0,1-.918-1.168,4.7,4.7,0,0,1-.355-1.7,6.4,6.4,0,0,1,.023-.953l.047-.352A6.767,6.767,0,0,1,9.145-6.7a3.766,3.766,0,0,1,1.313-1.461A3.094,3.094,0,0,1,12.188-8.617Zm-1.6,4.547a6.327,6.327,0,0,0-.039,1q.078,1.375,1.109,1.4a1.885,1.885,0,0,0,1.617-.875l.6-3.359a1.248,1.248,0,0,0-1.219-.875,1.606,1.606,0,0,0-1.34.621A4.176,4.176,0,0,0,10.586-4.07ZM20.828.156a3.677,3.677,0,0,1-1.965-.543,3.292,3.292,0,0,1-1.277-1.469,4.093,4.093,0,0,1-.328-2.059l.023-.312A5.465,5.465,0,0,1,18-6.492a4.341,4.341,0,0,1,1.547-1.59,3.827,3.827,0,0,1,2.094-.527,2.924,2.924,0,0,1,2.473,1.2,4.117,4.117,0,0,1,.637,2.962l-.125.962h-5.18a1.814,1.814,0,0,0,.4,1.313,1.521,1.521,0,0,0,1.172.508A2.7,2.7,0,0,0,23.125-2.6l1.008,1.25A3.135,3.135,0,0,1,22.758-.23,4.5,4.5,0,0,1,20.828.156Zm.7-6.945a1.565,1.565,0,0,0-1.082.383A3.363,3.363,0,0,0,19.6-5.023h3.031l.047-.2a2.071,2.071,0,0,0,.008-.594,1.134,1.134,0,0,0-.383-.707A1.2,1.2,0,0,0,21.531-6.789ZM31.555,0H29.336l2.086-12h2.211Zm6.758,0a2.281,2.281,0,0,1-.086-.766A2.863,2.863,0,0,1,36.07.156a2.594,2.594,0,0,1-1.84-.723,2.186,2.186,0,0,1-.684-1.746,2.527,2.527,0,0,1,1.16-2.121,5.266,5.266,0,0,1,2.965-.738l1.031.016.109-.508a1.764,1.764,0,0,0,.023-.492.846.846,0,0,0-.277-.574.955.955,0,0,0-.629-.215,1.345,1.345,0,0,0-.875.254,1.231,1.231,0,0,0-.461.777l-2.211.008A2.457,2.457,0,0,1,35.5-7.871a4.312,4.312,0,0,1,2.613-.738,3.117,3.117,0,0,1,2.25.855,2.5,2.5,0,0,1,.68,2.121l-.648,4.047-.039.5a2.412,2.412,0,0,0,.133.938L40.477,0Zm-1.7-1.555a2.017,2.017,0,0,0,1.664-.828l.273-1.461-.766-.008a2.139,2.139,0,0,0-1.758.742,1.292,1.292,0,0,0-.242.633.75.75,0,0,0,.176.668A.891.891,0,0,0,36.617-1.555ZM53.891-4.2A6.061,6.061,0,0,1,52.672-1,3.033,3.033,0,0,1,50.125.164,2.357,2.357,0,0,1,48.094-.914L47.773,0H45.766l2.078-12h2.211L49.2-7.68a2.634,2.634,0,0,1,2.063-.93,2.385,2.385,0,0,1,1.926.879,3.89,3.89,0,0,1,.746,2.387A9.132,9.132,0,0,1,53.891-4.2ZM51.7-4.368A6.554,6.554,0,0,0,51.75-5.4q-.086-1.364-1.125-1.387a1.833,1.833,0,0,0-1.617.885L48.4-2.534a1.258,1.258,0,0,0,1.266.878q1.625.047,1.992-2.367ZM59.469,0a2.281,2.281,0,0,1-.086-.766,2.863,2.863,0,0,1-2.156.922,2.594,2.594,0,0,1-1.84-.723A2.186,2.186,0,0,1,54.7-2.312a2.527,2.527,0,0,1,1.16-2.121,5.266,5.266,0,0,1,2.965-.738l1.031.016.109-.508a1.764,1.764,0,0,0,.023-.492.846.846,0,0,0-.277-.574.955.955,0,0,0-.629-.215,1.345,1.345,0,0,0-.875.254,1.231,1.231,0,0,0-.461.777l-2.211.008a2.457,2.457,0,0,1,1.113-1.965,4.312,4.312,0,0,1,2.613-.738,3.117,3.117,0,0,1,2.25.855,2.5,2.5,0,0,1,.68,2.121l-.648,4.047-.039.5a2.412,2.412,0,0,0,.133.938L61.633,0Zm-1.7-1.555a2.017,2.017,0,0,0,1.664-.828l.273-1.461-.766-.008a2.139,2.139,0,0,0-1.758.742,1.292,1.292,0,0,0-.242.633.75.75,0,0,0,.176.668A.891.891,0,0,0,57.773-1.555Zm10.1-.828q.125-.625-.867-.906l-.711-.18q-2.523-.7-2.453-2.453A2.428,2.428,0,0,1,64.9-7.871a3.942,3.942,0,0,1,2.457-.738,3.536,3.536,0,0,1,2.313.758,2.5,2.5,0,0,1,.9,1.977l-2.187-.008a.963.963,0,0,0-1.078-1.1,1.551,1.551,0,0,0-.895.258,1.061,1.061,0,0,0-.465.7q-.117.625.945.883l.313.07a6.285,6.285,0,0,1,1.648.59,2.488,2.488,0,0,1,.879.824,2.04,2.04,0,0,1,.285,1.18,2.251,2.251,0,0,1-.52,1.406,3.18,3.18,0,0,1-1.359.93,4.736,4.736,0,0,1-1.816.3,3.568,3.568,0,0,1-2.344-.809A2.607,2.607,0,0,1,63.023-2.7l2.078.016a1.142,1.142,0,0,0,1.3,1.227,1.845,1.845,0,0,0,1-.25A.987.987,0,0,0,67.875-2.383ZM75.047.156a3.677,3.677,0,0,1-1.965-.543A3.292,3.292,0,0,1,71.8-1.855a4.093,4.093,0,0,1-.328-2.059l.023-.312a5.465,5.465,0,0,1,.719-2.266,4.341,4.341,0,0,1,1.547-1.59,3.827,3.827,0,0,1,2.094-.527,2.924,2.924,0,0,1,2.473,1.2,4.117,4.117,0,0,1,.637,2.962l-.125.962h-5.18a1.814,1.814,0,0,0,.4,1.313,1.521,1.521,0,0,0,1.172.508A2.7,2.7,0,0,0,77.344-2.6l1.008,1.25A3.135,3.135,0,0,1,76.977-.23,4.5,4.5,0,0,1,75.047.156Zm.7-6.945a1.565,1.565,0,0,0-1.082.383,3.363,3.363,0,0,0-.848,1.383h3.031l.047-.2a2.071,2.071,0,0,0,.008-.594,1.134,1.134,0,0,0-.383-.707A1.2,1.2,0,0,0,75.75-6.789Zm7.867,3.773,2.758-2.445L84.469-7.906l1.406-1.211L87.766-6.7l2.719-2.43L91.641-7.7,88.883-5.25l1.906,2.438-1.4,1.219-1.9-2.422L84.773-1.6Zm15.453-4.5a2.946,2.946,0,0,1,2.289-1.094,2.143,2.143,0,0,1,1.848.9,3.548,3.548,0,0,1,.441,2.379L102.758,0h-2.2l.9-5.358a2.6,2.6,0,0,0,.016-.563.885.885,0,0,0-.984-.868,1.9,1.9,0,0,0-1.562.766L97.859,0h-2.2l2.078-12h2.211Z" transform="translate(62 17)" fill="#12263f" stroke="rgba(0,0,0,0)" stroke-width="1"/>
    </g>
  </g>
</svg>
