<svg xmlns="http://www.w3.org/2000/svg" width="294" height="31" viewBox="0 0 294 31">
  <g id="img47" transform="translate(52)">
    <rect id="Rectángulo_379122" data-name="Rectángulo 379122" width="294" height="31" rx="9" transform="translate(-52)" fill="#fff"/>
    <g id="Grupo_1074331" data-name="Grupo 1074331" transform="translate(34 5)">
      <path id="Trazado_641866" data-name="Trazado 641866" d="M-79.355-2.844l3.828-8.531H-72.9L-78.519,0h-2.391l-2.047-11.375H-80.5Zm9.992-5.766a3.39,3.39,0,0,1,1.926.574A3.234,3.234,0,0,1-66.249-6.5a4.762,4.762,0,0,1,.27,2.176,5.143,5.143,0,0,1-1.4,3.262A3.96,3.96,0,0,1-70.4.156,3.38,3.38,0,0,1-72.308-.41,3.222,3.222,0,0,1-73.5-1.937a4.657,4.657,0,0,1-.273-2.156,5.3,5.3,0,0,1,1.422-3.328A3.878,3.878,0,0,1-69.362-8.609Zm-2.227,5.315a1.95,1.95,0,0,0,.352,1.182,1.168,1.168,0,0,0,.945.449A1.712,1.712,0,0,0-68.7-2.6a4.647,4.647,0,0,0,.539-2.531,2.122,2.122,0,0,0-.363-1.2,1.149,1.149,0,0,0-.949-.464,1.715,1.715,0,0,0-1.574.924A4.6,4.6,0,0,0-71.589-3.294ZM-63.019,0h-2.219l2.086-12h2.211Zm7.1-.875A2.919,2.919,0,0,1-58.245.156a2.172,2.172,0,0,1-1.844-.875,3.2,3.2,0,0,1-.484-2.266l.914-5.469h2.2l-.93,5.5a2.175,2.175,0,0,0-.008.485.8.8,0,0,0,.867.806,2.014,2.014,0,0,0,1.7-.79l1.055-6h2.219L-54.027,0h-2.055Zm7.047-7.586-.18.961a3.112,3.112,0,0,1,2.477-1.109,2.379,2.379,0,0,1,1.3.359,1.679,1.679,0,0,1,.7.93,3.255,3.255,0,0,1,2.625-1.289,2.126,2.126,0,0,1,1.754.8,3.271,3.271,0,0,1,.5,2.234l-.016.2L-40.62,0h-2.211l.9-5.4a3.908,3.908,0,0,0,.023-.54.837.837,0,0,0-.937-.845,1.86,1.86,0,0,0-1.555.97l-.023.18L-45.409,0h-2.2l.9-5.383a3.9,3.9,0,0,0,.023-.539.836.836,0,0,0-.93-.852,1.867,1.867,0,0,0-1.508.789L-50.183,0h-2.2l1.461-8.453ZM-34.855.156A3.677,3.677,0,0,1-36.82-.387,3.292,3.292,0,0,1-38.1-1.855a4.093,4.093,0,0,1-.328-2.059l.023-.312a5.465,5.465,0,0,1,.719-2.266,4.341,4.341,0,0,1,1.547-1.59,3.827,3.827,0,0,1,2.094-.527,2.924,2.924,0,0,1,2.473,1.2,4.117,4.117,0,0,1,.637,2.962l-.125.962h-5.18a1.814,1.814,0,0,0,.4,1.313,1.521,1.521,0,0,0,1.172.508A2.7,2.7,0,0,0-32.558-2.6l1.008,1.25A3.135,3.135,0,0,1-32.925-.23,4.5,4.5,0,0,1-34.855.156Zm.7-6.945a1.565,1.565,0,0,0-1.082.383,3.363,3.363,0,0,0-.848,1.383h3.031l.047-.2A2.071,2.071,0,0,0-33-5.82a1.134,1.134,0,0,0-.383-.707A1.2,1.2,0,0,0-34.152-6.789Zm7.234-1.672-.187,1a3.042,3.042,0,0,1,2.461-1.148,2.028,2.028,0,0,1,1.766.875,3.526,3.526,0,0,1,.414,2.359L-23.355,0h-2.2l.906-5.4a2.528,2.528,0,0,0,.016-.555.9.9,0,0,0-1-.82,1.9,1.9,0,0,0-1.555.8L-28.245,0h-2.2l1.469-8.453ZM-9.7-5.828h-6.789l.328-1.844H-9.37Zm-.586,3.383h-6.789l.328-1.844h6.789ZM2.372-4.281h1.25L3.3-2.461H2.052L1.622,0h-2.2l.43-2.461H-4.667L-4.511-4l5.8-7.375H3.6ZM-2.222-4.3l2.391.016L.942-8.328l-.2.281ZM8.731.977H7l6.2-12.352h1.742ZM21.247-6.687,22.3-6.68a2.055,2.055,0,0,0,1.348-.445,1.737,1.737,0,0,0,.629-1.2,1.261,1.261,0,0,0-.242-1.012,1.23,1.23,0,0,0-.961-.395,1.642,1.642,0,0,0-1.1.348,1.494,1.494,0,0,0-.559.941l-2.2.016A2.952,2.952,0,0,1,20.4-10.676a4.165,4.165,0,0,1,2.707-.863,3.716,3.716,0,0,1,2.547.9,2.739,2.739,0,0,1,.852,2.3A3.078,3.078,0,0,1,24.434-5.8a2.381,2.381,0,0,1,1.121,1.043,2.826,2.826,0,0,1,.309,1.5,3.267,3.267,0,0,1-.633,1.813,3.7,3.7,0,0,1-1.547,1.2,4.962,4.962,0,0,1-2.094.395,3.557,3.557,0,0,1-2.484-.91,3.03,3.03,0,0,1-.945-2.363h2.188A1.412,1.412,0,0,0,20.7-2.082a1.385,1.385,0,0,0,1.035.418A1.933,1.933,0,0,0,23.052-2.1a1.761,1.761,0,0,0,.641-1.179,1.428,1.428,0,0,0-.277-1.2,1.553,1.553,0,0,0-1.152-.439l-1.3-.008Zm9.828,3.672,2.758-2.445L31.927-7.906l1.406-1.211L35.223-6.7l2.719-2.43L39.1-7.7,36.341-5.25l1.906,2.438-1.4,1.219-1.9-2.422L32.231-1.6Zm17.4-.484q.133-.625.379-1.508t.426-1.359l-.039-.07h-2.3l-.961,4.445q-.117.523-.273,1.129T45.466,0H43.809l.078-.383a8.783,8.783,0,0,0,1.531-3.844l.516-2.211h-.25a2.118,2.118,0,0,0-.937.188,2.7,2.7,0,0,0-.836.75l-.492-.414q.406-.492.664-.75a3.126,3.126,0,0,1,.543-.437,2.287,2.287,0,0,1,.641-.273,3.284,3.284,0,0,1,.832-.094h6.414l-.227,1.031H50.427l-.883,3.914a5.792,5.792,0,0,0-.172,1.156.787.787,0,0,0,.1.453.368.368,0,0,0,.32.141q.469,0,1.1-.75l.453.422a5.025,5.025,0,0,1-1.082.938,2.014,2.014,0,0,1-1.043.289,1.033,1.033,0,0,1-.836-.363,1.44,1.44,0,0,1-.3-.957A7.655,7.655,0,0,1,48.3-2.711Zm8.617.484,2.758-2.445L57.942-7.906l1.406-1.211L61.239-6.7l2.719-2.43L65.114-7.7,62.356-5.25l1.906,2.438-1.4,1.219-1.9-2.422L58.247-1.6Zm17.883-3.32a4.548,4.548,0,0,0-.742-.078,2.136,2.136,0,0,0-1.867.883L71.388,0h-2.2l1.469-8.453,2.07-.008-.2,1.031a2.325,2.325,0,0,1,1.969-1.2,3.214,3.214,0,0,1,.766.109ZM76.826-8.9l.615,0a1.2,1.2,0,0,0,.786-.26,1.013,1.013,0,0,0,.367-.7.736.736,0,0,0-.141-.59.717.717,0,0,0-.561-.23.958.958,0,0,0-.64.2.872.872,0,0,0-.326.549l-1.285.009a1.722,1.722,0,0,1,.69-1.315,2.429,2.429,0,0,1,1.579-.5,2.168,2.168,0,0,1,1.486.524,1.6,1.6,0,0,1,.5,1.34,1.8,1.8,0,0,1-1.208,1.486,1.389,1.389,0,0,1,.654.608,1.649,1.649,0,0,1,.18.877,1.906,1.906,0,0,1-.369,1.057,2.16,2.16,0,0,1-.9.7,2.894,2.894,0,0,1-1.221.23,2.075,2.075,0,0,1-1.449-.531,1.767,1.767,0,0,1-.551-1.379H76.3a.824.824,0,0,0,.207.6.808.808,0,0,0,.6.244,1.128,1.128,0,0,0,.766-.254,1.027,1.027,0,0,0,.374-.688.833.833,0,0,0-.162-.7.906.906,0,0,0-.672-.256l-.756,0Z" transform="translate(62 17)" fill="#12263f" stroke="rgba(0,0,0,0)" stroke-width="1"/>
    </g>
  </g>
</svg>
