<svg xmlns="http://www.w3.org/2000/svg" xmlns:xlink="http://www.w3.org/1999/xlink" width="70" height="70" viewBox="0 0 70 70">
  <defs>
    <clipPath id="clip-path">
      <rect id="Rect치ngulo_379295" data-name="Rect치ngulo 379295" width="44" height="44" transform="translate(271 971)" fill="#fff" stroke="#707070" stroke-width="1"/>
    </clipPath>
    <clipPath id="clip-path-2">
      <rect id="Rect치ngulo_379296" data-name="Rect치ngulo 379296" width="31.809" height="38.709" fill="#fff"/>
    </clipPath>
  </defs>
  <g id="img6" transform="translate(-1217 -2115)">
    <g id="Grupo_1074453" data-name="Grupo 1074453" transform="translate(948 1157)">
      <circle id="Elipse_5614" data-name="Elipse 5614" cx="35" cy="35" r="35" transform="translate(269 958)" fill="#11462e"/>
    </g>
    <g id="Enmascarar_grupo_1074744" data-name="Enmascarar grupo 1074744" transform="translate(959 1157)" clip-path="url(#clip-path)">
      <g id="Grupo_1074484" data-name="Grupo 1074484" transform="translate(277 974)">
        <g id="Grupo_1074483" data-name="Grupo 1074483" clip-path="url(#clip-path-2)">
          <path id="Trazado_615987" data-name="Trazado 615987" d="M31.808,14.09v.219q0,9.508,0,19.016a5.3,5.3,0,0,1-3.8,5.13,6.121,6.121,0,0,1-1.715.253c-6.972,0-13.945.013-20.917-.01a5.3,5.3,0,0,1-5.234-4.16,5.67,5.67,0,0,1-.135-1.2Q0,19.321.01,5.306A5.228,5.228,0,0,1,4.245.152,7.731,7.731,0,0,1,5.689.009C8.781,0,11.873,0,14.965,0h.941V.27q0,4.328,0,8.656a5.264,5.264,0,0,0,3.307,4.785,5.573,5.573,0,0,0,2.012.376l10.089,0h.493M7.552,25.819c.123.133.181.2.243.261l3.035,3.014c.434.431.866.863,1.3,1.29a1.8,1.8,0,0,0,2.262-.009c.1-.1.208-.184.306-.282.518-.517,1.033-1.036,1.552-1.553l7.885-7.855a.988.988,0,0,0,.068-.083l-2.522-2.5c-.37.381-.742.774-1.125,1.156Q17,22.8,13.447,26.33c-.185.184-.184.184-.366,0q-1.449-1.429-2.9-2.859c-.084-.083-.128-.081-.211,0q-.933.941-1.876,1.872c-.166.163-.353.3-.546.47" transform="translate(0 -0.001)" fill="#fff"/>
          <path id="Trazado_615988" data-name="Trazado 615988" d="M127.865,6.99c.4.234,10.875,9.21,11.06,9.488-.079,0-.143.012-.206.012q-4.57,0-9.14,0a1.791,1.791,0,0,1-1.713-1.593c-.018-.226-.028-.453-.028-.68q0-3.568.008-7.137a.523.523,0,0,1,.019-.09" transform="translate(-108.4 -5.927)" fill="#fff"/>
        </g>
      </g>
    </g>
  </g>
</svg>
