<svg xmlns="http://www.w3.org/2000/svg" xmlns:xlink="http://www.w3.org/1999/xlink" width="121.668" height="125" viewBox="0 0 121.668 125">
  <defs>
    <clipPath id="clip-path">
      <rect id="Rectángulo_379308" data-name="Rectángulo 379308" width="64.328" height="66.17" fill="none"/>
    </clipPath>
  </defs>
  <g id="img7" transform="translate(-383 -2785.398)">
    <g id="Grupo_1074457" data-name="Grupo 1074457" transform="translate(-5.668 -3211.602)">
      <g id="Grupo_1072788" data-name="Grupo 1072788" transform="translate(13.999 114.601)">
        <g id="Grupo_1072785" data-name="Grupo 1072785" transform="translate(386.668 5997)">
          <path id="Trazado_608385" data-name="Trazado 608385" d="M48.909,0C75.921,0,97.818,2.328,97.818,5.2s-21.9,5.2-48.909,5.2S0,8.071,0,5.2,21.9,0,48.909,0Z" transform="translate(0 0)" fill="none"/>
        </g>
        <g id="Grupo_1073383" data-name="Grupo 1073383" transform="translate(386.668 5997)">
          <path id="Trazado_608385-2" data-name="Trazado 608385" d="M48.909,0C75.921,0,97.818,2.328,97.818,5.2s-21.9,5.2-48.909,5.2S0,8.071,0,5.2,21.9,0,48.909,0Z" transform="translate(0 0)" fill="#11462e"/>
        </g>
      </g>
      <g id="Grupo_1073526" data-name="Grupo 1073526" transform="translate(2)">
        <g id="Grupo_1072785-2" data-name="Grupo 1072785" transform="translate(386.668 5997)">
          <path id="Trazado_608385-3" data-name="Trazado 608385" d="M60.834,0A60.834,60.834,0,1,1,0,60.834,60.834,60.834,0,0,1,60.834,0Z" transform="translate(0 0)" fill="none"/>
        </g>
        <g id="Grupo_1073383-2" data-name="Grupo 1073383" transform="translate(386.668 5997)">
          <path id="Trazado_608385-4" data-name="Trazado 608385" d="M60.834,0A60.834,60.834,0,1,1,0,60.834,60.834,60.834,0,0,1,60.834,0Z" transform="translate(0 0)" fill="#fff"/>
        </g>
      </g>
    </g>
    <g id="Grupo_1074493" data-name="Grupo 1074493" transform="translate(0 -37.602)">
      <rect id="Rectángulo_379253" data-name="Rectángulo 379253" width="73" height="73" transform="translate(407 2849)" fill="#fff"/>
      <g id="Grupo_1074492" data-name="Grupo 1074492" transform="translate(411 2852)">
        <g id="Grupo_1074491" data-name="Grupo 1074491" clip-path="url(#clip-path)">
          <path id="Trazado_615989" data-name="Trazado 615989" d="M64.328,49.236a5.544,5.544,0,0,1-5.539,5.539H5.539A5.544,5.544,0,0,1,0,49.236V8.945A5.538,5.538,0,0,1,5.539,3.413H58.676a5.652,5.652,0,0,1,5.652,5.653Z" transform="translate(0 -1.061)" fill="#16566b"/>
          <path id="Trazado_615990" data-name="Trazado 615990" d="M64.5,9.207V49.378a5.545,5.545,0,0,1-5.535,5.542H5.717A5.543,5.543,0,0,1,.575,51.439h29.37A31.083,31.083,0,0,0,61.031,20.359V5.733a5.584,5.584,0,0,0-.317-1.861A5.65,5.65,0,0,1,64.5,9.207" transform="translate(-0.179 -1.203)" fill="#0c4356"/>
          <rect id="Rectángulo_379305" data-name="Rectángulo 379305" width="14.699" height="8.483" transform="translate(24.814 53.704)" fill="#16566b"/>
          <path id="Trazado_615991" data-name="Trazado 615991" d="M54.36,94.2H26.332a3.984,3.984,0,0,1,3.975-3.992H50.385A3.984,3.984,0,0,1,54.36,94.2" transform="translate(-8.182 -28.031)" fill="#0c4356"/>
          <path id="Trazado_615992" data-name="Trazado 615992" d="M47.768,69.146a2.01,2.01,0,1,1-2.01-2.01,2.012,2.012,0,0,1,2.01,2.01" transform="translate(-13.594 -20.861)" fill="#f4f6f8"/>
          <path id="Trazado_615993" data-name="Trazado 615993" d="M47.8,69.185a2.01,2.01,0,0,1-3.929.6,2.138,2.138,0,0,0,.6.09,2.014,2.014,0,0,0,2.006-2.013,2.177,2.177,0,0,0-.09-.6A2.013,2.013,0,0,1,47.8,69.185" transform="translate(-13.633 -20.9)" fill="#e4e8eb"/>
          <path id="Trazado_616007" data-name="Trazado 616007" d="M0,0H53.42V35.091H0Z" transform="translate(5.454 7.82)" fill="#a8e8fc"/>
          <rect id="Rectángulo_379307" data-name="Rectángulo 379307" width="39.417" height="42.912" transform="translate(12.456)" fill="#f4f6f8"/>
          <path id="Trazado_615994" data-name="Trazado 615994" d="M57.487,0V42.916H18.075V39.084H29.041A24.623,24.623,0,0,0,53.662,14.463V0Z" transform="translate(-5.616 -0.001)" fill="#e4e8eb"/>
          <path id="Trazado_615995" data-name="Trazado 615995" d="M34.932,7.5H24.251a.689.689,0,0,1,0-1.379H34.932a.689.689,0,0,1,0,1.379" transform="translate(-7.321 -1.901)" fill="#434a54"/>
          <path id="Trazado_615996" data-name="Trazado 615996" d="M27.752,13.049h-3.5a.689.689,0,1,1,0-1.379h3.5a.689.689,0,1,1,0,1.379" transform="translate(-7.321 -3.626)" fill="#434a54"/>
          <path id="Trazado_615997" data-name="Trazado 615997" d="M34.07,13.049H33.4a.689.689,0,0,1,0-1.379h.675a.689.689,0,0,1,0,1.379" transform="translate(-10.163 -3.626)" fill="#434a54"/>
          <path id="Trazado_615998" data-name="Trazado 615998" d="M33.752,20.165a1.108,1.108,0,0,0-.323-.423.846.846,0,0,0-.538-.177h-.122a.846.846,0,0,0-.538.176,1.118,1.118,0,0,0-.325.427l-3.1,7.317a.8.8,0,0,0-.074.309.707.707,0,0,0,.2.508.739.739,0,0,0,.923.092.758.758,0,0,0,.278-.327l.746-1.79h3.9l.749,1.8a.741.741,0,0,0,.275.321.723.723,0,0,0,.4.119.692.692,0,0,0,.519-.211.709.709,0,0,0,.2-.508.817.817,0,0,0-.074-.31Zm.46,4.759H31.447L32.829,21.6Z" transform="translate(-8.928 -6.079)" fill="#434a54"/>
          <path id="Trazado_615999" data-name="Trazado 615999" d="M49.5,27.41h-5.93a.632.632,0,0,0-.453.182.648.648,0,0,0,0,.921h0a.626.626,0,0,0,.456.19H49.5a.62.62,0,0,0,.465-.193.64.64,0,0,0,.181-.454.629.629,0,0,0-.646-.646" transform="translate(-13.338 -8.517)" fill="#434a54"/>
          <path id="Trazado_616000" data-name="Trazado 616000" d="M49.5,23.461h-5.93a.632.632,0,0,0-.453.182.648.648,0,0,0,0,.921h0a.626.626,0,0,0,.456.19H49.5a.62.62,0,0,0,.465-.193.64.64,0,0,0,.181-.454.629.629,0,0,0-.646-.646" transform="translate(-13.338 -7.29)" fill="#434a54"/>
          <path id="Trazado_616001" data-name="Trazado 616001" d="M62.139,19.881a.852.852,0,0,0-.6-.229H56.577a.665.665,0,0,0-.5.212.7.7,0,0,0-.2.5.692.692,0,0,0,.7.695h4.131l-3.216,6.4a.818.818,0,0,0-.092.369.7.7,0,0,0,.208.511h0a.7.7,0,0,0,.511.208.766.766,0,0,0,.391-.109.738.738,0,0,0,.286-.292l3.454-7.064a1.471,1.471,0,0,0,.136-.606.777.777,0,0,0-.249-.588" transform="translate(-17.364 -6.106)" fill="#434a54"/>
          <path id="Trazado_616002" data-name="Trazado 616002" d="M35.089,45.025a2.239,2.239,0,0,0,.587-.57,2.361,2.361,0,0,0-.406-3.009,3.222,3.222,0,0,0-2.122-.636H30.28a.684.684,0,0,0-.513.217.717.717,0,0,0-.206.514v7.377a.711.711,0,0,0,.719.719h2.941a3.829,3.829,0,0,0,2.481-.672,2.334,2.334,0,0,0,.815-1.882,2.011,2.011,0,0,0-.513-1.4,2.776,2.776,0,0,0-.915-.653m.014,2.009a1.038,1.038,0,0,1-.423.895,2.755,2.755,0,0,1-1.568.33h-2.1V45.821h2.113c1.979,0,1.979.913,1.979,1.213M31.011,44.48V42.188h2.052a1.99,1.99,0,0,1,1.18.307.9.9,0,0,1,.4.772,1.083,1.083,0,0,1-.376.888,2.27,2.27,0,0,1-1.409.325Z" transform="translate(-9.185 -12.681)" fill="#434a54"/>
          <path id="Trazado_616003" data-name="Trazado 616003" d="M48.566,44.618h-5.93a.632.632,0,0,0-.453.182.622.622,0,0,0-.194.464.628.628,0,0,0,.19.457h0a.626.626,0,0,0,.456.19h5.93a.62.62,0,0,0,.465-.193.64.64,0,0,0,.181-.454.629.629,0,0,0-.646-.646" transform="translate(-13.047 -13.864)" fill="#434a54"/>
          <path id="Trazado_616004" data-name="Trazado 616004" d="M48.566,48.567h-5.93a.632.632,0,0,0-.453.182.622.622,0,0,0-.194.464.628.628,0,0,0,.19.457h0a.626.626,0,0,0,.456.19h5.93a.62.62,0,0,0,.465-.193.64.64,0,0,0,.181-.454.629.629,0,0,0-.646-.646" transform="translate(-13.047 -15.091)" fill="#434a54"/>
          <path id="Trazado_616005" data-name="Trazado 616005" d="M56.974,51.353a.859.859,0,0,0-.263.626.873.873,0,0,0,.263.638.86.86,0,0,0,.627.263.9.9,0,0,0,.9-.9.857.857,0,0,0-.263-.626.9.9,0,0,0-1.264,0" transform="translate(-17.622 -15.876)" fill="#434a54"/>
          <path id="Trazado_616006" data-name="Trazado 616006" d="M56.964,40.634a4.665,4.665,0,0,0-1.175.139,3.784,3.784,0,0,0-1.053.469.7.7,0,0,0-.387.609.636.636,0,0,0,.2.463.667.667,0,0,0,.856.073,2.413,2.413,0,0,1,.675-.277,3.214,3.214,0,0,1,.791-.1c1.4,0,1.565.658,1.565,1.152a.763.763,0,0,1-.18.5,4.361,4.361,0,0,1-.655.607,7.7,7.7,0,0,0-.715.641,2.73,2.73,0,0,0-.487.733,2.4,2.4,0,0,0-.211,1.033.609.609,0,0,0,.207.461.759.759,0,0,0,.99,0,.606.606,0,0,0,.216-.463,1.113,1.113,0,0,1,.225-.715,4.569,4.569,0,0,1,.755-.718,6.822,6.822,0,0,0,.66-.58,2.406,2.406,0,0,0,.446-.654,2.108,2.108,0,0,0,.187-.906,2.237,2.237,0,0,0-.81-1.809,3.191,3.191,0,0,0-2.1-.66" transform="translate(-16.888 -12.626)" fill="#434a54"/>
        </g>
      </g>
    </g>
  </g>
</svg>
