<svg xmlns="http://www.w3.org/2000/svg" xmlns:xlink="http://www.w3.org/1999/xlink" width="62.504" height="62.504" viewBox="0 0 62.504 62.504">
  <defs>
    <clipPath id="clip-path">
      <rect id="Rect치ngulo_378999" data-name="Rect치ngulo 378999" width="43" height="43" transform="translate(289.816 1209.717)" fill="#fff" stroke="#707070" stroke-width="1"/>
    </clipPath>
    <clipPath id="clip-path-2">
      <rect id="Rect치ngulo_378998" data-name="Rect치ngulo 378998" width="39.5" height="27.477" fill="#ffd87e"/>
    </clipPath>
  </defs>
  <g id="img1" transform="translate(-273 -599)">
    <g id="Grupo_1072055" data-name="Grupo 1072055" transform="translate(-6.816 -599.717)">
      <g id="Grupo_1072053" data-name="Grupo 1072053" transform="translate(279.816 1198.717)">
        <circle id="Elipse_4742" data-name="Elipse 4742" cx="31.252" cy="31.252" r="31.252" transform="translate(0)" fill="#11462e"/>
      </g>
      <g id="Enmascarar_grupo_1074669" data-name="Enmascarar grupo 1074669" clip-path="url(#clip-path)">
        <g id="Grupo_1074230" data-name="Grupo 1074230" transform="translate(291.816 1217.717)">
          <g id="Grupo_1074229" data-name="Grupo 1074229" clip-path="url(#clip-path-2)">
            <path id="Trazado_615578" data-name="Trazado 615578" d="M185.9,45.424c-.191-.2-.351-.364-.516-.527-.811-.8-1.628-1.6-2.433-2.409a2.851,2.851,0,0,1-.427-.552,1.557,1.557,0,0,1-.049-1.52,2.117,2.117,0,0,1,1.958-1.3,1.718,1.718,0,0,1,1.152.5q.745.707,1.476,1.429,2.483,2.458,4.96,4.923a2,2,0,0,1,.341,2.356,2.091,2.091,0,0,1-.351.456q-3.1,3.082-6.211,6.156a2.129,2.129,0,0,1-1.18.683,1.884,1.884,0,0,1-1.577-.488,1.93,1.93,0,0,1-.73-1.765,1.547,1.547,0,0,1,.424-.868c.441-.468.9-.921,1.354-1.376.534-.534,1.073-1.063,1.609-1.594.045-.045.087-.092.168-.179h-.292c-1.653,0-3.305.008-4.958,0a3.866,3.866,0,0,1-.924-.106,1.809,1.809,0,0,1-1.34-1.728,2.249,2.249,0,0,1,.127-.944,1.765,1.765,0,0,1,1.567-1.124c.187-.017.376-.023.564-.024q2.47,0,4.94,0h.345" transform="translate(-153.101 -33.626)" fill="#ffd87e"/>
            <path id="Trazado_615579" data-name="Trazado 615579" d="M6.706,45.415h.328c1.705,0,3.411-.007,5.116,0a3.48,3.48,0,0,1,.733.082,1.757,1.757,0,0,1,1.361,1.7,2.287,2.287,0,0,1-.125.945A1.842,1.842,0,0,1,12.5,49.312a5.225,5.225,0,0,1-.528.028q-2.54,0-5.081,0c-.034,0-.068,0-.145.007.091.1.158.173.229.245q1.234,1.224,2.469,2.448c.153.153.3.311.44.476a1.7,1.7,0,0,1,.137,2.048,2.1,2.1,0,0,1-1.705,1.063,1.56,1.56,0,0,1-1.171-.4c-.4-.365-.79-.749-1.177-1.131Q3.337,51.5.7,48.89A2.1,2.1,0,0,1,.057,47.85a2.01,2.01,0,0,1,.6-1.976q2.134-2.1,4.266-4.2c.663-.653,1.338-1.3,1.983-1.965a1.858,1.858,0,0,1,2.833.1,1.966,1.966,0,0,1,.554,1.411,1.552,1.552,0,0,1-.31.858,4.56,4.56,0,0,1-.481.556q-1.357,1.349-2.724,2.689c-.015.015-.027.034-.071.091" transform="translate(0 -33.614)" fill="#ffd87e"/>
            <path id="Trazado_615580" data-name="Trazado 615580" d="M125.517,13.761q0-5.891,0-11.781A1.985,1.985,0,0,1,127.695.013a1.953,1.953,0,0,1,1.771,1.892c.021.669,0,1.34,0,2.01q0,10.811,0,21.623a1.977,1.977,0,0,1-3.953-.031V13.761" transform="translate(-107.745 0)" fill="#ffd87e"/>
          </g>
        </g>
      </g>
    </g>
    <g id="Enmascarar_grupo_1074670" data-name="Enmascarar grupo 1074670" transform="translate(-6.816 -599.717)" clip-path="url(#clip-path)">
      <g id="Grupo_1074232" data-name="Grupo 1074232" transform="translate(291.816 1217.717)">
        <g id="Grupo_1074231" data-name="Grupo 1074231" clip-path="url(#clip-path-2)">
          <path id="Trazado_615581" data-name="Trazado 615581" d="M185.9,45.424c-.191-.2-.351-.364-.516-.527-.811-.8-1.628-1.6-2.433-2.409a2.851,2.851,0,0,1-.427-.552,1.557,1.557,0,0,1-.049-1.52,2.117,2.117,0,0,1,1.958-1.3,1.718,1.718,0,0,1,1.152.5q.745.707,1.476,1.429,2.483,2.458,4.96,4.923a2,2,0,0,1,.341,2.356,2.091,2.091,0,0,1-.351.456q-3.1,3.082-6.211,6.156a2.129,2.129,0,0,1-1.18.683,1.884,1.884,0,0,1-1.577-.488,1.93,1.93,0,0,1-.73-1.765,1.547,1.547,0,0,1,.424-.868c.441-.468.9-.921,1.354-1.376.534-.534,1.073-1.063,1.609-1.594.045-.045.087-.092.168-.179h-.292c-1.653,0-3.305.008-4.958,0a3.866,3.866,0,0,1-.924-.106,1.809,1.809,0,0,1-1.34-1.728,2.249,2.249,0,0,1,.127-.944,1.765,1.765,0,0,1,1.567-1.124c.187-.017.376-.023.564-.024q2.47,0,4.94,0h.345" transform="translate(-153.101 -33.626)" fill="#ffd87e"/>
          <path id="Trazado_615582" data-name="Trazado 615582" d="M6.706,45.415h.328c1.705,0,3.411-.007,5.116,0a3.48,3.48,0,0,1,.733.082,1.757,1.757,0,0,1,1.361,1.7,2.287,2.287,0,0,1-.125.945A1.842,1.842,0,0,1,12.5,49.312a5.225,5.225,0,0,1-.528.028q-2.54,0-5.081,0c-.034,0-.068,0-.145.007.091.1.158.173.229.245q1.234,1.224,2.469,2.448c.153.153.3.311.44.476a1.7,1.7,0,0,1,.137,2.048,2.1,2.1,0,0,1-1.705,1.063,1.56,1.56,0,0,1-1.171-.4c-.4-.365-.79-.749-1.177-1.131Q3.337,51.5.7,48.89A2.1,2.1,0,0,1,.057,47.85a2.01,2.01,0,0,1,.6-1.976q2.134-2.1,4.266-4.2c.663-.653,1.338-1.3,1.983-1.965a1.858,1.858,0,0,1,2.833.1,1.966,1.966,0,0,1,.554,1.411,1.552,1.552,0,0,1-.31.858,4.56,4.56,0,0,1-.481.556q-1.357,1.349-2.724,2.689c-.015.015-.027.034-.071.091" transform="translate(0 -33.614)" fill="#ffd87e"/>
          <path id="Trazado_615583" data-name="Trazado 615583" d="M125.517,13.761q0-5.891,0-11.781A1.985,1.985,0,0,1,127.695.013a1.953,1.953,0,0,1,1.771,1.892c.021.669,0,1.34,0,2.01q0,10.811,0,21.623a1.977,1.977,0,0,1-3.953-.031V13.761" transform="translate(-107.745 0)" fill="#ffd87e"/>
        </g>
      </g>
    </g>
  </g>
</svg>
