<svg xmlns="http://www.w3.org/2000/svg" width="295" height="64" viewBox="0 0 295 64">
  <g id="Grupo_1074335" data-name="Grupo 1074335" transform="translate(-705 -1480)">
    <g id="Rectángulo_379122" data-name="Rectángulo 379122" transform="translate(705 1480)" fill="#fff" stroke="#707070" stroke-width="1">
      <rect width="295" height="64" rx="12" stroke="none"/>
      <rect x="0.5" y="0.5" width="294" height="63" rx="11.5" fill="none"/>
    </g>
    <g id="Grupo_1074331" data-name="Grupo 1074331" transform="translate(75 -371)">
      <path id="Trazado_641883" data-name="Trazado 641883" d="M-6.355-7.016l2.727-4.359h1.766L-5.457-5.734-1.777,0H-3.559l-2.8-4.437L-9.168,0h-1.773l3.688-5.734-3.6-5.641H-9.1Zm16.664.656H3.793V-7.617h6.516Zm0,3.242H3.793v-1.25h6.516Z" transform="translate(721 1884)" fill="#12263f"/>
      <path id="Trazado_641884" data-name="Trazado 641884" d="M-13.937-6.359h-6.516V-7.617h6.516Zm0,3.242h-6.516v-1.25h6.516ZM-1.055-8.406A2.641,2.641,0,0,1-1.5-6.891,3.057,3.057,0,0,1-2.719-5.852a3.26,3.26,0,0,1,1.41,1.117A2.811,2.811,0,0,1-.789-3.07a2.972,2.972,0,0,1-1,2.352A3.827,3.827,0,0,1-4.406.156,3.81,3.81,0,0,1-7.035-.723,2.986,2.986,0,0,1-8.023-3.07a2.9,2.9,0,0,1,.5-1.664A3.136,3.136,0,0,1-6.125-5.859,2.981,2.981,0,0,1-7.32-6.9a2.679,2.679,0,0,1-.437-1.508,2.94,2.94,0,0,1,.922-2.281,3.458,3.458,0,0,1,2.43-.844,3.461,3.461,0,0,1,2.426.844A2.934,2.934,0,0,1-1.055-8.406Zm-1.18,5.3A2.1,2.1,0,0,0-2.84-4.656a2.147,2.147,0,0,0-1.582-.6,2.11,2.11,0,0,0-1.566.594A2.12,2.12,0,0,0-6.578-3.1,2.019,2.019,0,0,0-6-1.578a2.2,2.2,0,0,0,1.6.555,2.2,2.2,0,0,0,1.594-.559A2.014,2.014,0,0,0-2.234-3.1Zm-2.172-7.242a1.865,1.865,0,0,0-1.379.527,1.937,1.937,0,0,0-.527,1.434,1.928,1.928,0,0,0,.52,1.4,1.844,1.844,0,0,0,1.387.535A1.844,1.844,0,0,0-3.02-6.98a1.928,1.928,0,0,0,.52-1.4A1.929,1.929,0,0,0-3.039-9.8,1.839,1.839,0,0,0-4.406-10.344ZM8.164-4.852A6.61,6.61,0,0,1,7.3-1.078,3.084,3.084,0,0,1,4.586.156a3.107,3.107,0,0,1-2.7-1.207A6.274,6.274,0,0,1,.984-4.656v-1.93a6.463,6.463,0,0,1,.867-3.727A3.108,3.108,0,0,1,4.57-11.531a3.136,3.136,0,0,1,2.7,1.176,6.237,6.237,0,0,1,.891,3.629ZM6.719-6.828A5.3,5.3,0,0,0,6.2-9.5a1.775,1.775,0,0,0-1.633-.84,1.751,1.751,0,0,0-1.617.836,5.171,5.171,0,0,0-.523,2.57v2.313A5.381,5.381,0,0,0,2.965-1.9a1.771,1.771,0,0,0,1.621.879,1.747,1.747,0,0,0,1.59-.828,5.186,5.186,0,0,0,.543-2.609Zm9.141,5.6H21.25V0h-6.9V-11.375h1.508Z" transform="translate(825 1883)" fill="#12263f"/>
      <path id="Trazado_641882" data-name="Trazado 641882" d="M-18.042-3.82h1.578v1.18h-1.578V0H-19.5V-2.641h-5.18v-.852l5.094-7.883h1.539Zm-4.992,0H-19.5V-9.4l-.172.313ZM-8.261-8.406A2.641,2.641,0,0,1-8.71-6.891,3.057,3.057,0,0,1-9.925-5.852a3.26,3.26,0,0,1,1.41,1.117A2.811,2.811,0,0,1-8-3.07a2.972,2.972,0,0,1-1,2.352,3.827,3.827,0,0,1-2.621.875,3.81,3.81,0,0,1-2.629-.879A2.986,2.986,0,0,1-15.23-3.07a2.9,2.9,0,0,1,.5-1.664,3.136,3.136,0,0,1,1.395-1.125,2.981,2.981,0,0,1-1.2-1.039,2.679,2.679,0,0,1-.437-1.508,2.94,2.94,0,0,1,.922-2.281,3.458,3.458,0,0,1,2.43-.844,3.461,3.461,0,0,1,2.426.844A2.934,2.934,0,0,1-8.261-8.406Zm-1.18,5.3a2.1,2.1,0,0,0-.605-1.555,2.147,2.147,0,0,0-1.582-.6,2.11,2.11,0,0,0-1.566.594,2.12,2.12,0,0,0-.59,1.563,2.019,2.019,0,0,0,.574,1.523,2.2,2.2,0,0,0,1.6.555,2.2,2.2,0,0,0,1.594-.559A2.014,2.014,0,0,0-9.441-3.1Zm-2.172-7.242a1.865,1.865,0,0,0-1.379.527,1.937,1.937,0,0,0-.527,1.434A1.928,1.928,0,0,0-13-6.98a1.844,1.844,0,0,0,1.387.535,1.844,1.844,0,0,0,1.387-.535,1.928,1.928,0,0,0,.52-1.4A1.929,1.929,0,0,0-10.245-9.8,1.839,1.839,0,0,0-11.612-10.344ZM.958-4.852A6.61,6.61,0,0,1,.091-1.078,3.084,3.084,0,0,1-2.62.156a3.107,3.107,0,0,1-2.7-1.207,6.274,6.274,0,0,1-.906-3.605v-1.93a6.463,6.463,0,0,1,.867-3.727,3.108,3.108,0,0,1,2.719-1.219,3.136,3.136,0,0,1,2.7,1.176A6.237,6.237,0,0,1,.958-6.727ZM-.487-6.828A5.3,5.3,0,0,0-1-9.5a1.775,1.775,0,0,0-1.633-.84,1.751,1.751,0,0,0-1.617.836,5.171,5.171,0,0,0-.523,2.57v2.313A5.381,5.381,0,0,0-4.241-1.9a1.771,1.771,0,0,0,1.621.879,1.747,1.747,0,0,0,1.59-.828A5.186,5.186,0,0,0-.487-4.461ZM8.278-8.453l.039.938a3.122,3.122,0,0,1,2.508-1.094A2.417,2.417,0,0,1,13.239-7.25a3.2,3.2,0,0,1,1.1-.984,3.242,3.242,0,0,1,1.6-.375q2.781,0,2.828,2.945V0H17.317V-5.578A1.941,1.941,0,0,0,16.9-6.934a1.823,1.823,0,0,0-1.391-.449,1.916,1.916,0,0,0-1.336.48,1.949,1.949,0,0,0-.617,1.293V0H12.106V-5.539a1.613,1.613,0,0,0-1.8-1.844A1.934,1.934,0,0,0,8.356-6.172V0H6.911V-8.453ZM24.747-5H20.4v-.606l2.3-2.552a5.456,5.456,0,0,0,.7-.941,1.571,1.571,0,0,0,.194-.75,1.19,1.19,0,0,0-.314-.852,1.1,1.1,0,0,0-.838-.333,1.3,1.3,0,0,0-.977.358,1.366,1.366,0,0,0-.349,1h-.843a1.957,1.957,0,0,1,.59-1.481,2.188,2.188,0,0,1,1.579-.565,2.1,2.1,0,0,1,1.463.485,1.655,1.655,0,0,1,.538,1.292,3.8,3.8,0,0,1-1.249,2.333L21.416-5.688h3.331Z" transform="translate(772 1874)" fill="#12263f"/>
      <path id="Trazado_641885" data-name="Trazado 641885" d="M-3.249-5.283l.024.586a1.951,1.951,0,0,1,1.567-.684,1.51,1.51,0,0,1,1.509.85,2,2,0,0,1,.686-.615,2.026,2.026,0,0,1,1-.234q1.738,0,1.768,1.841V0H2.4V-3.486a1.213,1.213,0,0,0-.259-.847,1.14,1.14,0,0,0-.869-.281,1.2,1.2,0,0,0-.835.3,1.218,1.218,0,0,0-.386.808V0H-.856V-3.462A1.008,1.008,0,0,0-1.984-4.614,1.209,1.209,0,0,0-3.2-3.857V0h-.9V-5.283ZM7.044-3H4.327v-.379L5.763-4.974a3.41,3.41,0,0,0,.44-.588.982.982,0,0,0,.121-.469.744.744,0,0,0-.2-.533A.687.687,0,0,0,5.6-6.771a.814.814,0,0,0-.611.224.854.854,0,0,0-.218.622H4.247a1.223,1.223,0,0,1,.369-.926A1.367,1.367,0,0,1,5.6-7.2a1.314,1.314,0,0,1,.914.3,1.035,1.035,0,0,1,.336.807,2.372,2.372,0,0,1-.78,1.458L4.962-3.43H7.044Z" transform="translate(772.977 1890)" fill="#12263f"/>
      <path id="Trazado_641887" data-name="Trazado 641887" d="M.315-.767H3.684V0H-.627V-7.109H.315Z" transform="translate(771.977 1904)" fill="#12263f"/>
      <path id="Trazado_641886" data-name="Trazado 641886" d="M2.125-11.383v1.227H1.859a3.805,3.805,0,0,0-2.687,1A4.161,4.161,0,0,0-1.984-6.43,3.085,3.085,0,0,1,.469-7.461,2.95,2.95,0,0,1,2.84-6.414a4.038,4.038,0,0,1,.887,2.7A4.025,4.025,0,0,1,2.77-.9,3.3,3.3,0,0,1,.2.156,3.247,3.247,0,0,1-2.445-1.1a4.97,4.97,0,0,1-1.016-3.23v-.555a7.488,7.488,0,0,1,1.34-4.8,4.921,4.921,0,0,1,3.988-1.7ZM.227-6.258a2.306,2.306,0,0,0-1.367.445A2.32,2.32,0,0,0-2.008-4.7v.531A3.731,3.731,0,0,0-1.375-1.9,1.9,1.9,0,0,0,.2-1.039a1.838,1.838,0,0,0,1.535-.719A2.982,2.982,0,0,0,2.3-3.641,2.983,2.983,0,0,0,1.73-5.535,1.816,1.816,0,0,0,.227-6.258Z" transform="translate(758 1900)" fill="#12263f"/>
      <path id="Trazado_615772" data-name="Trazado 615772" d="M3459.333-9822.5h60.213" transform="translate(-2719 11700)" fill="none" stroke="#707070" stroke-width="1"/>
      <path id="Trazado_615773" data-name="Trazado 615773" d="M3459.334-9822.5h17.69" transform="translate(-2695.023 11716.5)" fill="none" stroke="#707070" stroke-width="1"/>
    </g>
  </g>
</svg>
