<svg xmlns="http://www.w3.org/2000/svg" width="190" height="190" viewBox="0 0 190 190">
  <g id="img19" transform="translate(-9469 7126)">
    <rect id="Rectángulo_379350" data-name="Rectángulo 379350" width="190" height="190" rx="17" transform="translate(9469 -7126)" fill="#fff"/>
    <g id="Grupo_1074521" data-name="Grupo 1074521" transform="translate(9499.843 -7094.525)">
      <path id="Trazado_641826" data-name="Trazado 641826" d="M3.6-2.109H8.375V0H.859V-11.375H3.6ZM17.3,0H9.367V-1.719l3.656-3.844a4.364,4.364,0,0,0,1.352-2.445,1.7,1.7,0,0,0-.32-1.117,1.144,1.144,0,0,0-.93-.383A1.158,1.158,0,0,0,12.148-9a2.1,2.1,0,0,0-.375,1.277H9.133a3.736,3.736,0,0,1,.523-1.934,3.671,3.671,0,0,1,1.453-1.387,4.317,4.317,0,0,1,2.078-.5,4.246,4.246,0,0,1,2.84.852,3.04,3.04,0,0,1,1,2.445,3.551,3.551,0,0,1-.25,1.309A5.739,5.739,0,0,1,16-5.6a19.581,19.581,0,0,1-1.7,1.871l-1.469,1.7H17.3Z" transform="translate(2.49 59.388)" fill="#2d4587"/>
      <path id="Trazado_641825" data-name="Trazado 641825" d="M3.6-2.109H8.375V0H.859V-11.375H3.6ZM15.2,0H12.563V-8.406l-2.594.758v-2l4.992-1.727H15.2Z" transform="translate(115.824 59.388)" fill="#2d4587"/>
      <path id="Trazado_641823" data-name="Trazado 641823" d="M8.586-4.156a5.152,5.152,0,0,1-.859,3.2A2.878,2.878,0,0,1,5.3.156,2.5,2.5,0,0,1,3.227-.867L3.117,0H.758V-12H3.391v4.227a2.41,2.41,0,0,1,1.9-.836A2.879,2.879,0,0,1,7.727-7.477a5.179,5.179,0,0,1,.859,3.188ZM5.945-4.324a3.437,3.437,0,0,0-.324-1.735,1.093,1.093,0,0,0-1-.519A1.261,1.261,0,0,0,3.391-5.9v3.354a1.268,1.268,0,0,0,1.25.671,1.118,1.118,0,0,0,1.18-.9A6.5,6.5,0,0,0,5.945-4.324Z" transform="translate(55.324 135.051)" fill="#2d4587"/>
      <path id="Trazado_641824" data-name="Trazado 641824" d="M3.313-7.547A2.635,2.635,0,0,1,5.469-8.609a2.627,2.627,0,0,1,2.109.828A3.721,3.721,0,0,1,8.3-5.336V0H5.664V-5.273a1.488,1.488,0,0,0-.273-.988,1.175,1.175,0,0,0-.93-.316,1.266,1.266,0,0,0-1.148.516V0H.68V-12H3.313Z" transform="translate(70.324 113.051)" fill="#2d4587"/>
      <g id="Grupo_1074526" data-name="Grupo 1074526" transform="translate(-11.343 -9.14)">
        <path id="Trazado_616101" data-name="Trazado 616101" d="M75.167,7.941,143.455,126.22H6.878Zm0-7.942L0,130.191H150.333Z" fill="#196442"/>
        <path id="Trazado_616102" data-name="Trazado 616102" d="M151.4,138.358h-3.971V131.78H151.4Zm0-13.156h-3.971v-6.578H151.4Zm0-13.157h-3.971v-6.578H151.4Zm0-13.156h-3.971V92.31H151.4Zm0-13.157h-3.971V79.153H151.4Zm0-13.157h-3.971V66H151.4Zm0-13.157h-3.971V52.839H151.4Zm0-13.156h-3.971V39.683H151.4Zm0-13.157h-3.971V26.526H151.4Z" transform="translate(-74.247 -13.359)" fill="#a7b9e8"/>
      </g>
    </g>
  </g>
</svg>
