<svg xmlns="http://www.w3.org/2000/svg" width="190" height="190" viewBox="0 0 190 190">
  <g id="img16" transform="translate(-9469 7511)">
    <rect id="Rectángulo_379344" data-name="Rectángulo 379344" width="190" height="190" rx="17" transform="translate(9469 -7511)" fill="#fff"/>
    <g id="Grupo_1074516" data-name="Grupo 1074516" transform="translate(9499.843 -7479.525)">
      <path id="Trazado_616100" data-name="Trazado 616100" d="M-43.945,3.207H89.611V90.989H-43.945ZM-47.333,94.2H93V0H-47.333Z" transform="translate(34.49 25.525)" fill="#196442"/>
      <path id="Trazado_641822" data-name="Trazado 641822" d="M3.6-2.109H8.375V0H.859V-11.375H3.6ZM17.3,0H9.367V-1.719l3.656-3.844a4.364,4.364,0,0,0,1.352-2.445,1.7,1.7,0,0,0-.32-1.117,1.144,1.144,0,0,0-.93-.383A1.158,1.158,0,0,0,12.148-9a2.1,2.1,0,0,0-.375,1.277H9.133a3.736,3.736,0,0,1,.523-1.934,3.671,3.671,0,0,1,1.453-1.387,4.317,4.317,0,0,1,2.078-.5,4.246,4.246,0,0,1,2.84.852,3.04,3.04,0,0,1,1,2.445,3.551,3.551,0,0,1-.25,1.309A5.739,5.739,0,0,1,16-5.6a19.581,19.581,0,0,1-1.7,1.871l-1.469,1.7H17.3Z" transform="translate(130.49 74.388)" fill="#2d4587"/>
      <path id="Trazado_641821" data-name="Trazado 641821" d="M3.6-2.109H8.375V0H.859V-11.375H3.6ZM15.2,0H12.563V-8.406l-2.594.758v-2l4.992-1.727H15.2Z" transform="translate(48.824 21.525)" fill="#2d4587"/>
    </g>
  </g>
</svg>
