<svg xmlns="http://www.w3.org/2000/svg" xmlns:xlink="http://www.w3.org/1999/xlink" width="121.668" height="125" viewBox="0 0 121.668 125">
  <defs>
    <clipPath id="clip-path">
      <rect id="Rect치ngulo_379310" data-name="Rect치ngulo 379310" width="68" height="66" fill="none"/>
    </clipPath>
  </defs>
  <g id="img11" transform="translate(-11902 8909)">
    <g id="Grupo_1074489" data-name="Grupo 1074489" transform="translate(11513.332 -14906)">
      <g id="Grupo_1072788" data-name="Grupo 1072788" transform="translate(13.999 114.601)">
        <g id="Grupo_1072785" data-name="Grupo 1072785" transform="translate(386.668 5997)">
          <path id="Trazado_608385" data-name="Trazado 608385" d="M48.909,0C75.921,0,97.818,2.328,97.818,5.2s-21.9,5.2-48.909,5.2S0,8.071,0,5.2,21.9,0,48.909,0Z" transform="translate(0 0)" fill="none"/>
        </g>
        <g id="Grupo_1073383" data-name="Grupo 1073383" transform="translate(386.668 5997)">
          <path id="Trazado_608385-2" data-name="Trazado 608385" d="M48.909,0C75.921,0,97.818,2.328,97.818,5.2s-21.9,5.2-48.909,5.2S0,8.071,0,5.2,21.9,0,48.909,0Z" transform="translate(0 0)" fill="#11462e"/>
        </g>
      </g>
      <g id="Grupo_1073526" data-name="Grupo 1073526" transform="translate(2)">
        <g id="Grupo_1072785-2" data-name="Grupo 1072785" transform="translate(386.668 5997)">
          <path id="Trazado_608385-3" data-name="Trazado 608385" d="M60.834,0A60.834,60.834,0,1,1,0,60.834,60.834,60.834,0,0,1,60.834,0Z" transform="translate(0 0)" fill="none"/>
        </g>
        <g id="Grupo_1073383-2" data-name="Grupo 1073383" transform="translate(386.668 5997)">
          <path id="Trazado_608385-4" data-name="Trazado 608385" d="M60.834,0A60.834,60.834,0,1,1,0,60.834,60.834,60.834,0,0,1,60.834,0Z" transform="translate(0 0)" fill="#fff"/>
        </g>
      </g>
    </g>
    <g id="Grupo_1074495" data-name="Grupo 1074495" transform="translate(11929 -8879)">
      <g id="Grupo_1074494" data-name="Grupo 1074494" transform="translate(0 0)" clip-path="url(#clip-path)">
        <path id="Trazado_616008" data-name="Trazado 616008" d="M60.788,5.188V59.894H25.608a7.164,7.164,0,0,1-.107,1.226,6.353,6.353,0,0,1-.314,1.149A5.728,5.728,0,0,1,24.7,63.3c-.008,0,0,.007,0,.007a5.64,5.64,0,0,1-.644.891,3.763,3.763,0,0,1-.39.4c-.131.125-.269.242-.406.352a4.98,4.98,0,0,1-1.4.773,4.772,4.772,0,0,1-1.6.273H18.02a6.3,6.3,0,0,1-6.239-6.36V4.961a4.984,4.984,0,0,0-1.426-3.5A4.779,4.779,0,0,0,6.922,0H55.7a5.137,5.137,0,0,1,5.089,5.188" transform="translate(-2.055 0)" fill="#f4f6f8"/>
        <rect id="Rect치ngulo_379309" data-name="Rect치ngulo 379309" width="9.378" height="9.559" transform="translate(16.279 44.681)" fill="#2d4587"/>
        <path id="Trazado_616009" data-name="Trazado 616009" d="M32.53,62.342V71.9H23.15V69.76h2.573a4.751,4.751,0,0,0,4.711-4.8V62.342Z" transform="translate(-6.873 -17.659)" fill="#283455"/>
        <path id="Trazado_616010" data-name="Trazado 616010" d="M26.459,83.562H30a6.964,6.964,0,0,1-.113,1.226,6.33,6.33,0,0,1-.309,1.154,5.952,5.952,0,0,1-.492,1.025c-.007,0,0,.014,0,.014a5.7,5.7,0,0,1-.647.889,4.056,4.056,0,0,1-.387.394,4.63,4.63,0,0,1-.408.351,4.892,4.892,0,0,1-1.4.774,4.8,4.8,0,0,1-1.6.272H22.416a5.671,5.671,0,0,1-.7-.043,4.19,4.19,0,0,0,.984-.229,4.892,4.892,0,0,0,1.4-.774,4.63,4.63,0,0,0,.408-.351,4.056,4.056,0,0,0,.387-.394,5.7,5.7,0,0,0,.647-.889s-.007-.014,0-.014a5.952,5.952,0,0,0,.492-1.025,6.329,6.329,0,0,0,.309-1.154,6.964,6.964,0,0,0,.112-1.226" transform="translate(-6.448 -23.669)" fill="#e4e8eb"/>
        <path id="Trazado_616011" data-name="Trazado 616011" d="M79.884,5.191v54.7H76.341V5.191A5.139,5.139,0,0,0,71.25,0h3.544a5.139,5.139,0,0,1,5.091,5.189" transform="translate(-21.152 -0.001)" fill="#e4e8eb"/>
        <path id="Trazado_616012" data-name="Trazado 616012" d="M54.852,83.561H31.238a7.15,7.15,0,0,1-.106,1.226,6.9,6.9,0,0,1-.317,1.149,5.867,5.867,0,0,1-.492,1.034v.008a6.324,6.324,0,0,1-.65.894,3.735,3.735,0,0,1-.385.394,4.292,4.292,0,0,1-.4.355,5.356,5.356,0,0,1-1.406.771,4.61,4.61,0,0,1-1.6.277H69.2a6.047,6.047,0,0,0,5.989-6.1Z" transform="translate(-7.684 -23.669)" fill="#a8e8fc"/>
        <path id="Trazado_616013" data-name="Trazado 616013" d="M92.3,83.562A6.045,6.045,0,0,1,86.3,89.669H83.52a6.045,6.045,0,0,0,5.991-6.107Z" transform="translate(-24.795 -23.669)" fill="#6fd9fb"/>
        <path id="Trazado_616014" data-name="Trazado 616014" d="M9.721,11.612V4.962A4.99,4.99,0,0,0,8.3,1.459,4.8,4.8,0,0,0,4.868,0,4.911,4.911,0,0,0,0,4.962v6.65Z" transform="translate(0 0)" fill="#a8e8fc"/>
        <path id="Trazado_616015" data-name="Trazado 616015" d="M11.191,4.962v6.651H8.406V4.962a5.019,5.019,0,0,0-1.42-3.5A4.847,4.847,0,0,0,4.94.21,4.713,4.713,0,0,1,6.332,0,4.8,4.8,0,0,1,9.77,1.457a5.019,5.019,0,0,1,1.42,3.5" transform="translate(-1.467 -0.001)" fill="#6fd9fb"/>
        <path id="Trazado_616016" data-name="Trazado 616016" d="M59.845,38.7a.708.708,0,0,1-.7.717H57.49v1.4a.7.7,0,1,1-1.406,0v-1.4H53.06v1.4a.7.7,0,1,1-1.406,0v-1.4H48.63v1.4a.7.7,0,1,1-1.406,0v-1.4H44.208v1.4a.7.7,0,1,1-1.406,0v-1.4H40.059v2.2a.7.7,0,1,1-1.406,0v-2.2H35.911v1.4a.7.7,0,1,1-1.406,0v-1.4H31.481v1.4a.7.7,0,1,1-1.406,0v-1.4H27.051v1.4a.7.7,0,1,1-1.406,0v-1.4H22.629v1.4a.7.7,0,1,1-1.406,0v-1.4H19.563a.717.717,0,0,1,0-1.433h19.09V36.914a5.534,5.534,0,0,1-1.125-.244C30.286,34.334,26.292,27.109,25.645,15.2a.717.717,0,0,1,.668-.76.7.7,0,0,1,.738.681c.6,11.253,4.275,18.048,10.905,20.184a4.483,4.483,0,0,0,.7.165V32.528H37.528a.717.717,0,0,1,0-1.433h1.125V28.027H37.528a.717.717,0,0,1,0-1.433h1.125V23.525H37.528a.717.717,0,0,1,0-1.433h1.125V14.079a.7.7,0,1,1,1.406,0v8.013h1.118a.717.717,0,0,1,0,1.433H40.059v3.068h1.118a.717.717,0,0,1,0,1.433H40.059v3.068h1.118a.717.717,0,0,1,0,1.433H40.059v2.939a4.681,4.681,0,0,0,.7-.165c6.63-2.136,10.294-8.931,10.9-20.184a.7.7,0,0,1,.745-.681.711.711,0,0,1,.661.76c-.64,11.912-4.641,19.137-11.883,21.474a5.369,5.369,0,0,1-1.118.244v1.068H59.142a.708.708,0,0,1,.7.717" transform="translate(-5.599 -3.785)" fill="#434a54"/>
        <path id="Trazado_616017" data-name="Trazado 616017" d="M73.231,34.566a.71.71,0,0,1-.042.244l-2.855,7a.634.634,0,0,1-.6.437.591.591,0,0,1-.443-.194A.635.635,0,0,1,69.1,41.6a.7.7,0,0,1,.042-.237l.654-1.713-1.934-4.817a.75.75,0,0,1-.056-.265.673.673,0,0,1,.183-.473.632.632,0,0,1,.83-.079.609.609,0,0,1,.232.287l1.455,3.67,1.477-3.648a.627.627,0,0,1,.6-.43.643.643,0,0,1,.464.2.673.673,0,0,1,.183.473" transform="translate(-20.131 -9.6)" fill="#6fd9fb"/>
        <path id="Trazado_616018" data-name="Trazado 616018" d="M42.326,14l-1.561,1.871,1.54,1.892a.61.61,0,0,1,.155.423.689.689,0,0,1-.169.466.655.655,0,0,1-1-.065l-1.336-1.634-1.266,1.62a.652.652,0,1,1-1.034-.8l1.533-1.842-1.526-1.9a.683.683,0,0,1-.155-.423.627.627,0,0,1,.19-.473.619.619,0,0,1,.457-.186.613.613,0,0,1,.52.258l1.315,1.663,1.315-1.67a.661.661,0,0,1,.97-.065.6.6,0,0,1,.19.452.64.64,0,0,1-.141.409" transform="translate(-11.136 -3.669)" fill="#6fd9fb"/>
        <path id="Trazado_616019" data-name="Trazado 616019" d="M66.359,65.365H45.534a.717.717,0,0,1,0-1.433H66.359a.717.717,0,0,1,0,1.433" transform="translate(-13.309 -18.109)" fill="#434a54"/>
        <path id="Trazado_616020" data-name="Trazado 616020" d="M56.63,73.515h-11.1a.717.717,0,0,1,0-1.434h11.1a.717.717,0,0,1,0,1.434" transform="translate(-13.309 -20.417)" fill="#434a54"/>
        <path id="Trazado_616021" data-name="Trazado 616021" d="M28.389,70.223a.694.694,0,0,1-.5-.21l-1.372-1.4a.726.726,0,0,1,0-1.013.693.693,0,0,1,.994,0l.875.892,2.043-2.082a.693.693,0,0,1,.994,0,.726.726,0,0,1,0,1.013l-2.54,2.589a.694.694,0,0,1-.5.21" transform="translate(-7.812 -18.752)" fill="#fff"/>
      </g>
    </g>
  </g>
</svg>
