<svg xmlns="http://www.w3.org/2000/svg" xmlns:xlink="http://www.w3.org/1999/xlink" width="121.668" height="125" viewBox="0 0 121.668 125">
  <defs>
    <clipPath id="clip-path">
      <rect id="Rectángulo_379311" data-name="Rectángulo 379311" width="67" height="67" transform="translate(0 0.001)" fill="none"/>
    </clipPath>
  </defs>
  <g id="img10" transform="translate(-11550.5 8909)">
    <g id="Grupo_1074487" data-name="Grupo 1074487" transform="translate(11161.832 -14906)">
      <g id="Grupo_1072788" data-name="Grupo 1072788" transform="translate(13.999 114.601)">
        <g id="Grupo_1072785" data-name="Grupo 1072785" transform="translate(386.668 5997)">
          <path id="Trazado_608385" data-name="Trazado 608385" d="M48.909,0C75.921,0,97.818,2.328,97.818,5.2s-21.9,5.2-48.909,5.2S0,8.071,0,5.2,21.9,0,48.909,0Z" transform="translate(0 0)" fill="none"/>
        </g>
        <g id="Grupo_1073383" data-name="Grupo 1073383" transform="translate(386.668 5997)">
          <path id="Trazado_608385-2" data-name="Trazado 608385" d="M48.909,0C75.921,0,97.818,2.328,97.818,5.2s-21.9,5.2-48.909,5.2S0,8.071,0,5.2,21.9,0,48.909,0Z" transform="translate(0 0)" fill="#11462e"/>
        </g>
      </g>
      <g id="Grupo_1073526" data-name="Grupo 1073526" transform="translate(2)">
        <g id="Grupo_1072785-2" data-name="Grupo 1072785" transform="translate(386.668 5997)">
          <path id="Trazado_608385-3" data-name="Trazado 608385" d="M60.834,0A60.834,60.834,0,1,1,0,60.834,60.834,60.834,0,0,1,60.834,0Z" transform="translate(0 0)" fill="none"/>
        </g>
        <g id="Grupo_1073383-2" data-name="Grupo 1073383" transform="translate(386.668 5997)">
          <path id="Trazado_608385-4" data-name="Trazado 608385" d="M60.834,0A60.834,60.834,0,1,1,0,60.834,60.834,60.834,0,0,1,60.834,0Z" transform="translate(0 0)" fill="#fff"/>
        </g>
      </g>
    </g>
    <g id="Grupo_1074497" data-name="Grupo 1074497" transform="translate(11577 -8880)">
      <g id="Grupo_1074496" data-name="Grupo 1074496" transform="translate(0 0)" clip-path="url(#clip-path)">
        <path id="Trazado_616022" data-name="Trazado 616022" d="M0,3.951v59.1A3.95,3.95,0,0,0,3.951,67H47.31a3.951,3.951,0,0,0,3.951-3.951V13.837H41.374a3.95,3.95,0,0,1-3.951-3.951V0H3.951A3.951,3.951,0,0,0,0,3.951" transform="translate(0 0)" fill="#f4f6f8"/>
        <path id="Trazado_616023" data-name="Trazado 616023" d="M51.261,62.185v.865A3.955,3.955,0,0,1,47.311,67H3.95A3.951,3.951,0,0,1,0,63.051V3.952A3.947,3.947,0,0,1,3.95,0h.865V26.536A35.648,35.648,0,0,0,40.458,62.185Z" transform="translate(0 0)" fill="#e4e8eb"/>
        <path id="Trazado_616024" data-name="Trazado 616024" d="M67.459,13.837H57.573a3.95,3.95,0,0,1-3.951-3.951V0Z" transform="translate(-16.199 0)" fill="#96b8a9"/>
        <path id="Trazado_616025" data-name="Trazado 616025" d="M9.548,35.044A.471.471,0,0,1,9.4,34.7a.531.531,0,0,1,.105-.328l2.7-3.322-2.679-3.3a.528.528,0,0,1-.105-.327.5.5,0,0,1,.515-.514.54.54,0,0,1,.245.058.524.524,0,0,1,.188.153l2.468,3.135L15.309,27.1a.438.438,0,0,1,.386-.186.505.505,0,0,1,.363.146.475.475,0,0,1,.151.357.485.485,0,0,1-.093.292l-2.7,3.335,2.7,3.322a.439.439,0,0,1,.105.3.519.519,0,0,1-.147.375.528.528,0,0,1-.8-.07l-2.5-3.147L10.3,34.98a.522.522,0,0,1-.41.211.47.47,0,0,1-.345-.147" transform="translate(-2.84 -8.129)" fill="#434a54"/>
        <path id="Trazado_616026" data-name="Trazado 616026" d="M15.619,35.29A.679.679,0,0,1,15.058,35L12.7,32.028l-2.332,2.984a.668.668,0,0,1-1.015.08.641.641,0,0,1-.2-.468.707.707,0,0,1,.14-.432l2.617-3.217L9.319,27.785a.707.707,0,0,1-.144-.437.668.668,0,0,1,.2-.492.722.722,0,0,1,1.064.083L12.765,29.9,15.1,26.913a.686.686,0,0,1,1.007-.059.672.672,0,0,1,.079.877l-2.619,3.232,2.613,3.212a.6.6,0,0,1,.144.415.69.69,0,0,1-.2.5.675.675,0,0,1-.506.205m-2.926-3.825,2.642,3.32a.345.345,0,0,0,.636-.2.27.27,0,0,0-.061-.188l-2.8-3.439,2.792-3.443a.313.313,0,0,0,.054-.183.3.3,0,0,0-.1-.232.33.33,0,0,0-.242-.1.26.26,0,0,0-.242.111l-2.611,3.344L10.16,27.151a.371.371,0,0,0-.129-.1.359.359,0,0,0-.412.056.325.325,0,0,0-.095.246.354.354,0,0,0,.07.222l2.764,3.4L9.566,34.407a.358.358,0,0,0-.066.217.3.3,0,0,0,.1.222h0a.316.316,0,0,0,.5-.052Z" transform="translate(-2.764 -8.053)"/>
        <path id="Trazado_616027" data-name="Trazado 616027" d="M21.873,31.39a.458.458,0,0,1,0-.649.448.448,0,0,1,.322-.128H27.9a.44.44,0,0,1,.456.456.448.448,0,0,1-.128.322.432.432,0,0,1-.327.135H22.194a.437.437,0,0,1-.322-.135m0,2.621a.459.459,0,0,1,0-.65.45.45,0,0,1,.322-.128H27.9a.459.459,0,0,1,.327.777.432.432,0,0,1-.327.134H22.194a.436.436,0,0,1-.322-.134" transform="translate(-6.567 -9.248)" fill="#434a54"/>
        <path id="Trazado_616028" data-name="Trazado 616028" d="M27.828,34.245H22.119a.609.609,0,0,1-.445-.186.617.617,0,0,1-.186-.445.6.6,0,0,1,.188-.453.621.621,0,0,1,.442-.177h5.709a.633.633,0,0,1,.453,1.073.6.6,0,0,1-.453.188m-5.709-.912a.274.274,0,0,0-.2.08.284.284,0,0,0,0,.4h0a.265.265,0,0,0,.2.084h5.709a.258.258,0,0,0,.2-.081.278.278,0,0,0-.2-.482Zm5.709-1.708H22.119a.61.61,0,0,1-.445-.186.617.617,0,0,1-.186-.445.6.6,0,0,1,.188-.453.621.621,0,0,1,.442-.177h5.709a.633.633,0,0,1,.453,1.073.6.6,0,0,1-.453.189m-5.709-.913a.273.273,0,0,0-.2.08.26.26,0,0,0-.081.2.264.264,0,0,0,.083.2h0a.262.262,0,0,0,.2.084h5.709a.258.258,0,0,0,.2-.082.279.279,0,0,0-.2-.482Z" transform="translate(-6.491 -9.172)"/>
        <path id="Trazado_616029" data-name="Trazado 616029" d="M35.4,32.8a.423.423,0,0,1-.146-.322,2.146,2.146,0,0,1,.187-.924,2.449,2.449,0,0,1,.439-.661,7.177,7.177,0,0,1,.672-.6,4.318,4.318,0,0,0,.655-.608.9.9,0,0,0,.211-.585q0-1.274-1.673-1.275a3.253,3.253,0,0,0-.8.1,2.466,2.466,0,0,0-.7.286.518.518,0,0,1-.292.094.479.479,0,0,1-.468-.468.512.512,0,0,1,.292-.445,3.434,3.434,0,0,1,.971-.433,4.288,4.288,0,0,1,1.088-.129,2.9,2.9,0,0,1,1.912.6,1.986,1.986,0,0,1,.72,1.614,1.857,1.857,0,0,1-.163.8,2.179,2.179,0,0,1-.4.585,6.59,6.59,0,0,1-.62.544,4.558,4.558,0,0,0-.754.72,1.244,1.244,0,0,0-.251.789.415.415,0,0,1-.152.322.527.527,0,0,1-.363.134A.522.522,0,0,1,35.4,32.8m-.14,2.152a.677.677,0,0,1-.2-.5.7.7,0,0,1,.69-.69.674.674,0,0,1,.5.205.661.661,0,0,1,.205.485.7.7,0,0,1-.7.7.663.663,0,0,1-.486-.205" transform="translate(-10.117 -8.103)" fill="#434a54"/>
        <path id="Trazado_616030" data-name="Trazado 616030" d="M35.67,35.253A.836.836,0,0,1,35.061,35a.852.852,0,0,1-.255-.62.835.835,0,0,1,.255-.609.87.87,0,0,1,1.23,0,.836.836,0,0,1,.256.609.874.874,0,0,1-.877.877m0-1.392a.524.524,0,0,0-.516.516.5.5,0,0,0,.154.373.514.514,0,0,0,.736,0,.5.5,0,0,0,.154-.373.493.493,0,0,0-.154-.362.507.507,0,0,0-.374-.154m.024-.831a.7.7,0,0,1-.487-.18.6.6,0,0,1-.2-.45,2.329,2.329,0,0,1,.2-1,2.65,2.65,0,0,1,.47-.707,7.2,7.2,0,0,1,.69-.618,4.264,4.264,0,0,0,.63-.583.723.723,0,0,0,.171-.475c0-.472-.156-1.1-1.5-1.1a3.082,3.082,0,0,0-.759.094,2.315,2.315,0,0,0-.648.266.649.649,0,0,1-.834-.072.62.62,0,0,1-.192-.451.678.678,0,0,1,.378-.595,3.6,3.6,0,0,1,1.016-.452,4.476,4.476,0,0,1,1.132-.135,3.083,3.083,0,0,1,2.024.636,2.163,2.163,0,0,1,.782,1.749,2.04,2.04,0,0,1-.18.877,2.346,2.346,0,0,1-.431.631,6.617,6.617,0,0,1-.637.56,4.334,4.334,0,0,0-.724.69,1.076,1.076,0,0,0-.215.682.59.59,0,0,1-.211.452.7.7,0,0,1-.478.178m-.024-5.46c1.527,0,1.847.789,1.847,1.45a1.076,1.076,0,0,1-.25.7,4.406,4.406,0,0,1-.683.634,7.07,7.07,0,0,0-.654.586,2.332,2.332,0,0,0-.408.615,1.989,1.989,0,0,0-.17.85.249.249,0,0,0,.089.193h0a.386.386,0,0,0,.5,0,.241.241,0,0,0,.094-.191,1.414,1.414,0,0,1,.289-.9,4.709,4.709,0,0,1,.783-.75,6.411,6.411,0,0,0,.6-.528,1.987,1.987,0,0,0,.365-.538,1.691,1.691,0,0,0,.147-.727,1.806,1.806,0,0,0-.656-1.48,2.751,2.751,0,0,0-1.8-.556,4.13,4.13,0,0,0-1.043.124,3.259,3.259,0,0,0-.922.411c-.19.114-.211.223-.211.3a.28.28,0,0,0,.089.205.3.3,0,0,0,.4.024,2.688,2.688,0,0,1,.75-.311,3.472,3.472,0,0,1,.844-.1" transform="translate(-10.041 -8.028)"/>
        <path id="Trazado_616031" data-name="Trazado 616031" d="M12.164,57.04a.5.5,0,0,1-.158-.375V53.682l-2.8-3.919a.59.59,0,0,1-.094-.316.544.544,0,0,1,.146-.38.483.483,0,0,1,.368-.157.537.537,0,0,1,.468.268l2.445,3.557,2.445-3.557a.536.536,0,0,1,.468-.268.5.5,0,0,1,.374.157.492.492,0,0,1,.14.38.6.6,0,0,1-.094.316l-2.808,3.919v2.983a.518.518,0,0,1-.526.527.53.53,0,0,1-.38-.152" transform="translate(-2.754 -14.775)" fill="#434a54"/>
        <path id="Trazado_616032" data-name="Trazado 616032" d="M12.469,57.29a.7.7,0,0,1-.5-.2h0a.669.669,0,0,1-.211-.5V53.662L8.993,49.789a.783.783,0,0,1-.126-.417.713.713,0,0,1,.193-.5.652.652,0,0,1,.5-.214.71.71,0,0,1,.614.348l2.3,3.344L14.77,49a.709.709,0,0,1,.612-.344.67.67,0,0,1,.5.211.661.661,0,0,1,.189.511.766.766,0,0,1-.119.4L13.17,53.662v2.927a.692.692,0,0,1-.7.7m-.26-.452a.363.363,0,0,0,.511,0,.331.331,0,0,0,.1-.251V53.551l2.84-3.965a.415.415,0,0,0,.061-.214.322.322,0,0,0-.092-.26.357.357,0,0,0-.569.086l-2.591,3.769L9.88,49.2a.366.366,0,0,0-.325-.193.306.306,0,0,0-.24.1.368.368,0,0,0-.1.262.423.423,0,0,0,.068.225l2.822,3.954v3.039a.325.325,0,0,0,.1.248" transform="translate(-2.679 -14.699)"/>
        <path id="Trazado_616033" data-name="Trazado 616033" d="M21.336,53.39a.457.457,0,0,1,0-.649.446.446,0,0,1,.321-.128h5.709a.44.44,0,0,1,.456.456.445.445,0,0,1-.128.322.43.43,0,0,1-.327.135H21.657a.436.436,0,0,1-.321-.135m0,2.621a.457.457,0,0,1,0-.65.449.449,0,0,1,.321-.128h5.709a.459.459,0,0,1,.327.777.429.429,0,0,1-.327.134H21.657a.435.435,0,0,1-.321-.134" transform="translate(-6.405 -15.894)" fill="#434a54"/>
        <path id="Trazado_616034" data-name="Trazado 616034" d="M27.291,56.245H21.582a.609.609,0,0,1-.445-.186.617.617,0,0,1-.186-.445.6.6,0,0,1,.188-.453.621.621,0,0,1,.442-.177h5.709a.633.633,0,0,1,.453,1.073.6.6,0,0,1-.453.188m-5.709-.912a.274.274,0,0,0-.2.08.284.284,0,0,0,0,.4h0a.265.265,0,0,0,.2.084h5.709a.258.258,0,0,0,.2-.081.278.278,0,0,0-.2-.482Zm5.709-1.708H21.582a.61.61,0,0,1-.445-.186.617.617,0,0,1-.186-.445.6.6,0,0,1,.188-.453.621.621,0,0,1,.442-.177h5.709a.633.633,0,0,1,.453,1.073.6.6,0,0,1-.453.189m-5.709-.913a.273.273,0,0,0-.2.08.26.26,0,0,0-.081.2.264.264,0,0,0,.083.2h0a.262.262,0,0,0,.2.084h5.709a.258.258,0,0,0,.2-.082.279.279,0,0,0-.2-.482Z" transform="translate(-6.329 -15.818)"/>
        <path id="Trazado_616035" data-name="Trazado 616035" d="M34.864,54.8a.423.423,0,0,1-.146-.322,2.146,2.146,0,0,1,.187-.924,2.449,2.449,0,0,1,.439-.661,7.178,7.178,0,0,1,.672-.6,4.318,4.318,0,0,0,.655-.608.9.9,0,0,0,.211-.585q0-1.274-1.673-1.275a3.253,3.253,0,0,0-.8.1,2.466,2.466,0,0,0-.7.286.518.518,0,0,1-.292.094.479.479,0,0,1-.468-.468.512.512,0,0,1,.292-.445,3.434,3.434,0,0,1,.971-.433,4.288,4.288,0,0,1,1.088-.129,2.9,2.9,0,0,1,1.912.6,1.986,1.986,0,0,1,.72,1.614,1.857,1.857,0,0,1-.163.8,2.179,2.179,0,0,1-.4.585,6.589,6.589,0,0,1-.62.544,4.558,4.558,0,0,0-.754.72,1.244,1.244,0,0,0-.251.789.416.416,0,0,1-.152.322.527.527,0,0,1-.363.134.522.522,0,0,1-.368-.134m-.14,2.152a.677.677,0,0,1-.2-.5.7.7,0,0,1,.69-.69.674.674,0,0,1,.5.205.661.661,0,0,1,.205.485.7.7,0,0,1-.7.7.663.663,0,0,1-.486-.205" transform="translate(-9.955 -14.749)" fill="#434a54"/>
        <path id="Trazado_616036" data-name="Trazado 616036" d="M35.134,57.253a.837.837,0,0,1-.61-.256.852.852,0,0,1-.255-.62.835.835,0,0,1,.255-.609.87.87,0,0,1,1.23,0,.835.835,0,0,1,.255.609.873.873,0,0,1-.876.877m0-1.392a.524.524,0,0,0-.516.516.5.5,0,0,0,.154.373.513.513,0,0,0,.736,0,.5.5,0,0,0,.154-.373.493.493,0,0,0-.154-.362.506.506,0,0,0-.373-.154m.023-.831a.7.7,0,0,1-.487-.18.6.6,0,0,1-.2-.45,2.329,2.329,0,0,1,.2-1,2.65,2.65,0,0,1,.47-.707,7.217,7.217,0,0,1,.69-.618,4.288,4.288,0,0,0,.629-.583.723.723,0,0,0,.171-.475c0-.472-.155-1.1-1.5-1.1a3.083,3.083,0,0,0-.759.094,2.315,2.315,0,0,0-.648.266.649.649,0,0,1-.834-.072.62.62,0,0,1-.192-.451.677.677,0,0,1,.378-.595,3.584,3.584,0,0,1,1.015-.452,4.48,4.48,0,0,1,1.132-.135,3.083,3.083,0,0,1,2.024.636,2.161,2.161,0,0,1,.782,1.749,2.04,2.04,0,0,1-.18.877,2.314,2.314,0,0,1-.431.631,6.533,6.533,0,0,1-.637.56,4.334,4.334,0,0,0-.724.69,1.08,1.08,0,0,0-.214.682.588.588,0,0,1-.211.452.7.7,0,0,1-.478.178m-.023-5.46c1.527,0,1.847.789,1.847,1.45a1.076,1.076,0,0,1-.25.7,4.406,4.406,0,0,1-.683.634,7.071,7.071,0,0,0-.654.586,2.35,2.35,0,0,0-.408.615,1.989,1.989,0,0,0-.17.85.248.248,0,0,0,.09.193h0a.386.386,0,0,0,.5,0A.241.241,0,0,0,35.5,54.4a1.418,1.418,0,0,1,.288-.9,4.737,4.737,0,0,1,.783-.75,6.323,6.323,0,0,0,.6-.528,1.989,1.989,0,0,0,.366-.538,1.691,1.691,0,0,0,.146-.727,1.8,1.8,0,0,0-.656-1.48,2.749,2.749,0,0,0-1.8-.556,4.12,4.12,0,0,0-1.043.124,3.272,3.272,0,0,0-.923.411c-.19.114-.211.223-.211.3a.283.283,0,0,0,.089.205.3.3,0,0,0,.4.024,2.7,2.7,0,0,1,.75-.311,3.474,3.474,0,0,1,.845-.1" transform="translate(-9.879 -14.674)"/>
        <path id="Trazado_616037" data-name="Trazado 616037" d="M9.651,78.959a.652.652,0,0,1-.2-.479.673.673,0,0,1,.14-.433l4.89-6.035h-4.5a.5.5,0,0,1-.5-.5.5.5,0,0,1,.146-.362.475.475,0,0,1,.357-.153h5.077a.672.672,0,0,1,.521.211.735.735,0,0,1,.193.515.656.656,0,0,1-.053.246.779.779,0,0,1-.135.222l-4.831,5.978h4.585a.5.5,0,0,1,.5.5.466.466,0,0,1-.147.351.5.5,0,0,1-.357.14H10.13a.653.653,0,0,1-.479-.2" transform="translate(-2.855 -21.446)" fill="#434a54"/>
        <path id="Trazado_616038" data-name="Trazado 616038" d="M15.261,79.256H10.055A.853.853,0,0,1,9.2,78.4a.848.848,0,0,1,.178-.542l4.661-5.753H9.9a.674.674,0,0,1-.678-.678.677.677,0,0,1,.2-.484.647.647,0,0,1,.482-.206H14.98a.841.841,0,0,1,.649.267.908.908,0,0,1,.239.633.818.818,0,0,1-.066.311.941.941,0,0,1-.165.271l-4.6,5.688h4.22a.676.676,0,0,1,.678.678.644.644,0,0,1-.2.477.67.67,0,0,1-.477.188M9.9,71.091a.3.3,0,0,0-.231.1.33.33,0,0,0-.1.241.326.326,0,0,0,.329.329h4.87L9.652,78.08a.5.5,0,0,0-.1.323.505.505,0,0,0,.5.5h5.206a.321.321,0,0,0,.236-.092.291.291,0,0,0,.093-.225.312.312,0,0,0-.1-.233.308.308,0,0,0-.233-.1H10.31L15.37,72a.61.61,0,0,0,.109-.179.479.479,0,0,0,.04-.179.558.558,0,0,0-.147-.4.5.5,0,0,0-.392-.154Z" transform="translate(-2.78 -21.37)"/>
        <path id="Trazado_616039" data-name="Trazado 616039" d="M21.32,75.39a.458.458,0,0,1,0-.649.448.448,0,0,1,.322-.128H27.35a.439.439,0,0,1,.456.456.448.448,0,0,1-.128.322.432.432,0,0,1-.327.135H21.641a.437.437,0,0,1-.322-.135m0,2.621a.459.459,0,0,1,0-.65.45.45,0,0,1,.322-.128H27.35a.459.459,0,0,1,.327.777.432.432,0,0,1-.327.134H21.641a.436.436,0,0,1-.322-.134" transform="translate(-6.4 -22.54)" fill="#434a54"/>
        <path id="Trazado_616040" data-name="Trazado 616040" d="M27.275,78.245H21.566a.609.609,0,0,1-.445-.186.617.617,0,0,1-.186-.445.6.6,0,0,1,.188-.453.621.621,0,0,1,.442-.177h5.709a.633.633,0,0,1,.453,1.073.6.6,0,0,1-.453.188m-5.709-.912a.274.274,0,0,0-.2.08.284.284,0,0,0,0,.4h0a.265.265,0,0,0,.2.084h5.709a.258.258,0,0,0,.2-.081.278.278,0,0,0-.2-.482Zm5.709-1.708H21.566a.61.61,0,0,1-.445-.186.617.617,0,0,1-.186-.445.6.6,0,0,1,.188-.453.621.621,0,0,1,.442-.177h5.709a.633.633,0,0,1,.453,1.073.6.6,0,0,1-.453.189m-5.709-.913a.273.273,0,0,0-.2.08.26.26,0,0,0-.081.2.264.264,0,0,0,.083.2h0a.262.262,0,0,0,.2.084h5.709a.258.258,0,0,0,.2-.082.279.279,0,0,0-.2-.482Z" transform="translate(-6.324 -22.464)"/>
        <path id="Trazado_616041" data-name="Trazado 616041" d="M34.847,76.8a.423.423,0,0,1-.146-.322,2.146,2.146,0,0,1,.187-.924,2.449,2.449,0,0,1,.439-.661,7.177,7.177,0,0,1,.672-.6,4.318,4.318,0,0,0,.655-.608.9.9,0,0,0,.211-.585q0-1.274-1.673-1.275a3.253,3.253,0,0,0-.8.1,2.466,2.466,0,0,0-.7.286.518.518,0,0,1-.292.094.479.479,0,0,1-.468-.468.512.512,0,0,1,.292-.445,3.435,3.435,0,0,1,.971-.433,4.288,4.288,0,0,1,1.088-.129,2.9,2.9,0,0,1,1.912.6,1.986,1.986,0,0,1,.72,1.614,1.857,1.857,0,0,1-.163.8,2.179,2.179,0,0,1-.4.585,6.59,6.59,0,0,1-.62.544,4.559,4.559,0,0,0-.754.72,1.244,1.244,0,0,0-.251.789.416.416,0,0,1-.152.322.527.527,0,0,1-.363.134.522.522,0,0,1-.368-.134m-.14,2.152a.677.677,0,0,1-.2-.5.7.7,0,0,1,.69-.69.674.674,0,0,1,.5.205.661.661,0,0,1,.205.485.7.7,0,0,1-.7.7.663.663,0,0,1-.486-.205" transform="translate(-9.949 -21.396)" fill="#434a54"/>
        <path id="Trazado_616042" data-name="Trazado 616042" d="M35.117,79.253A.836.836,0,0,1,34.508,79a.852.852,0,0,1-.255-.62.835.835,0,0,1,.255-.609.87.87,0,0,1,1.23,0,.836.836,0,0,1,.256.609.875.875,0,0,1-.877.877m0-1.392a.524.524,0,0,0-.516.516.5.5,0,0,0,.154.373.514.514,0,0,0,.736,0,.5.5,0,0,0,.154-.373.493.493,0,0,0-.154-.362.507.507,0,0,0-.374-.154m.024-.831a.7.7,0,0,1-.487-.18.6.6,0,0,1-.2-.45,2.329,2.329,0,0,1,.2-1,2.65,2.65,0,0,1,.47-.707,7.2,7.2,0,0,1,.69-.618,4.263,4.263,0,0,0,.63-.583.723.723,0,0,0,.171-.475c0-.472-.156-1.1-1.5-1.1a3.082,3.082,0,0,0-.759.094,2.315,2.315,0,0,0-.648.266.648.648,0,0,1-.834-.072.62.62,0,0,1-.192-.451.678.678,0,0,1,.378-.595,3.6,3.6,0,0,1,1.016-.452,4.476,4.476,0,0,1,1.132-.135,3.083,3.083,0,0,1,2.024.636,2.163,2.163,0,0,1,.782,1.749,2.04,2.04,0,0,1-.18.877,2.346,2.346,0,0,1-.431.631,6.616,6.616,0,0,1-.637.56,4.334,4.334,0,0,0-.724.69,1.076,1.076,0,0,0-.215.682.59.59,0,0,1-.211.452.7.7,0,0,1-.478.178m-.024-5.46c1.527,0,1.847.789,1.847,1.45a1.076,1.076,0,0,1-.25.7,4.406,4.406,0,0,1-.683.634,7.07,7.07,0,0,0-.654.586,2.332,2.332,0,0,0-.408.615,1.989,1.989,0,0,0-.17.85.249.249,0,0,0,.089.193h0a.386.386,0,0,0,.5,0,.241.241,0,0,0,.094-.191,1.414,1.414,0,0,1,.289-.9,4.709,4.709,0,0,1,.783-.75,6.412,6.412,0,0,0,.6-.528,1.987,1.987,0,0,0,.365-.538,1.691,1.691,0,0,0,.147-.727,1.806,1.806,0,0,0-.656-1.48,2.751,2.751,0,0,0-1.8-.556,4.13,4.13,0,0,0-1.043.124,3.259,3.259,0,0,0-.922.411c-.19.114-.211.223-.211.3a.28.28,0,0,0,.089.205.3.3,0,0,0,.4.024,2.688,2.688,0,0,1,.75-.311,3.468,3.468,0,0,1,.844-.1" transform="translate(-9.874 -21.32)"/>
        <path id="Trazado_616043" data-name="Trazado 616043" d="M12.912,14.528H10.657a.7.7,0,1,1,0-1.4h2.255a.7.7,0,0,1,0,1.4" transform="translate(-3.009 -3.967)" fill="#196442"/>
        <path id="Trazado_616044" data-name="Trazado 616044" d="M21.372,14.528H19.117a.7.7,0,1,1,0-1.4h2.255a.7.7,0,1,1,0,1.4" transform="translate(-5.564 -3.967)" fill="#196442"/>
        <path id="Trazado_616045" data-name="Trazado 616045" d="M29.832,14.528H27.577a.7.7,0,0,1,0-1.4h2.255a.7.7,0,1,1,0,1.4" transform="translate(-8.12 -3.967)" fill="#196442"/>
        <path id="Trazado_616046" data-name="Trazado 616046" d="M81.5,39.281v35.5a3.136,3.136,0,0,1-3.141,3.141H51.141A3.136,3.136,0,0,1,48,74.776v-35.5a3.141,3.141,0,0,1,3.141-3.141H78.359A3.141,3.141,0,0,1,81.5,39.281" transform="translate(-14.5 -10.917)" fill="#2d4587"/>
        <path id="Trazado_616047" data-name="Trazado 616047" d="M81.5,39.283v35.5a3.136,3.136,0,0,1-3.141,3.141H51.141A3.136,3.136,0,0,1,48,74.778v-.956h8.138A21.265,21.265,0,0,0,77.4,52.55V36.142h.956A3.141,3.141,0,0,1,81.5,39.283" transform="translate(-14.5 -10.918)" fill="#283455"/>
        <path id="Trazado_616048" data-name="Trazado 616048" d="M86.345,74.289h-3.21a1.214,1.214,0,0,1-1.214-1.214v-3.21a1.214,1.214,0,0,1,1.214-1.214h3.21a1.214,1.214,0,0,1,1.214,1.214v3.21a1.214,1.214,0,0,1-1.214,1.214" transform="translate(-24.748 -20.738)" fill="#f4f6f8"/>
        <path id="Trazado_616049" data-name="Trazado 616049" d="M72.385,74.289h-3.21a1.214,1.214,0,0,1-1.214-1.214v-3.21a1.214,1.214,0,0,1,1.214-1.214h3.21A1.214,1.214,0,0,1,73.6,69.864v3.21a1.214,1.214,0,0,1-1.214,1.214" transform="translate(-20.53 -20.738)" fill="#f4f6f8"/>
        <path id="Trazado_616050" data-name="Trazado 616050" d="M58.425,74.289h-3.21A1.214,1.214,0,0,1,54,73.075v-3.21a1.214,1.214,0,0,1,1.214-1.214h3.21a1.214,1.214,0,0,1,1.214,1.214v3.21a1.214,1.214,0,0,1-1.214,1.214" transform="translate(-16.313 -20.738)" fill="#f4f6f8"/>
        <path id="Trazado_616051" data-name="Trazado 616051" d="M86.345,87.829h-3.21a1.214,1.214,0,0,1-1.214-1.214V83.4a1.214,1.214,0,0,1,1.214-1.214h3.21A1.214,1.214,0,0,1,87.559,83.4v3.21a1.214,1.214,0,0,1-1.214,1.214" transform="translate(-24.748 -24.829)" fill="#f4f6f8"/>
        <path id="Trazado_616052" data-name="Trazado 616052" d="M87.559,83.406v3.21a1.215,1.215,0,0,1-1.214,1.214h-3.21a1.215,1.215,0,0,1-1.214-1.214v-.475h1.012A2.934,2.934,0,0,0,85.87,83.2V82.192h.475a1.215,1.215,0,0,1,1.214,1.214" transform="translate(-24.748 -24.829)" fill="#e4e8eb"/>
        <path id="Trazado_616053" data-name="Trazado 616053" d="M87.559,69.864v3.21a1.215,1.215,0,0,1-1.214,1.214h-3.21a1.215,1.215,0,0,1-1.214-1.214V72.6h1.012a2.934,2.934,0,0,0,2.938-2.938V68.65h.475a1.215,1.215,0,0,1,1.214,1.214" transform="translate(-24.748 -20.738)" fill="#e4e8eb"/>
        <path id="Trazado_616054" data-name="Trazado 616054" d="M72.385,87.829h-3.21a1.214,1.214,0,0,1-1.214-1.214V83.4a1.214,1.214,0,0,1,1.214-1.214h3.21A1.214,1.214,0,0,1,73.6,83.4v3.21a1.214,1.214,0,0,1-1.214,1.214" transform="translate(-20.53 -24.829)" fill="#f4f6f8"/>
        <path id="Trazado_616055" data-name="Trazado 616055" d="M73.6,83.406v3.21a1.215,1.215,0,0,1-1.214,1.214h-3.21a1.215,1.215,0,0,1-1.214-1.214v-.475h1.012A2.934,2.934,0,0,0,71.91,83.2V82.192h.475A1.215,1.215,0,0,1,73.6,83.406" transform="translate(-20.53 -24.829)" fill="#e4e8eb"/>
        <path id="Trazado_616056" data-name="Trazado 616056" d="M73.6,69.864v3.21a1.215,1.215,0,0,1-1.214,1.214h-3.21a1.215,1.215,0,0,1-1.214-1.214V72.6h1.012a2.934,2.934,0,0,0,2.938-2.938V68.65h.475A1.215,1.215,0,0,1,73.6,69.864" transform="translate(-20.53 -20.738)" fill="#e4e8eb"/>
        <path id="Trazado_616057" data-name="Trazado 616057" d="M58.425,87.829h-3.21A1.214,1.214,0,0,1,54,86.615V83.4a1.214,1.214,0,0,1,1.214-1.214h3.21A1.214,1.214,0,0,1,59.639,83.4v3.21a1.214,1.214,0,0,1-1.214,1.214" transform="translate(-16.313 -24.829)" fill="#f4f6f8"/>
        <path id="Trazado_616058" data-name="Trazado 616058" d="M59.639,83.406v3.21a1.215,1.215,0,0,1-1.214,1.214h-3.21A1.215,1.215,0,0,1,54,86.617v-.475h1.012A2.934,2.934,0,0,0,57.95,83.2V82.192h.475a1.215,1.215,0,0,1,1.214,1.214" transform="translate(-16.313 -24.829)" fill="#e4e8eb"/>
        <path id="Trazado_616059" data-name="Trazado 616059" d="M59.639,69.864v3.21a1.215,1.215,0,0,1-1.214,1.214h-3.21A1.215,1.215,0,0,1,54,73.075V72.6h1.012a2.934,2.934,0,0,0,2.938-2.938V68.65h.475a1.215,1.215,0,0,1,1.214,1.214" transform="translate(-16.313 -20.738)" fill="#e4e8eb"/>
        <path id="Trazado_616060" data-name="Trazado 616060" d="M54,54.542V44.429a2.289,2.289,0,0,1,2.289-2.289H76.835a2.289,2.289,0,0,1,2.289,2.289V54.542a2.289,2.289,0,0,1-2.289,2.289H56.289A2.289,2.289,0,0,1,54,54.542" transform="translate(-16.313 -12.73)" fill="#66d4f1"/>
        <path id="Trazado_616061" data-name="Trazado 616061" d="M63.878,53.061H61.623a.7.7,0,1,1,0-1.4h2.255a.7.7,0,0,1,0,1.4" transform="translate(-18.405 -15.607)" fill="#fff"/>
        <path id="Trazado_616062" data-name="Trazado 616062" d="M72.338,53.061H70.083a.7.7,0,1,1,0-1.4h2.255a.7.7,0,1,1,0,1.4" transform="translate(-20.961 -15.607)" fill="#fff"/>
        <path id="Trazado_616063" data-name="Trazado 616063" d="M80.8,53.061H78.543a.7.7,0,0,1,0-1.4H80.8a.7.7,0,0,1,0,1.4" transform="translate(-23.516 -15.607)" fill="#fff"/>
      </g>
    </g>
  </g>
</svg>
