<svg xmlns="http://www.w3.org/2000/svg" width="190" height="190" viewBox="0 0 190 190">
  <g id="img22" transform="translate(-9469 6764)">
    <rect id="Rectángulo_379357" data-name="Rectángulo 379357" width="190" height="190" rx="17" transform="translate(9469 -6764)" fill="#fff"/>
    <g id="Grupo_1074527" data-name="Grupo 1074527" transform="translate(9500.427 -6732.638)">
      <path id="Trazado_641830" data-name="Trazado 641830" d="M3.6-2.109H8.375V0H.859V-11.375H3.6Z" transform="translate(3.49 21.526)" fill="#2d4587"/>
      <path id="Trazado_641835" data-name="Trazado 641835" d="M3.6-2.109H8.375V0H.859V-11.375H3.6Z" transform="translate(3.49 113.526)" fill="#2d4587"/>
      <path id="Trazado_641831" data-name="Trazado 641831" d="M3.6-2.109H8.375V0H.859V-11.375H3.6Z" transform="translate(110.824 21.525)" fill="#2d4587"/>
      <path id="Trazado_641834" data-name="Trazado 641834" d="M3.6-2.109H8.375V0H.859V-11.375H3.6Z" transform="translate(110.824 113.525)" fill="#2d4587"/>
      <path id="Trazado_641833" data-name="Trazado 641833" d="M.406-4.289a5.164,5.164,0,0,1,.867-3.164A2.854,2.854,0,0,1,3.7-8.609,2.428,2.428,0,0,1,5.6-7.719V-12H8.242V0H5.875L5.742-.906A2.493,2.493,0,0,1,3.68.156,2.849,2.849,0,0,1,1.289-1,5.327,5.327,0,0,1,.406-4.289Zm2.633.164q0,2.25,1.313,2.25A1.3,1.3,0,0,0,5.6-2.609V-5.828a1.261,1.261,0,0,0-1.234-.75q-1.219,0-1.32,1.969ZM17.633,0H9.7V-1.719l3.656-3.844A4.364,4.364,0,0,0,14.7-8.008a1.7,1.7,0,0,0-.32-1.117,1.144,1.144,0,0,0-.93-.383A1.158,1.158,0,0,0,12.477-9,2.1,2.1,0,0,0,12.1-7.719H9.461a3.736,3.736,0,0,1,.523-1.934,3.671,3.671,0,0,1,1.453-1.387,4.317,4.317,0,0,1,2.078-.5,4.246,4.246,0,0,1,2.84.852,3.04,3.04,0,0,1,1,2.445,3.551,3.551,0,0,1-.25,1.309A5.739,5.739,0,0,1,16.324-5.6a19.581,19.581,0,0,1-1.7,1.871l-1.469,1.7h4.477Z" transform="translate(66.324 116.051)" fill="#2d4587"/>
      <path id="Trazado_641832" data-name="Trazado 641832" d="M.406-4.289a5.164,5.164,0,0,1,.867-3.164A2.854,2.854,0,0,1,3.7-8.609,2.428,2.428,0,0,1,5.6-7.719V-12H8.242V0H5.875L5.742-.906A2.493,2.493,0,0,1,3.68.156,2.849,2.849,0,0,1,1.289-1,5.327,5.327,0,0,1,.406-4.289Zm2.633.164q0,2.25,1.313,2.25A1.3,1.3,0,0,0,5.6-2.609V-5.828a1.261,1.261,0,0,0-1.234-.75q-1.219,0-1.32,1.969ZM15.531,0H12.891V-8.406L10.3-7.648v-2l4.992-1.727h.242Z" transform="translate(3.491 59.388)" fill="#2d4587"/>
      <g id="Grupo_1074532" data-name="Grupo 1074532" transform="translate(-16.427 -16.363)">
        <path id="Trazado_616103" data-name="Trazado 616103" d="M5.43,79.751,79.75,5.43l74.321,74.321L79.75,154.07ZM79.75,0,0,79.751,79.75,159.5,159.5,79.751Z" fill="#196442"/>
        <path id="Trazado_616104" data-name="Trazado 616104" d="M165.788,160.251h-3v-8.413h3Zm0-16.826h-3v-8.413h3Zm0-16.825h-3v-8.413h3Zm0-16.826h-3v-8.413h3Zm0-16.826h-3V84.536h3Zm0-16.826h-3V67.71h3Zm0-16.826h-3V50.884h3Zm0-16.825h-3V34.058h3Zm0-16.826h-3V17.232h3Z" transform="translate(-84.661 -8.962)" fill="#a7b9e8"/>
        <path id="Trazado_616105" data-name="Trazado 616105" d="M159.816,166.107H151.24v-3h8.576Zm-17.152,0h-8.576v-3h8.576Zm-17.152,0h-8.576v-3h8.576Zm-17.152,0H99.784v-3h8.576Zm-17.152,0H82.632v-3h8.576Zm-17.152,0H65.48v-3h8.576Zm-17.152,0H48.327v-3H56.9Zm-17.152,0H31.175v-3h8.576Zm-17.152,0H14.023v-3H22.6Z" transform="translate(-7.293 -84.827)" fill="#a7b9e8"/>
      </g>
    </g>
  </g>
</svg>
