<svg xmlns="http://www.w3.org/2000/svg" xmlns:xlink="http://www.w3.org/1999/xlink" width="62.504" height="62.504" viewBox="0 0 62.504 62.504">
  <defs>
    <clipPath id="clip-path">
      <rect id="Rectángulo_379003" data-name="Rectángulo 379003" width="43" height="43" transform="translate(289.816 1210.717)" fill="#fff" stroke="#707070" stroke-width="1"/>
    </clipPath>
    <clipPath id="clip-path-2">
      <rect id="Rectángulo_379005" data-name="Rectángulo 379005" width="43" height="43" transform="translate(289.816 1209.717)" fill="#fff" stroke="#707070" stroke-width="1"/>
    </clipPath>
    <clipPath id="clip-path-3">
      <rect id="Rectángulo_379015" data-name="Rectángulo 379015" width="36.031" height="37.75" fill="#ffd87e"/>
    </clipPath>
  </defs>
  <g id="img2" transform="translate(-521 -599)">
    <g id="Grupo_1072167" data-name="Grupo 1072167" transform="translate(241.184 -599.717)">
      <g id="Grupo_1072053" data-name="Grupo 1072053" transform="translate(279.816 1198.717)">
        <circle id="Elipse_4742" data-name="Elipse 4742" cx="31.252" cy="31.252" r="31.252" transform="translate(0)" fill="#11462e"/>
      </g>
    </g>
    <g id="Enmascarar_grupo_1074671" data-name="Enmascarar grupo 1074671" transform="translate(241.184 -601.717)" clip-path="url(#clip-path)">
      <g id="Enmascarar_grupo_1074672" data-name="Enmascarar grupo 1074672" transform="translate(0 1)" clip-path="url(#clip-path-2)">
        <g id="Grupo_1074242" data-name="Grupo 1074242" transform="translate(290.795 1214.967)">
          <g id="Grupo_1074241" data-name="Grupo 1074241" clip-path="url(#clip-path-3)">
            <path id="Trazado_615596" data-name="Trazado 615596" d="M16.135,67.268q0,4.565,0,9.131c0,.316,0,.316-.3.316q-6.211,0-12.421,0A3.807,3.807,0,0,1,1.7,76.428,2.731,2.731,0,0,1,.044,73.973C-.009,72.7,0,71.417,0,70.139Q0,65.645.007,61.151a3.8,3.8,0,0,1,.208-1.457,2.715,2.715,0,0,1,2.433-1.832c.97-.068,1.947-.04,2.92-.045.047,0,.132.088.136.14.014.188,0,.378,0,.567Q5.7,61.344,5.7,64.164a2.145,2.145,0,0,0,.059.521.882.882,0,0,0,.8.669c.263.018.527.012.791.013.988.006,1.975.007,2.963.015a.97.97,0,0,0,1.093-1.1c-.011-1.988-.01-3.976-.013-5.964A1.9,1.9,0,0,0,11.381,58c-.028-.157.049-.189.178-.188q2.2,0,4.4,0c.12,0,.173.042.17.164,0,.209,0,.419,0,.629v8.665ZM11.39,70.1H9.524a.908.908,0,0,0-.988.962c-.006.953,0,1.906.02,2.859a.911.911,0,0,0,.941.887c1.257,0,2.515,0,3.772.008a.91.91,0,0,0,.948-.786,3.8,3.8,0,0,0,.013-.546c0-.851,0-1.7-.022-2.554a.836.836,0,0,0-.891-.829c-.642,0-1.284,0-1.927,0" transform="translate(0 -48.388)" fill="#ffd87e"/>
            <path id="Trazado_615597" data-name="Trazado 615597" d="M151.341,167.8c0-1.007-.041-2.017.01-3.022a2.845,2.845,0,0,1,2.831-2.639H159.8a2.875,2.875,0,0,1,2.869,2.72c.034.79.016,1.582.015,2.374,0,1.163.022,2.327-.016,3.49a2.834,2.834,0,0,1-2.825,2.733q-2.852.022-5.7,0a2.826,2.826,0,0,1-2.8-2.654c-.048-1-.009-2-.009-3h0m5.378.275c-.292-.3-.562-.581-.842-.854a1.662,1.662,0,0,0-.354-.267.947.947,0,0,0-1.344.582.929.929,0,0,0,.243.953c.6.6,1.214,1.178,1.791,1.8a1.036,1.036,0,0,0,1.715-.267c.368-.811.793-1.6,1.19-2.4.228-.459.464-.916.673-1.384a.84.84,0,0,0-.213-.987.928.928,0,0,0-.948-.246.944.944,0,0,0-.616.518c-.388.773-.77,1.548-1.156,2.321-.035.07-.081.135-.14.232" transform="translate(-126.663 -135.72)" fill="#ffd87e"/>
            <path id="Trazado_615598" data-name="Trazado 615598" d="M162.594,5.681c0,.893.007,1.786,0,2.678a2.84,2.84,0,0,1-1.45,2.574,2.771,2.771,0,0,1-1.43.391h-5.48a2.856,2.856,0,0,1-3-2.861q-.061-2.849.012-5.7A2.818,2.818,0,0,1,154.13.006C156,0,157.877,0,159.751,0a2.863,2.863,0,0,1,2.785,2.375,5.588,5.588,0,0,1,.054.828c.007.825,0,1.65,0,2.475Zm-5.988.291c-.326-.35-.6-.674-.909-.967a.885.885,0,0,0-.9-.273.948.948,0,0,0-.444,1.638c.617.643,1.256,1.268,1.9,1.881a.909.909,0,0,0,.923.213.986.986,0,0,0,.624-.537c.481-.966.967-1.93,1.449-2.9a10.061,10.061,0,0,0,.457-.968.9.9,0,0,0-.691-1.2.894.894,0,0,0-1.06.475c-.4.765-.781,1.54-1.171,2.311-.042.083-.089.164-.179.327" transform="translate(-126.569 0)" fill="#ffd87e"/>
            <path id="Trazado_615599" data-name="Trazado 615599" d="M156.973,92.486c-1.015,0-2.031.029-3.045-.008a2.832,2.832,0,0,1-2.617-2.834c0-1.907-.017-3.815.021-5.722a2.811,2.811,0,0,1,2.178-2.637,2.013,2.013,0,0,1,.463-.049c2.01,0,4.019-.015,6.029,0a2.783,2.783,0,0,1,2.615,2.354,5.272,5.272,0,0,1,.054.727c.005,1.711,0,3.423,0,5.134a2.92,2.92,0,0,1-.974,2.336,2.681,2.681,0,0,1-1.928.7c-.933-.033-1.867-.008-2.8-.008m-.013-6.958a7.259,7.259,0,0,0-.641-.663,1.519,1.519,0,0,0-.59-.283.921.921,0,0,0-.971.628,1.085,1.085,0,0,0,.316,1.11c.058.046.106.1.16.156.411.4.42.407-.008.785a1.142,1.142,0,0,0-.477,1.127.95.95,0,0,0,.154.4.934.934,0,0,0,1.383.12c.246-.208.472-.442.737-.692.213.223.417.457.642.669a.981.981,0,0,0,1.312.027.923.923,0,0,0,.063-1.34c-.181-.209-.379-.4-.579-.6-.093-.089-.088-.137.005-.224a4.909,4.909,0,0,0,.576-.6,1.175,1.175,0,0,0,.241-.54.91.91,0,0,0-.552-.946.964.964,0,0,0-1.114.22c-.206.2-.415.4-.656.638" transform="translate(-126.65 -67.993)" fill="#ffd87e"/>
            <path id="Trazado_615600" data-name="Trazado 615600" d="M110.668,76.873V57.985a3.019,3.019,0,0,1,1.484.44,2.811,2.811,0,0,1,1.336,2.474c.006,1.556,0,3.112,0,4.668,0,2.781.01,5.561,0,8.342a2.765,2.765,0,0,1-1.813,2.721,6.42,6.42,0,0,1-1.007.244" transform="translate(-92.633 -48.536)" fill="#ffd87e"/>
            <path id="Trazado_615601" data-name="Trazado 615601" d="M46.645,57.83c.587,0,1.161,0,1.735.007.048,0,.1.089.138.145.016.023,0,.066,0,.1,0,1.723,0,3.447,0,5.17,0,.2-.056.247-.252.242-.486-.013-.973,0-1.459.009-.141,0-.19-.032-.19-.177q0-2.666,0-5.332a1.15,1.15,0,0,1,.024-.162" transform="translate(-39.024 -48.405)" fill="#ffd87e"/>
            <path id="Trazado_615602" data-name="Trazado 615602" d="M65.935,145.621a.727.727,0,0,1-.121.023c-.526.006-1.053.008-1.579.017-.135,0-.2-.031-.185-.182.014-.195-.007-.392.008-.587,0-.057.08-.155.124-.155.579-.011,1.158-.007,1.753-.007Z" transform="translate(-53.611 -121.144)" fill="#ffd87e"/>
          </g>
        </g>
      </g>
    </g>
  </g>
</svg>
