<svg xmlns="http://www.w3.org/2000/svg" xmlns:xlink="http://www.w3.org/1999/xlink" width="576" height="261" viewBox="0 0 576 261">
  <defs>
    <clipPath id="clip-path">
      <rect id="Rectángulo_379384" data-name="Rectángulo 379384" width="179.189" height="218.37" fill="none"/>
    </clipPath>
  </defs>
  <g id="img37" transform="translate(-10032 4849)">
    <path id="Trazado_616156" data-name="Trazado 616156" d="M0,0H576V261H0Z" transform="translate(10032 -4849)" fill="#fff"/>
    <g id="Grupo_1074573" data-name="Grupo 1074573" transform="translate(-1510.152 795.13)">
      <path id="Trazado_641860" data-name="Trazado 641860" d="M3.313-7.547A2.635,2.635,0,0,1,5.469-8.609a2.627,2.627,0,0,1,2.109.828A3.721,3.721,0,0,1,8.3-5.336V0H5.664V-5.273a1.488,1.488,0,0,0-.273-.988,1.175,1.175,0,0,0-.93-.316,1.266,1.266,0,0,0-1.148.516V0H.68V-12H3.313Z" transform="translate(11819 -5452)" fill="#0599c8"/>
      <g id="Grupo_1074572" data-name="Grupo 1074572" transform="translate(11725.152 -5617)">
        <g id="Grupo_1074571" data-name="Grupo 1074571" clip-path="url(#clip-path)">
          <path id="Trazado_616157" data-name="Trazado 616157" d="M141.8,18.091C141.8,10.308,110.968,4,72.931,4S4.057,10.308,4.057,18.091,34.892,32.183,72.931,32.183,141.8,25.874,141.8,18.091" transform="translate(16.608 6.001)" fill="#c7e3d7"/>
          <path id="Trazado_616158" data-name="Trazado 616158" d="M178.751,26.507a9.041,9.041,0,0,0,.213-1.915C178.964,7.7,132.579,0,89.481,0S0,7.7,0,24.592A9.052,9.052,0,0,0,.484,27.5l-.135.06L84.795,216.006a4,4,0,0,0,3.631,2.364h.019a4,4,0,0,0,3.634-2.328l87.11-189.333ZM29.973,13.92C45.821,10.1,66.955,8,89.481,8s43.661,2.1,59.509,5.92c18.026,4.342,21.974,9.176,21.974,10.672s-3.948,6.331-21.974,10.673c-15.848,3.818-36.981,5.92-59.509,5.92s-43.66-2.1-59.508-5.92C11.947,30.923,8,26.089,8,24.592s3.947-6.33,21.973-10.672M88.493,204.7,14.1,38.677c17.021,7.149,46.918,10.508,75.384,10.508s58.38-3.361,75.4-10.514Z" fill="#196442"/>
          <path id="Trazado_616159" data-name="Trazado 616159" d="M88.594,216.87a2.5,2.5,0,0,1-2.5-2.5V24.593a2.5,2.5,0,0,1,5,0V214.37a2.5,2.5,0,0,1-2.5,2.5" fill="#6fd9fb"/>
        </g>
      </g>
    </g>
  </g>
</svg>
