<svg xmlns="http://www.w3.org/2000/svg" xmlns:xlink="http://www.w3.org/1999/xlink" width="576" height="261" viewBox="0 0 576 261">
  <defs>
    <clipPath id="clip-path">
      <rect id="Rect치ngulo_379381" data-name="Rect치ngulo 379381" width="499" height="223.905" fill="none"/>
    </clipPath>
  </defs>
  <g id="img30" transform="translate(-10032 5712)">
    <path id="Trazado_616118" data-name="Trazado 616118" d="M0,0H576V261H0Z" transform="translate(10032 -5712)" fill="#fff"/>
    <g id="Grupo_1074557" data-name="Grupo 1074557" transform="translate(-1479 1123.616)">
      <path id="Trazado_641853" data-name="Trazado 641853" d="M.859,0V-11.375H4.945a5.786,5.786,0,0,1,3.34.8A2.677,2.677,0,0,1,9.43-8.234a2.707,2.707,0,0,1-.406,1.508,2.367,2.367,0,0,1-1.2.922A2.4,2.4,0,0,1,9.2-4.93a2.544,2.544,0,0,1,.477,1.563A3.012,3.012,0,0,1,8.613-.855,5.038,5.038,0,0,1,5.477,0ZM3.6-4.836v2.727H5.4a1.709,1.709,0,0,0,1.141-.34,1.189,1.189,0,0,0,.4-.957,1.261,1.261,0,0,0-1.414-1.43Zm0-1.8h1.43a2.031,2.031,0,0,0,1.281-.329A1.168,1.168,0,0,0,6.7-7.91a1.226,1.226,0,0,0-.414-1.038,2.216,2.216,0,0,0-1.336-.317H3.6ZM15.82,0a2.973,2.973,0,0,1-.25-.758,2.448,2.448,0,0,1-2.031.914,3,3,0,0,1-2.031-.723,2.3,2.3,0,0,1-.836-1.816,2.364,2.364,0,0,1,1.016-2.078,5.174,5.174,0,0,1,2.953-.7h.813v-.448q0-1.17-1.008-1.17a.824.824,0,0,0-.937.926H10.875a2.36,2.36,0,0,1,1.043-1.99,4.383,4.383,0,0,1,2.66-.765,3.843,3.843,0,0,1,2.555.789,2.743,2.743,0,0,1,.961,2.164v3.742a3.832,3.832,0,0,0,.359,1.781V0ZM14.172-1.719a1.469,1.469,0,0,0,.816-.211,1.322,1.322,0,0,0,.465-.477V-3.758h-.766q-1.375,0-1.375,1.234a.754.754,0,0,0,.242.582A.876.876,0,0,0,14.172-1.719Zm9.8-.656a.608.608,0,0,0-.352-.539,5.348,5.348,0,0,0-1.336-.422,6.092,6.092,0,0,1-1.625-.574,2.722,2.722,0,0,1-.977-.863,2.061,2.061,0,0,1-.336-1.164,2.336,2.336,0,0,1,.961-1.918,3.958,3.958,0,0,1,2.516-.754,4.386,4.386,0,0,1,2.688.758,2.37,2.37,0,0,1,1.016,1.992H23.891q0-1.016-1.07-1.016a1.061,1.061,0,0,0-.7.23.714.714,0,0,0-.281.574.655.655,0,0,0,.344.57,3.248,3.248,0,0,0,1.1.359,9.486,9.486,0,0,1,1.324.336,2.406,2.406,0,0,1,1.906,2.352A2.214,2.214,0,0,1,25.488-.57a4.505,4.505,0,0,1-2.66.727,4.6,4.6,0,0,1-1.937-.391A3.24,3.24,0,0,1,19.563-1.3a2.406,2.406,0,0,1-.477-1.414h2.461a1.017,1.017,0,0,0,.391.855,1.607,1.607,0,0,0,.961.27,1.264,1.264,0,0,0,.809-.219A.7.7,0,0,0,23.977-2.375ZM31.836.156A4.345,4.345,0,0,1,28.688-1a4.006,4.006,0,0,1-1.2-3.02v-.219a5.191,5.191,0,0,1,.48-2.289,3.516,3.516,0,0,1,1.4-1.535,4.233,4.233,0,0,1,2.188-.543A3.659,3.659,0,0,1,34.367-7.5,4.344,4.344,0,0,1,35.4-4.422V-3.4H30.164a1.9,1.9,0,0,0,.617,1.117,1.836,1.836,0,0,0,1.234.406,2.366,2.366,0,0,0,1.953-.875l1.2,1.422A3.363,3.363,0,0,1,33.777-.246,4.713,4.713,0,0,1,31.836.156Zm-.3-6.734q-1.156,0-1.375,1.531H32.82v-.2a1.3,1.3,0,0,0-.32-.98A1.275,1.275,0,0,0,31.539-6.578Z" transform="translate(11728 -6780.29)" fill="#636363"/>
      <path id="Trazado_641850" data-name="Trazado 641850" d="M.859,0V-11.375H4.945a5.786,5.786,0,0,1,3.34.8A2.677,2.677,0,0,1,9.43-8.234a2.707,2.707,0,0,1-.406,1.508,2.367,2.367,0,0,1-1.2.922A2.4,2.4,0,0,1,9.2-4.93a2.544,2.544,0,0,1,.477,1.563A3.012,3.012,0,0,1,8.613-.855,5.038,5.038,0,0,1,5.477,0ZM3.6-4.836v2.727H5.4a1.709,1.709,0,0,0,1.141-.34,1.189,1.189,0,0,0,.4-.957,1.261,1.261,0,0,0-1.414-1.43Zm0-1.8h1.43a2.031,2.031,0,0,0,1.281-.329A1.168,1.168,0,0,0,6.7-7.91a1.226,1.226,0,0,0-.414-1.038,2.216,2.216,0,0,0-1.336-.317H3.6ZM15.82,0a2.973,2.973,0,0,1-.25-.758,2.448,2.448,0,0,1-2.031.914,3,3,0,0,1-2.031-.723,2.3,2.3,0,0,1-.836-1.816,2.364,2.364,0,0,1,1.016-2.078,5.174,5.174,0,0,1,2.953-.7h.813v-.448q0-1.17-1.008-1.17a.824.824,0,0,0-.937.926H10.875a2.36,2.36,0,0,1,1.043-1.99,4.383,4.383,0,0,1,2.66-.765,3.843,3.843,0,0,1,2.555.789,2.743,2.743,0,0,1,.961,2.164v3.742a3.832,3.832,0,0,0,.359,1.781V0ZM14.172-1.719a1.469,1.469,0,0,0,.816-.211,1.322,1.322,0,0,0,.465-.477V-3.758h-.766q-1.375,0-1.375,1.234a.754.754,0,0,0,.242.582A.876.876,0,0,0,14.172-1.719Zm9.8-.656a.608.608,0,0,0-.352-.539,5.348,5.348,0,0,0-1.336-.422,6.092,6.092,0,0,1-1.625-.574,2.722,2.722,0,0,1-.977-.863,2.061,2.061,0,0,1-.336-1.164,2.336,2.336,0,0,1,.961-1.918,3.958,3.958,0,0,1,2.516-.754,4.386,4.386,0,0,1,2.688.758,2.37,2.37,0,0,1,1.016,1.992H23.891q0-1.016-1.07-1.016a1.061,1.061,0,0,0-.7.23.714.714,0,0,0-.281.574.655.655,0,0,0,.344.57,3.248,3.248,0,0,0,1.1.359,9.486,9.486,0,0,1,1.324.336,2.406,2.406,0,0,1,1.906,2.352A2.214,2.214,0,0,1,25.488-.57a4.505,4.505,0,0,1-2.66.727,4.6,4.6,0,0,1-1.937-.391A3.24,3.24,0,0,1,19.563-1.3a2.406,2.406,0,0,1-.477-1.414h2.461a1.017,1.017,0,0,0,.391.855,1.607,1.607,0,0,0,.961.27,1.264,1.264,0,0,0,.809-.219A.7.7,0,0,0,23.977-2.375ZM31.836.156A4.345,4.345,0,0,1,28.688-1a4.006,4.006,0,0,1-1.2-3.02v-.219a5.191,5.191,0,0,1,.48-2.289,3.516,3.516,0,0,1,1.4-1.535,4.233,4.233,0,0,1,2.188-.543A3.659,3.659,0,0,1,34.367-7.5,4.344,4.344,0,0,1,35.4-4.422V-3.4H30.164a1.9,1.9,0,0,0,.617,1.117,1.836,1.836,0,0,0,1.234.406,2.366,2.366,0,0,0,1.953-.875l1.2,1.422A3.363,3.363,0,0,1,33.777-.246,4.713,4.713,0,0,1,31.836.156Zm-.3-6.734q-1.156,0-1.375,1.531H32.82v-.2a1.3,1.3,0,0,0-.32-.98A1.275,1.275,0,0,0,31.539-6.578Z" transform="translate(11728 -6604.964)" fill="#636363"/>
      <path id="Trazado_641849" data-name="Trazado 641849" d="M.859,0V-11.375H4.945a5.786,5.786,0,0,1,3.34.8A2.677,2.677,0,0,1,9.43-8.234a2.707,2.707,0,0,1-.406,1.508,2.367,2.367,0,0,1-1.2.922A2.4,2.4,0,0,1,9.2-4.93a2.544,2.544,0,0,1,.477,1.563A3.012,3.012,0,0,1,8.613-.855,5.038,5.038,0,0,1,5.477,0ZM3.6-4.836v2.727H5.4a1.709,1.709,0,0,0,1.141-.34,1.189,1.189,0,0,0,.4-.957,1.261,1.261,0,0,0-1.414-1.43Zm0-1.8h1.43a2.031,2.031,0,0,0,1.281-.329A1.168,1.168,0,0,0,6.7-7.91a1.226,1.226,0,0,0-.414-1.038,2.216,2.216,0,0,0-1.336-.317H3.6ZM15.82,0a2.973,2.973,0,0,1-.25-.758,2.448,2.448,0,0,1-2.031.914,3,3,0,0,1-2.031-.723,2.3,2.3,0,0,1-.836-1.816,2.364,2.364,0,0,1,1.016-2.078,5.174,5.174,0,0,1,2.953-.7h.813v-.448q0-1.17-1.008-1.17a.824.824,0,0,0-.937.926H10.875a2.36,2.36,0,0,1,1.043-1.99,4.383,4.383,0,0,1,2.66-.765,3.843,3.843,0,0,1,2.555.789,2.743,2.743,0,0,1,.961,2.164v3.742a3.832,3.832,0,0,0,.359,1.781V0ZM14.172-1.719a1.469,1.469,0,0,0,.816-.211,1.322,1.322,0,0,0,.465-.477V-3.758h-.766q-1.375,0-1.375,1.234a.754.754,0,0,0,.242.582A.876.876,0,0,0,14.172-1.719Zm9.8-.656a.608.608,0,0,0-.352-.539,5.348,5.348,0,0,0-1.336-.422,6.092,6.092,0,0,1-1.625-.574,2.722,2.722,0,0,1-.977-.863,2.061,2.061,0,0,1-.336-1.164,2.336,2.336,0,0,1,.961-1.918,3.958,3.958,0,0,1,2.516-.754,4.386,4.386,0,0,1,2.688.758,2.37,2.37,0,0,1,1.016,1.992H23.891q0-1.016-1.07-1.016a1.061,1.061,0,0,0-.7.23.714.714,0,0,0-.281.574.655.655,0,0,0,.344.57,3.248,3.248,0,0,0,1.1.359,9.486,9.486,0,0,1,1.324.336,2.406,2.406,0,0,1,1.906,2.352A2.214,2.214,0,0,1,25.488-.57a4.505,4.505,0,0,1-2.66.727,4.6,4.6,0,0,1-1.937-.391A3.24,3.24,0,0,1,19.563-1.3a2.406,2.406,0,0,1-.477-1.414h2.461a1.017,1.017,0,0,0,.391.855,1.607,1.607,0,0,0,.961.27,1.264,1.264,0,0,0,.809-.219A.7.7,0,0,0,23.977-2.375ZM31.836.156A4.345,4.345,0,0,1,28.688-1a4.006,4.006,0,0,1-1.2-3.02v-.219a5.191,5.191,0,0,1,.48-2.289,3.516,3.516,0,0,1,1.4-1.535,4.233,4.233,0,0,1,2.188-.543A3.659,3.659,0,0,1,34.367-7.5,4.344,4.344,0,0,1,35.4-4.422V-3.4H30.164a1.9,1.9,0,0,0,.617,1.117,1.836,1.836,0,0,0,1.234.406,2.366,2.366,0,0,0,1.953-.875l1.2,1.422A3.363,3.363,0,0,1,33.777-.246,4.713,4.713,0,0,1,31.836.156Zm-.3-6.734q-1.156,0-1.375,1.531H32.82v-.2a1.3,1.3,0,0,0-.32-.98A1.275,1.275,0,0,0,31.539-6.578Zm9.1,1.953a11.939,11.939,0,0,1,.508-3.547,8.56,8.56,0,0,1,1.4-2.781,4.98,4.98,0,0,1,1.988-1.594l.5,1.3a5.093,5.093,0,0,0-1.691,2.512,12.25,12.25,0,0,0-.605,4v.344a12.49,12.49,0,0,0,.6,4.078,5.072,5.072,0,0,0,1.7,2.531l-.5,1.3a4.931,4.931,0,0,1-1.988-1.6,8.43,8.43,0,0,1-1.4-2.77,12,12,0,0,1-.508-3.422Zm8.313,2.516h4.773V0H46.211V-11.375h2.742Zm9.961-2.3a11.14,11.14,0,0,1-.539,3.484A8.9,8.9,0,0,1,56.887,1.91a4.955,4.955,0,0,1-2.051,1.605l-.5-1.3a5.144,5.144,0,0,0,1.68-2.5,12.068,12.068,0,0,0,.617-3.883v-.477a12.49,12.49,0,0,0-.6-4.078,5.072,5.072,0,0,0-1.7-2.531l.5-1.3a5.046,5.046,0,0,1,2.035,1.59,8.787,8.787,0,0,1,1.484,2.789,11.046,11.046,0,0,1,.559,3.418Z" transform="translate(11825 -6613.464)" fill="#636363"/>
      <path id="Trazado_641846" data-name="Trazado 641846" d="M7.32-2.125H3.563L2.906,0H-.023L4.148-11.375H6.727L10.93,0H7.984Zm-3.1-2.117H6.664L5.438-8.187Zm14.891.078a5.1,5.1,0,0,1-.887,3.145A2.843,2.843,0,0,1,15.828.156,2.437,2.437,0,0,1,13.914-.7V3.25H11.281v-11.7h2.461l.078.781a2.437,2.437,0,0,1,1.992-.937,2.866,2.866,0,0,1,2.43,1.152,5.16,5.16,0,0,1,.867,3.168Zm-2.633-.164q0-2.25-1.312-2.25a1.239,1.239,0,0,0-1.25.672v3.328a1.279,1.279,0,0,0,1.266.7q1.258,0,1.3-2.172Zm3.461.023a4.989,4.989,0,0,1,.492-2.254,3.52,3.52,0,0,1,1.414-1.52,4.259,4.259,0,0,1,2.164-.531A3.887,3.887,0,0,1,27-7.434a4.512,4.512,0,0,1,1.094,3.2v.094A4.378,4.378,0,0,1,27-1,3.9,3.9,0,0,1,24.023.156a3.942,3.942,0,0,1-2.9-1.082,4.232,4.232,0,0,1-1.18-2.934Zm2.633.164a3.145,3.145,0,0,0,.367,1.719,1.223,1.223,0,0,0,1.086.547q1.406,0,1.438-2.164V-4.3q0-2.273-1.453-2.273-1.32,0-1.43,1.961Zm9.75-6.414v2.1h1.391v1.828H32.32v3.867a.987.987,0,0,0,.172.664.922.922,0,0,0,.68.188,3.862,3.862,0,0,0,.656-.047V-.07a4.859,4.859,0,0,1-1.484.227,2.758,2.758,0,0,1-2.008-.641,2.626,2.626,0,0,1-.648-1.945v-4.2H28.609V-8.453h1.078v-2.1ZM38.836.156A4.345,4.345,0,0,1,35.688-1a4.006,4.006,0,0,1-1.2-3.02v-.219a5.191,5.191,0,0,1,.48-2.289,3.516,3.516,0,0,1,1.4-1.535,4.233,4.233,0,0,1,2.188-.543A3.659,3.659,0,0,1,41.367-7.5,4.344,4.344,0,0,1,42.4-4.422V-3.4H37.164a1.9,1.9,0,0,0,.617,1.117,1.836,1.836,0,0,0,1.234.406,2.366,2.366,0,0,0,1.953-.875l1.2,1.422A3.363,3.363,0,0,1,40.777-.246,4.713,4.713,0,0,1,38.836.156Zm-.3-6.734q-1.156,0-1.375,1.531H39.82v-.2a1.3,1.3,0,0,0-.32-.98A1.275,1.275,0,0,0,38.539-6.578Zm7.406-1.875.086.992a2.906,2.906,0,0,1,2.414-1.148,2.14,2.14,0,0,1,2.164,1.273,2.813,2.813,0,0,1,2.484-1.273q2.57,0,2.641,3.109V0H53.094V-5.336a1.611,1.611,0,0,0-.219-.945.931.931,0,0,0-.8-.3,1.247,1.247,0,0,0-1.164.7l.008.109V0H48.281V-5.32a1.694,1.694,0,0,0-.211-.961.929.929,0,0,0-.8-.3,1.263,1.263,0,0,0-1.156.7V0H43.477V-8.453ZM62,0a2.973,2.973,0,0,1-.25-.758,2.448,2.448,0,0,1-2.031.914,3,3,0,0,1-2.031-.723,2.3,2.3,0,0,1-.836-1.816,2.364,2.364,0,0,1,1.016-2.078,5.174,5.174,0,0,1,2.953-.7h.813v-.448q0-1.17-1.008-1.17a.824.824,0,0,0-.937.926H57.055A2.36,2.36,0,0,1,58.1-7.845a4.383,4.383,0,0,1,2.66-.765,3.843,3.843,0,0,1,2.555.789,2.743,2.743,0,0,1,.961,2.164v3.742a3.832,3.832,0,0,0,.359,1.781V0ZM60.352-1.719a1.469,1.469,0,0,0,.816-.211,1.322,1.322,0,0,0,.465-.477V-3.758h-.766q-1.375,0-1.375,1.234a.754.754,0,0,0,.242.582A.876.876,0,0,0,60.352-1.719Zm9.563-2.906a11.939,11.939,0,0,1,.508-3.547,8.56,8.56,0,0,1,1.4-2.781,4.98,4.98,0,0,1,1.988-1.594l.5,1.3a5.093,5.093,0,0,0-1.691,2.512,12.251,12.251,0,0,0-.605,4v.344a12.49,12.49,0,0,0,.6,4.078,5.072,5.072,0,0,0,1.7,2.531l-.5,1.3a4.931,4.931,0,0,1-1.988-1.6,8.43,8.43,0,0,1-1.4-2.77,12,12,0,0,1-.508-3.422Zm8.313.766V0H75.484V-11.375h4.539a5.287,5.287,0,0,1,2.309.48,3.621,3.621,0,0,1,1.555,1.367,3.734,3.734,0,0,1,.551,2.012,3.291,3.291,0,0,1-1.191,2.66,4.943,4.943,0,0,1-3.27,1Zm0-2.117h1.8a1.7,1.7,0,0,0,1.215-.4A1.48,1.48,0,0,0,81.656-7.5a1.83,1.83,0,0,0-.43-1.273,1.522,1.522,0,0,0-1.172-.484H78.227Zm11.7,1.57a11.14,11.14,0,0,1-.539,3.484A8.9,8.9,0,0,1,87.9,1.91a4.955,4.955,0,0,1-2.051,1.605l-.5-1.3a5.144,5.144,0,0,0,1.68-2.5,12.068,12.068,0,0,0,.617-3.883v-.477a12.49,12.49,0,0,0-.6-4.078,5.072,5.072,0,0,0-1.7-2.531l.5-1.3a5.046,5.046,0,0,1,2.035,1.59,8.787,8.787,0,0,1,1.484,2.789A11.046,11.046,0,0,1,89.93-4.75Z" transform="translate(11986 -6594.464)" fill="#0599c8"/>
      <path id="Trazado_641852" data-name="Trazado 641852" d="M7.32-2.125H3.563L2.906,0H-.023L4.148-11.375H6.727L10.93,0H7.984Zm-3.1-2.117H6.664L5.438-8.187ZM14.414,0H11.773V-12h2.641ZM19.1-10.555v2.1h1.391v1.828H19.1v3.867a.987.987,0,0,0,.172.664.922.922,0,0,0,.68.188,3.862,3.862,0,0,0,.656-.047V-.07a4.859,4.859,0,0,1-1.484.227,2.758,2.758,0,0,1-2.008-.641,2.626,2.626,0,0,1-.648-1.945v-4.2H15.391V-8.453h1.078v-2.1ZM26.563-.914A2.714,2.714,0,0,1,24.3.156,2.662,2.662,0,0,1,22.2-.652a3.4,3.4,0,0,1-.715-2.324V-8.453h2.633v5.492a.946.946,0,0,0,1.055,1.086,1.376,1.376,0,0,0,1.289-.648v-5.93h2.648V0H26.641Zm9.1-5.156L34.8-6.133a1.558,1.558,0,0,0-1.594.781V0H30.57V-8.453h2.469l.086,1.086a2.039,2.039,0,0,1,1.852-1.242,2.567,2.567,0,0,1,.734.094ZM41.141,0a2.973,2.973,0,0,1-.25-.758,2.448,2.448,0,0,1-2.031.914,3,3,0,0,1-2.031-.723,2.3,2.3,0,0,1-.836-1.816,2.364,2.364,0,0,1,1.016-2.078,5.174,5.174,0,0,1,2.953-.7h.813v-.448q0-1.17-1.008-1.17a.824.824,0,0,0-.937.926H36.2a2.36,2.36,0,0,1,1.043-1.99,4.383,4.383,0,0,1,2.66-.765,3.843,3.843,0,0,1,2.555.789,2.743,2.743,0,0,1,.961,2.164v3.742a3.832,3.832,0,0,0,.359,1.781V0ZM39.492-1.719a1.469,1.469,0,0,0,.816-.211,1.322,1.322,0,0,0,.465-.477V-3.758h-.766q-1.375,0-1.375,1.234a.754.754,0,0,0,.242.582A.876.876,0,0,0,39.492-1.719Z" transform="translate(11728 -6701.616)" fill="#0599c8"/>
      <path id="Trazado_641851" data-name="Trazado 641851" d="M10.063-3.852a4.154,4.154,0,0,1-.641,2.1A3.866,3.866,0,0,1,7.777-.344a5.6,5.6,0,0,1-2.418.5A4.467,4.467,0,0,1,1.828-1.3,6.032,6.032,0,0,1,.539-5.43v-.562a6.885,6.885,0,0,1,.582-2.926A4.41,4.41,0,0,1,2.8-10.855a4.676,4.676,0,0,1,2.531-.684,4.9,4.9,0,0,1,3.328,1.09,4.306,4.306,0,0,1,1.43,3H7.352a2.037,2.037,0,0,0-.523-1.492,2.153,2.153,0,0,0-1.5-.453,1.638,1.638,0,0,0-1.5.766,4.921,4.921,0,0,0-.5,2.445v.8a5.445,5.445,0,0,0,.457,2.6,1.672,1.672,0,0,0,1.574.781A2.106,2.106,0,0,0,6.8-2.437a1.89,1.89,0,0,0,.531-1.414ZM16,0a2.973,2.973,0,0,1-.25-.758,2.448,2.448,0,0,1-2.031.914,3,3,0,0,1-2.031-.723,2.3,2.3,0,0,1-.836-1.816,2.364,2.364,0,0,1,1.016-2.078,5.174,5.174,0,0,1,2.953-.7h.813v-.448q0-1.17-1.008-1.17a.824.824,0,0,0-.937.926H11.055A2.36,2.36,0,0,1,12.1-7.845a4.383,4.383,0,0,1,2.66-.765,3.843,3.843,0,0,1,2.555.789,2.743,2.743,0,0,1,.961,2.164v3.742a3.832,3.832,0,0,0,.359,1.781V0ZM14.352-1.719a1.469,1.469,0,0,0,.816-.211,1.322,1.322,0,0,0,.465-.477V-3.758h-.766q-1.375,0-1.375,1.234a.754.754,0,0,0,.242.582A.876.876,0,0,0,14.352-1.719ZM24.844-6.07l-.867-.062a1.558,1.558,0,0,0-1.594.781V0H19.75V-8.453h2.469L22.3-7.367a2.039,2.039,0,0,1,1.852-1.242,2.567,2.567,0,0,1,.734.094ZM30.32,0a2.973,2.973,0,0,1-.25-.758,2.448,2.448,0,0,1-2.031.914,3,3,0,0,1-2.031-.723,2.3,2.3,0,0,1-.836-1.816,2.364,2.364,0,0,1,1.016-2.078,5.174,5.174,0,0,1,2.953-.7h.813v-.448q0-1.17-1.008-1.17a.824.824,0,0,0-.937.926H25.375a2.36,2.36,0,0,1,1.043-1.99,4.383,4.383,0,0,1,2.66-.765,3.843,3.843,0,0,1,2.555.789,2.743,2.743,0,0,1,.961,2.164v3.742a3.832,3.832,0,0,0,.359,1.781V0ZM28.672-1.719a1.469,1.469,0,0,0,.816-.211,1.322,1.322,0,0,0,.465-.477V-3.758h-.766q-1.375,0-1.375,1.234a.754.754,0,0,0,.242.582A.876.876,0,0,0,28.672-1.719ZM40.813,0H38.172V-12h2.641ZM47.2,0a2.973,2.973,0,0,1-.25-.758,2.448,2.448,0,0,1-2.031.914,3,3,0,0,1-2.031-.723,2.3,2.3,0,0,1-.836-1.816,2.364,2.364,0,0,1,1.016-2.078,5.174,5.174,0,0,1,2.953-.7h.813v-.448q0-1.17-1.008-1.17a.824.824,0,0,0-.937.926H42.25a2.36,2.36,0,0,1,1.043-1.99,4.383,4.383,0,0,1,2.66-.765,3.843,3.843,0,0,1,2.555.789,2.743,2.743,0,0,1,.961,2.164v3.742a3.832,3.832,0,0,0,.359,1.781V0ZM45.547-1.719a1.469,1.469,0,0,0,.816-.211,1.322,1.322,0,0,0,.465-.477V-3.758h-.766q-1.375,0-1.375,1.234a.754.754,0,0,0,.242.582A.876.876,0,0,0,45.547-1.719Zm8.445-8.836v2.1h1.391v1.828H53.992v3.867a.987.987,0,0,0,.172.664.922.922,0,0,0,.68.188,3.862,3.862,0,0,0,.656-.047V-.07a4.859,4.859,0,0,1-1.484.227,2.758,2.758,0,0,1-2.008-.641,2.626,2.626,0,0,1-.648-1.945v-4.2H50.281V-8.453h1.078v-2.1ZM60.508.156A4.345,4.345,0,0,1,57.359-1a4.006,4.006,0,0,1-1.2-3.02v-.219a5.191,5.191,0,0,1,.48-2.289,3.516,3.516,0,0,1,1.4-1.535,4.233,4.233,0,0,1,2.188-.543A3.659,3.659,0,0,1,63.039-7.5,4.344,4.344,0,0,1,64.07-4.422V-3.4H58.836a1.9,1.9,0,0,0,.617,1.117,1.836,1.836,0,0,0,1.234.406,2.366,2.366,0,0,0,1.953-.875l1.2,1.422A3.363,3.363,0,0,1,62.449-.246,4.713,4.713,0,0,1,60.508.156Zm-.3-6.734q-1.156,0-1.375,1.531h2.656v-.2a1.3,1.3,0,0,0-.32-.98A1.275,1.275,0,0,0,60.211-6.578Zm10.031.508-.867-.062a1.558,1.558,0,0,0-1.594.781V0H65.148V-8.453h2.469L67.7-7.367a2.039,2.039,0,0,1,1.852-1.242,2.567,2.567,0,0,1,.734.094ZM75.719,0a2.973,2.973,0,0,1-.25-.758,2.448,2.448,0,0,1-2.031.914,3,3,0,0,1-2.031-.723,2.3,2.3,0,0,1-.836-1.816,2.364,2.364,0,0,1,1.016-2.078,5.174,5.174,0,0,1,2.953-.7h.813v-.448q0-1.17-1.008-1.17a.824.824,0,0,0-.937.926H70.773a2.36,2.36,0,0,1,1.043-1.99,4.383,4.383,0,0,1,2.66-.765,3.843,3.843,0,0,1,2.555.789,2.743,2.743,0,0,1,.961,2.164v3.742a3.832,3.832,0,0,0,.359,1.781V0ZM74.07-1.719a1.469,1.469,0,0,0,.816-.211,1.322,1.322,0,0,0,.465-.477V-3.758h-.766q-1.375,0-1.375,1.234a.754.754,0,0,0,.242.582A.876.876,0,0,0,74.07-1.719ZM82.227,0H79.586V-12h2.641Z" transform="translate(11728 -6653.29)" fill="#636363"/>
      <path id="Trazado_641847" data-name="Trazado 641847" d="M9.945-3.789A4.025,4.025,0,0,1,8.59-.9,4.76,4.76,0,0,1,5.367.156,4.28,4.28,0,0,1,1.926-1.316,6.038,6.038,0,0,1,.672-5.359v-.7A6.819,6.819,0,0,1,1.25-8.945,4.332,4.332,0,0,1,2.9-10.863a4.629,4.629,0,0,1,2.5-.668A4.637,4.637,0,0,1,8.57-10.477,4.326,4.326,0,0,1,9.961-7.516H7.617A2.376,2.376,0,0,0,7-9.113a2.271,2.271,0,0,0-1.605-.5,1.991,1.991,0,0,0-1.754.84,4.707,4.707,0,0,0-.6,2.605V-5.3a5.038,5.038,0,0,0,.559,2.7,1.954,1.954,0,0,0,1.762.852,2.314,2.314,0,0,0,1.621-.5A2.241,2.241,0,0,0,7.6-3.789ZM16.234,0a2.507,2.507,0,0,1-.227-.758,2.732,2.732,0,0,1-2.133.914,3,3,0,0,1-2.059-.719A2.312,2.312,0,0,1,11-2.375a2.389,2.389,0,0,1,1-2.062,4.915,4.915,0,0,1,2.879-.727h1.039v-.484a1.393,1.393,0,0,0-.3-.937,1.183,1.183,0,0,0-.949-.352,1.345,1.345,0,0,0-.895.273.929.929,0,0,0-.324.75H11.188a2.268,2.268,0,0,1,.453-1.359,3,3,0,0,1,1.281-.98,4.669,4.669,0,0,1,1.859-.355,3.689,3.689,0,0,1,2.48.785,2.747,2.747,0,0,1,.918,2.207v3.664a4.041,4.041,0,0,0,.336,1.82V0ZM14.367-1.57a1.945,1.945,0,0,0,.922-.223,1.462,1.462,0,0,0,.625-.6V-3.844H15.07q-1.7,0-1.8,1.172l-.008.133a.9.9,0,0,0,.3.7A1.153,1.153,0,0,0,14.367-1.57Zm10.3-4.766a6.134,6.134,0,0,0-.812-.062,1.654,1.654,0,0,0-1.68.867V0H19.914V-8.453h2.133l.063,1.008a2.092,2.092,0,0,1,1.883-1.164,2.366,2.366,0,0,1,.7.1ZM30.414,0a2.507,2.507,0,0,1-.227-.758,2.732,2.732,0,0,1-2.133.914A3,3,0,0,1,26-.562a2.312,2.312,0,0,1-.816-1.812,2.389,2.389,0,0,1,1-2.062,4.915,4.915,0,0,1,2.879-.727h1.039v-.484a1.393,1.393,0,0,0-.3-.937,1.183,1.183,0,0,0-.949-.352,1.345,1.345,0,0,0-.895.273.929.929,0,0,0-.324.75H25.367a2.268,2.268,0,0,1,.453-1.359,3,3,0,0,1,1.281-.98,4.669,4.669,0,0,1,1.859-.355,3.689,3.689,0,0,1,2.48.785,2.747,2.747,0,0,1,.918,2.207v3.664A4.041,4.041,0,0,0,32.7-.133V0ZM28.547-1.57a1.945,1.945,0,0,0,.922-.223,1.462,1.462,0,0,0,.625-.6V-3.844H29.25q-1.7,0-1.8,1.172l-.008.133a.9.9,0,0,0,.3.7A1.153,1.153,0,0,0,28.547-1.57ZM40.461,0H38.2V-12h2.266Zm6.758,0a2.507,2.507,0,0,1-.227-.758,2.732,2.732,0,0,1-2.133.914A3,3,0,0,1,42.8-.562a2.312,2.312,0,0,1-.816-1.812,2.389,2.389,0,0,1,1-2.062,4.915,4.915,0,0,1,2.879-.727H46.9v-.484a1.393,1.393,0,0,0-.3-.937,1.183,1.183,0,0,0-.949-.352,1.345,1.345,0,0,0-.895.273.929.929,0,0,0-.324.75H42.172a2.268,2.268,0,0,1,.453-1.359,3,3,0,0,1,1.281-.98,4.669,4.669,0,0,1,1.859-.355,3.689,3.689,0,0,1,2.48.785,2.747,2.747,0,0,1,.918,2.207v3.664A4.041,4.041,0,0,0,49.5-.133V0ZM45.352-1.57a1.945,1.945,0,0,0,.922-.223,1.462,1.462,0,0,0,.625-.6V-3.844h-.844q-1.7,0-1.8,1.172l-.008.133a.9.9,0,0,0,.3.7A1.153,1.153,0,0,0,45.352-1.57Zm8.25-8.961v2.078h1.445V-6.8H53.6v4.219a1.007,1.007,0,0,0,.18.672.9.9,0,0,0,.688.2,3.6,3.6,0,0,0,.664-.055V-.047a4.648,4.648,0,0,1-1.367.2,2.156,2.156,0,0,1-2.422-2.4V-6.8H50.109V-8.453h1.234v-2.078ZM60.2.156A4.15,4.15,0,0,1,57.168-.984,4.054,4.054,0,0,1,56-4.023v-.219a5.106,5.106,0,0,1,.492-2.277,3.612,3.612,0,0,1,1.395-1.547,3.914,3.914,0,0,1,2.059-.543,3.508,3.508,0,0,1,2.73,1.094,4.444,4.444,0,0,1,1,3.1v.922H58.289a2.1,2.1,0,0,0,.66,1.328,2,2,0,0,0,1.395.5,2.437,2.437,0,0,0,2.039-.945l1.109,1.242A3.389,3.389,0,0,1,62.117-.246,4.511,4.511,0,0,1,60.2.156Zm-.258-6.945a1.411,1.411,0,0,0-1.09.455,2.357,2.357,0,0,0-.535,1.3h3.141v-.181a1.681,1.681,0,0,0-.406-1.165A1.456,1.456,0,0,0,59.938-6.789Zm9.766.453a6.134,6.134,0,0,0-.812-.062,1.654,1.654,0,0,0-1.68.867V0H64.953V-8.453h2.133l.063,1.008a2.092,2.092,0,0,1,1.883-1.164,2.366,2.366,0,0,1,.7.1ZM75.453,0a2.507,2.507,0,0,1-.227-.758,2.732,2.732,0,0,1-2.133.914,3,3,0,0,1-2.059-.719,2.312,2.312,0,0,1-.816-1.812,2.389,2.389,0,0,1,1-2.062,4.915,4.915,0,0,1,2.879-.727h1.039v-.484a1.393,1.393,0,0,0-.3-.937,1.183,1.183,0,0,0-.949-.352,1.345,1.345,0,0,0-.895.273.929.929,0,0,0-.324.75H70.406a2.268,2.268,0,0,1,.453-1.359,3,3,0,0,1,1.281-.98A4.669,4.669,0,0,1,74-8.609a3.689,3.689,0,0,1,2.48.785A2.747,2.747,0,0,1,77.4-5.617v3.664a4.041,4.041,0,0,0,.336,1.82V0ZM73.586-1.57a1.945,1.945,0,0,0,.922-.223,1.462,1.462,0,0,0,.625-.6V-3.844h-.844q-1.7,0-1.8,1.172l-.008.133a.9.9,0,0,0,.3.7A1.153,1.153,0,0,0,73.586-1.57ZM81.516,0H79.25V-12h2.266Zm5.945-4.625a11.99,11.99,0,0,1,.477-3.406,8.989,8.989,0,0,1,1.406-2.863,5.251,5.251,0,0,1,2.016-1.73l.438,1.219A5.438,5.438,0,0,0,90.016-8.8a12.082,12.082,0,0,0-.641,4.125v.242a12.313,12.313,0,0,0,.633,4.141A5.544,5.544,0,0,0,91.8,2.359l-.437,1.2a5.253,5.253,0,0,1-1.98-1.684,8.838,8.838,0,0,1-1.4-2.785,11.918,11.918,0,0,1-.516-3.3ZM93.125,0V-11.375h3.984a5.232,5.232,0,0,1,3.141.793,2.712,2.712,0,0,1,1.07,2.324,2.57,2.57,0,0,1-.43,1.473,2.482,2.482,0,0,1-1.2.934,2.4,2.4,0,0,1,1.379.883,2.61,2.61,0,0,1,.5,1.625,3,3,0,0,1-1.047,2.484A4.713,4.713,0,0,1,97.547,0Zm2.344-4.953v3.07h2.008a1.938,1.938,0,0,0,1.293-.395,1.353,1.353,0,0,0,.465-1.09,1.428,1.428,0,0,0-1.617-1.586Zm0-1.656H97.2q1.773-.031,1.773-1.414a1.307,1.307,0,0,0-.449-1.113,2.363,2.363,0,0,0-1.418-.34H95.469Zm11.609,2.164a11.377,11.377,0,0,1-.508,3.4,9.225,9.225,0,0,1-1.461,2.883,5.263,5.263,0,0,1-2.039,1.719l-.437-1.2a5.494,5.494,0,0,0,1.75-2.578,11.939,11.939,0,0,0,.664-4.008v-.414a12.209,12.209,0,0,0-.637-4.117,5.727,5.727,0,0,0-1.777-2.672l.438-1.2a5.265,5.265,0,0,1,2,1.672,9.106,9.106,0,0,1,1.461,2.82,11.3,11.3,0,0,1,.543,3.336Z" transform="translate(11892 -6805.616)" fill="#636363"/>
      <path id="Trazado_641848" data-name="Trazado 641848" d="M7.438-2.344H3.328L2.547,0H.055L4.289-11.375H6.461L10.719,0H8.227Zm-3.477-1.9H6.8L5.375-8.5ZM14.016,0H11.75V-12h2.266Zm4.563-10.531v2.078h1.445V-6.8H18.578v4.219a1.007,1.007,0,0,0,.18.672.9.9,0,0,0,.688.2,3.6,3.6,0,0,0,.664-.055V-.047a4.648,4.648,0,0,1-1.367.2,2.156,2.156,0,0,1-2.422-2.4V-6.8H15.086V-8.453H16.32v-2.078ZM26.344-.859A2.831,2.831,0,0,1,24.031.156a2.67,2.67,0,0,1-2.074-.781,3.335,3.335,0,0,1-.73-2.289V-8.453h2.258v5.467q0,1.322,1.2,1.322a1.63,1.63,0,0,0,1.578-.8V-8.453h2.266V0H26.406Zm8.641-5.477a6.134,6.134,0,0,0-.812-.062,1.654,1.654,0,0,0-1.68.867V0H30.234V-8.453h2.133l.063,1.008a2.092,2.092,0,0,1,1.883-1.164,2.366,2.366,0,0,1,.7.1ZM40.734,0a2.507,2.507,0,0,1-.227-.758,2.732,2.732,0,0,1-2.133.914,3,3,0,0,1-2.059-.719A2.312,2.312,0,0,1,35.5-2.375a2.389,2.389,0,0,1,1-2.062,4.915,4.915,0,0,1,2.879-.727h1.039v-.484a1.393,1.393,0,0,0-.3-.937,1.183,1.183,0,0,0-.949-.352,1.345,1.345,0,0,0-.895.273.929.929,0,0,0-.324.75H35.688a2.268,2.268,0,0,1,.453-1.359,3,3,0,0,1,1.281-.98,4.669,4.669,0,0,1,1.859-.355,3.689,3.689,0,0,1,2.48.785,2.747,2.747,0,0,1,.918,2.207v3.664a4.041,4.041,0,0,0,.336,1.82V0ZM38.867-1.57a1.945,1.945,0,0,0,.922-.223,1.462,1.462,0,0,0,.625-.6V-3.844H39.57q-1.7,0-1.8,1.172l-.008.133a.9.9,0,0,0,.3.7A1.153,1.153,0,0,0,38.867-1.57ZM48.5-4.625a11.99,11.99,0,0,1,.477-3.406,8.989,8.989,0,0,1,1.406-2.863,5.251,5.251,0,0,1,2.016-1.73l.438,1.219A5.438,5.438,0,0,0,51.055-8.8a12.082,12.082,0,0,0-.641,4.125v.242a12.313,12.313,0,0,0,.633,4.141,5.544,5.544,0,0,0,1.789,2.648l-.437,1.2a5.253,5.253,0,0,1-1.98-1.684,8.838,8.838,0,0,1-1.4-2.785,11.918,11.918,0,0,1-.516-3.3Zm7.719-2.906a2.818,2.818,0,0,1,2.258-1.078q2.75,0,2.789,3.2V0H59.008V-5.352A1.57,1.57,0,0,0,58.7-6.426a1.34,1.34,0,0,0-1.039-.348,1.537,1.537,0,0,0-1.437.766V0H53.961V-12h2.258ZM66.859-4.445a11.377,11.377,0,0,1-.508,3.4,9.225,9.225,0,0,1-1.461,2.883,5.264,5.264,0,0,1-2.039,1.719l-.437-1.2a5.494,5.494,0,0,0,1.75-2.578,11.939,11.939,0,0,0,.664-4.008v-.414a12.209,12.209,0,0,0-.637-4.117,5.727,5.727,0,0,0-1.777-2.672l.438-1.2a5.265,5.265,0,0,1,2,1.672,9.106,9.106,0,0,1,1.461,2.82A11.3,11.3,0,0,1,66.859-4.8Z" transform="translate(11909.5 -6730.29)" fill="#0599c8"/>
      <g id="Grupo_1074556" data-name="Grupo 1074556" transform="translate(11547 -6816.29)">
        <path id="Trazado_616119" data-name="Trazado 616119" d="M4,32.532l27.667,41.5h90.782l28.531-41.5L77.059,4Z" transform="translate(-0.878 -0.878)" fill="#c7e3d7"/>
        <g id="Grupo_1074555" data-name="Grupo 1074555">
          <g id="Grupo_1074554" data-name="Grupo 1074554" clip-path="url(#clip-path)">
            <path id="Trazado_616120" data-name="Trazado 616120" d="M153.214,31.5c0-.053-.007-.1-.012-.158a3.149,3.149,0,0,0-.112-.6.17.17,0,0,1,0-.02l0,0a3.169,3.169,0,0,0-.252-.574c-.025-.044-.05-.087-.077-.13a3.107,3.107,0,0,0-.37-.5l-.006-.005a3.125,3.125,0,0,0-.466-.4c-.041-.03-.083-.058-.126-.085a3.08,3.08,0,0,0-.56-.293L77.305.21a3.118,3.118,0,0,0-2.26,0L1.986,28.746a3.059,3.059,0,0,0-.553.291c-.043.028-.084.056-.126.087a3.067,3.067,0,0,0-.449.384c-.006.006-.014.012-.02.018a3.081,3.081,0,0,0-.367.491c-.027.044-.052.087-.076.132a3.077,3.077,0,0,0-.245.553l-.006.014v0a3.082,3.082,0,0,0-.119.608c-.005.053-.009.106-.012.16S0,31.6,0,31.654V174.312a3.129,3.129,0,0,0,.424,1.571l26.8,46.039a3.123,3.123,0,0,0,2.683,1.552l92.836.432h.014a3.122,3.122,0,0,0,2.643-1.459L152.745,179a3.12,3.12,0,0,0,.48-1.663V31.654c0-.051-.009-.1-.012-.151m-7.923,1.64L119.929,70.033H32.461L7.872,33.151,76.187,6.472ZM33.912,76.277h84.537v87.339l-8.615-3.168a1.951,1.951,0,1,0-1.348,3.662l8.791,3.233a1.891,1.891,0,0,0,1.172.051v50.248l-84.537-.394ZM7.134,175l5.48-1.882a1.951,1.951,0,1,0-1.267-3.691l-5.1,1.752V41.966L27.667,74.1v89.72l-7.461,2.562a1.951,1.951,0,0,0,1.267,3.691l6.194-2.127V210.27Zm117.559,36.853V74.125l22.288-32.418v132.4L145,173.38a1.951,1.951,0,1,0-1.348,3.662l2.4.882Z" transform="translate(0 0)" fill="#196442"/>
            <path id="Trazado_616121" data-name="Trazado 616121" d="M79.774,193.651l-8.859,3.042a1.951,1.951,0,1,0,1.267,3.691l8.859-3.042a1.951,1.951,0,1,0-1.267-3.691" transform="translate(-15.275 -42.478)" fill="#196442"/>
            <path id="Trazado_616122" data-name="Trazado 616122" d="M171.295,217.047l-8.791-3.234a1.951,1.951,0,1,0-1.347,3.663l8.79,3.233a1.951,1.951,0,1,0,1.348-3.662" transform="translate(-35.089 -46.899)" fill="#161615"/>
            <path id="Trazado_616123" data-name="Trazado 616123" d="M57.075,201.445l-8.86,3.042a1.952,1.952,0,0,0,.634,3.8,1.927,1.927,0,0,0,.633-.106l8.859-3.042a1.951,1.951,0,0,0-1.266-3.691" transform="translate(-10.293 -44.188)" fill="#196442"/>
            <path id="Trazado_616124" data-name="Trazado 616124" d="M126.245,200.477l-8.79-3.234a1.951,1.951,0,1,0-1.347,3.663l8.79,3.233a1.951,1.951,0,1,0,1.348-3.662" transform="translate(-25.202 -43.263)" fill="#196442"/>
            <path id="Trazado_616125" data-name="Trazado 616125" d="M103.719,192.284l-7.905-2.907a1.955,1.955,0,0,0-1.308-.014l-.891.306a1.951,1.951,0,0,0,1.268,3.691l.235-.081,7.253,2.668a1.951,1.951,0,1,0,1.348-3.662" transform="translate(-20.257 -41.537)" fill="#196442"/>
            <path id="Trazado_616126" data-name="Trazado 616126" d="M162.557,87.021v130.3l17.692-27.178L180.6,60.672Z" transform="translate(-35.677 -13.316)" fill="#c7e3d7"/>
            <path id="Trazado_616127" data-name="Trazado 616127" d="M194.534,119.345l-4.575-2.641v3.7H99.071V47.429h-3.9V202.493h3.9V124.311h90.889v2.958l4.575-2.641,4.575-2.641Z" transform="translate(-20.887 -10.409)" fill="#6fd9fb"/>
            <path id="Trazado_616128" data-name="Trazado 616128" d="M107.786,37.318H192.3V40.97l4.575-2.641,4.575-2.641-4.575-2.641L192.3,30.405v3.01H107.786a1.951,1.951,0,1,0,0,3.9" transform="translate(-23.228 -6.673)" fill="#636363"/>
            <path id="Trazado_616129" data-name="Trazado 616129" d="M206.054,199.183v3.444h-35.6a1.951,1.951,0,0,0,0,3.9h35.6v3.219l4.575-2.641,4.575-2.641-4.575-2.641Z" transform="translate(-36.982 -43.715)" fill="#636363"/>
            <path id="Trazado_616130" data-name="Trazado 616130" d="M192.3,256.516v3.444H107.786a1.951,1.951,0,0,0,0,3.9H192.3v3.219l4.575-2.641,4.575-2.641-4.575-2.641Z" transform="translate(-23.228 -56.298)" fill="#636363"/>
            <path id="Trazado_616131" data-name="Trazado 616131" d="M580.107,126.512,555.236,91.693,519.4,104.112V29.343l-1.225-.011c-.8-.006-74.373-.625-84.8-.72L430.9,28.6l-.005,1.23a2,2,0,0,0,.01.212v74.291L394.427,91.693l-24.872,34.819,24.889,31.4L430.9,147.229v76.03l88.493-.752v-75.09l35.821,10.493ZM433.376,146.744h83.552v35.6H433.376Zm83.551-2.471H433.375v-35.6h83.552ZM433.376,70.6h83.552v35.6H433.376Zm83.551-38.812V68.134H433.376V31.084Zm-144.28,94.641,22.716-31.8L430.9,106.949v37.323h-.229v.448l-35.33,10.349Zm60.729,94.333V184.813h83.551v35.243ZM519.4,144.842V106.728l34.9-12.1,22.716,31.8-22.7,28.635Z" transform="translate(-81.107 -6.277)" fill="#196442"/>
            <path id="Trazado_616132" data-name="Trazado 616132" d="M383.717,150.733,339.3,197.152l-2.006-1.919-.954,3.9-.954,3.9,3.855-1.125,3.854-1.125-1.654-1.581,44.413-46.419a1.483,1.483,0,0,0-2.144-2.051" transform="matrix(0.799, -0.602, 0.602, 0.799, -79.818, 230.611)" fill="#636363"/>
            <path id="Trazado_616133" data-name="Trazado 616133" d="M584.577,158.538l17.492,77.96,3.369-.756-1.489,4.767-1.489,4.767-3.384-3.673-3.384-3.673,2.777-.624-17.492-77.96a1.845,1.845,0,1,1,3.6-.808" transform="translate(-130.498 -38.478)" fill="#6fd9fb"/>
            <path id="Trazado_616134" data-name="Trazado 616134" d="M500.776,39.836l-.347-28.564,3.3-.073-2.481-4.088L498.77,3.024l-2.3,4.193-2.3,4.193,2.725-.06.35,28.689a1.767,1.767,0,0,0,1.963,1.717,1.852,1.852,0,0,0,1.566-1.92" transform="translate(-106.457 8.336)" fill="#636363"/>
            <rect id="Rect치ngulo_379380" data-name="Rect치ngulo 379380" width="30.382" height="2.471" transform="translate(438.154 117.496)" fill="#6fd9fb"/>
          </g>
        </g>
      </g>
    </g>
  </g>
</svg>
