<svg xmlns="http://www.w3.org/2000/svg" xmlns:xlink="http://www.w3.org/1999/xlink" width="70" height="70" viewBox="0 0 70 70">
  <defs>
    <clipPath id="clip-path">
      <rect id="Rect치ngulo_379287" data-name="Rect치ngulo 379287" width="44" height="44" transform="translate(275 971)" fill="#fff" stroke="#707070" stroke-width="1"/>
    </clipPath>
    <clipPath id="clip-path-2">
      <rect id="Rect치ngulo_379286" data-name="Rect치ngulo 379286" width="35.866" height="40.129" fill="#fff"/>
    </clipPath>
  </defs>
  <g id="img3" transform="translate(-269 -958)">
    <circle id="Elipse_5614" data-name="Elipse 5614" cx="35" cy="35" r="35" transform="translate(269 958)" fill="#283455"/>
    <g id="Enmascarar_grupo_1074741" data-name="Enmascarar grupo 1074741" transform="translate(7)" clip-path="url(#clip-path)">
      <g id="Grupo_1074478" data-name="Grupo 1074478" transform="translate(278 973)">
        <g id="Grupo_1074477" data-name="Grupo 1074477" clip-path="url(#clip-path-2)">
          <path id="Trazado_615977" data-name="Trazado 615977" d="M22.153,40.128h-9.33c-.335,0-.333,0-.333-.345,0-2.2,0-4.408.007-6.612,0-.22-.057-.283-.28-.282-1.505.01-3.01.019-4.515,0a3.15,3.15,0,0,1-2.736-1.5,2.909,2.909,0,0,1-.5-1.646c.015-1.743,0-3.487,0-5.23a2.277,2.277,0,0,1,0-.253c.02-.176-.057-.218-.225-.217-1.106.007-2.213-.027-3.317.015A.84.84,0,0,1,.08,22.843Q.595,21.505,1.1,20.163c.408-1.086.791-2.183,1.221-3.26.318-.794.625-1.594.91-2.4.46-1.3.96-2.578,1.363-3.9A12.535,12.535,0,0,1,5.734,8.119,16.021,16.021,0,0,1,7.354,5.8,14.725,14.725,0,0,1,9.437,3.745a16.828,16.828,0,0,1,2.317-1.612A17.382,17.382,0,0,1,13.928,1.1,19.972,19.972,0,0,1,16.607.3,10.751,10.751,0,0,1,17.734.141,15.365,15.365,0,0,1,19.9,0a13.929,13.929,0,0,1,1.76.1,10.072,10.072,0,0,1,1.214.192c.4.11.811.193,1.211.31a18.97,18.97,0,0,1,2.679,1.008,14.239,14.239,0,0,1,2.225,1.326,16.256,16.256,0,0,1,3.415,3.25,16.7,16.7,0,0,1,2.358,4.151,14.113,14.113,0,0,1,.736,2.555,14.737,14.737,0,0,1,.353,3.6,6.975,6.975,0,0,1-.206,1.587c-.074.255-.011.532-.065.8a19.052,19.052,0,0,1-.6,2.378,16.332,16.332,0,0,1-1.647,3.572,12.362,12.362,0,0,1-1.438,2,.475.475,0,0,0-.1.363q0,4.378.006,8.755c0,1.3-.011,2.6,0,3.893,0,.243-.073.292-.3.291q-4.677-.01-9.353,0ZM17.605,20.064c0,.484.029.969-.008,1.45A1.649,1.649,0,0,0,19.872,23.1a1.606,1.606,0,0,0,.955-1.488c.024-.736.012-1.474,0-2.211a.6.6,0,0,1,.241-.5c.2-.168.4-.335.6-.5.379-.323.739-.669,1.106-1.005a8.453,8.453,0,0,0,1.29-1.374,6.247,6.247,0,0,0,.894-2.067,10.656,10.656,0,0,0,.2-1.537,4.861,4.861,0,0,0-.3-1.929,5.235,5.235,0,0,0-2.189-2.947,5.9,5.9,0,0,0-4.006-1.107,6.519,6.519,0,0,0-1.717.417A5.915,5.915,0,0,0,13.9,9.639,5.666,5.666,0,0,0,13.3,12.27a1.7,1.7,0,0,0,1.6,1.646,1.456,1.456,0,0,0,1.029-.431,1.394,1.394,0,0,0,.531-.979,3.616,3.616,0,0,1,.523-1.679A2.455,2.455,0,0,1,18.545,9.74a2.572,2.572,0,0,1,2.495.635,2.4,2.4,0,0,1,.776,1.5,8.928,8.928,0,0,1-.007,1.093,1.9,1.9,0,0,1-.32,1.011,6.153,6.153,0,0,1-1.243,1.344c-.29.247-.61.463-.879.731-.326.324-.655.644-1,.947a1.906,1.906,0,0,0-.772,1.633c.035.473.007.951.006,1.427M20.83,28.05a1.635,1.635,0,1,0-1.6,1.607,1.618,1.618,0,0,0,1.6-1.607" transform="translate(0 0)" fill="#fff"/>
        </g>
      </g>
    </g>
  </g>
</svg>
