<svg xmlns="http://www.w3.org/2000/svg" width="505" height="64" viewBox="0 0 505 64">
  <g id="img3" transform="translate(-600 -1409)">
    <g id="Rectángulo_379122" data-name="Rectángulo 379122" transform="translate(600 1409)" fill="#fff" stroke="#707070" stroke-width="1">
      <rect width="505" height="64" rx="7" stroke="none"/>
      <rect x="0.5" y="0.5" width="504" height="63" rx="6.5" fill="none"/>
    </g>
    <g id="Grupo_1074331" data-name="Grupo 1074331" transform="translate(614 1416)">
      <path id="Trazado_641870" data-name="Trazado 641870" d="M-47.82-4.008-48.523,0h-2.289l1.977-11.375,3.984.008a3.986,3.986,0,0,1,2.9,1.023,3.174,3.174,0,0,1,.922,2.672A3.592,3.592,0,0,1-42.426-5a5.075,5.075,0,0,1-3.238,1Zm.32-1.9,1.906.016a2.41,2.41,0,0,0,1.531-.477,1.918,1.918,0,0,0,.727-1.289,1.646,1.646,0,0,0-.262-1.3,1.418,1.418,0,0,0-1.121-.516l-2.156-.008Zm12.422-.43a4.548,4.548,0,0,0-.742-.078,2.136,2.136,0,0,0-1.867.883L-38.664,0h-2.2L-39.4-8.453l2.07-.008-.2,1.031a2.325,2.325,0,0,1,1.969-1.2,3.214,3.214,0,0,1,.766.109Zm4.508-2.273a3.39,3.39,0,0,1,1.926.574A3.234,3.234,0,0,1-27.457-6.5a4.762,4.762,0,0,1,.27,2.176,5.143,5.143,0,0,1-1.4,3.262A3.96,3.96,0,0,1-31.609.156,3.38,3.38,0,0,1-33.516-.41,3.222,3.222,0,0,1-34.7-1.937a4.657,4.657,0,0,1-.273-2.156,5.3,5.3,0,0,1,1.422-3.328A3.878,3.878,0,0,1-30.57-8.609ZM-32.8-3.294a1.95,1.95,0,0,0,.352,1.182,1.168,1.168,0,0,0,.945.449A1.712,1.712,0,0,0-29.906-2.6a4.647,4.647,0,0,0,.539-2.531,2.122,2.122,0,0,0-.363-1.2,1.149,1.149,0,0,0-.949-.464,1.715,1.715,0,0,0-1.574.924A4.6,4.6,0,0,0-32.8-3.294ZM-18.43-4.2A6.061,6.061,0,0,1-19.648-1,3.033,3.033,0,0,1-22.2.164,2.357,2.357,0,0,1-24.227-.914l-.32.914h-2.008l2.078-12h2.211l-.852,4.32a2.634,2.634,0,0,1,2.063-.93,2.385,2.385,0,0,1,1.926.879,3.89,3.89,0,0,1,.746,2.387A9.133,9.133,0,0,1-18.43-4.2Zm-2.187-.165A6.554,6.554,0,0,0-20.57-5.4q-.086-1.364-1.125-1.387a1.833,1.833,0,0,0-1.617.885l-.609,3.37a1.258,1.258,0,0,0,1.266.878q1.625.047,1.992-2.367ZM-12.852,0a2.281,2.281,0,0,1-.086-.766,2.863,2.863,0,0,1-2.156.922,2.594,2.594,0,0,1-1.84-.723,2.186,2.186,0,0,1-.684-1.746,2.527,2.527,0,0,1,1.16-2.121,5.266,5.266,0,0,1,2.965-.738l1.031.016.109-.508a1.764,1.764,0,0,0,.023-.492.846.846,0,0,0-.277-.574.955.955,0,0,0-.629-.215,1.345,1.345,0,0,0-.875.254,1.231,1.231,0,0,0-.461.777l-2.211.008a2.457,2.457,0,0,1,1.113-1.965,4.312,4.312,0,0,1,2.613-.738,3.117,3.117,0,0,1,2.25.855,2.5,2.5,0,0,1,.68,2.121l-.648,4.047-.039.5a2.412,2.412,0,0,0,.133.938L-10.687,0Zm-1.7-1.555a2.017,2.017,0,0,0,1.664-.828l.273-1.461-.766-.008a2.139,2.139,0,0,0-1.758.742,1.292,1.292,0,0,0-.242.633.75.75,0,0,0,.176.668A.891.891,0,0,0-14.547-1.555ZM-1.219-4.2A6.061,6.061,0,0,1-2.437-1,3.033,3.033,0,0,1-4.984.164,2.357,2.357,0,0,1-7.016-.914L-7.336,0H-9.344l2.078-12h2.211l-.852,4.32a2.634,2.634,0,0,1,2.063-.93,2.385,2.385,0,0,1,1.926.879,3.89,3.89,0,0,1,.746,2.387A9.133,9.133,0,0,1-1.219-4.2Zm-2.187-.165A6.554,6.554,0,0,0-3.359-5.4q-.086-1.364-1.125-1.387A1.833,1.833,0,0,0-6.1-5.9l-.609,3.37a1.258,1.258,0,0,0,1.266.878q1.625.047,1.992-2.367ZM1.8,0H-.422L1.047-8.453H3.266ZM1.3-10.6a1.1,1.1,0,0,1,.344-.867,1.209,1.209,0,0,1,.867-.344,1.215,1.215,0,0,1,.867.3,1.1,1.1,0,0,1,.383.828,1.132,1.132,0,0,1-.324.844,1.215,1.215,0,0,1-.887.375,1.235,1.235,0,0,1-.863-.3A1.091,1.091,0,0,1,1.3-10.6ZM5.992,0H3.773L5.859-12H8.07Zm4.2,0H7.969L9.438-8.453h2.219ZM9.7-10.6a1.1,1.1,0,0,1,.344-.867,1.209,1.209,0,0,1,.867-.344,1.215,1.215,0,0,1,.867.3,1.1,1.1,0,0,1,.383.828,1.132,1.132,0,0,1-.324.844,1.215,1.215,0,0,1-.887.375,1.235,1.235,0,0,1-.863-.3A1.091,1.091,0,0,1,9.7-10.6ZM16.25-8.617a2.4,2.4,0,0,1,1.906.945L18.984-12H21.2L19.117,0H17.148l.125-.906a2.736,2.736,0,0,1-2.2,1.07A2.433,2.433,0,0,1,13.688-.25a2.607,2.607,0,0,1-.918-1.168,4.7,4.7,0,0,1-.355-1.7,6.4,6.4,0,0,1,.023-.953l.047-.352A6.767,6.767,0,0,1,13.207-6.7,3.766,3.766,0,0,1,14.52-8.164,3.094,3.094,0,0,1,16.25-8.617Zm-1.6,4.547a6.327,6.327,0,0,0-.039,1q.078,1.375,1.109,1.4a1.885,1.885,0,0,0,1.617-.875l.6-3.359a1.248,1.248,0,0,0-1.219-.875,1.606,1.606,0,0,0-1.34.621A4.176,4.176,0,0,0,14.648-4.07ZM25.766,0a2.281,2.281,0,0,1-.086-.766,2.863,2.863,0,0,1-2.156.922,2.594,2.594,0,0,1-1.84-.723A2.186,2.186,0,0,1,21-2.312a2.527,2.527,0,0,1,1.16-2.121,5.266,5.266,0,0,1,2.965-.738l1.031.016.109-.508a1.764,1.764,0,0,0,.023-.492.846.846,0,0,0-.277-.574.955.955,0,0,0-.629-.215,1.345,1.345,0,0,0-.875.254,1.231,1.231,0,0,0-.461.777l-2.211.008a2.457,2.457,0,0,1,1.113-1.965,4.312,4.312,0,0,1,2.613-.738,3.117,3.117,0,0,1,2.25.855,2.5,2.5,0,0,1,.68,2.121l-.648,4.047-.039.5a2.412,2.412,0,0,0,.133.938L27.93,0Zm-1.7-1.555a2.017,2.017,0,0,0,1.664-.828l.273-1.461-.766-.008a2.139,2.139,0,0,0-1.758.742,1.292,1.292,0,0,0-.242.633.75.75,0,0,0,.176.668A.891.891,0,0,0,24.07-1.555Zm9.4-7.062a2.4,2.4,0,0,1,1.906.945L36.2-12h2.211L36.336,0H34.367l.125-.906a2.736,2.736,0,0,1-2.2,1.07A2.433,2.433,0,0,1,30.906-.25a2.607,2.607,0,0,1-.918-1.168,4.7,4.7,0,0,1-.355-1.7,6.4,6.4,0,0,1,.023-.953l.047-.352A6.767,6.767,0,0,1,30.426-6.7a3.766,3.766,0,0,1,1.313-1.461A3.094,3.094,0,0,1,33.469-8.617Zm-1.6,4.547a6.327,6.327,0,0,0-.039,1q.078,1.375,1.109,1.4a1.885,1.885,0,0,0,1.617-.875l.6-3.359a1.248,1.248,0,0,0-1.219-.875,1.606,1.606,0,0,0-1.34.621A4.176,4.176,0,0,0,31.867-4.07ZM50.023-5.828H43.234l.328-1.844h6.789Zm-.586,3.383H42.648l.328-1.844h6.789Z" transform="translate(96 31)" fill="#12263f" stroke="rgba(0,0,0,0)" stroke-width="1"/>
      <path id="Trazado_641868" data-name="Trazado 641868" d="M-130.371,0h-2.219l-3.164-7.586L-137.074,0h-2.289l1.977-11.375h2.211l3.172,7.6,1.32-7.6h2.281Zm7.141-.875A2.919,2.919,0,0,1-125.559.156,2.172,2.172,0,0,1-127.4-.719a3.2,3.2,0,0,1-.484-2.266l.914-5.469h2.2l-.93,5.5a2.174,2.174,0,0,0-.008.485.8.8,0,0,0,.867.806,2.014,2.014,0,0,0,1.7-.79l1.055-6h2.219L-121.34,0h-2.055Zm.68-11.125H-120l-2.484,2.422h-1.945Zm6.367,3.539-.18.961a3.112,3.112,0,0,1,2.477-1.109,2.379,2.379,0,0,1,1.3.359,1.679,1.679,0,0,1,.7.93,3.255,3.255,0,0,1,2.625-1.289,2.126,2.126,0,0,1,1.754.8,3.271,3.271,0,0,1,.5,2.234l-.016.2-.9,5.383h-2.211l.9-5.4a3.907,3.907,0,0,0,.023-.54.837.837,0,0,0-.937-.845,1.86,1.86,0,0,0-1.555.97l-.023.18L-112.723,0h-2.2l.9-5.383A3.9,3.9,0,0,0-114-5.922a.836.836,0,0,0-.93-.852,1.867,1.867,0,0,0-1.508.789L-117.5,0h-2.2l1.461-8.453ZM-102.168.156a3.677,3.677,0,0,1-1.965-.543,3.292,3.292,0,0,1-1.277-1.469,4.093,4.093,0,0,1-.328-2.059l.023-.312A5.465,5.465,0,0,1-105-6.492a4.341,4.341,0,0,1,1.547-1.59,3.827,3.827,0,0,1,2.094-.527,2.924,2.924,0,0,1,2.473,1.2,4.117,4.117,0,0,1,.637,2.962l-.125.962h-5.18a1.814,1.814,0,0,0,.4,1.313,1.521,1.521,0,0,0,1.172.508A2.7,2.7,0,0,0-99.871-2.6l1.008,1.25A3.135,3.135,0,0,1-100.238-.23,4.5,4.5,0,0,1-102.168.156Zm.7-6.945a1.565,1.565,0,0,0-1.082.383,3.363,3.363,0,0,0-.848,1.383h3.031l.047-.2a2.071,2.071,0,0,0,.008-.594,1.134,1.134,0,0,0-.383-.707A1.2,1.2,0,0,0-101.465-6.789Zm9.539.453a4.548,4.548,0,0,0-.742-.078,2.136,2.136,0,0,0-1.867.883L-95.512,0h-2.2l1.469-8.453,2.07-.008-.2,1.031a2.325,2.325,0,0,1,1.969-1.2,3.214,3.214,0,0,1,.766.109Zm4.508-2.273a3.39,3.39,0,0,1,1.926.574A3.234,3.234,0,0,1-84.3-6.5a4.762,4.762,0,0,1,.27,2.176,5.143,5.143,0,0,1-1.4,3.262A3.96,3.96,0,0,1-88.457.156,3.38,3.38,0,0,1-90.363-.41a3.222,3.222,0,0,1-1.187-1.527,4.657,4.657,0,0,1-.273-2.156A5.3,5.3,0,0,1-90.4-7.422,3.878,3.878,0,0,1-87.418-8.609Zm-2.227,5.315a1.95,1.95,0,0,0,.352,1.182,1.168,1.168,0,0,0,.945.449A1.712,1.712,0,0,0-86.754-2.6a4.647,4.647,0,0,0,.539-2.531,2.122,2.122,0,0,0-.363-1.2,1.149,1.149,0,0,0-.949-.464,1.715,1.715,0,0,0-1.574.924A4.6,4.6,0,0,0-89.645-3.294Zm14.383-5.323a2.4,2.4,0,0,1,1.906.945L-72.527-12h2.211L-72.395,0h-1.969l.125-.906a2.736,2.736,0,0,1-2.2,1.07A2.433,2.433,0,0,1-77.824-.25a2.607,2.607,0,0,1-.918-1.168,4.7,4.7,0,0,1-.355-1.7,6.4,6.4,0,0,1,.023-.953l.047-.352A6.767,6.767,0,0,1-78.3-6.7a3.766,3.766,0,0,1,1.313-1.461A3.094,3.094,0,0,1-75.262-8.617Zm-1.6,4.547a6.327,6.327,0,0,0-.039,1q.078,1.375,1.109,1.4a1.885,1.885,0,0,0,1.617-.875l.6-3.359a1.248,1.248,0,0,0-1.219-.875,1.606,1.606,0,0,0-1.34.621A4.176,4.176,0,0,0-76.863-4.07ZM-66.621.156a3.677,3.677,0,0,1-1.965-.543,3.292,3.292,0,0,1-1.277-1.469,4.093,4.093,0,0,1-.328-2.059l.023-.312a5.465,5.465,0,0,1,.719-2.266A4.341,4.341,0,0,1-67.9-8.082a3.827,3.827,0,0,1,2.094-.527,2.924,2.924,0,0,1,2.473,1.2A4.117,4.117,0,0,1-62.7-4.447l-.125.962H-68a1.814,1.814,0,0,0,.4,1.313,1.521,1.521,0,0,0,1.172.508A2.7,2.7,0,0,0-64.324-2.6l1.008,1.25A3.135,3.135,0,0,1-64.691-.23,4.5,4.5,0,0,1-66.621.156Zm.7-6.945A1.565,1.565,0,0,0-67-6.406a3.363,3.363,0,0,0-.848,1.383h3.031l.047-.2a2.071,2.071,0,0,0,.008-.594,1.134,1.134,0,0,0-.383-.707A1.2,1.2,0,0,0-65.918-6.789Zm11.25,4,2.406-5.664h2.375L-53.973,0h-2.109l-1.445-8.453h2.234ZM-46.285.156A3.677,3.677,0,0,1-48.25-.387a3.292,3.292,0,0,1-1.277-1.469,4.093,4.093,0,0,1-.328-2.059l.023-.312a5.465,5.465,0,0,1,.719-2.266,4.341,4.341,0,0,1,1.547-1.59,3.827,3.827,0,0,1,2.094-.527A2.924,2.924,0,0,1-43-7.408a4.117,4.117,0,0,1,.637,2.962l-.125.962h-5.18a1.814,1.814,0,0,0,.4,1.313,1.521,1.521,0,0,0,1.172.508A2.7,2.7,0,0,0-43.988-2.6l1.008,1.25A3.135,3.135,0,0,1-44.355-.23,4.5,4.5,0,0,1-46.285.156Zm.7-6.945a1.565,1.565,0,0,0-1.082.383,3.363,3.363,0,0,0-.848,1.383h3.031l.047-.2a2.071,2.071,0,0,0,.008-.594,1.134,1.134,0,0,0-.383-.707A1.2,1.2,0,0,0-45.582-6.789Zm7.453,5.133a1.447,1.447,0,0,0,1.016-.332,1.632,1.632,0,0,0,.531-.926l2.07-.008a3.037,3.037,0,0,1-.559,1.6A3.394,3.394,0,0,1-36.414-.211a3.847,3.847,0,0,1-1.77.375A3.123,3.123,0,0,1-40.621-.9a3.965,3.965,0,0,1-.867-2.766l.023-.43.008-.086a5.284,5.284,0,0,1,1.391-3.27,3.761,3.761,0,0,1,2.914-1.16,3.047,3.047,0,0,1,2.27.934A3.3,3.3,0,0,1-34.059-5.3h-2.055a1.73,1.73,0,0,0-.3-1.07,1.128,1.128,0,0,0-.891-.422q-1.578-.047-1.914,2.3A7.782,7.782,0,0,0-39.3-3.047Q-39.223-1.68-38.129-1.656ZM-29.645.156a3.677,3.677,0,0,1-1.965-.543,3.292,3.292,0,0,1-1.277-1.469,4.093,4.093,0,0,1-.328-2.059l.023-.312a5.465,5.465,0,0,1,.719-2.266,4.341,4.341,0,0,1,1.547-1.59,3.827,3.827,0,0,1,2.094-.527,2.924,2.924,0,0,1,2.473,1.2,4.117,4.117,0,0,1,.637,2.962l-.125.962h-5.18a1.814,1.814,0,0,0,.4,1.313,1.521,1.521,0,0,0,1.172.508A2.7,2.7,0,0,0-27.348-2.6l1.008,1.25A3.135,3.135,0,0,1-27.715-.23,4.5,4.5,0,0,1-29.645.156Zm.7-6.945a1.565,1.565,0,0,0-1.082.383,3.363,3.363,0,0,0-.848,1.383h3.031l.047-.2a2.071,2.071,0,0,0,.008-.594,1.134,1.134,0,0,0-.383-.707A1.2,1.2,0,0,0-28.941-6.789Zm8.648,4.406q.125-.625-.867-.906l-.711-.18q-2.523-.7-2.453-2.453a2.428,2.428,0,0,1,1.059-1.949,3.942,3.942,0,0,1,2.457-.738,3.536,3.536,0,0,1,2.313.758,2.5,2.5,0,0,1,.9,1.977l-2.187-.008a.963.963,0,0,0-1.078-1.1,1.551,1.551,0,0,0-.895.258,1.061,1.061,0,0,0-.465.7q-.117.625.945.883l.313.07a6.285,6.285,0,0,1,1.648.59,2.488,2.488,0,0,1,.879.824,2.04,2.04,0,0,1,.285,1.18,2.251,2.251,0,0,1-.52,1.406,3.18,3.18,0,0,1-1.359.93,4.736,4.736,0,0,1-1.816.3,3.568,3.568,0,0,1-2.344-.809A2.607,2.607,0,0,1-25.145-2.7l2.078.016a1.142,1.142,0,0,0,1.3,1.227,1.845,1.845,0,0,0,1-.25A.987.987,0,0,0-20.293-2.383ZM-9-8.617A2.346,2.346,0,0,1-6.988-7.555l.359-.906,1.969.008L-6.691,3.25H-8.91l.789-3.992a2.647,2.647,0,0,1-2.055.9,2.433,2.433,0,0,1-1.383-.414,2.6,2.6,0,0,1-.918-1.176,4.733,4.733,0,0,1-.355-1.691,6.527,6.527,0,0,1,.023-.961l.047-.344a6.781,6.781,0,0,1,.723-2.3,3.673,3.673,0,0,1,1.313-1.449A3.151,3.151,0,0,1-9-8.617ZM-10.629-3.08q.078,1.393,1.109,1.416a1.881,1.881,0,0,0,1.594-.822l.641-3.521A1.242,1.242,0,0,0-8.512-6.8a1.612,1.612,0,0,0-1.367.653,3.761,3.761,0,0,0-.7,1.89A8.224,8.224,0,0,0-10.629-3.08ZM.887-.875A2.919,2.919,0,0,1-1.441.156,2.172,2.172,0,0,1-3.285-.719,3.2,3.2,0,0,1-3.77-2.984l.914-5.469h2.2l-.93,5.5a2.175,2.175,0,0,0-.008.485.8.8,0,0,0,.867.806,2.014,2.014,0,0,0,1.7-.79l1.055-6H4.246L2.777,0H.723ZM8.434.156A3.677,3.677,0,0,1,6.469-.387,3.292,3.292,0,0,1,5.191-1.855a4.093,4.093,0,0,1-.328-2.059l.023-.312a5.465,5.465,0,0,1,.719-2.266,4.341,4.341,0,0,1,1.547-1.59,3.827,3.827,0,0,1,2.094-.527,2.924,2.924,0,0,1,2.473,1.2,4.117,4.117,0,0,1,.637,2.962l-.125.962H7.051a1.814,1.814,0,0,0,.4,1.313,1.521,1.521,0,0,0,1.172.508A2.7,2.7,0,0,0,10.73-2.6l1.008,1.25A3.135,3.135,0,0,1,10.363-.23,4.5,4.5,0,0,1,8.434.156Zm.7-6.945a1.565,1.565,0,0,0-1.082.383,3.363,3.363,0,0,0-.848,1.383h3.031l.047-.2a2.071,2.071,0,0,0,.008-.594,1.134,1.134,0,0,0-.383-.707A1.2,1.2,0,0,0,9.137-6.789ZM20.848.156a3.677,3.677,0,0,1-1.965-.543,3.292,3.292,0,0,1-1.277-1.469,4.093,4.093,0,0,1-.328-2.059l.023-.312a5.465,5.465,0,0,1,.719-2.266,4.341,4.341,0,0,1,1.547-1.59,3.827,3.827,0,0,1,2.094-.527,2.924,2.924,0,0,1,2.473,1.2,4.117,4.117,0,0,1,.637,2.962l-.125.962h-5.18a1.814,1.814,0,0,0,.4,1.313,1.521,1.521,0,0,0,1.172.508A2.7,2.7,0,0,0,23.145-2.6l1.008,1.25A3.135,3.135,0,0,1,22.777-.23,4.5,4.5,0,0,1,20.848.156Zm.7-6.945a1.565,1.565,0,0,0-1.082.383,3.363,3.363,0,0,0-.848,1.383h3.031l.047-.2a2.071,2.071,0,0,0,.008-.594,1.134,1.134,0,0,0-.383-.707A1.2,1.2,0,0,0,21.551-6.789ZM27.629,0H25.41L27.5-12h2.211Zm9.828.156a3.677,3.677,0,0,1-1.965-.543,3.292,3.292,0,0,1-1.277-1.469,4.093,4.093,0,0,1-.328-2.059l.023-.312a5.465,5.465,0,0,1,.719-2.266,4.341,4.341,0,0,1,1.547-1.59,3.827,3.827,0,0,1,2.094-.527,2.924,2.924,0,0,1,2.473,1.2,4.117,4.117,0,0,1,.637,2.962l-.125.962h-5.18a1.814,1.814,0,0,0,.4,1.313,1.521,1.521,0,0,0,1.172.508A2.7,2.7,0,0,0,39.754-2.6l1.008,1.25A3.135,3.135,0,0,1,39.387-.23,4.5,4.5,0,0,1,37.457.156Zm.7-6.945a1.565,1.565,0,0,0-1.082.383,3.363,3.363,0,0,0-.848,1.383h3.031l.047-.2a2.071,2.071,0,0,0,.008-.594,1.134,1.134,0,0,0-.383-.707A1.2,1.2,0,0,0,38.16-6.789Zm7.2,4L47.77-8.453h2.375L46.059,0H43.949L42.5-8.453h2.234ZM53.746.156a3.677,3.677,0,0,1-1.965-.543A3.292,3.292,0,0,1,50.5-1.855a4.093,4.093,0,0,1-.328-2.059l.023-.312a5.465,5.465,0,0,1,.719-2.266,4.341,4.341,0,0,1,1.547-1.59,3.827,3.827,0,0,1,2.094-.527,2.924,2.924,0,0,1,2.473,1.2,4.117,4.117,0,0,1,.637,2.962l-.125.962h-5.18a1.814,1.814,0,0,0,.4,1.313,1.521,1.521,0,0,0,1.172.508A2.7,2.7,0,0,0,56.043-2.6l1.008,1.25A3.135,3.135,0,0,1,55.676-.23,4.5,4.5,0,0,1,53.746.156Zm.7-6.945a1.565,1.565,0,0,0-1.082.383,3.363,3.363,0,0,0-.848,1.383h3.031l.047-.2a2.071,2.071,0,0,0,.008-.594,1.134,1.134,0,0,0-.383-.707A1.2,1.2,0,0,0,54.449-6.789Zm7.234-1.672-.187,1a3.042,3.042,0,0,1,2.461-1.148,2.028,2.028,0,0,1,1.766.875,3.526,3.526,0,0,1,.414,2.359L65.246,0h-2.2l.906-5.4a2.528,2.528,0,0,0,.016-.555.9.9,0,0,0-1-.82,1.9,1.9,0,0,0-1.555.8L60.355,0h-2.2l1.469-8.453Zm9.758-2.07-.367,2.078H72.48L72.191-6.8H70.785l-.719,4.234a1.077,1.077,0,0,0,.063.609q.109.211.531.227.125.008.672-.039L71.176-.039a3.706,3.706,0,0,1-1.266.18,1.985,1.985,0,0,1-1.617-.68,2.456,2.456,0,0,1-.437-1.8L68.582-6.8h-1.2l.289-1.656h1.2l.359-2.078Zm5.453,1.922a3.39,3.39,0,0,1,1.926.574A3.234,3.234,0,0,1,80.008-6.5a4.762,4.762,0,0,1,.27,2.176,5.143,5.143,0,0,1-1.4,3.262A3.96,3.96,0,0,1,75.855.156,3.38,3.38,0,0,1,73.949-.41a3.222,3.222,0,0,1-1.187-1.527,4.657,4.657,0,0,1-.273-2.156A5.3,5.3,0,0,1,73.91-7.422,3.878,3.878,0,0,1,76.895-8.609ZM74.668-3.294a1.95,1.95,0,0,0,.352,1.182,1.168,1.168,0,0,0,.945.449A1.712,1.712,0,0,0,77.559-2.6,4.647,4.647,0,0,0,78.1-5.128a2.122,2.122,0,0,0-.363-1.2,1.149,1.149,0,0,0-.949-.464,1.715,1.715,0,0,0-1.574.924A4.6,4.6,0,0,0,74.668-3.294Zm15.086.912q.125-.625-.867-.906l-.711-.18q-2.523-.7-2.453-2.453a2.428,2.428,0,0,1,1.059-1.949,3.942,3.942,0,0,1,2.457-.738,3.536,3.536,0,0,1,2.313.758,2.5,2.5,0,0,1,.9,1.977l-2.187-.008a.963.963,0,0,0-1.078-1.1,1.551,1.551,0,0,0-.895.258,1.061,1.061,0,0,0-.465.7q-.117.625.945.883l.313.07a6.285,6.285,0,0,1,1.648.59,2.488,2.488,0,0,1,.879.824,2.04,2.04,0,0,1,.285,1.18,2.251,2.251,0,0,1-.52,1.406,3.18,3.18,0,0,1-1.359.93,4.736,4.736,0,0,1-1.816.3,3.568,3.568,0,0,1-2.344-.809A2.607,2.607,0,0,1,84.9-2.7l2.078.016a1.142,1.142,0,0,0,1.3,1.227,1.845,1.845,0,0,0,1-.25A.987.987,0,0,0,89.754-2.383ZM98.145-.875A2.919,2.919,0,0,1,95.816.156a2.172,2.172,0,0,1-1.844-.875,3.2,3.2,0,0,1-.484-2.266L94.4-8.453h2.2l-.93,5.5a2.174,2.174,0,0,0-.008.485.8.8,0,0,0,.867.806,2.014,2.014,0,0,0,1.7-.79l1.055-6H101.5L100.035,0H97.98Zm7.234-.781a1.447,1.447,0,0,0,1.016-.332,1.632,1.632,0,0,0,.531-.926L109-2.922a3.037,3.037,0,0,1-.559,1.6,3.394,3.394,0,0,1-1.344,1.109,3.847,3.847,0,0,1-1.77.375A3.123,3.123,0,0,1,102.887-.9a3.965,3.965,0,0,1-.867-2.766l.023-.43.008-.086a5.284,5.284,0,0,1,1.391-3.27,3.761,3.761,0,0,1,2.914-1.16,3.047,3.047,0,0,1,2.27.934,3.3,3.3,0,0,1,.824,2.379h-2.055a1.73,1.73,0,0,0-.3-1.07,1.128,1.128,0,0,0-.891-.422q-1.578-.047-1.914,2.3a7.782,7.782,0,0,0-.086,1.438Q104.285-1.68,105.379-1.656ZM113.863.156A3.677,3.677,0,0,1,111.9-.387a3.292,3.292,0,0,1-1.277-1.469,4.093,4.093,0,0,1-.328-2.059l.023-.312a5.465,5.465,0,0,1,.719-2.266,4.341,4.341,0,0,1,1.547-1.59,3.827,3.827,0,0,1,2.094-.527,2.924,2.924,0,0,1,2.473,1.2,4.117,4.117,0,0,1,.637,2.962l-.125.962h-5.18a1.814,1.814,0,0,0,.4,1.313,1.521,1.521,0,0,0,1.172.508A2.7,2.7,0,0,0,116.16-2.6l1.008,1.25A3.135,3.135,0,0,1,115.793-.23,4.5,4.5,0,0,1,113.863.156Zm.7-6.945a1.565,1.565,0,0,0-1.082.383,3.363,3.363,0,0,0-.848,1.383h3.031l.047-.2a2.071,2.071,0,0,0,.008-.594,1.134,1.134,0,0,0-.383-.707A1.2,1.2,0,0,0,114.566-6.789Zm7.945-1.828a2.4,2.4,0,0,1,1.906.945L125.246-12h2.211L125.379,0H123.41l.125-.906a2.736,2.736,0,0,1-2.2,1.07,2.433,2.433,0,0,1-1.383-.414,2.607,2.607,0,0,1-.918-1.168,4.7,4.7,0,0,1-.355-1.7,6.4,6.4,0,0,1,.023-.953l.047-.352a6.767,6.767,0,0,1,.723-2.281,3.766,3.766,0,0,1,1.313-1.461A3.094,3.094,0,0,1,122.512-8.617Zm-1.6,4.547a6.327,6.327,0,0,0-.039,1q.078,1.375,1.109,1.4a1.885,1.885,0,0,0,1.617-.875l.6-3.359a1.248,1.248,0,0,0-1.219-.875,1.606,1.606,0,0,0-1.34.621A4.176,4.176,0,0,0,120.91-4.07ZM131.152.156a3.677,3.677,0,0,1-1.965-.543,3.292,3.292,0,0,1-1.277-1.469,4.093,4.093,0,0,1-.328-2.059l.023-.312a5.465,5.465,0,0,1,.719-2.266,4.341,4.341,0,0,1,1.547-1.59,3.827,3.827,0,0,1,2.094-.527,2.924,2.924,0,0,1,2.473,1.2,4.117,4.117,0,0,1,.637,2.962l-.125.962h-5.18a1.814,1.814,0,0,0,.4,1.313,1.521,1.521,0,0,0,1.172.508,2.7,2.7,0,0,0,2.109-.937l1.008,1.25A3.135,3.135,0,0,1,133.082-.23,4.5,4.5,0,0,1,131.152.156Zm.7-6.945a1.565,1.565,0,0,0-1.082.383,3.363,3.363,0,0,0-.848,1.383h3.031l.047-.2a2.071,2.071,0,0,0,.008-.594,1.134,1.134,0,0,0-.383-.707A1.2,1.2,0,0,0,131.855-6.789Z" transform="translate(297 15)" fill="#12263f" stroke="rgba(0,0,0,0)" stroke-width="1"/>
      <path id="Trazado_641869" data-name="Trazado 641869" d="M-118.414,0h-2.219L-123.8-7.586-125.117,0h-2.289l1.977-11.375h2.211l3.172,7.6,1.32-7.6h2.281Zm7.141-.875A2.919,2.919,0,0,1-113.6.156a2.172,2.172,0,0,1-1.844-.875,3.2,3.2,0,0,1-.484-2.266l.914-5.469h2.2l-.93,5.5a2.174,2.174,0,0,0-.008.485.8.8,0,0,0,.867.806,2.014,2.014,0,0,0,1.7-.79l1.055-6h2.219L-109.383,0h-2.055Zm7.047-7.586-.18.961a3.112,3.112,0,0,1,2.477-1.109,2.379,2.379,0,0,1,1.3.359,1.679,1.679,0,0,1,.7.93,3.255,3.255,0,0,1,2.625-1.289,2.126,2.126,0,0,1,1.754.8,3.271,3.271,0,0,1,.5,2.234l-.016.2L-95.977,0h-2.211l.9-5.4a3.907,3.907,0,0,0,.023-.54.837.837,0,0,0-.937-.845,1.86,1.86,0,0,0-1.555.97l-.023.18L-100.766,0h-2.2l.9-5.383a3.9,3.9,0,0,0,.023-.539.836.836,0,0,0-.93-.852,1.867,1.867,0,0,0-1.508.789L-105.539,0h-2.2l1.461-8.453ZM-90.211.156a3.677,3.677,0,0,1-1.965-.543,3.292,3.292,0,0,1-1.277-1.469,4.093,4.093,0,0,1-.328-2.059l.023-.312a5.465,5.465,0,0,1,.719-2.266,4.341,4.341,0,0,1,1.547-1.59A3.827,3.827,0,0,1-89.4-8.609a2.924,2.924,0,0,1,2.473,1.2,4.117,4.117,0,0,1,.637,2.962l-.125.962h-5.18a1.814,1.814,0,0,0,.4,1.313,1.521,1.521,0,0,0,1.172.508A2.7,2.7,0,0,0-87.914-2.6l1.008,1.25A3.135,3.135,0,0,1-88.281-.23,4.5,4.5,0,0,1-90.211.156Zm.7-6.945a1.565,1.565,0,0,0-1.082.383,3.363,3.363,0,0,0-.848,1.383h3.031l.047-.2a2.071,2.071,0,0,0,.008-.594,1.134,1.134,0,0,0-.383-.707A1.2,1.2,0,0,0-89.508-6.789Zm9.539.453a4.548,4.548,0,0,0-.742-.078,2.136,2.136,0,0,0-1.867.883L-83.555,0h-2.2l1.469-8.453,2.07-.008-.2,1.031a2.325,2.325,0,0,1,1.969-1.2,3.214,3.214,0,0,1,.766.109Zm4.508-2.273a3.39,3.39,0,0,1,1.926.574A3.234,3.234,0,0,1-72.348-6.5a4.762,4.762,0,0,1,.27,2.176,5.143,5.143,0,0,1-1.4,3.262A3.96,3.96,0,0,1-76.5.156,3.38,3.38,0,0,1-78.406-.41a3.222,3.222,0,0,1-1.187-1.527,4.657,4.657,0,0,1-.273-2.156,5.3,5.3,0,0,1,1.422-3.328A3.878,3.878,0,0,1-75.461-8.609Zm-2.227,5.315a1.95,1.95,0,0,0,.352,1.182,1.168,1.168,0,0,0,.945.449A1.712,1.712,0,0,0-74.8-2.6a4.647,4.647,0,0,0,.539-2.531,2.122,2.122,0,0,0-.363-1.2,1.149,1.149,0,0,0-.949-.464,1.715,1.715,0,0,0-1.574.924A4.6,4.6,0,0,0-77.687-3.294Zm14.656-7.237L-63.4-8.453h1.406L-62.281-6.8h-1.406l-.719,4.234a1.077,1.077,0,0,0,.063.609q.109.211.531.227.125.008.672-.039L-63.3-.039a3.706,3.706,0,0,1-1.266.18,1.985,1.985,0,0,1-1.617-.68,2.456,2.456,0,0,1-.437-1.8l.727-4.461h-1.2l.289-1.656h1.2l.359-2.078Zm5.453,1.922a3.39,3.39,0,0,1,1.926.574A3.234,3.234,0,0,1-54.465-6.5,4.762,4.762,0,0,1-54.2-4.32a5.143,5.143,0,0,1-1.4,3.262A3.96,3.96,0,0,1-58.617.156,3.38,3.38,0,0,1-60.523-.41a3.222,3.222,0,0,1-1.187-1.527,4.657,4.657,0,0,1-.273-2.156,5.3,5.3,0,0,1,1.422-3.328A3.878,3.878,0,0,1-57.578-8.609ZM-59.8-3.294a1.95,1.95,0,0,0,.352,1.182,1.168,1.168,0,0,0,.945.449A1.712,1.712,0,0,0-56.914-2.6a4.647,4.647,0,0,0,.539-2.531,2.122,2.122,0,0,0-.363-1.2,1.149,1.149,0,0,0-.949-.464,1.715,1.715,0,0,0-1.574.924A4.6,4.6,0,0,0-59.8-3.294Zm10.711-7.237-.367,2.078h1.406L-48.344-6.8H-49.75l-.719,4.234a1.077,1.077,0,0,0,.063.609q.109.211.531.227.125.008.672-.039l-.156,1.727a3.706,3.706,0,0,1-1.266.18,1.985,1.985,0,0,1-1.617-.68,2.456,2.456,0,0,1-.437-1.8l.727-4.461h-1.2l.289-1.656h1.2l.359-2.078ZM-43.352,0a2.281,2.281,0,0,1-.086-.766,2.863,2.863,0,0,1-2.156.922,2.594,2.594,0,0,1-1.84-.723,2.186,2.186,0,0,1-.684-1.746,2.527,2.527,0,0,1,1.16-2.121,5.266,5.266,0,0,1,2.965-.738l1.031.016.109-.508a1.764,1.764,0,0,0,.023-.492.846.846,0,0,0-.277-.574.955.955,0,0,0-.629-.215,1.345,1.345,0,0,0-.875.254,1.231,1.231,0,0,0-.461.777l-2.211.008a2.457,2.457,0,0,1,1.113-1.965,4.312,4.312,0,0,1,2.613-.738,3.117,3.117,0,0,1,2.25.855,2.5,2.5,0,0,1,.68,2.121l-.648,4.047-.039.5a2.412,2.412,0,0,0,.133.938L-41.187,0Zm-1.7-1.555a2.017,2.017,0,0,0,1.664-.828l.273-1.461-.766-.008a2.139,2.139,0,0,0-1.758.742,1.292,1.292,0,0,0-.242.633.75.75,0,0,0,.176.668A.891.891,0,0,0-45.047-1.555ZM-37.516,0h-2.219l2.086-12h2.211Zm10.008-8.617a2.4,2.4,0,0,1,1.906.945L-24.773-12h2.211L-24.641,0h-1.969l.125-.906a2.736,2.736,0,0,1-2.2,1.07A2.433,2.433,0,0,1-30.07-.25a2.607,2.607,0,0,1-.918-1.168,4.7,4.7,0,0,1-.355-1.7,6.4,6.4,0,0,1,.023-.953l.047-.352A6.767,6.767,0,0,1-30.551-6.7a3.766,3.766,0,0,1,1.313-1.461A3.094,3.094,0,0,1-27.508-8.617Zm-1.6,4.547a6.327,6.327,0,0,0-.039,1q.078,1.375,1.109,1.4a1.885,1.885,0,0,0,1.617-.875l.6-3.359a1.248,1.248,0,0,0-1.219-.875,1.606,1.606,0,0,0-1.34.621A4.176,4.176,0,0,0-29.109-4.07ZM-18.867.156a3.677,3.677,0,0,1-1.965-.543,3.292,3.292,0,0,1-1.277-1.469,4.093,4.093,0,0,1-.328-2.059l.023-.312A5.465,5.465,0,0,1-21.7-6.492a4.341,4.341,0,0,1,1.547-1.59,3.827,3.827,0,0,1,2.094-.527,2.924,2.924,0,0,1,2.473,1.2,4.117,4.117,0,0,1,.637,2.962l-.125.962h-5.18a1.814,1.814,0,0,0,.4,1.313,1.521,1.521,0,0,0,1.172.508A2.7,2.7,0,0,0-16.57-2.6l1.008,1.25A3.135,3.135,0,0,1-16.937-.23,4.5,4.5,0,0,1-18.867.156Zm.7-6.945a1.565,1.565,0,0,0-1.082.383,3.363,3.363,0,0,0-.848,1.383h3.031l.047-.2a2.071,2.071,0,0,0,.008-.594,1.134,1.134,0,0,0-.383-.707A1.2,1.2,0,0,0-18.164-6.789Zm13.484.453a4.548,4.548,0,0,0-.742-.078,2.136,2.136,0,0,0-1.867.883L-8.266,0h-2.2L-9-8.453l2.07-.008-.2,1.031a2.325,2.325,0,0,1,1.969-1.2,3.214,3.214,0,0,1,.766.109ZM-.711.156A3.677,3.677,0,0,1-2.676-.387,3.292,3.292,0,0,1-3.953-1.855a4.093,4.093,0,0,1-.328-2.059l.023-.312a5.465,5.465,0,0,1,.719-2.266,4.341,4.341,0,0,1,1.547-1.59A3.827,3.827,0,0,1,.1-8.609a2.924,2.924,0,0,1,2.473,1.2,4.117,4.117,0,0,1,.637,2.962l-.125.962h-5.18a1.814,1.814,0,0,0,.4,1.313,1.521,1.521,0,0,0,1.172.508A2.7,2.7,0,0,0,1.586-2.6l1.008,1.25A3.135,3.135,0,0,1,1.219-.23,4.5,4.5,0,0,1-.711.156Zm.7-6.945a1.565,1.565,0,0,0-1.082.383,3.363,3.363,0,0,0-.848,1.383H1.094l.047-.2a2.071,2.071,0,0,0,.008-.594,1.134,1.134,0,0,0-.383-.707A1.2,1.2,0,0,0-.008-6.789ZM8.641-2.383q.125-.625-.867-.906l-.711-.18q-2.523-.7-2.453-2.453A2.428,2.428,0,0,1,5.668-7.871a3.942,3.942,0,0,1,2.457-.738,3.536,3.536,0,0,1,2.313.758,2.5,2.5,0,0,1,.9,1.977L9.148-5.883a.963.963,0,0,0-1.078-1.1,1.551,1.551,0,0,0-.895.258,1.061,1.061,0,0,0-.465.7q-.117.625.945.883l.313.07a6.285,6.285,0,0,1,1.648.59,2.488,2.488,0,0,1,.879.824,2.04,2.04,0,0,1,.285,1.18,2.251,2.251,0,0,1-.52,1.406A3.18,3.18,0,0,1,8.9-.148a4.736,4.736,0,0,1-1.816.3A3.568,3.568,0,0,1,4.742-.652,2.607,2.607,0,0,1,3.789-2.7l2.078.016a1.142,1.142,0,0,0,1.3,1.227,1.845,1.845,0,0,0,1-.25A.987.987,0,0,0,8.641-2.383ZM17.031-.875A2.919,2.919,0,0,1,14.7.156a2.172,2.172,0,0,1-1.844-.875,3.2,3.2,0,0,1-.484-2.266l.914-5.469h2.2l-.93,5.5a2.175,2.175,0,0,0-.008.485.8.8,0,0,0,.867.806,2.014,2.014,0,0,0,1.7-.79l1.055-6h2.219L18.922,0H16.867ZM22.891,0H20.672l2.086-12h2.211Zm6.336-10.531-.367,2.078h1.406L29.977-6.8H28.57l-.719,4.234a1.077,1.077,0,0,0,.063.609q.109.211.531.227.125.008.672-.039L28.961-.039A3.706,3.706,0,0,1,27.7.141a1.985,1.985,0,0,1-1.617-.68,2.456,2.456,0,0,1-.437-1.8L26.367-6.8h-1.2l.289-1.656h1.2l.359-2.078ZM34.969,0a2.281,2.281,0,0,1-.086-.766,2.863,2.863,0,0,1-2.156.922,2.594,2.594,0,0,1-1.84-.723A2.186,2.186,0,0,1,30.2-2.312a2.527,2.527,0,0,1,1.16-2.121,5.266,5.266,0,0,1,2.965-.738l1.031.016.109-.508a1.764,1.764,0,0,0,.023-.492.846.846,0,0,0-.277-.574.955.955,0,0,0-.629-.215,1.345,1.345,0,0,0-.875.254,1.231,1.231,0,0,0-.461.777l-2.211.008a2.457,2.457,0,0,1,1.113-1.965,4.312,4.312,0,0,1,2.613-.738,3.117,3.117,0,0,1,2.25.855,2.5,2.5,0,0,1,.68,2.121l-.648,4.047-.039.5a2.412,2.412,0,0,0,.133.938L37.133,0Zm-1.7-1.555a2.017,2.017,0,0,0,1.664-.828l.273-1.461-.766-.008a2.139,2.139,0,0,0-1.758.742,1.292,1.292,0,0,0-.242.633.75.75,0,0,0,.176.668A.891.891,0,0,0,33.273-1.555Zm9.4-7.062a2.4,2.4,0,0,1,1.906.945L45.406-12h2.211L45.539,0H43.57L43.7-.906a2.736,2.736,0,0,1-2.2,1.07A2.433,2.433,0,0,1,40.109-.25a2.607,2.607,0,0,1-.918-1.168,4.7,4.7,0,0,1-.355-1.7,6.4,6.4,0,0,1,.023-.953l.047-.352A6.767,6.767,0,0,1,39.629-6.7a3.766,3.766,0,0,1,1.313-1.461A3.094,3.094,0,0,1,42.672-8.617ZM41.07-4.07a6.327,6.327,0,0,0-.039,1q.078,1.375,1.109,1.4a1.885,1.885,0,0,0,1.617-.875l.6-3.359a1.248,1.248,0,0,0-1.219-.875,1.606,1.606,0,0,0-1.34.621A4.176,4.176,0,0,0,41.07-4.07ZM52.133-8.609a3.39,3.39,0,0,1,1.926.574A3.234,3.234,0,0,1,55.246-6.5a4.762,4.762,0,0,1,.27,2.176,5.143,5.143,0,0,1-1.4,3.262A3.96,3.96,0,0,1,51.094.156,3.38,3.38,0,0,1,49.188-.41,3.222,3.222,0,0,1,48-1.937a4.657,4.657,0,0,1-.273-2.156,5.3,5.3,0,0,1,1.422-3.328A3.878,3.878,0,0,1,52.133-8.609ZM49.906-3.294a1.95,1.95,0,0,0,.352,1.182,1.168,1.168,0,0,0,.945.449A1.712,1.712,0,0,0,52.8-2.6a4.647,4.647,0,0,0,.539-2.531,2.122,2.122,0,0,0-.363-1.2,1.149,1.149,0,0,0-.949-.464,1.715,1.715,0,0,0-1.574.924A4.6,4.6,0,0,0,49.906-3.294Zm11.141.912q.125-.625-.867-.906l-.711-.18q-2.523-.7-2.453-2.453a2.428,2.428,0,0,1,1.059-1.949,3.942,3.942,0,0,1,2.457-.738,3.536,3.536,0,0,1,2.313.758,2.5,2.5,0,0,1,.9,1.977l-2.187-.008a.963.963,0,0,0-1.078-1.1,1.552,1.552,0,0,0-.895.258,1.061,1.061,0,0,0-.465.7q-.117.625.945.883l.313.07a6.285,6.285,0,0,1,1.648.59,2.488,2.488,0,0,1,.879.824,2.04,2.04,0,0,1,.285,1.18,2.251,2.251,0,0,1-.52,1.406,3.18,3.18,0,0,1-1.359.93,4.736,4.736,0,0,1-1.816.3,3.568,3.568,0,0,1-2.344-.809A2.607,2.607,0,0,1,56.2-2.7l2.078.016a1.142,1.142,0,0,0,1.3,1.227,1.845,1.845,0,0,0,1-.25A.987.987,0,0,0,61.047-2.383ZM76.266-4.2a6.981,6.981,0,0,1-.7,2.359A3.826,3.826,0,0,1,74.25-.312,3.058,3.058,0,0,1,72.5.164,2.44,2.44,0,0,1,70.563-.75l-.773,4h-2.2l2.023-11.7,2.031-.008-.148.852a2.7,2.7,0,0,1,2.156-1,2.4,2.4,0,0,1,1.93.9,3.922,3.922,0,0,1,.734,2.363A9.133,9.133,0,0,1,76.266-4.2Zm-2.187-.16.047-.751a2.089,2.089,0,0,0-.277-1.205,1,1,0,0,0-.855-.462,1.818,1.818,0,0,0-1.586.814l-.633,3.49a1.233,1.233,0,0,0,1.242.822,1.59,1.59,0,0,0,1.328-.618A4.234,4.234,0,0,0,74.078-4.364ZM81.8-8.609a3.39,3.39,0,0,1,1.926.574A3.234,3.234,0,0,1,84.91-6.5a4.762,4.762,0,0,1,.27,2.176,5.143,5.143,0,0,1-1.4,3.262A3.96,3.96,0,0,1,80.758.156,3.38,3.38,0,0,1,78.852-.41a3.222,3.222,0,0,1-1.187-1.527,4.657,4.657,0,0,1-.273-2.156,5.3,5.3,0,0,1,1.422-3.328A3.878,3.878,0,0,1,81.8-8.609ZM79.57-3.294a1.95,1.95,0,0,0,.352,1.182,1.168,1.168,0,0,0,.945.449A1.712,1.712,0,0,0,82.461-2.6,4.647,4.647,0,0,0,83-5.128a2.122,2.122,0,0,0-.363-1.2,1.149,1.149,0,0,0-.949-.464,1.715,1.715,0,0,0-1.574.924A4.6,4.6,0,0,0,79.57-3.294Zm11.141.912q.125-.625-.867-.906l-.711-.18q-2.523-.7-2.453-2.453a2.428,2.428,0,0,1,1.059-1.949A3.942,3.942,0,0,1,90.2-8.609a3.536,3.536,0,0,1,2.313.758,2.5,2.5,0,0,1,.9,1.977l-2.187-.008a.963.963,0,0,0-1.078-1.1,1.551,1.551,0,0,0-.895.258,1.061,1.061,0,0,0-.465.7q-.117.625.945.883l.313.07a6.285,6.285,0,0,1,1.648.59,2.488,2.488,0,0,1,.879.824,2.04,2.04,0,0,1,.285,1.18,2.251,2.251,0,0,1-.52,1.406,3.18,3.18,0,0,1-1.359.93,4.736,4.736,0,0,1-1.816.3,3.568,3.568,0,0,1-2.344-.809A2.607,2.607,0,0,1,85.859-2.7l2.078.016a1.142,1.142,0,0,0,1.3,1.227,1.845,1.845,0,0,0,1-.25A.987.987,0,0,0,90.711-2.383ZM96.2,0H93.977l1.469-8.453h2.219ZM95.7-10.6a1.1,1.1,0,0,1,.344-.867,1.209,1.209,0,0,1,.867-.344,1.215,1.215,0,0,1,.867.3,1.1,1.1,0,0,1,.383.828,1.132,1.132,0,0,1-.324.844,1.215,1.215,0,0,1-.887.375,1.235,1.235,0,0,1-.863-.3A1.091,1.091,0,0,1,95.7-10.6Zm10.484,6.4A6.061,6.061,0,0,1,104.969-1,3.033,3.033,0,0,1,102.422.164a2.357,2.357,0,0,1-2.031-1.078L100.07,0H98.063l2.078-12h2.211L101.5-7.68a2.634,2.634,0,0,1,2.063-.93,2.385,2.385,0,0,1,1.926.879,3.89,3.89,0,0,1,.746,2.387A9.133,9.133,0,0,1,106.188-4.2ZM104-4.368a6.554,6.554,0,0,0,.047-1.034q-.086-1.364-1.125-1.387A1.833,1.833,0,0,0,101.3-5.9l-.609,3.37a1.258,1.258,0,0,0,1.266.878q1.625.047,1.992-2.367ZM109.2,0h-2.219l2.086-12h2.211Zm5.883.156a3.677,3.677,0,0,1-1.965-.543,3.292,3.292,0,0,1-1.277-1.469,4.093,4.093,0,0,1-.328-2.059l.023-.312a5.465,5.465,0,0,1,.719-2.266,4.341,4.341,0,0,1,1.547-1.59,3.827,3.827,0,0,1,2.094-.527,2.924,2.924,0,0,1,2.473,1.2,4.117,4.117,0,0,1,.637,2.962l-.125.962H113.7a1.814,1.814,0,0,0,.4,1.313,1.521,1.521,0,0,0,1.172.508,2.7,2.7,0,0,0,2.109-.937l1.008,1.25A3.135,3.135,0,0,1,117.016-.23,4.5,4.5,0,0,1,115.086.156Zm.7-6.945a1.565,1.565,0,0,0-1.082.383,3.363,3.363,0,0,0-.848,1.383h3.031l.047-.2a2.071,2.071,0,0,0,.008-.594,1.134,1.134,0,0,0-.383-.707A1.2,1.2,0,0,0,115.789-6.789Zm8.648,4.406q.125-.625-.867-.906l-.711-.18q-2.523-.7-2.453-2.453a2.428,2.428,0,0,1,1.059-1.949,3.942,3.942,0,0,1,2.457-.738,3.536,3.536,0,0,1,2.313.758,2.5,2.5,0,0,1,.9,1.977l-2.187-.008a.963.963,0,0,0-1.078-1.1,1.551,1.551,0,0,0-.895.258,1.061,1.061,0,0,0-.465.7q-.117.625.945.883l.313.07a6.285,6.285,0,0,1,1.648.59,2.488,2.488,0,0,1,.879.824,2.04,2.04,0,0,1,.285,1.18,2.251,2.251,0,0,1-.52,1.406,3.18,3.18,0,0,1-1.359.93,4.736,4.736,0,0,1-1.816.3,3.568,3.568,0,0,1-2.344-.809,2.607,2.607,0,0,1-.953-2.051l2.078.016a1.142,1.142,0,0,0,1.3,1.227,1.845,1.845,0,0,0,1-.25A.987.987,0,0,0,124.438-2.383Z" transform="translate(297 45)" fill="#12263f" stroke="rgba(0,0,0,0)" stroke-width="1"/>
      <line id="Línea_2920" data-name="Línea 2920" x2="290" transform="translate(157 25)" fill="none" stroke="#707070" stroke-width="1"/>
    </g>
  </g>
</svg>
