<svg xmlns="http://www.w3.org/2000/svg" xmlns:xlink="http://www.w3.org/1999/xlink" width="576" height="261" viewBox="0 0 576 261">
  <defs>
    <clipPath id="clip-path">
      <rect id="Rect치ngulo_379383" data-name="Rect치ngulo 379383" width="209.342" height="219.816" fill="none"/>
    </clipPath>
  </defs>
  <g id="img33" transform="translate(-10032 5276)">
    <path id="Trazado_616136" data-name="Trazado 616136" d="M0,0H576V261H0Z" transform="translate(10032 -5276)" fill="#fff"/>
    <g id="Grupo_1074565" data-name="Grupo 1074565" transform="translate(-1480 1116)">
      <g id="Grupo_1074564" data-name="Grupo 1074564" transform="translate(11695 -6371)">
        <g id="Grupo_1074563" data-name="Grupo 1074563" clip-path="url(#clip-path)">
          <path id="Trazado_616137" data-name="Trazado 616137" d="M71.1,175.7l-9.153,6.354a1.857,1.857,0,0,0,2.118,3.05l9.153-6.354A1.857,1.857,0,0,0,71.1,175.7" transform="translate(-4.369 -12.529)" fill="#c7e3d7"/>
          <path id="Trazado_616138" data-name="Trazado 616138" d="M31.667,203.073l-9.154,6.354a1.857,1.857,0,0,0,2.118,3.05l9.154-6.354a1.857,1.857,0,1,0-2.118-3.05" transform="translate(-1.551 -14.485)" fill="#c7e3d7"/>
          <path id="Trazado_616139" data-name="Trazado 616139" d="M94.863,172.11l-11.136-.377a1.857,1.857,0,1,0-.125,3.712l11.136.377H94.8a1.857,1.857,0,0,0,.061-3.713" transform="translate(-5.845 -12.269)" fill="#c7e3d7"/>
          <path id="Trazado_616140" data-name="Trazado 616140" d="M11.952,216.758,2.8,223.112a1.857,1.857,0,0,0,2.118,3.05l9.154-6.354a1.857,1.857,0,1,0-2.118-3.05" transform="translate(-0.143 -15.462)" fill="#c7e3d7"/>
          <path id="Trazado_616141" data-name="Trazado 616141" d="M51.383,189.388l-9.154,6.354a1.857,1.857,0,0,0,2.118,3.05l9.154-6.354a1.857,1.857,0,1,0-2.118-3.05" transform="translate(-2.96 -13.507)" fill="#c7e3d7"/>
          <path id="Trazado_616142" data-name="Trazado 616142" d="M166.821,174.55l-11.136-.377a1.857,1.857,0,1,0-.125,3.712l11.136.377h.064a1.857,1.857,0,0,0,.061-3.713" transform="translate(-10.986 -12.444)" fill="#c7e3d7"/>
          <path id="Trazado_616143" data-name="Trazado 616143" d="M142.836,173.737l-11.136-.378a1.857,1.857,0,0,0-.126,3.712l11.137.378h.064a1.857,1.857,0,0,0,.061-3.713" transform="translate(-9.272 -12.386)" fill="#c7e3d7"/>
          <path id="Trazado_616144" data-name="Trazado 616144" d="M214.8,176.177l-11.137-.378a1.857,1.857,0,1,0-.125,3.712l11.136.378h.064a1.857,1.857,0,0,0,.062-3.713" transform="translate(-14.413 -12.56)" fill="#c7e3d7"/>
          <path id="Trazado_616145" data-name="Trazado 616145" d="M190.807,175.363l-11.136-.377a1.857,1.857,0,1,0-.125,3.712l11.136.377h.064a1.857,1.857,0,0,0,.061-3.713" transform="translate(-12.699 -12.502)" fill="#c7e3d7"/>
          <path id="Trazado_616146" data-name="Trazado 616146" d="M118.849,172.924l-11.136-.377a1.857,1.857,0,1,0-.125,3.712l11.136.377h.064a1.857,1.857,0,0,0,.061-3.713" transform="translate(-7.558 -12.328)" fill="#c7e3d7"/>
          <path id="Trazado_616147" data-name="Trazado 616147" d="M86.341,123.535a1.758,1.758,0,0,0,.317.027,1.857,1.857,0,0,0,1.828-1.542l1.886-10.981a1.857,1.857,0,0,0-3.66-.63L84.826,121.39a1.857,1.857,0,0,0,1.515,2.145" transform="translate(-6.058 -7.778)" fill="#c7e3d7"/>
          <path id="Trazado_616148" data-name="Trazado 616148" d="M82.278,147.189a1.756,1.756,0,0,0,.317.027,1.857,1.857,0,0,0,1.828-1.542l1.886-10.982a1.857,1.857,0,1,0-3.66-.63l-1.886,10.982a1.857,1.857,0,0,0,1.515,2.145" transform="translate(-5.768 -9.468)" fill="#c7e3d7"/>
          <path id="Trazado_616149" data-name="Trazado 616149" d="M90.4,99.881a1.758,1.758,0,0,0,.317.027,1.857,1.857,0,0,0,1.828-1.542l1.886-10.982a1.857,1.857,0,1,0-3.66-.63L88.889,97.736A1.857,1.857,0,0,0,90.4,99.881" transform="translate(-6.349 -6.088)" fill="#c7e3d7"/>
          <path id="Trazado_616150" data-name="Trazado 616150" d="M80.732,156.2a1.845,1.845,0,0,0-2.145,1.515L76.7,168.7a1.857,1.857,0,1,0,3.66.63l1.886-10.982a1.857,1.857,0,0,0-1.515-2.145" transform="translate(-5.478 -11.158)" fill="#c7e3d7"/>
          <path id="Trazado_616151" data-name="Trazado 616151" d="M96.983,61.586A1.843,1.843,0,0,0,94.838,63.1L92.952,74.083a1.857,1.857,0,1,0,3.66.63L98.5,63.731a1.857,1.857,0,0,0-1.515-2.145" transform="translate(-6.639 -4.398)" fill="#c7e3d7"/>
          <path id="Trazado_616152" data-name="Trazado 616152" d="M105.108,14.279a1.853,1.853,0,0,0-2.145,1.516l-1.886,10.981a1.857,1.857,0,1,0,3.66.629l1.886-10.981a1.857,1.857,0,0,0-1.515-2.145" transform="translate(-7.219 -1.018)" fill="#c7e3d7"/>
          <path id="Trazado_616153" data-name="Trazado 616153" d="M101.045,37.932A1.855,1.855,0,0,0,98.9,39.448L97.014,50.429a1.857,1.857,0,1,0,3.66.63l1.886-10.982a1.857,1.857,0,0,0-1.515-2.145" transform="translate(-6.929 -2.708)" fill="#c7e3d7"/>
          <rect id="Rect치ngulo_379382" data-name="Rect치ngulo 379382" width="3.714" height="178.344" transform="matrix(1, -0.004, 0.004, 1, 95.87, 6.068)" fill="#6fd9fb"/>
          <path id="Trazado_616154" data-name="Trazado 616154" d="M208.729,163.609,102.008,1.671a3.714,3.714,0,0,0-6.471.482L.344,207.614a3.713,3.713,0,0,0,3.175,5.27l131.63,6.927c.065,0,.129,0,.195,0a3.712,3.712,0,0,0,2.165-.7l70.283-50.449a3.715,3.715,0,0,0,.936-5.062M97.263,16.1,130.9,212.149,9.392,205.755ZM138,209.623,105.567,20.57l94.995,144.147Z" transform="translate(0 0)" fill="#196442"/>
        </g>
      </g>
      <path id="Trazado_641856" data-name="Trazado 641856" d="M3.313-7.547A2.635,2.635,0,0,1,5.469-8.609a2.627,2.627,0,0,1,2.109.828A3.721,3.721,0,0,1,8.3-5.336V0H5.664V-5.273a1.488,1.488,0,0,0-.273-.988,1.175,1.175,0,0,0-.93-.316,1.266,1.266,0,0,0-1.148.516V0H.68V-12H3.313Z" transform="translate(11798 -6187)" fill="#0599c8"/>
    </g>
  </g>
</svg>
