<svg xmlns="http://www.w3.org/2000/svg" xmlns:xlink="http://www.w3.org/1999/xlink" width="62.504" height="62.504" viewBox="0 0 62.504 62.504">
  <defs>
    <clipPath id="clip-path">
      <rect id="Rectángulo_379008" data-name="Rectángulo 379008" width="43" height="43" transform="translate(289.816 1210.717)" fill="#fff" stroke="#707070" stroke-width="1"/>
    </clipPath>
    <clipPath id="clip-path-2">
      <rect id="Rectángulo_379007" data-name="Rectángulo 379007" width="43" height="43" transform="translate(289.816 1209.717)" fill="#fff" stroke="#707070" stroke-width="1"/>
    </clipPath>
    <clipPath id="clip-path-3">
      <rect id="Rectángulo_379016" data-name="Rectángulo 379016" width="30.436" height="38.821" fill="#ffd87e"/>
    </clipPath>
  </defs>
  <g id="img3" transform="translate(-769 -599)">
    <g id="Grupo_1072168" data-name="Grupo 1072168" transform="translate(489.184 -599.717)">
      <g id="Grupo_1072053" data-name="Grupo 1072053" transform="translate(279.816 1198.717)">
        <circle id="Elipse_4742" data-name="Elipse 4742" cx="31.252" cy="31.252" r="31.252" transform="translate(0)" fill="#11462e"/>
      </g>
    </g>
    <g id="Enmascarar_grupo_1074674" data-name="Enmascarar grupo 1074674" transform="translate(489.184 -600.717)" clip-path="url(#clip-path)">
      <g id="Enmascarar_grupo_1074673" data-name="Enmascarar grupo 1074673" transform="translate(0 1)" clip-path="url(#clip-path-2)">
        <g id="Grupo_1074244" data-name="Grupo 1074244" transform="translate(296.266 1211.296)">
          <g id="Grupo_1074243" data-name="Grupo 1074243" clip-path="url(#clip-path-3)">
            <path id="Trazado_615603" data-name="Trazado 615603" d="M21.066,72.383V43.052c.079-.005.151-.014.223-.014h3.545c.055,0,.111.01.166.006.139-.012.175.064.188.187a1.64,1.64,0,0,0,1.724,1.532q6.278,0,12.556,0a1.658,1.658,0,0,0,1.707-1.544c.011-.121.046-.181.173-.181l3.9.012c.005,0,.01.006.03.018V72.383Zm5.495-15.635v0q1.071,0,2.142,0a.58.58,0,0,0,.628-.63q0-2.1,0-4.192c0-.485-.2-.695-.677-.7q-2.123,0-4.247,0c-.443,0-.632.186-.64.628-.005.308.011.615.01.923,0,1.083-.007,2.166-.01,3.25,0,.527.206.724.727.718.689-.007,1.379,0,2.068,0m.008,8.868v-.007h2.16a.581.581,0,0,0,.6-.6q0-2.086,0-4.173c0-.556-.188-.74-.745-.739l-4.154.007c-.491,0-.664.174-.668.669,0,.049,0,.1,0,.148q.006,1.809.011,3.619c0,.166-.018.333-.007.5a.564.564,0,0,0,.639.581c.72,0,1.44,0,2.16,0m11.147-1.835v0H33.672c-.314,0-.628-.015-.941.008a.628.628,0,0,0-.465,1,.794.794,0,0,0,.736.291q4.422-.007,8.843-.009c.246,0,.493.014.738,0a.654.654,0,0,0,.632-.838c-.088-.3-.342-.458-.756-.458H37.715M37.7,54.915v0H33.653c-.3,0-.6-.009-.9.005a.618.618,0,0,0-.6.571.633.633,0,0,0,.452.678,1.733,1.733,0,0,0,.456.046q4.643,0,9.287,0a2.58,2.58,0,0,0,.277-.008.654.654,0,0,0,.594-.838.683.683,0,0,0-.738-.461H37.7m.019-1.866v0c1.613,0,3.225,0,4.838,0a.654.654,0,0,0,.632-.39.593.593,0,0,0-.114-.683.672.672,0,0,0-.542-.231c-.264-.012-.529.005-.793,0l-8.715-.006a1.8,1.8,0,0,0-.33.027.639.639,0,0,0-.545.643.655.655,0,0,0,.586.631,4.348,4.348,0,0,0,.46,0h4.524m-.029,8.858v.007h4.966a.66.66,0,0,0,.584-.748c-.091-.379-.344-.552-.8-.552l-9.194.01a4.354,4.354,0,0,0-.5.014.629.629,0,0,0-.593.668.648.648,0,0,0,.683.6h4.856" transform="translate(-17.954 -36.679)" fill="#ffd87e"/>
            <path id="Trazado_615604" data-name="Trazado 615604" d="M23.214,24.126c0-.581,0-1.122.005-1.663,0-.037.069-.1.112-.1a2.231,2.231,0,0,1,.332-.01c1.57,0,3.139,0,4.709,0a2.679,2.679,0,0,1,.712.073A1.745,1.745,0,0,1,30.4,23.951a2.788,2.788,0,0,1,.037.44q0,15.7,0,31.394a2.107,2.107,0,0,1-.465,1.424,1.92,1.92,0,0,1-1.53.652c-2.4.012-4.8,0-7.2,0q-9.575,0-19.15,0a2.017,2.017,0,0,1-1.609-.643A2.14,2.14,0,0,1,0,55.95c0-.043,0-.086,0-.129Q0,40.086,0,24.352a1.831,1.831,0,0,1,1.677-1.973c.916-.038,1.834-.026,2.751-.029.856,0,1.711,0,2.567,0,.153,0,.217.038.213.207-.01.468-.006.936,0,1.4,0,.133-.041.163-.17.163-1.5,0-3,0-4.506,0a.7.7,0,0,0-.763.753c0,.1,0,.2,0,.3V55.235a.766.766,0,0,0,.864.86q12.567,0,25.134,0a.821.821,0,0,0,.895-.894q-.011-14.986-.007-29.972a2.861,2.861,0,0,0-.039-.532.639.639,0,0,0-.712-.577l-4.137,0h-.559" transform="translate(0 -19.047)" fill="#ffd87e"/>
            <path id="Trazado_615605" data-name="Trazado 615605" d="M64.271,6.772h-5.52c-.246,0-.492.016-.738.008-.326-.011-.465-.157-.473-.483-.005-.215,0-.431,0-.646q0-1.394.008-2.788c0-.037,0-.074,0-.111.021-.365.152-.5.518-.5.923,0,1.846,0,2.769,0,.172,0,.378.051.506-.025.111-.066.13-.282.2-.428a2.943,2.943,0,0,1,5.517.267.214.214,0,0,0,.243.187c.985,0,1.969,0,2.954,0,.062,0,.123,0,.185,0,.384.009.509.12.52.507.013.455.005.911.006,1.366q0,1.025,0,2.049c0,.463-.118.6-.584.6-1.532.006-3.065,0-4.6,0H64.271V6.772m-.022-3.509a.831.831,0,0,0,.871-.848.864.864,0,0,0-1.728,0,.855.855,0,0,0,.857.851" transform="translate(-49.037 0)" fill="#ffd87e"/>
            <path id="Trazado_615607" data-name="Trazado 615607" d="M47.258,109.2c.163-.195.3-.353.428-.513.168-.2.332-.412.5-.614a.643.643,0,0,1,.9-.135.626.626,0,0,1,.1.892c-.321.428-.668.836-1,1.252-.108.134-.22.265-.329.4a.607.607,0,0,1-.937.1c-.363-.331-.709-.683-1.045-1.042a.577.577,0,0,1,.062-.827.61.61,0,0,1,.837-.022c.163.148.306.318.488.51" transform="translate(-38.968 -91.884)" fill="#ffd87e"/>
            <path id="Trazado_615608" data-name="Trazado 615608" d="M47.654,168.263c-.281.27-.519.5-.76.728a.6.6,0,0,1-.874-.026.545.545,0,0,1-.008-.831c.187-.2.381-.4.587-.587.116-.1.1-.17,0-.267-.206-.2-.419-.4-.6-.623a.623.623,0,0,1,.314-1.026.554.554,0,0,1,.587.171c.237.232.452.487.714.773.14-.162.235-.281.34-.391.131-.138.264-.276.408-.4a.567.567,0,0,1,.854.03.635.635,0,0,1,.024.842c-.164.191-.352.361-.531.539s-.192.187,0,.383c.172.177.353.344.519.525a.723.723,0,0,1,.049.826.66.66,0,0,1-.752.187.783.783,0,0,1-.251-.18c-.209-.217-.409-.442-.619-.672" transform="translate(-39.053 -141.137)" fill="#ffd87e"/>
          </g>
        </g>
      </g>
    </g>
  </g>
</svg>
