<svg xmlns="http://www.w3.org/2000/svg" xmlns:xlink="http://www.w3.org/1999/xlink" width="576" height="261" viewBox="0 0 576 261">
  <defs>
    <clipPath id="clip-path">
      <rect id="Rectángulo_379385" data-name="Rectángulo 379385" width="158" height="228.689" transform="translate(-34 -360)" fill="#196442" opacity="0"/>
    </clipPath>
  </defs>
  <g id="img41" transform="translate(-10032 4433)">
    <path id="Trazado_616161" data-name="Trazado 616161" d="M0,0H576V261H0Z" transform="translate(10032 -4433)" fill="#fff"/>
    <g id="Grupo_1074581" data-name="Grupo 1074581" transform="translate(-1480 1116)">
      <path id="Trazado_641864" data-name="Trazado 641864" d="M3.313-7.547A2.635,2.635,0,0,1,5.469-8.609a2.627,2.627,0,0,1,2.109.828A3.721,3.721,0,0,1,8.3-5.336V0H5.664V-5.273a1.488,1.488,0,0,0-.273-.988,1.175,1.175,0,0,0-.93-.316,1.266,1.266,0,0,0-1.148.516V0H.68V-12H3.313Z" transform="translate(11796 -5374)" fill="#0599c8"/>
      <g id="Grupo_1074580" data-name="Grupo 1074580" transform="translate(11745 -5172)">
        <g id="Grupo_1074579" data-name="Grupo 1074579" clip-path="url(#clip-path)">
          <path id="Trazado_616162" data-name="Trazado 616162" d="M134.2,22.479C134.2,12.273,105.188,4,69.4,4s-64.8,8.273-64.8,18.479S33.607,40.958,69.4,40.958s64.8-8.273,64.8-18.479" transform="translate(-24.136 -354.321)" fill="#c7e3d7"/>
          <path id="Trazado_616163" data-name="Trazado 616163" d="M155.294,225.431a2.2,2.2,0,0,1-2.2-2.2c0-2.441-1.38-4.914-4.1-7.348a2.2,2.2,0,0,1,2.932-3.28c3.7,3.3,5.57,6.879,5.57,10.627a2.2,2.2,0,0,1-2.2,2.2M8.987,217.1a2.2,2.2,0,0,1-1.536-3.775,36.96,36.96,0,0,1,9.267-6.277,2.2,2.2,0,0,1,1.968,3.936,32.631,32.631,0,0,0-8.163,5.491,2.194,2.194,0,0,1-1.536.625m132.591-6.307a2.191,2.191,0,0,1-.949-.216,75.814,75.814,0,0,0-9.552-3.725,2.2,2.2,0,0,1,1.34-4.19,79.915,79.915,0,0,1,10.112,3.947,2.2,2.2,0,0,1-.952,4.185m-114.1-3.537a2.2,2.2,0,0,1-.69-4.29c3.2-1.058,6.693-2.026,10.37-2.877a2.2,2.2,0,0,1,.992,4.286c-3.548.821-6.906,1.752-9.982,2.768a2.193,2.193,0,0,1-.69.112m94.069-3.037a2.208,2.208,0,0,1-.482-.055c-3.247-.726-6.69-1.371-10.235-1.916a2.2,2.2,0,1,1,.669-4.348c3.641.56,7.184,1.223,10.527,1.97a2.2,2.2,0,0,1-.479,4.348m-73.525-1.8a2.2,2.2,0,0,1-.344-4.372c3.425-.545,6.99-1.007,10.6-1.372a2.2,2.2,0,0,1,.443,4.378c-3.527.356-7.009.807-10.35,1.338a2.132,2.132,0,0,1-.348.028m52.663-1.449c-.071,0-.142,0-.214-.011-3.405-.326-6.913-.573-10.424-.733a2.2,2.2,0,0,1,.2-4.394c3.585.163,7.167.414,10.646.749a2.2,2.2,0,0,1-.208,4.389m-31.658-.694a2.2,2.2,0,0,1-.107-4.4c3.5-.174,7.085-.267,10.662-.275h.005a2.2,2.2,0,0,1,.005,4.4c-3.508.008-7.026.1-10.455.269l-.111,0" transform="translate(-34.815 -383.483)" fill="#196442"/>
          <path id="Trazado_616164" data-name="Trazado 616164" d="M88.386,199.005a2.2,2.2,0,0,1-2.2-2.2V29.811a2.2,2.2,0,1,1,4.4,0V196.805a2.2,2.2,0,0,1-2.2,2.2" transform="translate(-44.347 -363.315)" fill="#6fd9fb"/>
          <path id="Trazado_616165" data-name="Trazado 616165" d="M157.739,31.512a12.731,12.731,0,0,0,.26-2.571C158,10.143,117.432,0,79.26,0S.521,10.143.521,28.941a12.8,12.8,0,0,0,.669,4.073H0V202.748H.884c4.065,16.874,42.289,25.942,78.376,25.942,38.171,0,78.739-10.143,78.739-28.942h-.26ZM27.2,14.3C41.053,9.618,59.542,7.04,79.26,7.04s38.207,2.578,52.061,7.26c12.3,4.156,19.638,9.63,19.638,14.641a5.542,5.542,0,0,1-.224,1.466H150.7v.135c-1.362,4.552-8.378,9.322-19.377,13.04-13.854,4.681-32.343,7.26-52.061,7.26S41.053,48.263,27.2,43.581C14.9,39.425,7.561,33.952,7.561,28.941S14.9,18.455,27.2,14.3m104.123,200.09c-13.854,4.681-32.343,7.26-52.061,7.26s-38.207-2.579-52.061-7.26c-12.3-4.156-19.639-9.629-19.639-14.642H7.04V41.039C20.012,52.05,50.322,57.881,79.26,57.881c28.371,0,58.062-5.605,71.439-16.2V200.139h.225c-.369,4.9-7.624,10.2-19.6,14.25" transform="translate(-34 -360)" fill="#196442"/>
        </g>
      </g>
    </g>
  </g>
</svg>
