<svg xmlns="http://www.w3.org/2000/svg" xmlns:xlink="http://www.w3.org/1999/xlink" width="70" height="70" viewBox="0 0 70 70">
  <defs>
    <clipPath id="clip-path">
      <rect id="Rect치ngulo_379289" data-name="Rect치ngulo 379289" width="44" height="44" transform="translate(274 971)" fill="#fff" stroke="#707070" stroke-width="1"/>
    </clipPath>
    <clipPath id="clip-path-2">
      <rect id="Rect치ngulo_379290" data-name="Rect치ngulo 379290" width="31.458" height="41" fill="#fff"/>
    </clipPath>
  </defs>
  <g id="img4" transform="translate(-597 -2115)">
    <g id="Grupo_1074451" data-name="Grupo 1074451" transform="translate(328 1157)">
      <circle id="Elipse_5614" data-name="Elipse 5614" cx="35" cy="35" r="35" transform="translate(269 958)" fill="#11462e"/>
    </g>
    <g id="Enmascarar_grupo_1074742" data-name="Enmascarar grupo 1074742" transform="translate(335 1157)" clip-path="url(#clip-path)">
      <g id="Grupo_1074480" data-name="Grupo 1074480" transform="translate(281 973)">
        <g id="Grupo_1074479" data-name="Grupo 1074479" clip-path="url(#clip-path-2)">
          <path id="Trazado_615979" data-name="Trazado 615979" d="M22.951,0V.248c0,2.3,0,4.592,0,6.888a1.228,1.228,0,0,0,.72,1.166.915.915,0,0,0,.39.074q3.573,0,7.147,0c.247,0,.247,0,.247.253q0,15.485,0,30.969A1.287,1.287,0,0,1,30.045,41H1.476A1.3,1.3,0,0,1,0,39.529q0-11.9,0-23.8Q0,8.57,0,1.416A1.526,1.526,0,0,1,.218.575,1.254,1.254,0,0,1,1.273,0c.067,0,.135,0,.2,0H22.951ZM15.994,16.864c.108.018.166.024.223.038a8.637,8.637,0,0,1,6.05,5.338,9.206,9.206,0,0,1,.5,2.1A1.181,1.181,0,0,0,24,25.4a1.2,1.2,0,0,0,1.183-1.39,11.063,11.063,0,0,0-.424-2.024,10.951,10.951,0,0,0-8.342-7.51c-.041-.008-.079-.025-.142-.045.158-.144.3-.27.444-.4a1.342,1.342,0,0,0,.3-1.357,1.22,1.22,0,0,0-1.62-.641,2,2,0,0,0-.385.247c-.851.741-1.686,1.5-2.546,2.229a1.284,1.284,0,0,0-.144,1.763c.8.938,1.573,1.9,2.369,2.835a1.222,1.222,0,0,0,1.451.344,1.2,1.2,0,0,0,.667-1.44,5.746,5.746,0,0,0-.524-.809,3.943,3.943,0,0,0-.3-.334M4.826,10.856q0,2.433,0,4.867a1.226,1.226,0,0,0,.275.8,1.2,1.2,0,0,0,1.373.4A1.241,1.241,0,0,0,7.289,15.7c0-1.077.006-2.154-.005-3.232a.407.407,0,0,1,.3-.47c.866-.339,1.716-.721,2.572-1.086.907-.387,1.816-.767,2.72-1.161a.969.969,0,0,0,.625-.725A1.224,1.224,0,0,0,12.72,7.5c-1.03-.442-2.062-.879-3.093-1.318S7.595,5.293,6.564,4.887A1.234,1.234,0,0,0,4.827,6.044q0,2.406,0,4.811M24.5,32.358c.231-.237.461-.472.691-.707.382-.389.79-.757,1.143-1.17a1.214,1.214,0,0,0-1.783-1.642c-.546.537-1.087,1.08-1.628,1.623-.188.188-.186.192-.369.01-.547-.545-1.085-1.1-1.642-1.634a1.2,1.2,0,0,0-1.678,0,1.161,1.161,0,0,0-.063,1.684,2.052,2.052,0,0,0,.177.187q.757.751,1.517,1.5a.83.83,0,0,0,.186.1c-.1.108-.147.158-.194.2-.537.529-1.077,1.055-1.609,1.589a1.206,1.206,0,0,0-.4.936,1.153,1.153,0,0,0,.768,1.075,1.2,1.2,0,0,0,1.29-.227c.571-.555,1.141-1.112,1.7-1.679.105-.106.151-.113.257-.007.558.56,1.118,1.119,1.691,1.664a1.306,1.306,0,0,0,1.386.221,1.192,1.192,0,0,0,.353-1.907c-.315-.358-.67-.681-1.007-1.021-.262-.265-.522-.531-.786-.8M10.25,31.419V31.4h.736c1.135,0,2.27.01,3.4.01a1.233,1.233,0,1,0-.04-2.463q-4.077,0-8.154.006a1.694,1.694,0,0,0-.673.153,1.182,1.182,0,0,0-.4,1.853,1.372,1.372,0,0,0,1.134.458c1.331,0,2.662,0,3.994,0m-1.88,4.752v-.018c.4,0,.81,0,1.215,0s.809.012,1.214.01a.85.85,0,0,0,.34-.054,1.2,1.2,0,0,0,.57-1.719,1.085,1.085,0,0,0-.954-.589c-1.6-.008-3.2-.012-4.8,0a1.171,1.171,0,0,0-1.123,1.2,1.187,1.187,0,0,0,1.149,1.17c.8-.022,1.594-.005,2.391-.005" transform="translate(0 0)" fill="#fff"/>
          <path id="Trazado_615980" data-name="Trazado 615980" d="M175.663,23.4H172.7V20.391l2.962,3.011" transform="translate(-147.253 -17.386)" fill="#fff"/>
          <path id="Trazado_615981" data-name="Trazado 615981" d="M51.459,54.02l-1.938.825V53.2l1.938.821" transform="translate(-42.224 -45.36)" fill="#fff"/>
        </g>
      </g>
    </g>
  </g>
</svg>
