<svg xmlns="http://www.w3.org/2000/svg" xmlns:xlink="http://www.w3.org/1999/xlink" width="576" height="261" viewBox="0 0 576 261">
  <defs>
    <clipPath id="clip-path">
      <rect id="Rectángulo_379386" data-name="Rectángulo 379386" width="240.945" height="238.404" fill="none"/>
    </clipPath>
  </defs>
  <g id="img45" transform="translate(-10032 4006)">
    <path id="Trazado_616167" data-name="Trazado 616167" d="M0,0H576V261H0Z" transform="translate(10032 -4006)" fill="#fff"/>
    <g id="Grupo_1074589" data-name="Grupo 1074589" transform="translate(-1480 1113.032)">
      <g id="Grupo_1074588" data-name="Grupo 1074588" transform="translate(11661.055 -5106.616)">
        <g id="Grupo_1074587" data-name="Grupo 1074587" clip-path="url(#clip-path)">
          <path id="Trazado_616168" data-name="Trazado 616168" d="M241.477,121.449c0,64.866-53.161,117.45-118.738,117.45S4,186.315,4,121.449,57.161,4,122.739,4s118.738,52.584,118.738,117.45" transform="translate(-2.266 -2.247)" fill="#c7e3d7"/>
          <path id="Trazado_616169" data-name="Trazado 616169" d="M120.473,238.4C54.044,238.4,0,184.93,0,119.2S54.044,0,120.473,0,240.944,53.474,240.944,119.2,186.9,238.4,120.473,238.4m0-231.468C57.869,6.936,6.936,57.3,6.936,119.2S57.869,231.468,120.473,231.468,234.008,181.106,234.008,119.2,183.076,6.936,120.473,6.936" fill="#196442"/>
          <path id="Trazado_616170" data-name="Trazado 616170" d="M120.739,174.842C54.156,174.842,2,158.431,2,137.479H5.468c0,18.373,52.788,33.895,115.27,33.895s115.269-15.522,115.269-33.895h3.468c0,20.952-52.156,37.363-118.738,37.363" transform="translate(-0.266 -18.277)" fill="#196442"/>
          <path id="Trazado_616171" data-name="Trazado 616171" d="M237.742,133.484a1.734,1.734,0,0,1-1.734-1.734c0-2.714-1.2-5.451-3.578-8.136a1.734,1.734,0,1,1,2.6-2.3c2.952,3.338,4.449,6.849,4.449,10.434a1.734,1.734,0,0,1-1.734,1.734m-234.009,0A1.734,1.734,0,0,1,2,131.75a14.426,14.426,0,0,1,2.537-7.944,1.734,1.734,0,1,1,2.9,1.9,11.018,11.018,0,0,0-1.972,6.045,1.734,1.734,0,0,1-1.734,1.734m9.658-14.2a1.734,1.734,0,0,1-1-3.153,62.983,62.983,0,0,1,9.293-5.279,1.734,1.734,0,0,1,1.477,3.138,59.812,59.812,0,0,0-8.78,4.981,1.725,1.725,0,0,1-.994.314M225.66,117.7a1.715,1.715,0,0,1-.907-.258,71.355,71.355,0,0,0-9.035-4.617,1.734,1.734,0,0,1,1.373-3.184,74.564,74.564,0,0,1,9.478,4.848,1.734,1.734,0,0,1-.91,3.211m-193.6-7.458a1.735,1.735,0,0,1-.578-3.37c3.126-1.1,6.505-2.162,10.047-3.145a1.735,1.735,0,0,1,.927,3.343c-3.465.96-6.767,1.993-9.817,3.071a1.707,1.707,0,0,1-.578.1m174.6-.937a1.747,1.747,0,0,1-.543-.088c-3.092-1.019-6.416-1.992-9.88-2.892a1.734,1.734,0,1,1,.872-3.356c3.535.919,6.931,1.913,10.093,2.954a1.735,1.735,0,0,1-.543,3.382M52.095,104.627a1.734,1.734,0,0,1-.372-3.427c3.3-.729,6.764-1.413,10.283-2.032a1.734,1.734,0,0,1,.6,3.416c-3.471.61-6.881,1.284-10.138,2a1.732,1.732,0,0,1-.375.041m134.45-.606a1.769,1.769,0,0,1-.354-.036c-3.261-.675-6.68-1.31-10.163-1.884a1.734,1.734,0,1,1,.564-3.422c3.529.583,7,1.225,10.3,1.911a1.734,1.734,0,0,1-.351,3.432M72.587,101a1.734,1.734,0,0,1-.234-3.452c3.381-.466,6.877-.886,10.391-1.251a1.734,1.734,0,1,1,.358,3.449c-3.476.361-6.933.778-10.276,1.238a1.712,1.712,0,0,1-.238.016m93.428-.381a1.612,1.612,0,0,1-.223-.015c-3.353-.428-6.816-.813-10.288-1.144a1.734,1.734,0,1,1,.328-3.453c3.511.334,7.01.724,10.4,1.158a1.734,1.734,0,0,1-.218,3.453m-72.725-1.78a1.734,1.734,0,0,1-.125-3.464c3.434-.251,6.947-.456,10.439-.612a1.734,1.734,0,1,1,.154,3.465c-3.46.154-6.939.358-10.341.607-.043,0-.086,0-.127,0m52-.2c-.038,0-.076,0-.114,0-3.426-.223-6.907-.4-10.345-.525a1.734,1.734,0,1,1,.125-3.466c3.473.127,6.987.305,10.445.53a1.734,1.734,0,0,1-.111,3.465m-31.209-.73a1.734,1.734,0,0,1-.029-3.468c3.456-.058,6.975-.07,10.451-.037a1.734,1.734,0,0,1,1.718,1.751,1.766,1.766,0,0,1-1.751,1.718c-3.447-.034-6.935-.021-10.36.037Z" transform="translate(-0.266 -12.549)" fill="#196442"/>
          <path id="Trazado_616172" data-name="Trazado 616172" d="M118.185,138.948h-10.4a1.734,1.734,0,1,1,0-3.468h10.4a1.734,1.734,0,0,1,0,3.468m-20.809,0h-10.4a1.734,1.734,0,1,1,0-3.468h10.4a1.734,1.734,0,0,1,0,3.468m-20.809,0h-10.4a1.734,1.734,0,0,1,0-3.468h10.4a1.734,1.734,0,0,1,0,3.468m-20.809,0h-10.4a1.734,1.734,0,0,1,0-3.468h10.4a1.734,1.734,0,0,1,0,3.468m-20.809,0h-10.4a1.734,1.734,0,0,1,0-3.468h10.4a1.734,1.734,0,0,1,0,3.468m-20.809,0H3.734a1.734,1.734,0,0,1,0-3.468h10.4a1.734,1.734,0,0,1,0,3.468" transform="translate(-0.266 -18.012)" fill="#96b8a9"/>
        </g>
      </g>
      <path id="Trazado_641867" data-name="Trazado 641867" d="M5.852-6.07l-.867-.062a1.558,1.558,0,0,0-1.594.781V0H.758V-8.453H3.227l.086,1.086A2.039,2.039,0,0,1,5.164-8.609a2.567,2.567,0,0,1,.734.094Z" transform="translate(11752.001 -4996.406)" fill="#2d4587"/>
    </g>
  </g>
</svg>
