<svg xmlns="http://www.w3.org/2000/svg" xmlns:xlink="http://www.w3.org/1999/xlink" width="394.637" height="550.939" viewBox="0 0 394.637 550.939">
  <defs>
    <clipPath id="clip-path">
      <path id="Trazado_616273" data-name="Trazado 616273" d="M.418-112.368H394.637l-.418,550.939H0Z" transform="translate(0 112.368)" fill="none"/>
    </clipPath>
    <clipPath id="clip-path-2">
      <rect id="Rectángulo_379486" data-name="Rectángulo 379486" width="394.218" height="550.939" fill="none"/>
    </clipPath>
    <clipPath id="clip-path-3">
      <rect id="Rectángulo_379439" data-name="Rectángulo 379439" width="61.787" height="44.053" fill="none"/>
    </clipPath>
    <clipPath id="clip-path-4">
      <rect id="Rectángulo_379440" data-name="Rectángulo 379440" width="40.009" height="50.524" fill="none"/>
    </clipPath>
    <clipPath id="clip-path-5">
      <rect id="Rectángulo_379441" data-name="Rectángulo 379441" width="203.65" height="207.88" fill="none"/>
    </clipPath>
    <clipPath id="clip-path-6">
      <rect id="Rectángulo_379442" data-name="Rectángulo 379442" width="108.322" height="83.083" fill="none"/>
    </clipPath>
    <clipPath id="clip-path-7">
      <rect id="Rectángulo_379445" data-name="Rectángulo 379445" width="77.348" height="75.431" fill="none"/>
    </clipPath>
    <clipPath id="clip-path-8">
      <rect id="Rectángulo_379446" data-name="Rectángulo 379446" width="81.115" height="94.778" fill="none"/>
    </clipPath>
    <clipPath id="clip-path-9">
      <rect id="Rectángulo_379484" data-name="Rectángulo 379484" width="31.457" height="42.267" fill="none"/>
    </clipPath>
    <clipPath id="clip-path-10">
      <rect id="Rectángulo_379489" data-name="Rectángulo 379489" width="263.596" height="420.063" transform="translate(0 0)" fill="none"/>
    </clipPath>
  </defs>
  <g id="img5" transform="translate(0 112.368)">
    <g id="Enmascarar_grupo_1074749" data-name="Enmascarar grupo 1074749" transform="translate(0 -112.368)" clip-path="url(#clip-path)">
      <g id="Grupo_1074646" data-name="Grupo 1074646" transform="translate(0 0)">
        <g id="Grupo_1074645" data-name="Grupo 1074645" clip-path="url(#clip-path-2)">
          <path id="Trazado_616173" data-name="Trazado 616173" d="M236.993,706.816S131.556,577.2,160.9,424.7s82.629,93.385,80.721-84.11S331.969,180.511,361.7,199.313c39.23,24.81,27.785,87.8,90.082,92.942,85.306,7.048,83.009,19.537,46.892,133.338-36.814,116,58.121,38.285,4.727,281.222Z" transform="translate(-125.891 -159.573)" fill="#d5ffed"/>
          <g id="Grupo_1074626" data-name="Grupo 1074626" transform="translate(313.647 259.719)" opacity="0.3">
            <g id="Grupo_1074625" data-name="Grupo 1074625">
              <g id="Grupo_1074624" data-name="Grupo 1074624" clip-path="url(#clip-path-3)">
                <path id="Trazado_616174" data-name="Trazado 616174" d="M1636.482,1203.479s19.468-47.179,54.4-43.889c0,0,6.775.758,7.365,9.814s-12.535,5.727-21.287,7.046-30.388,10.908-40.48,27.029" transform="translate(-1636.482 -1159.426)" fill="#aec3ff"/>
              </g>
            </g>
          </g>
          <g id="Grupo_1074629" data-name="Grupo 1074629" transform="translate(314.64 243.732)" opacity="0.3">
            <g id="Grupo_1074628" data-name="Grupo 1074628">
              <g id="Grupo_1074627" data-name="Grupo 1074627" clip-path="url(#clip-path-4)">
                <path id="Trazado_616175" data-name="Trazado 616175" d="M1641.662,1138.589s4.279-42.143,31.785-50.381c0,0,5.362-1.506,7.855,5.251s-8.312,8.248-14.721,11.954-20.823,17.716-24.92,33.176" transform="translate(-1641.662 -1088.064)" fill="#aec3ff"/>
              </g>
            </g>
          </g>
          <g id="Grupo_1074632" data-name="Grupo 1074632" transform="translate(0 311.675)" opacity="0.3">
            <g id="Grupo_1074631" data-name="Grupo 1074631">
              <g id="Grupo_1074630" data-name="Grupo 1074630" clip-path="url(#clip-path-5)">
                <path id="Trazado_616176" data-name="Trazado 616176" d="M136.553,1403.97s18.781,50.738,10.514,54.152-17.452-58.263-17.452-58.263-46.608-12.94-62.733-6.869c0,0,36.091,45.018,27.34,45.943s-48.154-43.9-48.154-43.9S1.175,1396.677.062,1428.318s12.956,43.731,19.7,43.971,47.576-10.823,47.721-4.328-25.578,23.506-42.089,21.837c0,0,26.566,44.834,48.42,36.649s25.626-26.131,39.212-30.9,24.537-2.99,18.469,3.131-30.038,9.157-39.049,23.117-16.723,23.112,4.986,22.8,58.334-12.912,62.154-33.484h0c4.334,1.637,12.49,12.631,18.328,21.174.883,1.482,2.218,3.5,4.145,6.22h0c.809,1.243,1.461,2.264,1.912,2.976,11.469,19.546,14.773,57.506,14.773,57.506l4.7.263c2.585-39.766-20.583-65.985-20.583-65.985-15.882-21.427-19.459-42.726-19.459-42.726s34.813-36.312,9.31-67.046c0,0-19.121-17.989-36.164-19.522" transform="translate(0 -1391.37)" fill="#aec3ff"/>
              </g>
            </g>
          </g>
          <g id="Grupo_1074635" data-name="Grupo 1074635" transform="translate(282.659 405.525)" opacity="0.3">
            <g id="Grupo_1074634" data-name="Grupo 1074634">
              <g id="Grupo_1074633" data-name="Grupo 1074633" clip-path="url(#clip-path-6)">
                <path id="Trazado_616177" data-name="Trazado 616177" d="M1581.1,1874.861c7.844-13.125-9.651-30.06-9.651-30.06s-27.48,3.741-30.733.2,22.954-8.563,22.954-8.563c-4.849-8.286-26.852-19.977-26.852-19.977s-19.826,21.47-22.234,17.1,18.386-17.963,18.386-17.963c-7.208-5.561-19.557-5.259-19.557-5.259-18.237,3.113-13.848,30.332-13.848,30.332A41.841,41.841,0,0,1,1480.6,1850.8h0a28.037,28.037,0,0,0-5.8,1.65l1.447,2.023q.872-.432,1.735-.762a.011.011,0,0,1,.01,0l.025-.009c.367-.122.889-.294,1.529-.5h.006c1.476-.392,2.538-.721,3.278-1l.006,0c4.569-1.319,10.705-2.782,12.864-1.869a5.559,5.559,0,0,1,.483-1.207c-.154.385-.315.786-.483,1.207-3.864,9.656,7.46,28,16.048,35.993s7.906,1.518,7.965-7.361-8.718-18.789-9.538-23.45,4.02-1.406,8.2,5.436.981,15.426,7.564,26.639,28.939,2.815,28.939,2.815c-7.032-5.313-12.847-21.476-11.088-24.036s15.167,16.69,17.924,19.038,11.543,2.587,19.387-10.539" transform="translate(-1474.802 -1810.334)" fill="#aec3ff"/>
              </g>
            </g>
          </g>
          <path id="Trazado_616178" data-name="Trazado 616178" d="M275.9,954.143l11.466,210.151-5.664.422c-.063,0-4.306-19.963-4.306-19.963L267.029,954.8Z" transform="translate(-215.85 -740.41)" fill="#aec3ff"/>
          <path id="Trazado_616179" data-name="Trazado 616179" d="M349.987,1892.91l2.71,13.409.615-13.657Z" transform="translate(-282.909 -1468.695)" fill="#0b0755"/>
          <path id="Trazado_616180" data-name="Trazado 616180" d="M331.384,1770.6c-.2-3.657,2.175-6.811,5.3-7.044s5.827,2.542,6.027,6.2-2.175,6.811-5.3,7.044-5.827-2.542-6.027-6.2" transform="translate(-267.861 -1368.502)" fill="#2d4587"/>
          <path id="Trazado_616181" data-name="Trazado 616181" d="M335.452,930.958l87.234,184.249,4.966-3.212c.055-.035-5.577-19.528-5.577-19.528L343.227,925.929Z" transform="translate(-271.16 -718.516)" fill="#aec3ff"/>
          <path id="Trazado_616182" data-name="Trazado 616182" d="M798.588,1759.677l3.9,13-6.815-11.117Z" transform="translate(-643.174 -1365.5)" fill="#0b0755"/>
          <path id="Trazado_616274" data-name="Trazado 616274" d="M1.024.229,4.359,0,3.336,16.166,0,16.4Z" transform="translate(130.041 332.283) rotate(-28.961)" fill="#f78248"/>
          <path id="Trazado_616275" data-name="Trazado 616275" d="M1.026.3,7.776,0,6.75,26.535l-6.75.3Z" transform="translate(48.311 175.336) rotate(-15.994)" fill="#0b0755"/>
          <path id="Trazado_616183" data-name="Trazado 616183" d="M279.791,882.369l-1.36,14.869,6.221,25.371-14.236,4.769-6.222-25.37-7.893-11.77c-1.858-7.575,1.893-15.48,8.374-17.651l.014,0c6.481-2.171,13.245,2.212,15.1,9.787" transform="translate(-206.794 -676.687)" fill="#196442"/>
          <path id="Trazado_616184" data-name="Trazado 616184" d="M301.805,921.519a4.021,4.021,0,0,1,2.285-4.817,3.3,3.3,0,0,1,4.121,2.671,4.021,4.021,0,0,1-2.285,4.817,3.3,3.3,0,0,1-4.121-2.671" transform="translate(-243.857 -711.238)" fill="#0b0755"/>
          <g id="Grupo_1074638" data-name="Grupo 1074638" transform="translate(63.402 285.441)" opacity="0.5">
            <g id="Grupo_1074637" data-name="Grupo 1074637">
              <g id="Grupo_1074636" data-name="Grupo 1074636" clip-path="url(#clip-path-7)">
                <path id="Trazado_616185" data-name="Trazado 616185" d="M724.852,1601.857h-2.257v-.967h1.43v-1.672h.827Z" transform="translate(-647.504 -1526.426)" fill="#aec3ff"/>
                <path id="Trazado_616186" data-name="Trazado 616186" d="M427.752,1607.65h-3.833v-.967h3.833Zm-7.666,0h-3.834v-.967h3.834Zm-7.667,0h-3.833v-.967h3.833Zm-7.667,0h-3.833v-.967h3.833Zm-7.666,0h-3.833v-.967h3.833Zm-7.667,0h-3.833v-.967h3.833Zm-7.666,0H377.92v-.967h3.834Zm-7.667,0h-3.833v-.967h3.833Zm-7.666,0h-3.833v-.967h3.833Z" transform="translate(-356.496 -1532.219)" fill="#aec3ff"/>
                <path id="Trazado_616187" data-name="Trazado 616187" d="M333.063,1601.857h-2.258v-2.639h.827v1.672h1.431Z" transform="translate(-330.805 -1526.426)" fill="#aec3ff"/>
                <path id="Trazado_616188" data-name="Trazado 616188" d="M331.632,1366.362h-.827v-4.126h.827Zm0-8.253h-.827v-4.127h.827Zm0-8.253h-.827v-4.127h.827Zm0-8.253h-.827v-4.127h.827Zm0-8.253h-.827v-4.127h.827Zm0-8.254h-.827v-4.127h.827Zm0-8.253h-.827v-4.127h.827Zm0-8.254h-.827v-4.126h.827Z" transform="translate(-330.805 -1297.697)" fill="#aec3ff"/>
                <path id="Trazado_616189" data-name="Trazado 616189" d="M331.633,1276.9h-.827v-2.639h2.258v.967h-1.431Z" transform="translate(-330.805 -1274.26)" fill="#aec3ff"/>
                <path id="Trazado_616190" data-name="Trazado 616190" d="M427.752,1275.227h-3.833v-.967h3.833Zm-7.666,0h-3.833v-.967h3.833Zm-7.667,0h-3.834v-.967h3.834Zm-7.667,0h-3.833v-.967h3.833Zm-7.666,0h-3.833v-.967h3.833Zm-7.667,0h-3.833v-.967h3.833Zm-7.666,0H377.92v-.967h3.833Zm-7.667,0h-3.834v-.967h3.834Zm-7.667,0h-3.833v-.967h3.833Z" transform="translate(-356.496 -1274.26)" fill="#aec3ff"/>
                <path id="Trazado_616191" data-name="Trazado 616191" d="M724.852,1276.9h-.827v-1.672h-1.43v-.967h2.257Z" transform="translate(-647.504 -1274.26)" fill="#aec3ff"/>
                <path id="Trazado_616192" data-name="Trazado 616192" d="M730.884,1366.363h-.828v-4.127h.828Zm0-8.254h-.828v-4.126h.828Zm0-8.253h-.828v-4.127h.828Zm0-8.253h-.828v-4.126h.828Zm0-8.253h-.828v-4.127h.828Zm0-8.254h-.828v-4.126h.828Zm0-8.253h-.828v-4.127h.828Zm0-8.254h-.828v-4.126h.828Z" transform="translate(-653.536 -1297.697)" fill="#aec3ff"/>
              </g>
            </g>
          </g>
          <g id="Grupo_1074641" data-name="Grupo 1074641" transform="translate(111.277 302.623)" opacity="0.5">
            <g id="Grupo_1074640" data-name="Grupo 1074640">
              <g id="Grupo_1074639" data-name="Grupo 1074639" clip-path="url(#clip-path-8)">
                <path id="Trazado_616193" data-name="Trazado 616193" d="M621.116,1445.736a35.347,35.347,0,0,1-4.147-.25l.094-1.071a34.533,34.533,0,0,0,4.054.244Zm4.148-.241-.092-1.072a34.425,34.425,0,0,0,4.013-.716l.186,1.055a35.114,35.114,0,0,1-4.106.733m-12.4-.75a35.784,35.784,0,0,1-4.019-1.232l.279-1.027a35.164,35.164,0,0,0,3.927,1.2Zm20.528-1.2-.278-1.027a36.1,36.1,0,0,0,3.8-1.662l.366.989a37,37,0,0,1-3.892,1.7m-28.437-1.737a38.592,38.592,0,0,1-3.719-2.168l.453-.939a37.651,37.651,0,0,0,3.633,2.119ZM641,1439.68l-.452-.939a39.573,39.573,0,0,0,3.432-2.534l.532.88A40.629,40.629,0,0,1,641,1439.68m-43.276-2.646a42.553,42.553,0,0,1-3.262-3.007l.607-.811a41.475,41.475,0,0,0,3.188,2.938Zm50.055-2.945-.606-.813a43.524,43.524,0,0,0,2.921-3.3l.674.736a44.885,44.885,0,0,1-2.989,3.372m-56.3-3.44c-.942-1.181-1.842-2.431-2.675-3.716l.736-.65c.813,1.256,1.693,2.478,2.613,3.631Zm61.971-3.642-.733-.652c.817-1.256,1.588-2.575,2.29-3.92l.786.562c-.718,1.376-1.507,2.725-2.343,4.01m-66.982-4.088c-.716-1.379-1.38-2.816-1.972-4.273l.832-.462c.579,1.423,1.227,2.828,1.928,4.176Zm71.305-4.192-.832-.464c.581-1.424,1.106-2.9,1.558-4.383l.868.361c-.463,1.519-1,3.028-1.595,4.485m-74.865-4.569c-.461-1.52-.858-3.086-1.182-4.655l.9-.253c.317,1.533.706,3.064,1.156,4.548Zm77.65-4.569-.9-.255c.319-1.531.573-3.1.756-4.662l.913.146c-.187,1.6-.448,3.2-.774,4.77m-79.6-4.858c-.184-1.595-.3-3.222-.345-4.838l.921-.035c.044,1.579.157,3.17.337,4.729Zm80.725-4.749-.921-.037q.024-.8.023-1.611c0-1.045-.03-2.1-.089-3.134l.92-.071c.06,1.058.091,2.137.091,3.206,0,.545-.008,1.1-.024,1.649m-80.169-1.649H580.6c0-1.618.07-3.249.209-4.848l.917.109c-.135,1.563-.2,3.157-.2,4.739m78.706-7.846c-.227-1.554-.526-3.112-.888-4.63l.888-.29c.371,1.553.676,3.147.908,4.738Zm-77.884-1.583-.9-.218c.279-1.581.633-3.162,1.05-4.7l.879.326c-.408,1.5-.753,3.046-1.026,4.591m75.705-7.545c-.494-1.465-1.06-2.918-1.681-4.32l.819-.5c.636,1.434,1.215,2.921,1.72,4.421Zm-73.254-1.49-.845-.43c.55-1.478,1.173-2.941,1.851-4.348l.8.53c-.663,1.374-1.272,2.8-1.809,4.248m69.522-6.924c-.739-1.317-1.546-2.6-2.4-3.829l.715-.68c.872,1.253,1.7,2.571,2.454,3.917Zm-65.54-1.334-.753-.622c.8-1.315,1.661-2.6,2.57-3.816l.694.708c-.888,1.19-1.733,2.445-2.511,3.73m60.422-6.019a43.077,43.077,0,0,0-3.013-3.183l.583-.835a44.054,44.054,0,0,1,3.082,3.256Zm-55.088-1.123-.629-.787a43.066,43.066,0,0,1,3.177-3.129l.556.858a42.342,42.342,0,0,0-3.1,3.058m48.8-4.867a39.045,39.045,0,0,0-3.5-2.4l.425-.956a39.945,39.945,0,0,1,3.583,2.458Zm-42.342-.863-.48-.92a39.116,39.116,0,0,1,3.654-2.309l.4.973a38.227,38.227,0,0,0-3.57,2.257m35.145-3.507a35.863,35.863,0,0,0-3.848-1.514l.249-1.037a36.63,36.63,0,0,1,3.938,1.549Zm-27.825-.566-.308-1.015a36.272,36.272,0,0,1,3.981-1.387l.218,1.047a35.621,35.621,0,0,0-3.891,1.355m20.016-1.99a34.333,34.333,0,0,0-4.031-.562l.063-1.075a35.234,35.234,0,0,1,4.125.575Zm-12.136-.245-.124-1.067a35.312,35.312,0,0,1,4.138-.408l.031,1.077a34.494,34.494,0,0,0-4.045.4" transform="translate(-580.596 -1350.958)" fill="#aec3ff"/>
              </g>
            </g>
          </g>
          <path id="Trazado_616194" data-name="Trazado 616194" d="M70.313,2044.627,35.482,1980.9l70.338-52.517Z" transform="translate(-28.682 -1496.415)" fill="#aec3ff"/>
          <path id="Trazado_616195" data-name="Trazado 616195" d="M134.484,2130.1l-15.74-28.8,31.786-23.731Z" transform="translate(-95.985 -1612.181)" fill="#ebf3fa"/>
          <path id="Trazado_616276" data-name="Trazado 616276" d="M.362.028.751,0,.389,5.293,0,5.321Z" transform="translate(11.372 482.605) rotate(-32.565)" fill="#060633"/>
          <path id="Trazado_616277" data-name="Trazado 616277" d="M.213.028.6,0,.389,3.113,0,3.142Z" transform="translate(13.333 481.155) rotate(-32.565)" fill="#060633"/>
          <path id="Trazado_616278" data-name="Trazado 616278" d="M.213.028.6,0,.389,3.113,0,3.142Z" transform="translate(14.875 480.004) rotate(-32.565)" fill="#060633"/>
          <path id="Trazado_616279" data-name="Trazado 616279" d="M.213.028.6,0,.389,3.113,0,3.142Z" transform="translate(16.34 478.91) rotate(-32.565)" fill="#060633"/>
          <path id="Trazado_616280" data-name="Trazado 616280" d="M.213.028.6,0,.389,3.113,0,3.142Z" transform="translate(17.694 477.9) rotate(-32.565)" fill="#060633"/>
          <path id="Trazado_616281" data-name="Trazado 616281" d="M.213.028.6,0,.389,3.113,0,3.142Z" transform="translate(19.203 476.772) rotate(-32.565)" fill="#060633"/>
          <path id="Trazado_616282" data-name="Trazado 616282" d="M.362.028.751,0,.389,5.293,0,5.321Z" transform="translate(20.588 475.725) rotate(-32.565)" fill="#060633"/>
          <path id="Trazado_616283" data-name="Trazado 616283" d="M.213.028.6,0,.389,3.113,0,3.142Z" transform="translate(22.548 474.275) rotate(-32.565)" fill="#060633"/>
          <path id="Trazado_616284" data-name="Trazado 616284" d="M.213.028.6,0,.389,3.113,0,3.142Z" transform="translate(24.091 473.123) rotate(-32.565)" fill="#060633"/>
          <path id="Trazado_616285" data-name="Trazado 616285" d="M.213.028.6,0,.389,3.113,0,3.142Z" transform="matrix(0.843, -0.539, 0.539, 0.843, 25.555, 472.031)" fill="#060633"/>
          <path id="Trazado_616286" data-name="Trazado 616286" d="M.213.028.6,0,.389,3.113,0,3.142Z" transform="translate(26.909 471.019) rotate(-32.565)" fill="#060633"/>
          <path id="Trazado_616287" data-name="Trazado 616287" d="M.213.028.6,0,.389,3.113,0,3.142Z" transform="translate(28.418 469.892) rotate(-32.565)" fill="#060633"/>
          <path id="Trazado_616288" data-name="Trazado 616288" d="M.362.028.751,0,.389,5.292,0,5.321Z" transform="matrix(0.843, -0.539, 0.539, 0.843, 30.381, 468.413)" fill="#060633"/>
          <path id="Trazado_616289" data-name="Trazado 616289" d="M.213.028.6,0,.389,3.113,0,3.142Z" transform="translate(32.343 466.962) rotate(-32.565)" fill="#060633"/>
          <path id="Trazado_616290" data-name="Trazado 616290" d="M.213.028.6,0,.389,3.113,0,3.142Z" transform="translate(33.885 465.81) rotate(-32.565)" fill="#060633"/>
          <path id="Trazado_616291" data-name="Trazado 616291" d="M.213.028.6,0,.389,3.113,0,3.142Z" transform="translate(35.35 464.717) rotate(-32.565)" fill="#060633"/>
          <path id="Trazado_616292" data-name="Trazado 616292" d="M.213.028.6,0,.389,3.113,0,3.142Z" transform="translate(36.703 463.707) rotate(-32.565)" fill="#060633"/>
          <path id="Trazado_616293" data-name="Trazado 616293" d="M.213.028.6,0,.389,3.113,0,3.141Z" transform="matrix(0.843, -0.539, 0.539, 0.843, 38.212, 462.58)" fill="#060633"/>
          <path id="Trazado_616294" data-name="Trazado 616294" d="M.362.028.751,0,.389,5.293,0,5.321Z" transform="translate(39.597 461.532) rotate(-32.565)" fill="#060633"/>
          <path id="Trazado_616295" data-name="Trazado 616295" d="M.213.028.6,0,.389,3.113,0,3.142Z" transform="translate(41.558 460.082) rotate(-32.565)" fill="#060633"/>
          <path id="Trazado_616296" data-name="Trazado 616296" d="M.213.028.6,0,.389,3.113,0,3.142Z" transform="translate(43.101 458.93) rotate(-32.565)" fill="#060633"/>
          <path id="Trazado_616297" data-name="Trazado 616297" d="M.213.028.6,0,.389,3.113,0,3.142Z" transform="translate(44.565 457.837) rotate(-32.565)" fill="#060633"/>
          <path id="Trazado_616298" data-name="Trazado 616298" d="M.213.028.6,0,.389,3.113,0,3.142Z" transform="translate(45.918 456.826) rotate(-32.565)" fill="#060633"/>
          <path id="Trazado_616299" data-name="Trazado 616299" d="M.213.028.6,0,.389,3.113,0,3.142Z" transform="translate(47.428 455.699) rotate(-32.565)" fill="#060633"/>
          <path id="Trazado_616300" data-name="Trazado 616300" d="M.362.028.751,0,.389,5.293,0,5.321Z" transform="translate(49.223 454.345) rotate(-32.565)" fill="#060633"/>
          <path id="Trazado_616301" data-name="Trazado 616301" d="M.213.028.6,0,.389,3.113,0,3.142Z" transform="translate(51.183 452.895) rotate(-32.565)" fill="#060633"/>
          <path id="Trazado_616302" data-name="Trazado 616302" d="M.213.028.6,0,.389,3.113,0,3.142Z" transform="translate(52.726 451.744) rotate(-32.565)" fill="#060633"/>
          <path id="Trazado_616303" data-name="Trazado 616303" d="M.213.028.6,0,.389,3.113,0,3.141Z" transform="matrix(0.843, -0.539, 0.539, 0.843, 54.19, 450.651)" fill="#060633"/>
          <path id="Trazado_616304" data-name="Trazado 616304" d="M.213.028.6,0,.389,3.113,0,3.142Z" transform="translate(55.544 449.64) rotate(-32.565)" fill="#060633"/>
          <path id="Trazado_616305" data-name="Trazado 616305" d="M.213.028.6,0,.389,3.113,0,3.142Z" transform="translate(57.054 448.512) rotate(-32.565)" fill="#060633"/>
          <path id="Trazado_616306" data-name="Trazado 616306" d="M.362.028.751,0,.389,5.293,0,5.321Z" transform="translate(58.438 447.465) rotate(-32.565)" fill="#060633"/>
          <path id="Trazado_616307" data-name="Trazado 616307" d="M.213.028.6,0,.389,3.113,0,3.142Z" transform="translate(60.399 446.015) rotate(-32.565)" fill="#060633"/>
          <path id="Trazado_616308" data-name="Trazado 616308" d="M.213.028.6,0,.389,3.113,0,3.142Z" transform="translate(61.941 444.863) rotate(-32.565)" fill="#060633"/>
          <path id="Trazado_616309" data-name="Trazado 616309" d="M.213.028.6,0,.389,3.113,0,3.142Z" transform="translate(63.405 443.77) rotate(-32.565)" fill="#060633"/>
          <path id="Trazado_616310" data-name="Trazado 616310" d="M.213.028.6,0,.389,3.113,0,3.141Z" transform="matrix(0.843, -0.539, 0.539, 0.843, 64.758, 442.76)" fill="#060633"/>
          <path id="Trazado_616311" data-name="Trazado 616311" d="M.213.028.6,0,.389,3.113,0,3.142Z" transform="translate(66.269 441.632) rotate(-32.565)" fill="#060633"/>
          <path id="Trazado_616312" data-name="Trazado 616312" d="M.362.028.751,0,.389,5.293,0,5.321Z" transform="translate(68.232 440.152) rotate(-32.565)" fill="#060633"/>
          <g id="Grupo_1074651" data-name="Grupo 1074651" transform="translate(323.91 228.376)">
            <path id="Trazado_616196" data-name="Trazado 616196" d="M905.628,1290.9s.263-15.028,13.121-16.868,37.393-.766,37.393-.766v8.661s-27.852-.293-37.131,0c-3.856.122-8.528.539-13.383,8.973" transform="translate(-905.628 -1272.954)" fill="#196442"/>
            <path id="Trazado_616197" data-name="Trazado 616197" d="M941.215,1305.605s-1.05,44.778-6.823,48.458-13.47-.818-9.1-9.405,7-9,8.572-19.015a147.364,147.364,0,0,0,1.574-20.038Z" transform="translate(-920.484 -1298.291)" fill="#196442"/>
            <path id="Trazado_616198" data-name="Trazado 616198" d="M1061.72,1299.939s-4.024,30.67-2.625,39.053,7.873,12.676,14.345,8.178a10.306,10.306,0,0,0,4.549-11.041s-5.276,4.907-9.461,1.227-2.085-39.053-2.085-39.053Z" transform="translate(-1029.443 -1292.625)" fill="#196442"/>
          </g>
          <path id="Trazado_616200" data-name="Trazado 616200" d="M1408.961,736.531h-.621l0-.626c.8,0,1.594,0,2.385-.01l.006.627q-.883.011-1.772.011m-3.014-.032c-.8-.017-1.6-.041-2.394-.071l.018-.626c.785.03,1.588.054,2.385.071Zm7.18-.029-.014-.626c.795-.023,1.6-.054,2.385-.09l.021.626c-.79.037-1.6.068-2.393.091m-11.966-.154c-.8-.044-1.6-.1-2.39-.154l.034-.625c.788.058,1.589.11,2.382.154Zm16.75-.069-.029-.626c.8-.051,1.6-.11,2.382-.174l.037.625c-.787.065-1.591.124-2.39.175m-21.529-.284c-.8-.073-1.6-.154-2.385-.242l.051-.623c.781.087,1.581.168,2.377.241Zm26.305-.111-.046-.624c.793-.08,1.592-.169,2.375-.263l.055.623c-.786.095-1.588.183-2.384.264m-31.073-.42c-.794-.1-1.594-.217-2.377-.337l.069-.621c.78.119,1.577.232,2.368.335Zm35.837-.156-.064-.622c.792-.112,1.589-.233,2.366-.359l.074.62c-.78.127-1.579.248-2.375.361m-40.586-.568c-.8-.139-1.591-.287-2.365-.441l.089-.618c.771.153,1.564.3,2.355.439Zm45.33-.205-.084-.618c.79-.147,1.581-.3,2.351-.466l.1.616c-.774.163-1.569.32-2.362.468m-50.053-.734c-.792-.178-1.582-.366-2.348-.56l.113-.612c.762.193,1.548.38,2.336.557Zm54.769-.261-.107-.614c.788-.187,1.571-.385,2.33-.588l.119.61c-.763.2-1.551.4-2.343.592m-59.453-.926c-.79-.225-1.572-.462-2.321-.7l.142-.6c.745.239,1.521.474,2.306.7Zm64.126-.328-.134-.606c.782-.236,1.555-.484,2.3-.736l.15.6c-.747.254-1.525.5-2.313.741m-68.75-1.16c-.784-.284-1.55-.58-2.279-.881l.178-.591c.723.3,1.483.592,2.259.874Zm73.355-.411-.168-.595c.772-.3,1.527-.609,2.244-.924l.189.586c-.723.319-1.485.633-2.264.933m-77.88-1.465c-.769-.364-1.509-.744-2.2-1.129l.23-.566c.684.379,1.416.754,2.174,1.115Zm82.373-.524-.214-.574c.754-.385,1.475-.785,2.143-1.188l.246.557c-.678.409-1.41.815-2.175,1.206m-86.713-1.9a23.444,23.444,0,0,1-2.037-1.516l.312-.509a22.83,22.83,0,0,0,1.99,1.481Zm90.984-.7-.286-.53a19.57,19.57,0,0,0,1.913-1.6l.34.484a20.1,20.1,0,0,1-1.967,1.647m-94.887-2.632a11.427,11.427,0,0,1-1.535-2.223l.459-.324a10.78,10.78,0,0,0,1.452,2.1Zm98.589-1.011-.413-.4a8.907,8.907,0,0,0,1.183-2.285l.5.228a9.546,9.546,0,0,1-1.269,2.455m-100.99-3.911a7.4,7.4,0,0,1-.06-.933,7.617,7.617,0,0,1,.551-2.813l.486.263a6.914,6.914,0,0,0-.5,2.55,6.638,6.638,0,0,0,.054.84Zm102.105-1.355a7.142,7.142,0,0,0-.654-2.516l.473-.3a7.843,7.843,0,0,1,.715,2.764Zm-99.846-4.352-.4-.416a14.825,14.825,0,0,1,1.783-1.931l.331.493a14.24,14.24,0,0,0-1.714,1.855m97.82-.324a15.139,15.139,0,0,0-1.76-1.8l.321-.5a15.653,15.653,0,0,1,1.827,1.87Zm-94.165-3.09-.279-.535c.648-.462,1.359-.92,2.111-1.361l.24.56c-.739.434-1.436.883-2.072,1.336m90.438-.23c-.643-.443-1.345-.882-2.088-1.305l.235-.563c.755.431,1.47.878,2.124,1.329ZM1367.8,706.92l-.209-.577c.707-.352,1.459-.7,2.234-1.034l.186.588c-.767.331-1.51.675-2.21,1.023m81.96-.175c-.7-.341-1.449-.679-2.217-1l.182-.589c.776.327,1.53.669,2.241,1.014Zm-77.5-1.756-.165-.6c.74-.28,1.512-.554,2.3-.815l.147.6c-.778.259-1.544.532-2.278.809m73.03-.137c-.735-.272-1.5-.539-2.282-.795l.145-.6c.786.257,1.56.526,2.3.8Zm-68.451-1.395-.131-.607c.758-.225,1.543-.443,2.332-.65l.117.611c-.784.206-1.564.423-2.318.646m63.866-.11c-.755-.219-1.536-.432-2.321-.635l.116-.612c.79.2,1.575.419,2.334.639Zm-59.216-1.115-.1-.614c.768-.179,1.56-.354,2.355-.518l.093.617c-.79.163-1.579.337-2.343.515m54.561-.088c-.765-.176-1.554-.345-2.345-.506l.091-.617c.794.161,1.587.332,2.356.508Zm-49.866-.885-.082-.619c.777-.142,1.575-.278,2.37-.4l.073.62c-.792.126-1.586.262-2.36.4m45.167-.069c-.773-.138-1.567-.27-2.361-.393l.071-.621c.8.124,1.595.257,2.371.4Zm-40.441-.685-.062-.622c.786-.108,1.588-.211,2.38-.3l.054.623c-.79.093-1.588.195-2.371.3m35.713-.052c-.783-.105-1.581-.2-2.372-.295l.052-.623c.794.091,1.6.19,2.381.3Zm-30.965-.507-.046-.624c.788-.077,1.591-.148,2.388-.212l.036.625c-.793.063-1.594.134-2.378.211m26.216-.037c-.784-.074-1.584-.143-2.379-.2l.035-.625c.8.061,1.6.13,2.388.2Zm-21.456-.342-.028-.625c.787-.049,1.591-.091,2.391-.126l.02.626c-.8.035-1.6.078-2.384.125m16.695-.023c-.786-.046-1.589-.086-2.384-.119l.019-.626c.8.032,1.6.073,2.392.119Zm-11.926-.186-.012-.626c.791-.021,1.6-.036,2.393-.044l0,.626c-.794.008-1.6.023-2.386.044m7.157-.01c-.787-.019-1.589-.031-2.386-.037l0-.626c.8.005,1.6.018,2.394.037Z" transform="translate(-1097.406 -542.177)" fill="#aec3ff"/>
          <path id="Trazado_616202" data-name="Trazado 616202" d="M1461.182,782.62h-.218v-.431h.218Zm-1.862,0h-1.644v-.431h1.644Zm-3.289,0h-1.644v-.431h1.644Zm-3.289,0H1451.1v-.431h1.645Zm-3.289,0h-1.644v-.431h1.644Zm-3.289,0h-1.644v-.431h1.644Zm-3.289,0h-1.645v-.431h1.645Zm-3.289,0h-1.645v-.431h1.645Zm-3.289,0h-1.644v-.431h1.644Zm-3.289,0h-1.645v-.431h1.645Zm-3.289,0h-1.644v-.431h1.644Zm-3.289,0h-1.645v-.431h1.645Zm-3.289,0H1421.5v-.431h1.644Zm-3.289,0h-1.644v-.431h1.644Zm-3.289,0h-1.644v-.431h1.644Zm-3.289,0h-1.645v-.431h1.645Zm-3.289,0h-1.645v-.431h1.645Zm-3.29,0h-1.644v-.431h1.644Zm-3.289,0h-1.645v-.431h1.645Zm-3.289,0h-1.645v-.431h1.645Zm-3.289,0h-1.644v-.431h1.644Zm-3.289,0h-1.644v-.431h1.644Zm-3.289,0H1388.6v-.431h1.645Zm-3.289,0h-1.645v-.431h1.645Zm-3.289,0h-1.644v-.431h1.644Zm-3.289,0h-1.645v-.431h1.645Zm-3.289,0h-1.645v-.431h1.645Zm-3.289,0h-1.644v-.431h1.644Zm-3.289,0h-1.645v-.431h1.645Zm-3.289,0h-1.645v-.431h1.645Zm-3.289,0h-1.644v-.431h1.644Zm-3.289,0H1359v-.431h1.644Z" transform="translate(-1098.538 -606.974)" fill="#aec3ff"/>
          <path id="Trazado_616203" data-name="Trazado 616203" d="M1624.972,636.01h-.369v-.255h.369Zm0-2.177h-.369v-1.922h.369Zm0-3.844h-.369v-1.922h.369Zm0-3.844h-.369v-1.922h.369Zm0-3.844h-.369v-1.922h.369Zm0-3.844h-.369v-1.922h.369Zm0-3.844h-.369v-1.922h.369Zm0-3.844h-.369v-1.922h.369Zm0-3.844h-.369V605h.369Zm0-3.844h-.369v-1.922h.369Zm0-3.845h-.369v-1.922h.369Zm0-3.844h-.369V593.47h.369Zm0-3.844h-.369v-1.922h.369Zm0-3.844h-.369v-1.922h.369Zm0-3.844h-.369v-1.922h.369Zm0-3.844h-.369v-1.922h.369Zm0-3.844h-.369v-1.922h.369Zm0-3.844h-.369v-1.922h.369Zm0-3.844h-.369v-1.922h.369Zm0-3.844h-.369v-1.922h.369Zm0-3.844h-.369v-1.922h.369Zm0-3.844h-.369v-1.922h.369Zm0-3.844h-.369v-1.922h.369Zm0-3.844h-.369V547.34h.369Zm0-3.844h-.369V543.5h.369Zm0-3.844h-.369v-1.922h.369Zm0-3.845h-.369v-1.922h.369Zm0-3.844h-.369v-1.922h.369Zm0-3.844h-.369V528.12h.369Zm0-3.844h-.369v-1.922h.369Zm0-3.844h-.369v-1.922h.369Zm0-3.844h-.369v-1.922h.369Z" transform="translate(-1313.232 -400.868)" fill="#aec3ff"/>
          <g id="Grupo_1074644" data-name="Grupo 1074644" transform="translate(315.544 346.194)" opacity="0.5">
            <g id="Grupo_1074643" data-name="Grupo 1074643">
              <g id="Grupo_1074642" data-name="Grupo 1074642" clip-path="url(#clip-path-9)">
                <path id="Trazado_616204" data-name="Trazado 616204" d="M1663.056,1576.771l-16.677-5.493.279-6.614,24.84-19.194,6.339,2.088-5.9,24.449,4.583,1.51-1.718,7.124-4.584-1.51-2.075,8.605-7.168-2.361Zm1.718-7.124,3-12.424-12.065,9.437Z" transform="translate(-1646.379 -1545.47)" fill="#aec3ff"/>
              </g>
            </g>
          </g>
          <path id="Trazado_616205" data-name="Trazado 616205" d="M467.724,0,477.76,22.582l-50.45,21.893,7.641,20.831a63.438,63.438,0,0,1,14.683-8.767c23.024-9.991,46.383-6.957,58.278,19.809,11,24.759.215,48.2-27.041,60.026-18.96,8.228-35.816,7.561-52.161,1.682l7.492-25.4c12.541,4.136,23.426,5,33.922.446,12.189-5.29,17.2-14.451,12.447-25.157-4.461-10.038-15.7-12.146-28.055-6.783A55.548,55.548,0,0,0,436.644,94.1l-19.453-3.332L394.928,31.588Z" transform="translate(-142.177 29.413)" fill="#6fd9fb"/>
          <path id="Trazado_616206" data-name="Trazado 616206" d="M358.859,1094.462l40.539-46c19.706,20.161,37.11,30.489,62.315,33.492,36.738,4.377,59.687-21.129,68.729-60.891-16,10.694-37.038,16.442-63.1,13.337-64.932-7.735-102.534-48.71-95.227-110.4,7.155-60.406,59-99.415,126.492-91.374,40.156,4.784,62.484,17.437,82.435,42.84,18.822,23.966,29.063,58.2,21.958,118.183-11.519,97.251-65.094,158.209-150.1,148.082-43.573-5.191-71.323-23.269-94.041-47.264m182.3-152.935c3.146-26.562-14.221-48.182-47.114-52.1-32.467-3.868-53.068,12.794-56.316,40.213-3.146,26.562,14.322,47.324,46.788,51.192s53.5-12.743,56.642-39.3" transform="translate(-293.456 -628.125)" fill="#a7b9e8"/>
          <path id="Trazado_616207" data-name="Trazado 616207" d="M761.454,2159.952H658.907v-42.79H761.638c4.474,0,8.1,4.24,8.1,9.469v23.639c0,5.348-3.709,9.682-8.285,9.682" transform="translate(-532.621 -1642.906)" fill="#fcecdb"/>
          <path id="Trazado_616208" data-name="Trazado 616208" d="M830.715,2134.766v6.438a22.306,22.306,0,0,1-2.032,9.429c-2.6,5.573-7.426,9.318-12.955,9.318H634.253a2.492,2.492,0,0,1-2.174-2.718v-.964a2.492,2.492,0,0,1,2.174-2.718H744.878a18.425,18.425,0,0,0,1.553-2.919,20.968,20.968,0,0,0,1.621-8.18v-8.184a21.116,21.116,0,0,0-.448-4.354,19,19,0,0,0-2.565-6.354H634.253a2.493,2.493,0,0,1-2.174-2.719v-.962a2.492,2.492,0,0,1,2.174-2.719H816.642c6.427,0,11.848,5.39,13.531,12.754a21.7,21.7,0,0,1,.543,4.851" transform="translate(-510.935 -1642.905)" fill="#699dee"/>
          <path id="Trazado_616209" data-name="Trazado 616209" d="M830.172,2129.916H747.6a18.986,18.986,0,0,0-2.565-6.354H634.253a2.493,2.493,0,0,1-2.174-2.72v-.961a2.492,2.492,0,0,1,2.174-2.719H816.642c6.427,0,11.848,5.39,13.531,12.755" transform="translate(-510.935 -1642.905)" fill="#548ee2"/>
          <path id="Trazado_616210" data-name="Trazado 616210" d="M658.907,2212.675l13.437.719-13.437.434Z" transform="translate(-532.621 -1717.024)" fill="#f4d2b8"/>
          <path id="Trazado_616211" data-name="Trazado 616211" d="M658.907,2242.647l31.968.719-31.968.434Z" transform="translate(-532.621 -1740.282)" fill="#f4d2b8"/>
          <path id="Trazado_616212" data-name="Trazado 616212" d="M764.369,2341.069H864.805v-33.284H763.892c-4.058,0-7.347,3.845-7.347,8.588v15.552c0,5.051,3.5,9.145,7.824,9.145" transform="translate(-611.546 -1790.828)" fill="#505aba"/>
          <path id="Trazado_616213" data-name="Trazado 616213" d="M1235.642,2341.069h113.513v-33.284H1235.472c-4.126,0-7.47,3.909-7.47,8.731v15.624c0,4.931,3.42,8.929,7.64,8.929" transform="translate(-992.644 -1790.828)" fill="#fcecdb"/>
          <path id="Trazado_616214" data-name="Trazado 616214" d="M1181.633,2439.124h133.609a1.241,1.241,0,0,0,1.134-1.326v-2.326a1.242,1.242,0,0,0-1.134-1.326H1181.633a1.241,1.241,0,0,0-1.134,1.326v2.326a1.241,1.241,0,0,0,1.134,1.326" transform="translate(-954.245 -1888.885)" fill="#505aba"/>
          <path id="Trazado_616215" data-name="Trazado 616215" d="M1181.633,2312.764h133.609a1.242,1.242,0,0,0,1.134-1.327v-2.326a1.242,1.242,0,0,0-1.134-1.326H1181.633a1.242,1.242,0,0,0-1.134,1.326v2.326a1.242,1.242,0,0,0,1.134,1.327" transform="translate(-954.245 -1790.828)" fill="#505aba"/>
          <path id="Trazado_616216" data-name="Trazado 616216" d="M1798.18,2382.077l-14.688.559,14.688.337Z" transform="translate(-1441.668 -1848.478)" fill="#f4d2b8"/>
          <path id="Trazado_616217" data-name="Trazado 616217" d="M1712.747,2347.884l-34.945.559,34.945.337Z" transform="translate(-1356.235 -1821.945)" fill="#f4d2b8"/>
          <path id="Trazado_616218" data-name="Trazado 616218" d="M1679.68,2349.883a7.909,7.909,0,0,1,1.993,3.781,7.176,7.176,0,0,1,.155,1.315c.083,3.124,0,10.191,0,10.191l4.421-3.534,4.41,3.534v-9.581a9.532,9.532,0,0,0-1.081-4.727c-.341-.558-.754-.98-1.222-.98Z" transform="translate(-1357.753 -1823.496)" fill="#a7b9e8"/>
          <path id="Trazado_616219" data-name="Trazado 616219" d="M1679.68,2349.883a7.909,7.909,0,0,1,1.993,3.781l8.86.139s-.348-3.365-2.176-3.92Z" transform="translate(-1357.753 -1823.496)" fill="#768bc1"/>
          <path id="Trazado_616220" data-name="Trazado 616220" d="M819.97,1948.162H711.4v-48.9H820.172c4.929,0,8.925,4.67,8.925,10.431v27.8c0,5.891-4.086,10.668-9.127,10.668" transform="translate(-575.054 -1473.816)" fill="#fcecdb"/>
          <path id="Trazado_616221" data-name="Trazado 616221" d="M806.13,1918.24v10.524a13.041,13.041,0,0,1-4.8,10.48,7.992,7.992,0,0,1-4.737,1.608H685.279c-1.3,0-2.362,1.36-2.362,3.037v1.242c0,1.677,1.058,3.038,2.362,3.038H877.567c5.518,0,10.393-3.526,13.338-8.924a25.124,25.124,0,0,0,2.947-12.014v-8.3a24.3,24.3,0,0,0-1.518-8.55c-2.473-6.575-7.71-11.109-13.773-11.109H685.279c-1.3,0-2.362,1.357-2.362,3.034v1.242c0,1.677,1.058,3.037,2.362,3.037H796.928a8.445,8.445,0,0,1,6.77,3.8,13.6,13.6,0,0,1,2.431,7.864" transform="translate(-552.029 -1473.821)" fill="#16566b"/>
          <path id="Trazado_616222" data-name="Trazado 616222" d="M682.916,2082.377v1.241c0,1.677,1.057,3.036,2.362,3.036H877.566c5.518,0,10.393-3.525,13.338-8.923h-89.58a7.983,7.983,0,0,1-4.737,1.608H685.278c-1.3,0-2.362,1.36-2.362,3.038" transform="translate(-552.029 -1612.308)" fill="#093948"/>
          <path id="Trazado_616223" data-name="Trazado 616223" d="M711.4,2008.412l14.269.823-14.269.5Z" transform="translate(-575.055 -1558.517)" fill="#f4d2b8"/>
          <path id="Trazado_616224" data-name="Trazado 616224" d="M711.4,1958.172l33.947.823-33.947.5Z" transform="translate(-575.055 -1519.531)" fill="#f4d2b8"/>
          <path id="Trazado_616225" data-name="Trazado 616225" d="M1163.924,1961.113a8.444,8.444,0,0,0-2.982,4.1,5.724,5.724,0,0,0-.232,1.425c-.124,3.386,0,11.051,0,11.051l-6.615-3.832-6.6,3.832V1967.3a8.123,8.123,0,0,1,1.617-5.126,2.513,2.513,0,0,1,1.827-1.062Z" transform="translate(-927.569 -1521.813)" fill="#6fd9fb"/>
          <path id="Trazado_616226" data-name="Trazado 616226" d="M1164.721,1961.113a8.445,8.445,0,0,0-2.982,4.1l-13.255.152s.52-3.65,3.256-4.252Z" transform="translate(-928.366 -1521.813)" fill="#56badb"/>
          <path id="Trazado_616243" data-name="Trazado 616243" d="M986.9,350a2.682,2.682,0,0,1-2.292,1.8c-1.663,0-2.112-.29-2.427-.7a6.356,6.356,0,0,1-.627-1.2A12.117,12.117,0,0,1,986.9,350" transform="translate(-793.427 -271.317)" fill="#fff"/>
          <path id="Trazado_616264" data-name="Trazado 616264" d="M265.961,2368.261a11.58,11.58,0,0,0,.068,1.277,11.731,11.731,0,0,0,1.02,3.735,10.535,10.535,0,0,0,1.537,2.4,8.349,8.349,0,0,0,6.341,3.069h126.1c4.952,0,8.968-4.692,8.968-10.479a11.383,11.383,0,0,0-2.627-7.41,8.339,8.339,0,0,0-6.341-3.072h-126.1c-4.952,0-8.966,4.692-8.966,10.482" transform="translate(-214.987 -1829.623)" fill="#6fd9fb"/>
          <path id="Trazado_616265" data-name="Trazado 616265" d="M310.34,2338.171h43.234a1.628,1.628,0,0,0,0-3.217H310.34a1.628,1.628,0,0,0,0,3.217" transform="translate(-249.748 -1811.912)" fill="#6fd9fb"/>
          <rect id="Rectángulo_379485" data-name="Rectángulo 379485" width="4.686" height="1.897" transform="translate(62.98 526.26)" fill="#52b7d8"/>
          <path id="Trazado_616266" data-name="Trazado 616266" d="M271.638,2426.945a10.5,10.5,0,0,0,1.537,2.4,8.348,8.348,0,0,0,6.341,3.068h26.71v-5.467Z" transform="translate(-219.576 -1883.296)" fill="#4c94ab"/>
          <path id="Trazado_616267" data-name="Trazado 616267" d="M497.089,2365.189v6.139a8.631,8.631,0,0,1-.221,1.944c-.729,3.15-3.191,5.467-6.117,5.467H359.4c-2.926,0-5.389-2.317-6.117-5.467a8.61,8.61,0,0,1-.221-1.944v-6.139c0-4.092,2.836-7.411,6.338-7.411H490.751c3.5,0,6.338,3.319,6.338,7.411" transform="translate(-285.393 -1829.623)" fill="#196442"/>
          <path id="Trazado_616268" data-name="Trazado 616268" d="M497.8,2426.945c-.729,3.151-3.191,5.467-6.117,5.467H360.33c-2.926,0-5.389-2.316-6.117-5.467Z" transform="translate(-286.325 -1883.296)" fill="#11462e"/>
          <path id="Trazado_616269" data-name="Trazado 616269" d="M1036.474,2368.3a12.812,12.812,0,0,0,2.608,8.092c.037.043.07.085.107.128a5.975,5.975,0,0,0,4.5,2.3c2.659,0,9.25-4.689,13.335-7.8,2.035-1.553,3.448-2.714,3.448-2.714s-1.413-1.161-3.448-2.713c-4.085-3.117-10.676-7.805-13.335-7.805a5.214,5.214,0,0,0-2.207.5,7.52,7.52,0,0,0-3.041,2.8,12.675,12.675,0,0,0-1.826,5.128.619.619,0,0,0-.007.069,15.09,15.09,0,0,0-.134,2.018" transform="translate(-837.824 -1829.623)" fill="#fff5e7"/>
          <path id="Trazado_616270" data-name="Trazado 616270" d="M1046.737,2362.813l20.168,6.437-17.128-9.241a7.532,7.532,0,0,0-3.04,2.8" transform="translate(-846.12 -1831.353)" fill="#ebf3fa"/>
          <path id="Trazado_616271" data-name="Trazado 616271" d="M1136.824,2395.334a3.02,3.02,0,0,0,1.316,2.715c2.035-1.552,3.448-2.715,3.448-2.715s-1.413-1.16-3.448-2.712a3.01,3.01,0,0,0-1.316,2.712" transform="translate(-918.941 -1856.662)" fill="#6fd9fb"/>
          <g id="Grupo_1074650" data-name="Grupo 1074650" transform="translate(4.872 6.345)">
            <g id="Grupo_1074649" data-name="Grupo 1074649" transform="translate(0 0)" clip-path="url(#clip-path-10)">
              <path id="Trazado_616313" data-name="Trazado 616313" d="M381.5,161.189a86.8,86.8,0,0,0,60.086-23.606c16.05-15.222,24.889-35.462,24.889-56.989s-8.839-41.767-24.889-56.99a88.275,88.275,0,0,0-120.173,0c-16.05,15.222-24.889,35.462-24.889,56.99s8.839,41.767,24.889,56.989A86.8,86.8,0,0,0,381.5,161.189m0-159.69a85.185,85.185,0,0,1,58.968,23.166c15.751,14.939,24.425,34.8,24.425,55.929s-8.674,40.99-24.425,55.929a86.633,86.633,0,0,1-117.936,0c-15.751-14.939-24.425-34.8-24.425-55.929s8.675-40.99,24.425-55.929A85.186,85.186,0,0,1,381.5,1.5" transform="translate(-296.522 0.001)" fill="#aec3ff"/>
              <path id="Trazado_616314" data-name="Trazado 616314" d="M382.229,235.208h1.023l0-.837c-1.312,0-2.626,0-3.931-.013l-.009.838q1.454.015,2.92.014m4.967-.042c1.317-.022,2.644-.055,3.943-.1l-.029-.837c-1.3.04-2.618.072-3.931.094Zm-11.832-.039.022-.837c-1.31-.031-2.632-.072-3.93-.121l-.035.837c1.3.05,2.629.09,3.943.122m19.716-.206c1.312-.059,2.637-.129,3.939-.206l-.056-.836c-1.3.078-2.618.147-3.925.205Zm-27.6-.092.049-.837c-1.311-.068-2.631-.146-3.924-.233l-.062.835c1.3.087,2.622.166,3.937.235m35.474-.379c1.316-.1,2.638-.207,3.931-.324l-.084-.833c-1.288.116-2.605.225-3.916.322Zm-43.345-.148.076-.834c-1.307-.107-2.624-.226-3.914-.352l-.091.834c1.294.127,2.616.245,3.928.353m51.2-.562c1.309-.139,2.627-.291,3.917-.45l-.114-.831c-1.285.159-2.6.31-3.9.449Zm-59.05-.208.105-.831c-1.306-.15-2.617-.311-3.9-.48l-.122.829c1.286.17,2.6.332,3.914.482m66.876-.76c1.311-.185,2.623-.384,3.9-.589l-.148-.826c-1.27.2-2.576.4-3.881.587Zm-74.694-.274.139-.827c-1.3-.2-2.605-.406-3.874-.622l-.157.824c1.275.218,2.584.429,3.892.626m82.477-.982c1.3-.237,2.607-.49,3.869-.749l-.187-.819c-1.256.258-2.551.509-3.849.745Zm-90.247-.35.176-.821c-1.3-.25-2.589-.515-3.839-.786l-.2.816c1.257.273,2.556.539,3.86.791m97.966-1.238c1.3-.3,2.59-.617,3.825-.939l-.234-.808c-1.227.32-2.506.634-3.8.933Zm-105.665-.438.22-.811c-1.289-.316-2.563-.647-3.785-.984l-.247.8c1.231.34,2.513.673,3.812.991m113.284-1.551c1.291-.38,2.554-.776,3.755-1.179l-.294-.79c-1.191.4-2.443.792-3.723,1.169Zm-120.873-.55.276-.8c-1.271-.4-2.515-.814-3.7-1.236l-.311.784c1.193.427,2.448.846,3.732,1.248m128.33-1.958c1.266-.487,2.487-1,3.629-1.51l-.378-.757c-1.127.507-2.333,1.009-3.583,1.491Zm-135.732-.7.353-.767c-1.243-.516-2.431-1.05-3.531-1.589l-.405.744c1.118.547,2.323,1.09,3.583,1.612m142.885-2.544c1.216-.658,2.345-1.34,3.357-2.028l-.514-.681a38.187,38.187,0,0,1-3.28,1.981Zm-149.921-.933.472-.708a31.616,31.616,0,0,1-3.153-2.142l-.56.647a32.449,32.449,0,0,0,3.241,2.2M462.8,217.733a15.626,15.626,0,0,0,2.53-2.972l-.755-.434a14.759,14.759,0,0,1-2.394,2.808Zm-162.453-1.352.681-.533a11.272,11.272,0,0,1-1.951-3.056l-.822.3a12.082,12.082,0,0,0,2.092,3.283m166.408-5.23a8.011,8.011,0,0,0,.1-1.248,8.544,8.544,0,0,0-.908-3.762l-.8.352a7.745,7.745,0,0,1,.827,3.41,7.185,7.185,0,0,1-.089,1.124ZM298.508,209.34a8.158,8.158,0,0,1,1.077-3.364l-.778-.4a8.956,8.956,0,0,0-1.179,3.7Zm164.523-5.82.66-.557a22.128,22.128,0,0,0-2.938-2.583l-.545.659a21.263,21.263,0,0,1,2.823,2.48m-161.185-.434a23.048,23.048,0,0,1,2.9-2.408l-.529-.671a23.881,23.881,0,0,0-3.01,2.5Zm155.164-4.132.46-.715c-1.068-.618-2.239-1.23-3.478-1.82l-.4.749c1.218.58,2.366,1.181,3.414,1.787m-149.022-.308c1.059-.592,2.216-1.179,3.44-1.745l-.387-.753c-1.245.576-2.422,1.174-3.5,1.777Zm142.058-3.034.346-.771c-1.166-.471-2.4-.937-3.681-1.383l-.305.786c1.264.442,2.488.9,3.641,1.368M315,195.378c1.158-.457,2.387-.908,3.653-1.341l-.3-.788c-1.279.438-2.521.894-3.692,1.356Zm127.7-2.348.272-.8c-1.219-.374-2.491-.74-3.783-1.09l-.242.805c1.282.347,2.545.711,3.754,1.082m-120.337-.183c1.21-.364,2.475-.721,3.761-1.062l-.238-.806c-1.295.344-2.57.7-3.789,1.07Zm112.793-1.865.217-.812c-1.25-.3-2.543-.593-3.843-.87l-.194.817c1.292.275,2.577.566,3.82.864m-105.237-.147c1.243-.293,2.529-.578,3.824-.849l-.19-.818c-1.3.272-2.6.56-3.846.854Zm97.575-1.491.173-.821c-1.265-.24-2.571-.473-3.88-.693l-.154.825c1.3.218,2.6.45,3.861.689m-89.905-.117c1.261-.235,2.561-.462,3.864-.676l-.151-.825c-1.309.215-2.615.443-3.883.679Zm82.168-1.183.136-.828c-1.281-.19-2.6-.371-3.906-.54l-.12.829c1.305.169,2.613.35,3.889.539m-74.425-.092c1.273-.185,2.582-.361,3.891-.527l-.117-.83c-1.314.166-2.628.344-3.907.529Zm66.637-.916.1-.832c-1.3-.145-2.617-.282-3.922-.406l-.088.833c1.3.124,2.616.26,3.908.4m-58.846-.07c1.289-.141,2.6-.274,3.909-.394l-.086-.834c-1.309.122-2.629.254-3.923.4Zm51.024-.678.074-.835c-1.3-.1-2.622-.2-3.934-.283l-.06.835c1.307.085,2.626.179,3.92.283m-43.2-.05c1.291-.1,2.61-.191,3.92-.273l-.057-.835c-1.315.081-2.639.174-3.935.274Zm35.355-.457.046-.836c-1.3-.065-2.623-.122-3.941-.169l-.034.837c1.314.047,2.635.1,3.928.167m-27.51-.031c1.3-.062,2.618-.115,3.928-.158l-.031-.837c-1.314.043-2.64.1-3.941.159Zm19.652-.249.02-.837c-1.3-.028-2.631-.048-3.944-.058l-.007.837c1.308.011,2.631.03,3.931.058m-11.793-.013c1.3-.025,2.619-.041,3.932-.049l-.005-.837c-1.317.007-2.644.024-3.944.049Z" transform="translate(-297.254 -129.308)" fill="#aec3ff"/>
              <path id="Trazado_616315" data-name="Trazado 616315" d="M503.545,161.609a11.3,11.3,0,0,0,4.111-.885l-.367-.8a10.362,10.362,0,0,1-3.763.812Zm-4.152-.73.338-.808a13.793,13.793,0,0,1-3.382-1.893l-.568.683a14.735,14.735,0,0,0,3.612,2.019M511.2,158.61a22.756,22.756,0,0,0,2.937-2.793l-.7-.56a21.9,21.9,0,0,1-2.82,2.683Zm-18.414-2.493.692-.57a30.947,30.947,0,0,1-2.432-3.042l-.762.484a31.753,31.753,0,0,0,2.5,3.128m23.811-3.456c.714-1.033,1.421-2.167,2.1-3.368l-.808-.411c-.668,1.179-1.361,2.29-2.061,3.3Zm-28.447-3.023.8-.417c-.619-1.073-1.231-2.229-1.82-3.438l-.832.365c.6,1.227,1.22,2.4,1.848,3.491m32.371-3.846c.546-1.139,1.085-2.347,1.6-3.593l-.853-.318c-.51,1.231-1.042,2.426-1.582,3.55Zm-35.841-3.229.852-.322c-.485-1.155-.963-2.371-1.419-3.616l-.866.286c.461,1.257.943,2.486,1.433,3.652m38.857-4.022c.431-1.192.855-2.439,1.259-3.707l-.877-.251c-.4,1.257-.821,2.494-1.248,3.676Zm-41.564-3.333.877-.255c-.388-1.2-.767-2.45-1.126-3.713l-.885.227c.363,1.272.744,2.53,1.135,3.74m43.944-4.118c.345-1.225.681-2.494,1-3.773l-.893-.2c-.317,1.271-.651,2.532-.993,3.749ZM479.831,127.7l.891-.2c-.31-1.227-.611-2.5-.9-3.772l-.9.18c.286,1.283.59,2.56.9,3.794m47.981-4.176c.275-1.248.541-2.532.789-3.816l-.9-.157c-.247,1.277-.512,2.554-.785,3.8Zm-49.68-3.432.9-.159c-.245-1.246-.481-2.528-.7-3.811l-.9.14c.222,1.289.459,2.577.705,3.83m51.166-4.215c.214-1.262.42-2.556.609-3.844l-.908-.12c-.189,1.282-.393,2.57-.606,3.825Zm-52.488-3.457.907-.123c-.188-1.259-.367-2.55-.532-3.836l-.91.1c.166,1.292.345,2.588.535,3.854m53.624-4.242c.16-1.268.311-2.568.448-3.863l-.912-.087c-.137,1.289-.287,2.583-.446,3.847ZM475.818,104.7l.912-.089c-.137-1.269-.265-2.566-.379-3.853l-.914.073c.114,1.292.243,2.594.38,3.869m55.435-4.258c.111-1.276.212-2.58.3-3.875l-.914-.056c-.089,1.291-.189,2.589-.3,3.86ZM475.13,96.957l.915-.058c-.089-1.273-.169-2.574-.236-3.864l-.916.043c.068,1.3.147,2.6.237,3.879m56.654-4.268c.065-1.281.119-2.587.161-3.882l-.916-.028c-.042,1.291-.1,2.591-.16,3.868ZM474.725,89.2l.916-.029c-.044-1.278-.078-2.58-.1-3.869l-.917.014c.022,1.294.056,2.6.1,3.884m57.314-4.274c.018-1.192.028-2.4.028-3.591v-.293l-.917,0v.292c0,1.187-.009,2.39-.028,3.577Zm-57.45-3.5h.917v-.1c0-1.263.011-2.533.031-3.775l-.917-.013c-.02,1.246-.031,2.521-.032,3.788Zm56.523-4.258.917-.015c-.023-1.289-.058-2.595-.1-3.884l-.916.029c.045,1.284.08,2.586.1,3.87m-55.478-3.481c.044-1.284.1-2.585.164-3.868l-.916-.042c-.066,1.286-.121,2.593-.165,3.882Zm55.2-4.256.915-.044c-.068-1.289-.149-2.595-.241-3.879l-.914.059c.091,1.279.171,2.579.239,3.864m-54.807-3.476c.089-1.288.191-2.587.3-3.86l-.914-.072c-.112,1.278-.214,2.581-.3,3.874Zm54.257-4.247.913-.073c-.116-1.292-.245-2.594-.384-3.869l-.912.089c.138,1.27.267,2.566.383,3.853M476.71,58.243c.137-1.285.289-2.578.45-3.846l-.91-.1c-.162,1.273-.314,2.572-.452,3.863Zm52.739-4.232.91-.106c-.167-1.29-.348-2.586-.539-3.853l-.908.123c.19,1.262.371,2.553.537,3.836m-51.76-3.451c.19-1.286.4-2.572.61-3.826l-.9-.139c-.215,1.259-.422,2.552-.613,3.844Zm50.605-4.209.9-.141c-.223-1.287-.462-2.576-.71-3.829l-.9.161c.247,1.247.485,2.529.706,3.81M479,42.923c.25-1.279.515-2.555.79-3.795l-.9-.179c-.276,1.246-.543,2.53-.794,3.815Zm47.792-4.174.9-.181c-.288-1.284-.593-2.561-.906-3.794l-.891.2c.311,1.226.614,2.494.9,3.771m-46.112-3.393c.318-1.27.654-2.53,1-3.748l-.886-.225c-.347,1.225-.686,2.495-1.006,3.772Zm44.2-4.123L525.76,31c-.366-1.275-.75-2.533-1.141-3.739l-.876.256c.388,1.2.77,2.445,1.133,3.711M482.8,27.892c.4-1.255.825-2.491,1.256-3.673l-.867-.284c-.435,1.193-.861,2.439-1.266,3.7Zm39.678-4.04.865-.287c-.464-1.257-.949-2.484-1.442-3.649l-.851.324c.488,1.153.968,2.368,1.428,3.613M485.462,20.6c.513-1.231,1.049-2.424,1.592-3.546l-.833-.363c-.55,1.136-1.092,2.344-1.611,3.589Zm33.972-3.9.831-.367c-.6-1.224-1.228-2.4-1.861-3.485l-.8.42c.623,1.071,1.24,2.226,1.832,3.431m-30.572-3.093c.673-1.176,1.371-2.284,2.075-3.293l-.764-.48c-.719,1.03-1.432,2.16-2.117,3.359ZM515.495,10l.759-.488A31.272,31.272,0,0,0,513.73,6.4l-.687.575A30.434,30.434,0,0,1,515.495,10M493.351,7.259A21.429,21.429,0,0,1,496.2,4.6l-.576-.677a22.356,22.356,0,0,0-2.965,2.768Zm16.8-2.891.559-.689a14.45,14.45,0,0,0-3.644-1.968l-.322.814a13.506,13.506,0,0,1,3.408,1.844m-10.6-1.707a10.26,10.26,0,0,1,3.777-.74v-.87a11.214,11.214,0,0,0-4.13.807Z" transform="translate(-418.354 -0.737)" fill="#aec3ff"/>
              <path id="Trazado_616316" data-name="Trazado 616316" d="M299.027,268.681h.359v-.576h-.359Zm3.069,0h2.71v-.576H302.1Zm5.42,0h2.71v-.576h-2.71Zm5.419,0h2.71v-.576h-2.71Zm5.42,0h2.71v-.576h-2.71Zm5.419,0h2.71v-.576h-2.71Zm5.42,0h2.71v-.576h-2.71Zm5.419,0h2.71v-.576h-2.71Zm5.42,0h2.71v-.576h-2.71Zm5.42,0h2.71v-.576h-2.71Zm5.42,0h2.71v-.576h-2.71Zm5.42,0H359v-.576h-2.71Zm5.42,0h2.71v-.576h-2.71Zm5.42,0h2.71v-.576h-2.71Zm5.42,0h2.71v-.576h-2.71Zm5.42,0h2.71v-.576h-2.71Zm5.42,0h2.71v-.576h-2.71Zm5.42,0h2.709v-.576H388.81Zm5.42,0h2.71v-.576h-2.71Zm5.419,0h2.71v-.576h-2.71Zm5.42,0h2.71v-.576h-2.71Zm5.42,0h2.71v-.576h-2.71Zm5.419,0h2.71v-.576h-2.71Zm5.42,0h2.71v-.576h-2.71Zm5.42,0h2.71v-.576h-2.71Zm5.42,0h2.71v-.576h-2.71Zm5.42,0h2.71v-.576h-2.71Zm5.42,0h2.71v-.576h-2.71Zm5.42,0h2.71v-.576h-2.71Zm5.42,0h2.71v-.576h-2.71Zm5.42,0h2.71v-.576h-2.71Zm5.419,0h2.71v-.576h-2.71Z" transform="translate(-298.236 -187.798)" fill="#aec3ff"/>
              <path id="Trazado_616317" data-name="Trazado 616317" d="M564.626,162.193h.608v-.341h-.608Zm0-2.911h.608v-2.57h-.608Zm0-5.141h.608v-2.57h-.608Zm0-5.14h.608v-2.57h-.608Zm0-5.14h.608v-2.57h-.608Zm0-5.141h.608v-2.57h-.608Zm0-5.14h.608v-2.57h-.608Zm0-5.14h.608v-2.57h-.608Zm0-5.14h.608v-2.57h-.608Zm0-5.14h.608v-2.57h-.608Zm0-5.141h.608v-2.57h-.608Zm0-5.14h.608v-2.57h-.608Zm0-5.14h.608v-2.57h-.608Zm0-5.14h.608v-2.57h-.608Zm0-5.141h.608v-2.57h-.608Zm0-5.14h.608v-2.57h-.608Zm0-5.14h.608v-2.57h-.608Zm0-5.14h.608v-2.57h-.608Zm0-5.141h.608v-2.57h-.608Zm0-5.14h.608v-2.57h-.608Zm0-5.14h.608v-2.57h-.608Zm0-5.14h.608v-2.57h-.608Zm0-5.141h.608v-2.57h-.608Zm0-5.14h.608v-2.57h-.608Zm0-5.14h.608v-2.57h-.608Zm0-5.14h.608v-2.57h-.608Zm0-5.141h.608V28.2h-.608Zm0-5.14h.608v-2.57h-.608Zm0-5.141h.608v-2.57h-.608Zm0-5.14h.608v-2.57h-.608Zm0-5.14h.608V7.643h-.608Zm0-5.14h.608V2.5h-.608Z" transform="translate(-479.955 -1.753)" fill="#aec3ff"/>
              <path id="Trazado_616318" data-name="Trazado 616318" d="M558,538.367s-10.978,4.146-14.679,3.042-10.084-4.495-11.233-7.279,7.531.726,10.467,0a20.239,20.239,0,0,1,11.871,0c5.744,1.574,3.574,4.238,3.574,4.238" transform="translate(-462.814 -373.374)" fill="#ffb27d"/>
              <path id="Trazado_616319" data-name="Trazado 616319" d="M258.772,1338.1s-.828,12.664-3.308,15.642H217.312c.241-1.263,1.321-4.38,6.091-5.171,6.029-.994,16.12-5.012,19.768-12.569,3.842-7.95,15.6,2.1,15.6,2.1" transform="translate(-63.807 -933.675)" fill="#334272"/>
              <path id="Trazado_616320" data-name="Trazado 616320" d="M40.6,1332.626s2.515,15.765-.75,16.049c-.434.038-15.717.012-19.872.6-6.785.963-18.1.123-18.1.123a1.706,1.706,0,0,1-1.624-2.558,7.257,7.257,0,0,1,5.183-3.154c6.008-1.1,16.021-5.282,19.532-12.9,3.693-8.012,15.634,1.837,15.634,1.837" transform="translate(222.07 -929.971)" fill="#334272"/>
              <path id="Trazado_616321" data-name="Trazado 616321" d="M2.929,714.565s9.593,31.838,37.088,87.128,29.617,80.484,29.617,80.484l18.94-.845s-1.781-65.809-14.768-93.71S58.172,683.371,58.172,683.371Z" transform="translate(174.097 -478.677)" fill="#114e32"/>
              <path id="Trazado_616322" data-name="Trazado 616322" d="M124.926,696.058a753.672,753.672,0,0,0,8.23,109.832c8.993,60.532,5.945,86.227,5.945,86.227l21.54.68s12.872-60.555,9.182-90.853,17.627-103.965,17.627-103.965Z" transform="translate(36.698 -487.564)" fill="#196442"/>
              <path id="Trazado_616323" data-name="Trazado 616323" d="M213.146,253.9l-10.159,7.137L188.3,258.105c.2-1.27,1.172-6.533,2.055-11.3.053-.281.106-.562.156-.837.756-4.057,1.409-7.541,1.409-7.541l13.714-6.482,5.113-2.417c-.014.085-.4,4.5-.45,5.146-.959,11.449,2.845,19.227,2.845,19.227" transform="translate(-9.019 -160.775)" fill="#ffb27d"/>
              <path id="Trazado_616324" data-name="Trazado 616324" d="M96.143,418.218c-.927,8.8,73.3,19.206,73.579,4.453.245-12.981-7.9-84.416-10.432-94.636-4.465-18.088-8.478-28.418-16.98-30.793-3.14-.865-14.713,1.983-23.076,4.286a14.56,14.56,0,0,0-1.723.566,17.754,17.754,0,0,0-5.537,3.349,16.7,16.7,0,0,0-4.856,7.445c-1.287,4.119-2.773,9.393-3.975,15.211a110.619,110.619,0,0,0-2.252,16.519c-.069,1.169-.107,2.339-.115,3.5-.046,4.314-.444,9.894-1,16.09-.352,3.908-.773,8.063-1.21,12.3-.13,1.213-.26,2.433-.383,3.661-.092.849-1.517,28.758-1.93,36.233-.008.109-.008.2-.015.3a.065.065,0,0,1-.008.037c0,.1-.008.21-.015.312-.038.668-.061,1.075-.069,1.169" transform="translate(63.507 -208.096)" fill="#2d4587"/>
              <path id="Trazado_616325" data-name="Trazado 616325" d="M218.242,240.523c-3.011,5.465-14.233,10.191-18.913,11.929.053-.281.107-.562.156-.837.756-4.057,1.409-7.541,1.409-7.541l13.713-6.482c3.031-.044,4.876.682,3.634,2.932" transform="translate(-17.99 -166.423)" fill="#fca56b"/>
              <path id="Trazado_616326" data-name="Trazado 616326" d="M170.445,166.382s24.74,7.32,29.309-7.363,10.839-23.627-4.763-28.922-20.429-.554-23.211,3.995-7.653,30.008-1.335,32.29" transform="translate(5.796 -89.492)" fill="#ffb27d"/>
              <path id="Trazado_616327" data-name="Trazado 616327" d="M135.917,113.929s1.578,17.087,5.3,16.345,7.1-1.292,6.559,3.859-5.712,11.1,5.77,12.009,27.987-27.173,24.833-32.49c-9.1-15.342-55.619-18.438-42.465.278" transform="translate(42.631 -70.744)" fill="#163560"/>
              <path id="Trazado_616328" data-name="Trazado 616328" d="M187.779,287.145c.322-.128,19.973-5.628,22.108-4.96s3.4,4.586,3.4,4.586l-30.339,8.2s.726-6.183,4.832-7.823" transform="translate(-7.467 -197.621)" fill="#ed7d2b"/>
              <path id="Trazado_616329" data-name="Trazado 616329" d="M556.891,523.142s-3.511-2.815-6.574-3.451-5.744-3.269-5.744-2,2.3,4.358,2.3,5.448,10.02,0,10.02,0" transform="translate(-465.279 -362.386)" fill="#ffb27d"/>
              <path id="Trazado_616330" data-name="Trazado 616330" d="M229.9,456.362c15.762-5.673,27.71-27.72,27.71-27.72l-26.591,8.129c-.069,1.17-.107,2.339-.115,3.5-.046,4.314-.444,9.894-1,16.09" transform="translate(-66.616 -300.248)" fill="#283455"/>
              <path id="Trazado_616331" data-name="Trazado 616331" d="M171.692,397.623c-.011-.041-.022-.081-.034-.122a5.447,5.447,0,0,1,3.122-6.374c9.9-4.524,35.555-16.256,38.418-17.712,3.021-1.536,33.05-28.921,42.032-37.141A6.07,6.07,0,0,1,261.1,335l24.879,7.713a5.429,5.429,0,0,1,1.491,9.835c-18.3,11.9-56.582,36.65-63.465,39.986-12.133,5.882-36.684,8.958-45.745,9.929a5.875,5.875,0,0,1-6.022-3.323,10.814,10.814,0,0,1-.546-1.515" transform="translate(-80.566 -234.461)" fill="#2d4587"/>
            </g>
          </g>
        </g>
      </g>
    </g>
  </g>
</svg>
