<svg xmlns="http://www.w3.org/2000/svg" xmlns:xlink="http://www.w3.org/1999/xlink" width="70" height="70" viewBox="0 0 70 70">
  <defs>
    <clipPath id="clip-path">
      <rect id="Rect치ngulo_379292" data-name="Rect치ngulo 379292" width="44" height="44" transform="translate(274 971)" fill="#fff" stroke="#707070" stroke-width="1"/>
    </clipPath>
    <clipPath id="clip-path-2">
      <rect id="Rect치ngulo_379293" data-name="Rect치ngulo 379293" width="30.48" height="41.338" fill="#fff"/>
    </clipPath>
  </defs>
  <g id="img5" transform="translate(-907 -2115)">
    <g id="Grupo_1074452" data-name="Grupo 1074452" transform="translate(638 1157)">
      <circle id="Elipse_5614" data-name="Elipse 5614" cx="35" cy="35" r="35" transform="translate(269 958)" fill="#11462e"/>
    </g>
    <g id="Enmascarar_grupo_1074743" data-name="Enmascarar grupo 1074743" transform="translate(646 1157)" clip-path="url(#clip-path)">
      <g id="Grupo_1074482" data-name="Grupo 1074482" transform="translate(281 972)">
        <g id="Grupo_1074481" data-name="Grupo 1074481" clip-path="url(#clip-path-2)">
          <path id="Trazado_615982" data-name="Trazado 615982" d="M50.1,134.083v-1.14q0-9.965,0-19.93a.862.862,0,0,1,.174-.549c.426-.567.808-1.169,1.263-1.712a5,5,0,0,1,3.729-1.809c.168-.009.14.1.14.195,0,.6-.006,1.2-.006,1.8q0,1.185,0,2.371c0,.041.007.083.012.148h.5q6.7,0,13.4,0a3.817,3.817,0,0,1,2.418.707,3.456,3.456,0,0,1,1.345,2.262,3.266,3.266,0,0,1-.5,2.292,1.148,1.148,0,0,1-.18.257c-.164.153-.126.271,0,.432a3.346,3.346,0,0,1,.728,1.983,3.226,3.226,0,0,1-.577,1.956,1.735,1.735,0,0,1-.2.268.185.185,0,0,0-.013.3,3.416,3.416,0,0,1,.788,2.056,3.226,3.226,0,0,1-.6,2c-.09.128-.246.256-.25.387s.153.254.241.38a3.386,3.386,0,0,1,.618,1.928,3.224,3.224,0,0,1-.645,1.935,3.442,3.442,0,0,1-2.911,1.488q-9.622.007-19.244,0Z" transform="translate(-42.652 -92.746)" fill="#fff"/>
          <path id="Trazado_615983" data-name="Trazado 615983" d="M5.008,159.875H4.781c-1.141,0-2.282,0-3.423,0a1.231,1.231,0,0,1-1.35-1.352Q-.01,149.557,0,140.592a1.255,1.255,0,0,1,1.354-1.352c1.147,0,2.295,0,3.442,0,.157,0,.219.039.215.206-.011.37,0,.741,0,1.111v19.319" transform="translate(0 -118.538)" fill="#fff"/>
          <path id="Trazado_615984" data-name="Trazado 615984" d="M106.445,6.972c.035-.072.06-.132.092-.188q1.576-2.815,3.152-5.63c.114-.2.229-.409.354-.607a.966.966,0,0,1,1.755.03c.583,1.023,1.152,2.053,1.728,3.08l1.791,3.193c.017.031.03.064.057.121Z" transform="translate(-90.62 0)" fill="#fff"/>
          <path id="Trazado_615985" data-name="Trazado 615985" d="M106,63.53v.191q0,4.177,0,8.353c0,.261,0,.262-.259.262-1.147,0-2.294,0-3.442,0-.161,0-.223-.035-.223-.216q.01-4.223,0-8.446c0-.12.018-.185.156-.184,1.19.007,2.381.01,3.571.016a1.907,1.907,0,0,1,.194.021" transform="translate(-86.904 -54.053)" fill="#fff"/>
          <path id="Trazado_615986" data-name="Trazado 615986" d="M144.57,67.91c0-1.432,0-2.863,0-4.3,0-.042.065-.094.111-.122s.084-.007.127-.007c1.141,0,2.281.006,3.422,0,.176,0,.233.044.232.226q-.01,3.926-.007,7.851c0,.191,0,.383.01.574.007.142-.039.191-.19.191q-1.766-.008-3.533,0c-.141,0-.177-.045-.176-.181,0-1.413,0-2.827,0-4.24h0" transform="translate(-123.076 -54.044)" fill="#fff"/>
        </g>
      </g>
    </g>
  </g>
</svg>
