<svg xmlns="http://www.w3.org/2000/svg" xmlns:xlink="http://www.w3.org/1999/xlink" width="62.504" height="62.504" viewBox="0 0 62.504 62.504">
  <defs>
    <clipPath id="clip-path">
      <rect id="Rectángulo_379014" data-name="Rectángulo 379014" width="43" height="43" transform="translate(289.816 1210.717)" fill="#fff" stroke="#707070" stroke-width="1"/>
    </clipPath>
    <clipPath id="clip-path-2">
      <rect id="Rectángulo_379013" data-name="Rectángulo 379013" width="43" height="43" transform="translate(289.816 1209.717)" fill="#fff" stroke="#707070" stroke-width="1"/>
    </clipPath>
    <clipPath id="clip-path-3">
      <rect id="Rectángulo_379018" data-name="Rectángulo 379018" width="36.005" height="35.842" fill="#ffd87e"/>
    </clipPath>
  </defs>
  <g id="img5" transform="translate(-1272.496 -599)">
    <g id="Grupo_1073541" data-name="Grupo 1073541" transform="translate(992.68 -599.717)">
      <g id="Grupo_1072053" data-name="Grupo 1072053" transform="translate(279.816 1198.717)">
        <circle id="Elipse_4742" data-name="Elipse 4742" cx="31.252" cy="31.252" r="31.252" transform="translate(0)" fill="#11462e"/>
      </g>
    </g>
    <g id="Enmascarar_grupo_1074678" data-name="Enmascarar grupo 1074678" transform="translate(992.184 -600.717)" clip-path="url(#clip-path)">
      <g id="Enmascarar_grupo_1074677" data-name="Enmascarar grupo 1074677" transform="translate(0 1)" clip-path="url(#clip-path-2)">
        <g id="Grupo_1074248" data-name="Grupo 1074248" transform="translate(291.816 1211.717)">
          <g id="Grupo_1074247" data-name="Grupo 1074247" transform="translate(1.498 1.491)" clip-path="url(#clip-path-3)">
            <path id="Trazado_615615" data-name="Trazado 615615" d="M7.232,28.653c-.825-.136-1.659-.262-2.489-.416A3.665,3.665,0,0,1,3.337,27.8a2.565,2.565,0,0,1-1.246-2.488,4.534,4.534,0,0,1,.378-1.277q.38-1.013.779-2.02c.053-.133.012-.2-.086-.276-.74-.6-1.492-1.2-2.209-1.828a2.594,2.594,0,0,1,.109-4.1c.677-.546,1.352-1.1,2.035-1.634a.284.284,0,0,0,.1-.386c-.329-.863-.663-1.725-.961-2.6A2.607,2.607,0,0,1,3.6,7.868a6.1,6.1,0,0,1,1.731-.376c.574-.086,1.146-.191,1.72-.282.155-.025.2-.1.216-.256.027-.3.09-.6.143-.9.12-.687.214-1.38.37-2.059a2.611,2.611,0,0,1,2.693-1.963,5.722,5.722,0,0,1,1.611.475c.609.221,1.209.467,1.817.691a.227.227,0,0,0,.2-.06c.328-.372.646-.753.967-1.132.3-.355.593-.718.9-1.066A2.665,2.665,0,0,1,20.016.922c.63.709,1.205,1.467,1.8,2.21.079.1.142.067.219.039.616-.22,1.231-.442,1.847-.662a9.525,9.525,0,0,1,1.229-.422,2.627,2.627,0,0,1,3.187,2.2c.145.862.309,1.723.422,2.589.032.249.13.282.327.315.983.164,1.972.306,2.943.527A2.437,2.437,0,0,1,33.74,9.266,2.624,2.624,0,0,1,33.76,11.2c-.323.884-.681,1.756-1.015,2.637a.221.221,0,0,0,.066.189c.723.607,1.452,1.206,2.177,1.809a2.624,2.624,0,0,1,.993,1.725,2.53,2.53,0,0,1-.964,2.374c-.678.565-1.372,1.11-2.059,1.663-.236.19-.239.19-.136.47.315.855.659,1.7.944,2.565A2.573,2.573,0,0,1,32.235,28a8.145,8.145,0,0,1-1.523.308c-.6.1-1.195.2-1.793.293-.1.016-.16.045-.178.167q-.145,1-.312,1.992a10.084,10.084,0,0,1-.208,1.062A2.537,2.537,0,0,1,26.2,33.73a2.847,2.847,0,0,1-1.706-.2c-.735-.3-1.494-.547-2.222-.864a.355.355,0,0,0-.5.139c-.525.631-1.058,1.256-1.575,1.894a2.817,2.817,0,0,1-1.817,1.115,2.5,2.5,0,0,1-2.317-.84c-.476-.527-.905-1.1-1.355-1.646-.178-.218-.354-.439-.538-.652a.191.191,0,0,0-.158-.061c-.851.307-1.7.611-2.547.938a3.063,3.063,0,0,1-1.657.184,2.6,2.6,0,0,1-2.062-2.053c-.134-.69-.22-1.39-.335-2.084-.05-.307-.116-.611-.181-.944m8.308-4.691a7.008,7.008,0,0,0,.894-.09,3.893,3.893,0,0,0,2.273-1.45q2.65-3.409,5.309-6.812c.712-.913,1.425-1.824,2.129-2.744A1.123,1.123,0,0,0,26.378,12a1.222,1.222,0,0,0-.916-1.1,1.3,1.3,0,0,0-1.433.465q-.3.393-.608.784l-5.182,6.632c-.554.71-1.1,1.43-1.666,2.126a1.225,1.225,0,0,1-1.7.245c-.19-.123-.367-.265-.549-.4-.873-.652-1.744-1.309-2.62-1.957a1.406,1.406,0,0,0-1.491-.055,1.286,1.286,0,0,0-.084,2.113q1.583,1.225,3.206,2.4a3.6,3.6,0,0,0,2.2.714" transform="translate(0 0.001)" fill="#ffd87e"/>
          </g>
        </g>
      </g>
    </g>
  </g>
</svg>
