<svg xmlns="http://www.w3.org/2000/svg" xmlns:xlink="http://www.w3.org/1999/xlink" width="121.668" height="125" viewBox="0 0 121.668 125">
  <defs>
    <clipPath id="clip-path">
      <rect id="Rect치ngulo_379312" data-name="Rect치ngulo 379312" width="70.001" height="70.005" fill="none"/>
    </clipPath>
  </defs>
  <g id="img8" transform="translate(-733.5 -2785.398)">
    <g id="Grupo_1074458" data-name="Grupo 1074458" transform="translate(344.832 -3211.602)">
      <g id="Grupo_1072788" data-name="Grupo 1072788" transform="translate(13.999 114.601)">
        <g id="Grupo_1072785" data-name="Grupo 1072785" transform="translate(386.668 5997)">
          <path id="Trazado_608385" data-name="Trazado 608385" d="M48.909,0C75.921,0,97.818,2.328,97.818,5.2s-21.9,5.2-48.909,5.2S0,8.071,0,5.2,21.9,0,48.909,0Z" transform="translate(0 0)" fill="none"/>
        </g>
        <g id="Grupo_1073383" data-name="Grupo 1073383" transform="translate(386.668 5997)">
          <path id="Trazado_608385-2" data-name="Trazado 608385" d="M48.909,0C75.921,0,97.818,2.328,97.818,5.2s-21.9,5.2-48.909,5.2S0,8.071,0,5.2,21.9,0,48.909,0Z" transform="translate(0 0)" fill="#11462e"/>
        </g>
      </g>
      <g id="Grupo_1073526" data-name="Grupo 1073526" transform="translate(2)">
        <g id="Grupo_1072785-2" data-name="Grupo 1072785" transform="translate(386.668 5997)">
          <path id="Trazado_608385-3" data-name="Trazado 608385" d="M60.834,0A60.834,60.834,0,1,1,0,60.834,60.834,60.834,0,0,1,60.834,0Z" transform="translate(0 0)" fill="none"/>
        </g>
        <g id="Grupo_1073383-2" data-name="Grupo 1073383" transform="translate(386.668 5997)">
          <path id="Trazado_608385-4" data-name="Trazado 608385" d="M60.834,0A60.834,60.834,0,1,1,0,60.834,60.834,60.834,0,0,1,60.834,0Z" transform="translate(0 0)" fill="#fff"/>
        </g>
      </g>
    </g>
    <g id="Grupo_1074503" data-name="Grupo 1074503" transform="translate(0 -37.602)">
      <rect id="Rect치ngulo_379254" data-name="Rect치ngulo 379254" width="73" height="73" transform="translate(757 2849)" fill="#fff"/>
      <g id="Grupo_1074502" data-name="Grupo 1074502" transform="translate(759 2850)">
        <g id="Enmascarar_grupo_1074501" data-name="Enmascarar grupo 1074501" transform="translate(0 0)" clip-path="url(#clip-path)">
          <path id="Trazado_616077" data-name="Trazado 616077" d="M64.532,3.614V50.951H38.619a6.745,6.745,0,0,1-5.983,3.623H31.9a6.759,6.759,0,0,1-5.983-3.623H0V3.614Z" transform="translate(0 -0.979)" fill="#4264c2"/>
          <path id="Trazado_616078" data-name="Trazado 616078" d="M64.532,3.614V50.951H38.619a6.745,6.745,0,0,1-5.983,3.623H31.9a6.759,6.759,0,0,1-5.983-3.623H0V47.792H16.913A44.444,44.444,0,0,0,61.359,3.614Z" transform="translate(0 -0.979)" fill="#2d4587"/>
          <path id="Trazado_616079" data-name="Trazado 616079" d="M71.035,0H49.518A5.269,5.269,0,0,0,44.25,5.269v42.94a5.269,5.269,0,0,1,5.268-5.268H71.035Z" transform="translate(-11.984 0)" fill="#e4e8eb"/>
          <path id="Trazado_616080" data-name="Trazado 616080" d="M7.516,0H29.033A5.269,5.269,0,0,1,34.3,5.269v42.94a5.269,5.269,0,0,0-5.268-5.268H7.516Z" transform="translate(-2.036 0)" fill="#f4f6f8"/>
          <path id="Trazado_616081" data-name="Trazado 616081" d="M56.85,9.087H51.6a.729.729,0,0,1,0-1.458H56.85a.729.729,0,1,1,0,1.458" transform="translate(-13.778 -2.066)" fill="#434a54"/>
          <path id="Trazado_616082" data-name="Trazado 616082" d="M70.571,9.087H63.8a.729.729,0,1,1,0-1.458h6.772a.729.729,0,0,1,0,1.458" transform="translate(-17.081 -2.066)" fill="#434a54"/>
          <path id="Trazado_616083" data-name="Trazado 616083" d="M67.268,16.161H51.6a.729.729,0,0,1,0-1.458H67.268a.729.729,0,0,1,0,1.458" transform="translate(-13.778 -3.982)" fill="#434a54"/>
          <path id="Trazado_616084" data-name="Trazado 616084" d="M67.268,23.235H51.6a.729.729,0,0,1,0-1.458H67.268a.729.729,0,0,1,0,1.458" transform="translate(-13.778 -5.898)" fill="#434a54"/>
          <path id="Trazado_616085" data-name="Trazado 616085" d="M67.268,30.309H51.6a.729.729,0,0,1,0-1.458H67.268a.729.729,0,0,1,0,1.458" transform="translate(-13.778 -7.814)" fill="#434a54"/>
          <path id="Trazado_616086" data-name="Trazado 616086" d="M65.824,37.384H51.6a.729.729,0,0,1,0-1.458H65.824a.729.729,0,1,1,0,1.458" transform="translate(-13.778 -9.73)" fill="#434a54"/>
          <path id="Trazado_616087" data-name="Trazado 616087" d="M64.638,44.458H51.6A.729.729,0,1,1,51.6,43H64.638a.729.729,0,0,1,0,1.458" transform="translate(-13.778 -11.646)" fill="#434a54"/>
          <path id="Trazado_616088" data-name="Trazado 616088" d="M64.638,51.532H51.6a.729.729,0,0,1,0-1.458H64.638a.729.729,0,0,1,0,1.458" transform="translate(-13.778 -13.561)" fill="#434a54"/>
          <path id="Trazado_616089" data-name="Trazado 616089" d="M14.263,19.434h-.007a.729.729,0,0,1-.641-.394l-2.408-4.661a.729.729,0,1,1,1.3-.669l1.775,3.434L16.134,13.7a.731.731,0,0,1,.642-.384H31.686a.729.729,0,1,1,0,1.458H17.211L14.9,19.051a.728.728,0,0,1-.642.383" transform="translate(-3.013 -3.606)" fill="#434a54"/>
          <path id="Trazado_616090" data-name="Trazado 616090" d="M23.948,24.336a1.431,1.431,0,0,1,.408,1.1,1.467,1.467,0,0,1-.649,1.269,2.734,2.734,0,0,1-1.56.423,4.481,4.481,0,0,1-1.714-.328.527.527,0,0,1-.226-.168.516.516,0,0,1-.087-.3.484.484,0,0,1,.139-.35.493.493,0,0,1,.569-.117,3.1,3.1,0,0,0,1.181.219,2.3,2.3,0,0,0,.955-.182.514.514,0,0,0,.314-.51c0-.2,0-.8-1.546-.8H21.6a.486.486,0,0,1-.357-.153.474.474,0,0,1-.153-.357.5.5,0,0,1,.153-.365.508.508,0,0,1,.357-.146h.051a2.237,2.237,0,0,0,1.108-.219.58.58,0,0,0,.321-.547.515.515,0,0,0-.233-.452,1.452,1.452,0,0,0-.824-.182,2.7,2.7,0,0,0-1.138.241.456.456,0,0,1-.547-.088.44.44,0,0,1-.139-.335.476.476,0,0,1,.248-.43,3.523,3.523,0,0,1,1.641-.423,2.467,2.467,0,0,1,1.5.408,1.389,1.389,0,0,1,.569,1.189,1.424,1.424,0,0,1-.314.97,1.838,1.838,0,0,1-.357.314,1.8,1.8,0,0,1,.459.321" transform="translate(-5.449 -5.724)" fill="#434a54"/>
          <path id="Trazado_616091" data-name="Trazado 616091" d="M30.673,24.172a.49.49,0,0,1,.139.35.473.473,0,0,1-.489.474H29.229V26.1a.5.5,0,0,1-.139.343.479.479,0,0,1-.35.146.491.491,0,0,1-.35-.146.5.5,0,0,1-.139-.343V25H27.144a.473.473,0,0,1-.474-.474.462.462,0,0,1,.139-.35.44.44,0,0,1,.335-.139h1.108V22.926a.479.479,0,0,1,.146-.35.5.5,0,0,1,.685.007.463.463,0,0,1,.146.343v1.108h1.094a.473.473,0,0,1,.35.139" transform="translate(-7.223 -6.078)" fill="#434a54"/>
          <path id="Trazado_616092" data-name="Trazado 616092" d="M37.147,25.437a1.46,1.46,0,0,1-.642,1.269,2.759,2.759,0,0,1-1.568.423,4.471,4.471,0,0,1-1.706-.328A.487.487,0,0,1,33,26.633a.473.473,0,0,1-.095-.3.516.516,0,0,1,.139-.35.5.5,0,0,1,.576-.117,3.071,3.071,0,0,0,1.181.219,2.24,2.24,0,0,0,.948-.182.51.51,0,0,0,.321-.51c0-.2,0-.8-1.553-.8H34.4a.5.5,0,0,1-.365-.153.5.5,0,0,1-.146-.357.5.5,0,0,1,.51-.51h.044a2.237,2.237,0,0,0,1.108-.219.575.575,0,0,0,.328-.547.521.521,0,0,0-.241-.452,1.441,1.441,0,0,0-.817-.182,2.65,2.65,0,0,0-1.138.241.456.456,0,0,1-.547-.088.447.447,0,0,1-.146-.335.476.476,0,0,1,.248-.43,3.545,3.545,0,0,1,1.641-.423,2.491,2.491,0,0,1,1.509.408,1.408,1.408,0,0,1,.569,1.189,1.427,1.427,0,0,1-.321.97,1.647,1.647,0,0,1-.357.314,1.973,1.973,0,0,1,.467.321,1.427,1.427,0,0,1,.4,1.1" transform="translate(-8.913 -5.724)" fill="#434a54"/>
          <path id="Trazado_616093" data-name="Trazado 616093" d="M30.536,37.384H14.87a.729.729,0,0,1,0-1.458H30.536a.729.729,0,1,1,0,1.458" transform="translate(-3.83 -9.73)" fill="#434a54"/>
          <path id="Trazado_616094" data-name="Trazado 616094" d="M30.536,44.458H14.87a.729.729,0,1,1,0-1.458H30.536a.729.729,0,1,1,0,1.458" transform="translate(-3.83 -11.646)" fill="#434a54"/>
          <path id="Trazado_616095" data-name="Trazado 616095" d="M30.536,51.532H14.87a.729.729,0,0,1,0-1.458H30.536a.729.729,0,1,1,0,1.458" transform="translate(-3.83 -13.561)" fill="#434a54"/>
          <path id="Trazado_616096" data-name="Trazado 616096" d="M69.5,83.539V91.2a1.122,1.122,0,0,0,1.122,1.122H86.574A1.122,1.122,0,0,0,87.7,91.2V83.539a1.122,1.122,0,0,0-1.122-1.122H70.627A1.122,1.122,0,0,0,69.5,83.539" transform="translate(-18.824 -22.321)" fill="#16566b"/>
          <path id="Trazado_616097" data-name="Trazado 616097" d="M86.573,82.415H84.925v1.2a5.93,5.93,0,0,1-5.935,5.928H69.51V91.2a1.117,1.117,0,0,0,1.116,1.123H86.573A1.123,1.123,0,0,0,87.7,91.2V83.538a1.123,1.123,0,0,0-1.123-1.123" transform="translate(-18.825 -22.32)" fill="#0f475a"/>
          <path id="Trazado_616098" data-name="Trazado 616098" d="M83.894,69.909H67.927l-1.056-2.15L60.282,54.253a2.494,2.494,0,0,1,.943-3.211,2.387,2.387,0,0,1,1.3-.366,2.508,2.508,0,0,1,2.128,1.169l2.726,4.422V38.6A2.371,2.371,0,0,1,69.7,36.249h.049a2.319,2.319,0,0,1,1.654.69,2.348,2.348,0,0,1,.7,1.665v6.023a2.357,2.357,0,1,1,4.714,0v2.527a2.113,2.113,0,0,1,.032-.372c.006-.048.017-.092.027-.14a2.131,2.131,0,0,1,.227-.6,1.648,1.648,0,0,1,.091-.156c.011-.011.016-.027.027-.038.043-.064.086-.123.135-.183a2.25,2.25,0,0,1,.156-.167c.049-.048.1-.1.156-.145a2.068,2.068,0,0,1,.356-.243,1.194,1.194,0,0,1,.14-.07l.005-.005a2.271,2.271,0,0,1,1.008-.232,2.3,2.3,0,0,1,1.018.232c.049.021.1.048.146.075a2.283,2.283,0,0,1,.5.378,2.35,2.35,0,0,1,.7,1.67v1.514a2.365,2.365,0,0,1,2.355-2.36,2.767,2.767,0,0,1,.474.054A2.383,2.383,0,0,1,85.559,47a2.338,2.338,0,0,1,.7,1.665v7.6a43.5,43.5,0,0,1-2.365,13.641" transform="translate(-16.259 -9.817)" fill="#f4d0b5"/>
          <path id="Trazado_616099" data-name="Trazado 616099" d="M91.785,73.641H89.16a43.41,43.41,0,0,0,2.363-13.636V52.4a2.339,2.339,0,0,0-.7-1.663,1.914,1.914,0,0,0-.357-.284,2.338,2.338,0,0,1,1.32-.408,2.617,2.617,0,0,1,.474.051,2.377,2.377,0,0,1,1.189.642,2.339,2.339,0,0,1,.7,1.663v7.605a43.41,43.41,0,0,1-2.363,13.636" transform="translate(-24.147 -13.554)" fill="#efc7a4"/>
        </g>
      </g>
    </g>
  </g>
</svg>
