<svg xmlns="http://www.w3.org/2000/svg" xmlns:xlink="http://www.w3.org/1999/xlink" width="295" height="291.889" viewBox="0 0 295 291.889">
  <defs>
    <clipPath id="clip-path">
      <rect id="Rectángulo_379496" data-name="Rectángulo 379496" width="295" height="291.889" fill="#d3f4fe"/>
    </clipPath>
  </defs>
  <g id="img8" transform="translate(-285 -3297.908)">
    <g id="Grupo_1074657" data-name="Grupo 1074657" transform="translate(285 3297.908)">
      <g id="Grupo_1074656" data-name="Grupo 1074656" transform="translate(0)" clip-path="url(#clip-path)">
        <path id="Trazado_616333" data-name="Trazado 616333" d="M290.507,145.7c0,78.258-64.137,141.7-143.253,141.7S4,223.956,4,145.7,68.137,4,147.254,4,290.507,67.44,290.507,145.7" transform="translate(0.246 0.246)" fill="#c7e3d7"/>
        <path id="Trazado_616334" data-name="Trazado 616334" d="M147.5,291.889C66.169,291.889,0,226.419,0,145.944S66.169,0,147.5,0,295,65.47,295,145.944,228.831,291.889,147.5,291.889m0-283.4C70.851,8.493,8.493,70.153,8.493,145.944S70.851,283.4,147.5,283.4s139.007-61.66,139.007-137.453S224.149,8.493,147.5,8.493" fill="#196442"/>
        <line id="Línea_2922" data-name="Línea 2922" x2="201.699" y2="201.699" transform="translate(41.638 52.681)" fill="none" stroke="#196442" stroke-miterlimit="10" stroke-width="6"/>
      </g>
    </g>
    <g id="Grupo_1074659" data-name="Grupo 1074659" transform="translate(494.73 3490.242)">
      <path id="Trazado_641876" data-name="Trazado 641876" d="M-10.762-12.937l-.193,2.1-.483.009A4.815,4.815,0,0,0-15.79-7.506a3.43,3.43,0,0,1,2.575-1.046,2.833,2.833,0,0,1,1.753.58,3.226,3.226,0,0,1,1.05,1.538,5.262,5.262,0,0,1,.237,2.153,5.107,5.107,0,0,1-.751,2.3A4.544,4.544,0,0,1-12.617-.365a4.4,4.4,0,0,1-2.259.549,3.685,3.685,0,0,1-2.158-.708,3.815,3.815,0,0,1-1.314-1.841,5.8,5.8,0,0,1-.272-2.549l.1-.791A8.6,8.6,0,0,1-16.1-10.973,6.873,6.873,0,0,1-11.1-12.937Zm-3.3,6.407a1.95,1.95,0,0,0-1.151.317,2.858,2.858,0,0,0-.844.854l-.114.793A6.709,6.709,0,0,0-16.2-3.7a2.32,2.32,0,0,0,.378,1.33,1.2,1.2,0,0,0,1.02.511,1.692,1.692,0,0,0,1.187-.423,2.622,2.622,0,0,0,.791-1.206,3.539,3.539,0,0,0,.167-1.541A1.89,1.89,0,0,0-13.1-6.121,1.256,1.256,0,0,0-14.058-6.53ZM-.734-1.863A1.628,1.628,0,0,0,.409-2.237a1.836,1.836,0,0,0,.6-1.042l2.329-.009a3.416,3.416,0,0,1-.628,1.8A3.818,3.818,0,0,1,1.2-.237,4.327,4.327,0,0,1-.8.185a3.514,3.514,0,0,1-2.742-1.2,4.461,4.461,0,0,1-.976-3.111l.026-.483.009-.1A5.945,5.945,0,0,1-2.914-8.38,4.231,4.231,0,0,1,.365-9.686a3.428,3.428,0,0,1,2.553,1.05,3.71,3.71,0,0,1,.927,2.676H1.534a1.947,1.947,0,0,0-.334-1.2,1.269,1.269,0,0,0-1-.475Q-1.578-7.69-1.956-5.045a8.755,8.755,0,0,0-.1,1.617Q-1.964-1.89-.734-1.863ZM8.249-9.519l-.2,1.081a3.5,3.5,0,0,1,2.786-1.248,2.676,2.676,0,0,1,1.459.4,1.889,1.889,0,0,1,.782,1.046,3.662,3.662,0,0,1,2.953-1.45,2.391,2.391,0,0,1,1.973.9,3.68,3.68,0,0,1,.558,2.514l-.018.22L17.53,0H15.042l1.011-6.08a4.4,4.4,0,0,0,.026-.607.942.942,0,0,0-1.055-.95,2.093,2.093,0,0,0-1.749,1.091l-.026.2L12.142,0H9.664l1.011-6.056a4.386,4.386,0,0,0,.026-.606A.94.94,0,0,0,9.655-7.62a2.1,2.1,0,0,0-1.7.888L6.772,0H4.293L5.937-9.51Z" transform="translate(21.27 19.758)" fill="#12263f" stroke="rgba(0,0,0,0)" stroke-width="1"/>
    </g>
  </g>
</svg>
