<svg xmlns="http://www.w3.org/2000/svg" xmlns:xlink="http://www.w3.org/1999/xlink" width="121.668" height="125" viewBox="0 0 121.668 125">
  <defs>
    <clipPath id="clip-path">
      <path id="Trazado_616075" data-name="Trazado 616075" d="M0,0H72.6V56.362H0Z" fill="#a7b9e8"/>
    </clipPath>
  </defs>
  <g id="img9" transform="translate(-1085 -2785.398)">
    <g id="Grupo_1074459" data-name="Grupo 1074459" transform="translate(696.332 -3211.602)">
      <g id="Grupo_1072788" data-name="Grupo 1072788" transform="translate(13.999 114.601)">
        <g id="Grupo_1072785" data-name="Grupo 1072785" transform="translate(386.668 5997)">
          <path id="Trazado_608385" data-name="Trazado 608385" d="M48.909,0C75.921,0,97.818,2.328,97.818,5.2s-21.9,5.2-48.909,5.2S0,8.071,0,5.2,21.9,0,48.909,0Z" transform="translate(0 0)" fill="none"/>
        </g>
        <g id="Grupo_1073383" data-name="Grupo 1073383" transform="translate(386.668 5997)">
          <path id="Trazado_608385-2" data-name="Trazado 608385" d="M48.909,0C75.921,0,97.818,2.328,97.818,5.2s-21.9,5.2-48.909,5.2S0,8.071,0,5.2,21.9,0,48.909,0Z" transform="translate(0 0)" fill="#11462e"/>
        </g>
      </g>
      <g id="Grupo_1073526" data-name="Grupo 1073526" transform="translate(2)">
        <g id="Grupo_1072785-2" data-name="Grupo 1072785" transform="translate(386.668 5997)">
          <path id="Trazado_608385-3" data-name="Trazado 608385" d="M60.834,0A60.834,60.834,0,1,1,0,60.834,60.834,60.834,0,0,1,60.834,0Z" transform="translate(0 0)" fill="none"/>
        </g>
        <g id="Grupo_1073383-2" data-name="Grupo 1073383" transform="translate(386.668 5997)">
          <path id="Trazado_608385-4" data-name="Trazado 608385" d="M60.834,0A60.834,60.834,0,1,1,0,60.834,60.834,60.834,0,0,1,60.834,0Z" transform="translate(0 0)" fill="#fff"/>
        </g>
      </g>
    </g>
    <g id="Grupo_1074500" data-name="Grupo 1074500" transform="translate(0 -37.602)">
      <rect id="Rectángulo_379255" data-name="Rectángulo 379255" width="73" height="73" transform="translate(1107 2849)" fill="#fff"/>
      <g id="Grupo_1074499" data-name="Grupo 1074499" transform="translate(1107.399 2857.652)">
        <g id="Enmascarar_grupo_1074747" data-name="Enmascarar grupo 1074747" transform="translate(0 0)" clip-path="url(#clip-path)">
          <path id="Trazado_616064" data-name="Trazado 616064" d="M72.6,63.059h0a8.674,8.674,0,0,1-8.673,8.673H8.673A8.674,8.674,0,0,1,0,63.059Z" transform="translate(0 -15.371)" fill="#d3f4fe"/>
          <path id="Trazado_616065" data-name="Trazado 616065" d="M69.276,5.863V47.693H6.487V5.863A5.859,5.859,0,0,1,12.349,0H63.413a5.859,5.859,0,0,1,5.862,5.862" transform="translate(-1.581 -0.001)" fill="#d3f4fe"/>
          <path id="Trazado_616066" data-name="Trazado 616066" d="M69.274,5.861V47.689H6.49V41.844H63.428V0a5.858,5.858,0,0,1,5.846,5.861" transform="translate(-1.582 0)" fill="#b8dee9"/>
          <path id="Trazado_616076" data-name="Trazado 616076" d="M0,0H51.063V35.966H0Z" transform="translate(10.769 5.862)" fill="#7787b1"/>
          <path id="Trazado_616067" data-name="Trazado 616067" d="M65.3,7.75V43.717H14.24Z" transform="translate(-3.471 -1.889)" fill="#2d4587"/>
          <path id="Trazado_616068" data-name="Trazado 616068" d="M54.03,29.837A12.213,12.213,0,1,1,41.806,17.622V29.837Z" transform="translate(-7.215 -4.296)" fill="#b4df80"/>
          <path id="Trazado_616069" data-name="Trazado 616069" d="M62.459,25.343H50.239V13.131a12.23,12.23,0,0,1,12.22,12.212" transform="translate(-12.246 -3.201)" fill="#6fd9fb"/>
          <path id="Trazado_616070" data-name="Trazado 616070" d="M55.832,63.064a3.706,3.706,0,0,1-3.707,3.7H34.7A3.706,3.706,0,0,1,31,63.064Z" transform="translate(-7.555 -15.372)" fill="#656d78"/>
          <path id="Trazado_616071" data-name="Trazado 616071" d="M59.762,20.188a.756.756,0,0,1-.544-1.281l4.58-4.745a.757.757,0,0,1,.545-.231h8.425a.756.756,0,0,1,0,1.513h-8.1l-4.358,4.513a.754.754,0,0,1-.544.231" transform="translate(-14.383 -3.396)" fill="#fff"/>
          <path id="Trazado_616072" data-name="Trazado 616072" d="M75.011,19.945H68.964a.756.756,0,0,1,0-1.513h6.047a.756.756,0,0,1,0,1.513" transform="translate(-16.625 -4.493)" fill="#fff"/>
          <path id="Trazado_616073" data-name="Trazado 616073" d="M27.984,47.1H19.558a.756.756,0,0,1,0-1.513h8.106l4.357-4.513a.756.756,0,1,1,1.088,1.05l-4.581,4.744a.753.753,0,0,1-.544.231" transform="translate(-4.583 -9.955)" fill="#fff"/>
          <path id="Trazado_616074" data-name="Trazado 616074" d="M25.428,43.627H19.558a.756.756,0,0,1,0-1.513h5.869a.756.756,0,1,1,0,1.513" transform="translate(-4.583 -10.265)" fill="#fff"/>
        </g>
      </g>
    </g>
  </g>
</svg>
